<svg height="256" viewBox="0 0 256 256" width="256" xmlns="http://www.w3.org/2000/svg"><path d="m0 0h256v256h-256z" fill="#fff"/><ellipse cx="114.6" cy="116.1" fill="#ff7f7f" fill-rule="evenodd" rx="8.5" ry="8.5" stroke="#ff7f7f"/><g fill="none" stroke="#000" stroke-width="2"><path d="m215 117.1-12.3-16.8"/><path d="m202.7 100.3 11.5-25.8"/><path d="m199.9 96.3 9.4-21.3"/><path d="m214.2 74.5-16.6-22.8"/><path d="m197.6 51.7 7.3-16.4"/><path d="m197.6 51.7-28.1 3"/><path d="m195.6 56.2-23.2 2.4"/><path d="m169.5 54.7-11.4 25.8"/><path d="m158.1 80.5 16.6 22.8"/><path d="m162.9 79.9 13.8 18.9"/><path d="m174.7 103.3-8.8 19.8"/><path d="m168.7 138.5 8.7 15"/><path d="m177.4 153.5-18.9 21"/><path d="m158.5 174.5-19.8-8.8"/><path d="m133.3 157 2.3-22.1"/><path d="m138.2 134.4-16.1-14.5"/><path d="m135.4 137.6-16.2-14.5"/><path d="m126.7 166.5-18.4 10.7"/><path d="m108.3 177.2v28.2"/><path d="m104 179.6.1 23.3"/><path d="m108.3 205.4 18.4 10.6"/><path d="m108.3 205.4-24.4 14.1"/><path d="m83.9 219.5-24.5-14.1"/><path d="m83.9 214.6-20.3-11.6"/><path d="m59.4 205.4v-28.2"/><path d="m59.4 177.2 24.4-14.1"/><path d="m63.6 179.6 20.2-11.7"/><path d="m83.8 163.1v-18.9"/><path d="m59.4 205.4-18.4 10.7"/><path d="m158.1 80.5-22.1 2.3"/><path d="m174.7 103.3 28-3"/><path d="m135.6 134.9 21.6-4.6"/><path d="m83.8 163.1 24.5 14.1"/><path d="m213.6 75.8.6-1.3-.8-1.1" stroke-miterlimit="10"/><path d="m170.9 54.5-1.4.2-.5 1.2" stroke-miterlimit="10"/><path d="m176.9 152.7.5.8-1 1" stroke-miterlimit="10"/><path d="m159.4 173.4-.9 1.1-1-.5" stroke-miterlimit="10"/><path d="m135.5 136.1.1-1.2 1.1-.2" stroke-miterlimit="10"/><path d="m85.1 218.8-1.2.7-1.3-.7" stroke-miterlimit="10"/><path d="m59.4 178.6v-1.4l1.2-.7" stroke-miterlimit="10"/></g><text font-family="sans-serif" font-size="16" x="214.3" y="131.6">C</text><text font-family="sans-serif" font-size="16" x="226" y="131.6">H</text><text font-family="sans-serif" font-size="11" x="237.6" y="138.4">3</text><text font-family="sans-serif" font-size="16" x="204" y="34.4">C</text><text font-family="sans-serif" font-size="16" x="215.6" y="34.4">H</text><text font-family="sans-serif" font-size="11" x="227.3" y="41.1">3</text><text font-family="sans-serif" font-size="16" x="158.1" y="137.5">N</text><text font-family="sans-serif" font-size="16" x="127.6" y="171.5">N</text><text x="109.6" y="124.6"/><text font-family="sans-serif" font-size="16" x="127.7" y="227.9">C</text><text font-family="sans-serif" font-size="16" x="139.3" y="227.9">H</text><text font-family="sans-serif" font-size="11" x="151" y="234.7">3</text><text font-family="sans-serif" font-size="16" x="78.7" y="143.3">C</text><text font-family="sans-serif" font-size="16" x="90.4" y="143.3">H</text><text font-family="sans-serif" font-size="11" x="102.1" y="150.1">3</text><text font-family="sans-serif" font-size="16" x="12.8" y="228">H</text><text font-family="sans-serif" font-size="11" x="24.5" y="234.8">3</text><text font-family="sans-serif" font-size="16" x="29.9" y="228">C</text><text font-family="sans-serif" font-size="16" x="107.8" y="91.9">H</text><text font-family="sans-serif" font-size="11" x="119.5" y="98.7">3</text><text font-family="sans-serif" font-size="16" x="124.9" y="91.9">C</text></svg>