<svg height="256" viewBox="0 0 256 256" width="256" xmlns="http://www.w3.org/2000/svg"><path d="m0 0h256v256h-256z" fill="#fff"/><ellipse cx="37.9" cy="186.4" fill="#ff7f7f" fill-rule="evenodd" rx="25.1" ry="25.1" stroke="#ff7f7f"/><g fill="none" stroke="#000" stroke-width="2"><path d="m125.1 151.2 61.7 27.5"/><path d="m186.8 178.7 56-62.1"/><path d="m242.8 116.6-41.7-72.5"/><path d="m201.1 44.1-81.9 17.3"/><path d="m119.2 61.4-7.2 68.5"/><path d="m95.6 153.1-42.9 24.8"/><path d="m183.7 177.3 3.1 1.4 2.8-3.1" stroke-miterlimit="10"/><path d="m240 119.7 2.8-3.1-2.1-3.6" stroke-miterlimit="10"/><path d="m203.1 47.8-2-3.7-4.1.9" stroke-miterlimit="10"/><path d="m123.3 60.6-4.1.8-.3 3.5" stroke-miterlimit="10"/></g><text x="25.9" y="206.4"/><text font-family="sans-serif" font-size="40" x="98.4" y="164.6">O</text></svg>