<svg height="256" viewBox="0 0 256 256" width="256" xmlns="http://www.w3.org/2000/svg"><path d="m0 0h256v256h-256z" fill="#fff"/><ellipse cx="198.7" cy="127.7" fill="#ff7f7f" fill-rule="evenodd" rx="11.5" ry="11.5" stroke="#ff7f7f"/><g fill="none" stroke="#000" stroke-width="2"><path d="m152.2 127.8-30.2.1"/><path d="m122 127.9-19 33.3"/><path d="m115.4 127.9-15.8 27.5"/><path d="m103 161.2-38.4.1"/><path d="m64.6 161.3-19.2-33.2"/><path d="m67.9 155.5-15.9-27.4"/><path d="m45.4 128.1 19.1-33.2"/><path d="m64.5 94.9 38.3-.1"/><path d="m67.8 100.6 31.7-.1"/><path d="m160.4 140.6.1 25.5"/><path d="m160.5 166.1 33.2 19.1"/><path d="m160.5 172.8 27.5 15.7"/><path d="m193.7 185.2.2 38.3"/><path d="m193.9 223.5-33.2 19.3"/><path d="m188.1 220.2-27.4 16"/><path d="m160.7 242.8-33.2-19.1"/><path d="m127.5 223.7-.2-38.3"/><path d="m133.2 220.4-.1-31.7"/><path d="m160.4 119.6-.1-30.1"/><path d="m160.3 89.5-33.3-19.1"/><path d="m160.3 82.8-27.5-15.7"/><path d="m127 70.4-.1-38.3"/><path d="m126.9 32.1 33.2-19.3"/><path d="m132.7 35.4 27.4-16"/><path d="m160.1 12.8 33.2 19.1"/><path d="m193.3 31.9.1 38.3"/><path d="m187.6 35.2.1 31.7"/><path d="m102.8 94.8 19.2 33.1"/><path d="m127.3 185.4 33.2-19.3"/><path d="m193.4 70.2-33.1 19.3"/><path d="m168.5 127.8 22.1-.1"/><path d="m103.9 159.5-.9 1.7h-1.9" stroke-miterlimit="10"/><path d="m66.6 161.3h-2l-.9-1.7" stroke-miterlimit="10"/><path d="m46.3 129.8-.9-1.7.9-1.6" stroke-miterlimit="10"/><path d="m63.5 96.5 1-1.6h1.9" stroke-miterlimit="10"/><path d="m100.9 94.8h1.9l1 1.6" stroke-miterlimit="10"/><path d="m192.1 184.3 1.6.9v1.9" stroke-miterlimit="10"/><path d="m193.8 221.6.1 1.9-1.7 1" stroke-miterlimit="10"/><path d="m162.4 241.8-1.7 1-1.7-1" stroke-miterlimit="10"/><path d="m129.1 224.7-1.6-1-.1-1.9" stroke-miterlimit="10"/><path d="m127.4 187.3-.1-1.9 1.7-1" stroke-miterlimit="10"/><path d="m128.7 71.3-1.7-.9v-1.9" stroke-miterlimit="10"/><path d="m126.9 34v-1.9l1.7-1" stroke-miterlimit="10"/><path d="m158.4 13.8 1.7-1 1.6 1" stroke-miterlimit="10"/><path d="m191.7 30.9 1.6 1v1.9" stroke-miterlimit="10"/><path d="m193.4 68.3v1.9l-1.6 1" stroke-miterlimit="10"/></g><text x="191.8" y="139.2"/><text font-family="sans-serif" font-size="23" x="153.5" y="139.3">P</text></svg>