<svg xmlns="http://www.w3.org/2000/svg" xmlns:rdkit="http://www.rdkit.org/xml" xmlns:xlink="http://www.w3.org/1999/xlink" width="256" height="256" baseProfile="full" version="1.1" viewBox="0 0 256 256" xml:space="preserve"><rect style="opacity:1;fill:#fff;stroke:none" width="256" height="256" x="0" y="0"/><path d="M 11.6364,35.1593 L 65.6865,66.1021" class="bond-0" style="fill:none;fill-rule:evenodd;stroke:#7f7f7f;stroke-width:4px;stroke-linecap:butt;stroke-linejoin:miter;stroke-opacity:1"/><path d="M 65.6865,66.1021 L 119.737,97.0448" class="bond-0" style="fill:none;fill-rule:evenodd;stroke:#000;stroke-width:4px;stroke-linecap:butt;stroke-linejoin:miter;stroke-opacity:1"/><path d="M 125.376,106.734 L 169.862,80.8414" class="bond-1" style="fill:none;fill-rule:evenodd;stroke:#000;stroke-width:4px;stroke-linecap:butt;stroke-linejoin:miter;stroke-opacity:1"/><path d="M 169.862,80.8414 L 214.349,54.9486" class="bond-1" style="fill:none;fill-rule:evenodd;stroke:red;stroke-width:4px;stroke-linecap:butt;stroke-linejoin:miter;stroke-opacity:1"/><path d="M 114.097,87.3554 L 158.583,61.4626" class="bond-1" style="fill:none;fill-rule:evenodd;stroke:#000;stroke-width:4px;stroke-linecap:butt;stroke-linejoin:miter;stroke-opacity:1"/><path d="M 158.583,61.4626 L 203.069,35.5699" class="bond-1" style="fill:none;fill-rule:evenodd;stroke:red;stroke-width:4px;stroke-linecap:butt;stroke-linejoin:miter;stroke-opacity:1"/><path d="M 119.737,97.0448 L 119.925,149.329" class="bond-2" style="fill:none;fill-rule:evenodd;stroke:#000;stroke-width:4px;stroke-linecap:butt;stroke-linejoin:miter;stroke-opacity:1"/><path d="M 119.925,149.329 L 120.113,201.613" class="bond-2" style="fill:none;fill-rule:evenodd;stroke:#cc0;stroke-width:4px;stroke-linecap:butt;stroke-linejoin:miter;stroke-opacity:1"/><path d="M-19.3081,89.2125 C-12.6134,90.0548 -11.3241,87.8025 -15.4401,82.4559 C-19.556,77.1092 -18.2667,74.857 -11.572,75.6992 C-4.87732,76.5415 -3.58797,74.2892 -7.70394,68.9426 C-11.8199,63.5959 -10.5305,61.3437 -3.83588,62.1859 C2.8588,63.0282 4.14815,60.776 0.0321841,55.4293 C-4.08378,50.0826 -2.79443,47.8304 3.90024,48.6726 C10.5949,49.5149 11.8843,47.2627 7.7683,41.916 C3.65234,36.5693 4.94169,34.3171 11.6364,35.1593 C18.331,36.0016 19.6204,33.7494 15.5044,28.4027 C11.3885,23.056 12.6778,20.8038 19.3725,21.6461 C26.0672,22.4883 27.3565,20.2361 23.2405,14.8894 C19.1246,9.54274 20.4139,7.29053 27.1086,8.13276 C33.8033,8.97499 35.0926,6.72278 30.9767,1.37611 C26.8607,-3.97055 28.1501,-6.22277 34.8447,-5.38053 C41.5394,-4.5383 42.8287,-6.79052 38.7128,-12.1372 C34.5968,-17.4838 35.8862,-19.7361 42.5808,-18.8938" style="fill:none;stroke:#7f7f7f;stroke-width:4px;stroke-linecap:butt;stroke-linejoin:miter;stroke-opacity:1"/><text x="212.709" y="40.387" dominant-baseline="central" text-anchor="start" style="font-size:40px;font-style:normal;font-weight:700;fill-opacity:1;stroke:none;font-family:sans-serif;fill:red"><tspan>O</tspan></text><text x="108.171" y="227.613" dominant-baseline="central" text-anchor="start" style="font-size:40px;font-style:normal;font-weight:700;fill-opacity:1;stroke:none;font-family:sans-serif;fill:#cc0"><tspan>SH</tspan></text></svg>