<svg height="256" viewBox="0 0 256 256" width="256" xmlns="http://www.w3.org/2000/svg"><path d="m0 0h256v256h-256z" fill="#fff"/><g fill="none" stroke-width="2"><path d="m45.3 63 89.5 51.2" stroke="#000"/><path d="m134.8 123.2 77.6-45.2" stroke="#000"/><path d="m127 109.8 77.6-45.2" stroke="#000"/><path d="m134.8 114.2.3 87.7" stroke="#000"/><path d="m130.3 111.7 4.5 2.5v4.4" stroke="#000" stroke-miterlimit="10"/><path d="m19.704 107.746c3.356 1.921 5.917-2.553 2.562-4.474-3.356-1.921-.795-6.395 2.561-4.474 3.355 1.921 5.916-2.553 2.561-4.474s-.794-6.395 2.561-4.474c3.356 1.921 5.917-2.553 2.562-4.474-3.356-1.921-.794-6.395 2.561-4.474s5.917-2.553 2.561-4.474c-3.355-1.921-.794-6.395 2.562-4.474 3.355 1.921 5.916-2.553 2.561-4.474-3.356-1.921-.794-6.395 2.561-4.474s5.917-2.553 2.561-4.474c-3.355-1.921-.794-6.395 2.562-4.474 3.355 1.921 5.916-2.553 2.561-4.474s-.794-6.395 2.561-4.474c3.356 1.921 5.917-2.553 2.562-4.474-3.356-1.921-.795-6.395 2.561-4.474 3.355 1.921 5.916-2.553 2.561-4.474s-.794-6.395 2.561-4.474c3.356 1.921 5.917-2.553 2.562-4.474-3.356-1.921-.794-6.395 2.561-4.474" stroke="#7f7f7f"/></g><text font-family="sans-serif" font-size="40" x="211.9" y="82.4">O</text><text font-family="sans-serif" font-size="40" x="124.1" y="237.3">S</text><text font-family="sans-serif" font-size="40" x="149.6" y="237.3">H</text></svg>