<svg xmlns="http://www.w3.org/2000/svg" xmlns:rdkit="http://www.rdkit.org/xml" xmlns:xlink="http://www.w3.org/1999/xlink" width="256" height="256" baseProfile="full" version="1.1" viewBox="0 0 256 256" xml:space="preserve"><rect style="opacity:1;fill:#fff;stroke:none" width="256" height="256" x="0" y="0"/><path d="M 11.6364,207.282 L 57.7928,180.858" class="bond-0" style="fill:none;fill-rule:evenodd;stroke:#7f7f7f;stroke-width:4px;stroke-linecap:butt;stroke-linejoin:miter;stroke-opacity:1"/><path d="M 57.7928,180.858 L 103.949,154.434" class="bond-0" style="fill:none;fill-rule:evenodd;stroke:#000;stroke-width:4px;stroke-linecap:butt;stroke-linejoin:miter;stroke-opacity:1"/><path d="M 113.523,154.469 L 113.679,111.281" class="bond-1" style="fill:none;fill-rule:evenodd;stroke:#000;stroke-width:4px;stroke-linecap:butt;stroke-linejoin:miter;stroke-opacity:1"/><path d="M 113.679,111.281 L 113.834,68.093" class="bond-1" style="fill:none;fill-rule:evenodd;stroke:#cc0;stroke-width:4px;stroke-linecap:butt;stroke-linejoin:miter;stroke-opacity:1"/><path d="M 94.3756,154.4 L 94.531,111.212" class="bond-1" style="fill:none;fill-rule:evenodd;stroke:#000;stroke-width:4px;stroke-linecap:butt;stroke-linejoin:miter;stroke-opacity:1"/><path d="M 94.531,111.212 L 94.6865,68.0241" class="bond-1" style="fill:none;fill-rule:evenodd;stroke:#cc0;stroke-width:4px;stroke-linecap:butt;stroke-linejoin:miter;stroke-opacity:1"/><path d="M 103.949,154.434 L 140.575,175.752" class="bond-2" style="fill:none;fill-rule:evenodd;stroke:#000;stroke-width:4px;stroke-linecap:butt;stroke-linejoin:miter;stroke-opacity:1"/><path d="M 140.575,175.752 L 177.2,197.069" class="bond-2" style="fill:none;fill-rule:evenodd;stroke:red;stroke-width:4px;stroke-linecap:butt;stroke-linejoin:miter;stroke-opacity:1"/><path d="M38.0616,253.441 C41.5765,248.875 40.4754,246.952 34.7585,247.671 C29.0415,248.39 27.9404,246.467 31.4553,241.901 C34.9702,237.335 33.8691,235.412 28.1521,236.131 C22.4352,236.851 21.3341,234.927 24.849,230.361 C28.3638,225.796 27.2628,223.872 21.5458,224.592 C15.8289,225.311 14.7278,223.388 18.2427,218.822 C21.7575,214.256 20.6565,212.333 14.9395,213.052 C9.22256,213.771 8.12151,211.848 11.6364,207.282 C15.1512,202.716 14.0502,200.793 8.33321,201.512 C2.61625,202.231 1.51519,200.308 5.03005,195.742 C8.54491,191.176 7.44385,189.253 1.72689,189.972 C-3.99007,190.691 -5.09112,188.768 -1.57626,184.202 C1.93859,179.637 0.837541,177.713 -4.87942,178.432 C-10.5964,179.152 -11.6974,177.228 -8.18258,172.663 C-4.66772,168.097 -5.76877,166.173 -11.4857,166.893 C-17.2027,167.612 -18.3037,165.689 -14.7889,161.123" style="fill:none;stroke:#7f7f7f;stroke-width:4px;stroke-linecap:butt;stroke-linejoin:miter;stroke-opacity:1"/><text x="92.318" y="54.059" dominant-baseline="central" text-anchor="start" style="font-size:40px;font-style:normal;font-weight:700;fill-opacity:1;stroke:none;font-family:sans-serif;fill:#cc0"><tspan>S</tspan></text><text x="181.2" y="213.941" dominant-baseline="central" text-anchor="start" style="font-size:40px;font-style:normal;font-weight:700;fill-opacity:1;stroke:none;font-family:sans-serif;fill:red"><tspan>OH</tspan></text></svg>