<svg xmlns="http://www.w3.org/2000/svg" xmlns:rdkit="http://www.rdkit.org/xml" xmlns:xlink="http://www.w3.org/1999/xlink" width="256" height="256" baseProfile="full" version="1.1" viewBox="0 0 256 256" xml:space="preserve"><rect style="opacity:1;fill:#fff;stroke:none" width="256" height="256" x="0" y="0"/><path d="M 11.6364,208.323 L 58.3988,181.552" class="bond-0" style="fill:none;fill-rule:evenodd;stroke:#7f7f7f;stroke-width:4px;stroke-linecap:butt;stroke-linejoin:miter;stroke-opacity:1"/><path d="M 58.3988,181.552 L 105.161,154.781" class="bond-0" style="fill:none;fill-rule:evenodd;stroke:#000;stroke-width:4px;stroke-linecap:butt;stroke-linejoin:miter;stroke-opacity:1"/><path d="M 114.861,154.816 L 115.019,110.93" class="bond-1" style="fill:none;fill-rule:evenodd;stroke:#000;stroke-width:4px;stroke-linecap:butt;stroke-linejoin:miter;stroke-opacity:1"/><path d="M 115.019,110.93 L 115.177,67.0439" class="bond-1" style="fill:none;fill-rule:evenodd;stroke:#cc0;stroke-width:4px;stroke-linecap:butt;stroke-linejoin:miter;stroke-opacity:1"/><path d="M 95.4618,154.747 L 95.6198,110.86" class="bond-1" style="fill:none;fill-rule:evenodd;stroke:#000;stroke-width:4px;stroke-linecap:butt;stroke-linejoin:miter;stroke-opacity:1"/><path d="M 95.6198,110.86 L 95.7778,66.9741" class="bond-1" style="fill:none;fill-rule:evenodd;stroke:#cc0;stroke-width:4px;stroke-linecap:butt;stroke-linejoin:miter;stroke-opacity:1"/><path d="M 105.161,154.781 L 143.723,177.226" class="bond-2" style="fill:none;fill-rule:evenodd;stroke:#000;stroke-width:4px;stroke-linecap:butt;stroke-linejoin:miter;stroke-opacity:1"/><path d="M 143.723,177.226 L 182.284,199.67" class="bond-2" style="fill:none;fill-rule:evenodd;stroke:#cc0;stroke-width:4px;stroke-linecap:butt;stroke-linejoin:miter;stroke-opacity:1"/><path d="M38.4086,255.088 C41.9696,250.462 40.8541,248.514 35.062,249.242 C29.27,249.971 28.1545,248.022 31.7155,243.397 C35.2765,238.771 34.161,236.822 28.369,237.551 C22.577,238.28 21.4615,236.331 25.0225,231.705 C28.5835,227.08 27.468,225.131 21.6759,225.86 C15.8839,226.588 14.7684,224.64 18.3294,220.014 C21.8904,215.388 20.7749,213.44 14.9829,214.168 C9.19087,214.897 8.07536,212.949 11.6364,208.323 C15.1974,203.697 14.0819,201.749 8.28984,202.477 C2.49782,203.206 1.38231,201.257 4.94332,196.632 C8.50432,192.006 7.38881,190.057 1.59679,190.786 C-4.19523,191.515 -5.31074,189.566 -1.74973,184.94 C1.81127,180.314 0.695763,178.366 -5.09626,179.095 C-10.8883,179.823 -12.0038,177.875 -8.44278,173.249 C-4.88178,168.623 -5.99729,166.675 -11.7893,167.403 C-17.5813,168.132 -18.6968,166.183 -15.1358,161.558" style="fill:none;stroke:#7f7f7f;stroke-width:4px;stroke-linecap:butt;stroke-linejoin:miter;stroke-opacity:1"/><text x="93.535" y="53.009" dominant-baseline="central" text-anchor="start" style="font-size:40px;font-style:normal;font-weight:700;fill-opacity:1;stroke:none;font-family:sans-serif;fill:#cc0"><tspan>S</tspan></text><text x="186.284" y="214.991" dominant-baseline="central" text-anchor="start" style="font-size:40px;font-style:normal;font-weight:700;fill-opacity:1;stroke:none;font-family:sans-serif;fill:#cc0"><tspan>SH</tspan></text></svg>