<svg height="256" viewBox="0 0 256 256" width="256" xmlns="http://www.w3.org/2000/svg"><path d="m0 0h256v256h-256z" fill="#fff"/><g fill="none" stroke-width="2"><path d="m41.9 181.6 78-44.7" stroke="#000"/><path d="m126.7 140.8.2-70.9" stroke="#000"/><path d="m113.2 140.8.2-70.9" stroke="#000"/><path d="m119.9 136.9 63.7 37.1" stroke="#000"/><path d="m116 139.2 3.9-2.3 3.2 1.9" stroke="#000" stroke-miterlimit="10"/><path d="m64.208 220.647c2.928-1.676.693-5.579-2.235-3.903-2.927 1.676-5.162-2.228-2.235-3.904 2.928-1.676.693-5.58-2.234-3.904-2.928 1.676-5.163-2.227-2.235-3.903 2.927-1.677.693-5.58-2.235-3.904s-5.163-2.228-2.235-3.904.693-5.58-2.235-3.904c-2.927 1.676-5.162-2.227-2.235-3.903 2.928-1.676.693-5.58-2.234-3.904-2.928 1.676-5.163-2.228-2.235-3.904s.693-5.58-2.235-3.904-5.162-2.227-2.235-3.903c2.928-1.676.693-5.58-2.235-3.904-2.927 1.676-5.162-2.228-2.234-3.904 2.927-1.676.692-5.58-2.235-3.904-2.928 1.676-5.163-2.227-2.235-3.903s.693-5.58-2.235-3.904-5.162-2.228-2.235-3.904c2.928-1.676.693-5.58-2.235-3.904-2.927 1.676-5.162-2.227-2.234-3.903" stroke="#7f7f7f"/></g><text font-family="sans-serif" font-size="40" x="108.3" y="67">S</text><text font-family="sans-serif" font-size="40" x="186.6" y="202.2">S</text><text font-family="sans-serif" font-size="40" x="212.1" y="202.2">H</text></svg>