<svg height="256" viewBox="0 0 256 256" width="256" xmlns="http://www.w3.org/2000/svg"><path d="m0 0h256v256h-256z" fill="#fff"/><g fill="none" stroke-width="2"><path d="m227 132.1-54.8-31.6" stroke="#000"/><path d="m176.9 103.3-.1-45" stroke="#000"/><path d="m167.4 103.3-.1-45" stroke="#000"/><path d="m172.2 100.5-41.3 24" stroke="#000"/><path d="m103.9 124.5-27.9-16" stroke="#000"/><path d="m117.5 153.4v28.7" stroke="#000"/><path d="m174.9 102.1-2.7-1.6-2.1 1.2" stroke="#000" stroke-miterlimit="10"/><path d="m242.8 104.63c-2.058-1.182-3.634 1.562-1.576 2.744 2.057 1.182.481 3.926-1.577 2.743-2.058-1.182-3.634 1.562-1.576 2.744 2.057 1.182.481 3.926-1.577 2.743-2.058-1.182-3.634 1.562-1.576 2.744 2.057 1.182.481 3.926-1.577 2.743-2.057-1.182-3.634 1.561-1.576 2.744 2.057 1.182.481 3.926-1.577 2.743-2.057-1.182-3.634 1.561-1.576 2.744 2.057 1.182.481 3.926-1.577 2.743-2.057-1.182-3.634 1.561-1.576 2.744 2.057 1.182.481 3.926-1.577 2.743-2.057-1.182-3.634 1.561-1.576 2.744 2.057 1.182.481 3.926-1.577 2.743-2.057-1.182-3.634 1.561-1.576 2.744 2.057 1.182.481 3.926-1.577 2.743-2.057-1.182-3.634 1.561-1.576 2.744 2.057 1.182.481 3.926-1.577 2.743-2.057-1.182-3.634 1.561-1.576 2.744 2.058 1.182.481 3.926-1.577 2.743" stroke="#7f7f7f"/></g><text font-family="sans-serif" font-size="37" x="160.6" y="56.2">S</text><text font-family="sans-serif" font-size="37" x="106" y="151.3">N</text><text font-family="sans-serif" font-size="37" x="12.8" y="119.7">H</text><text font-family="sans-serif" font-size="25" x="39" y="134.9">3</text><text font-family="sans-serif" font-size="37" x="51.2" y="119.7">C</text><text font-family="sans-serif" font-size="37" x="106.2" y="214.5">C</text><text font-family="sans-serif" font-size="37" x="132.4" y="214.5">H</text><text font-family="sans-serif" font-size="25" x="158.6" y="229.7">3</text></svg>