<svg xmlns="http://www.w3.org/2000/svg" xmlns:rdkit="http://www.rdkit.org/xml" xmlns:xlink="http://www.w3.org/1999/xlink" width="256" height="256" baseProfile="full" version="1.1" viewBox="0 0 256 256" xml:space="preserve"><rect style="opacity:1;fill:#fff;stroke:none" width="256" height="256" x="0" y="0"/><path d="M 11.6364,119.705 L 70.0282,119.495" class="bond-0" style="fill:none;fill-rule:evenodd;stroke:#7f7f7f;stroke-width:4px;stroke-linecap:butt;stroke-linejoin:miter;stroke-opacity:1"/><path d="M 70.0282,119.495 L 128.42,119.285" class="bond-0" style="fill:none;fill-rule:evenodd;stroke:#000;stroke-width:4px;stroke-linecap:butt;stroke-linejoin:miter;stroke-opacity:1"/><path d="M 128.42,119.285 L 171.107,143.717" class="bond-1" style="fill:none;fill-rule:evenodd;stroke:#000;stroke-width:4px;stroke-linecap:butt;stroke-linejoin:miter;stroke-opacity:1"/><path d="M 171.107,143.717 L 213.794,168.149" class="bond-1" style="fill:none;fill-rule:evenodd;stroke:#cc0;stroke-width:4px;stroke-linecap:butt;stroke-linejoin:miter;stroke-opacity:1"/><path d="M 128.42,119.285 L 229.365,60.5077" class="bond-3" style="fill:none;fill-rule:evenodd;stroke:#000;stroke-width:4px;stroke-linecap:butt;stroke-linejoin:miter;stroke-opacity:1"/><path d="M 229.732,157.315 L 229.548,108.911" class="bond-2" style="fill:none;fill-rule:evenodd;stroke:#cc0;stroke-width:4px;stroke-linecap:butt;stroke-linejoin:miter;stroke-opacity:1"/><path d="M 229.548,108.911 L 229.365,60.5077" class="bond-2" style="fill:none;fill-rule:evenodd;stroke:#000;stroke-width:4px;stroke-linecap:butt;stroke-linejoin:miter;stroke-opacity:1"/><path d="M11.8467,178.109 C17.6782,175.654 17.6694,173.221 11.8204,170.808 C5.9713,168.396 5.96253,165.962 11.7941,163.508 C17.6256,161.053 17.6169,158.62 11.7678,156.207 C5.91872,153.795 5.90996,151.362 11.7415,148.907 C17.5731,146.453 17.5643,144.019 11.7152,141.607 C5.86615,139.194 5.85739,136.761 11.6889,134.306 C17.5205,131.852 17.5117,129.418 11.6627,127.006 C5.81358,124.593 5.80482,122.16 11.6364,119.705 C17.4679,117.251 17.4592,114.818 11.6101,112.405 C5.761,109.993 5.75224,107.559 11.5838,105.105 C17.4153,102.65 17.4066,100.217 11.5575,97.8043 C5.70843,95.3919 5.69967,92.9584 11.5312,90.5039 C17.3628,88.0494 17.354,85.616 11.5049,83.2035 C5.65586,80.7911 5.6471,78.3576 11.4786,75.9031 C17.3102,73.4486 17.3014,71.0152 11.4524,68.6027 C5.60328,66.1903 5.59452,63.7569 11.4261,61.3024" style="fill:none;stroke:#7f7f7f;stroke-width:4px;stroke-linecap:butt;stroke-linejoin:miter;stroke-opacity:1"/><text x="217.794" y="183.315" dominant-baseline="central" text-anchor="start" style="font-size:40px;font-style:normal;font-weight:700;fill-opacity:1;stroke:none;font-family:sans-serif;fill:#cc0"><tspan>S</tspan></text></svg>