<svg xmlns="http://www.w3.org/2000/svg" xmlns:rdkit="http://www.rdkit.org/xml" xmlns:xlink="http://www.w3.org/1999/xlink" width="256" height="256" baseProfile="full" version="1.1" viewBox="0 0 256 256" xml:space="preserve"><rect style="opacity:1;fill:#fff;stroke:none" width="256" height="256" x="0" y="0"/><path d="M 244.364,81.277 L 228.246,108.911" class="bond-0" style="fill:none;fill-rule:evenodd;stroke:#7f7f7f;stroke-width:3px;stroke-linecap:butt;stroke-linejoin:miter;stroke-opacity:1"/><path d="M 228.246,108.911 L 212.129,136.545" class="bond-0" style="fill:none;fill-rule:evenodd;stroke:#00f;stroke-width:3px;stroke-linecap:butt;stroke-linejoin:miter;stroke-opacity:1"/><path d="M 183.164,148.627 L 156.931,148.511" class="bond-1" style="fill:none;fill-rule:evenodd;stroke:#00f;stroke-width:3px;stroke-linecap:butt;stroke-linejoin:miter;stroke-opacity:1"/><path d="M 156.931,148.511 L 130.697,148.396" class="bond-1" style="fill:none;fill-rule:evenodd;stroke:#000;stroke-width:3px;stroke-linecap:butt;stroke-linejoin:miter;stroke-opacity:1"/><path d="M 183.095,164.311 L 156.862,164.196" class="bond-1" style="fill:none;fill-rule:evenodd;stroke:#00f;stroke-width:3px;stroke-linecap:butt;stroke-linejoin:miter;stroke-opacity:1"/><path d="M 156.862,164.196 L 130.628,164.08" class="bond-1" style="fill:none;fill-rule:evenodd;stroke:#000;stroke-width:3px;stroke-linecap:butt;stroke-linejoin:miter;stroke-opacity:1"/><path d="M 96.0275,148.244 L 69.134,148.125" class="bond-2" style="fill:none;fill-rule:evenodd;stroke:#000;stroke-width:3px;stroke-linecap:butt;stroke-linejoin:miter;stroke-opacity:1"/><path d="M 69.134,148.125 L 42.2405,148.007" class="bond-2" style="fill:none;fill-rule:evenodd;stroke:#cc0;stroke-width:3px;stroke-linecap:butt;stroke-linejoin:miter;stroke-opacity:1"/><path d="M 95.9585,163.928 L 69.065,163.81" class="bond-2" style="fill:none;fill-rule:evenodd;stroke:#000;stroke-width:3px;stroke-linecap:butt;stroke-linejoin:miter;stroke-opacity:1"/><path d="M 69.065,163.81 L 42.1715,163.691" class="bond-2" style="fill:none;fill-rule:evenodd;stroke:#cc0;stroke-width:3px;stroke-linecap:butt;stroke-linejoin:miter;stroke-opacity:1"/><path d="M206.729,59.3269 C206.102,64.005 207.67,64.9196 211.433,62.0707 C215.196,59.2218 216.764,60.1364 216.137,64.8144 C215.511,69.4925 217.079,70.4071 220.842,67.5582 C224.605,64.7093 226.173,65.6239 225.546,70.302 C224.919,74.98 226.487,75.8946 230.251,73.0457 C234.014,70.1968 235.582,71.1114 234.955,75.7895 C234.328,80.4675 235.896,81.3821 239.659,78.5332 C243.422,75.6843 244.991,76.5989 244.364,81.277 C243.737,85.955 245.305,86.8696 249.068,84.0207 C252.831,81.1718 254.399,82.0864 253.772,86.7645 C253.145,91.4426 254.714,92.3571 258.477,89.5082 C262.24,86.6593 263.808,87.5739 263.181,92.252 C262.554,96.9301 264.122,97.8446 267.885,94.9957 C271.649,92.1468 273.217,93.0614 272.59,97.7395 C271.963,102.418 273.531,103.332 277.294,100.483 C281.057,97.6344 282.625,98.5489 281.999,103.227" style="fill:none;stroke:#7f7f7f;stroke-width:3px;stroke-linecap:butt;stroke-linejoin:miter;stroke-opacity:1"/><text x="187.129" y="162.545" dominant-baseline="central" text-anchor="start" style="font-size:40px;font-style:normal;font-weight:700;fill-opacity:1;stroke:none;font-family:sans-serif;fill:#00f"><tspan>N</tspan></text><text x="113.328" y="162.162" dominant-baseline="central" text-anchor="middle" style="font-size:40px;font-style:normal;font-weight:700;fill-opacity:1;stroke:none;font-family:sans-serif;fill:#000"><tspan>C</tspan></text><text x="38.206" y="161.779" dominant-baseline="central" text-anchor="end" style="font-size:40px;font-style:normal;font-weight:700;fill-opacity:1;stroke:none;font-family:sans-serif;fill:#cc0"><tspan>S</tspan></text></svg>