<svg height="256" viewBox="0 0 256 256" width="256" xmlns="http://www.w3.org/2000/svg"><path d="m0 0h256v256h-256z" fill="#fff"/><g fill="none" stroke-width="2"><path d="m133.5 12.9.1 44.8" stroke="#000"/><path d="m121.5 65.5-32.6.2" stroke="#000"/><path d="m121.6 74.1-32.7.1" stroke="#000"/><path d="m145.8 74 32.6-.1" stroke="#000"/><path d="m145.8 65.5 32.6-.2" stroke="#000"/><path d="m133.7 88.7.1 25.8" stroke="#000"/><path d="m146 133.6 25.1 14.3" stroke="#000"/><path d="m121.8 133.7-37.1 21.5" stroke="#000"/><path d="m89 152.8-39.4-22.6" stroke="#000"/><path d="m84.7 160.2-39.3-22.6" stroke="#000"/><path d="m84.7 155.2.2 44.8" stroke="#000"/><path d="m86.6 154.2-1.9 1v2.3" stroke="#000" stroke-miterlimit="10"/><path d="m105.022 13.005c.007 2.132 2.85 2.122 2.843-.01-.008-2.133 2.835-2.143 2.843-.011.008 2.133 2.851 2.122 2.843-.01s2.835-2.142 2.843-.01 2.851 2.122 2.843-.01c-.007-2.133 2.836-2.143 2.843-.011.008 2.133 2.851 2.122 2.844-.01-.008-2.132 2.835-2.142 2.843-.01.007 2.132 2.851 2.122 2.843-.01-.008-2.133 2.835-2.143 2.843-.011.008 2.133 2.851 2.122 2.843-.01s2.836-2.142 2.843-.01c.008 2.132 2.851 2.122 2.843-.01-.007-2.133 2.836-2.143 2.844-.011.007 2.133 2.85 2.123 2.843-.01-.008-2.132 2.835-2.142 2.843-.01s2.851 2.122 2.843-.01c-.008-2.133 2.835-2.143 2.843-.01.008 2.132 2.851 2.122 2.843-.011-.007-2.132 2.836-2.142 2.843-.01" stroke="#7f7f7f"/></g><text font-family="sans-serif" font-size="34" x="123.4" y="86.8">S</text><text font-family="sans-serif" font-size="34" x="66.6" y="87">O</text><text font-family="sans-serif" font-size="34" x="180.3" y="86.6">O</text><text font-family="sans-serif" font-size="34" x="123.6" y="143.7">N</text><text font-family="sans-serif" font-size="34" x="173" y="171.9">C</text><text font-family="sans-serif" font-size="34" x="196.5" y="171.9">H</text><text font-family="sans-serif" font-size="22" x="220.1" y="185.6">3</text><text font-family="sans-serif" font-size="34" x="25.1" y="144">O</text><text font-family="sans-serif" font-size="34" x="74.7" y="229.2">C</text><text font-family="sans-serif" font-size="34" x="98.2" y="229.2">H</text><text font-family="sans-serif" font-size="22" x="121.8" y="242.8">3</text></svg>