<svg height="256" viewBox="0 0 256 256" width="256" xmlns="http://www.w3.org/2000/svg"><path d="m0 0h256v256h-256z" fill="#fff"/><g fill="none" stroke-width="2"><path d="m127.8 19.2v75.6" stroke="#000"/><path d="m112.8 103h-60.6" stroke="#000"/><path d="m112.8 116.6h-60.6" stroke="#000"/><path d="m142.8 116.6h60.6" stroke="#000"/><path d="m142.8 103h60.6" stroke="#000"/><path d="m127.8 132.8v52.6" stroke="#000"/><path d="m82.524 19.249c0 3.396 4.528 3.396 4.528 0s4.528-3.396 4.528 0 4.527 3.396 4.527 0 4.528-3.396 4.528 0 4.527 3.396 4.527 0 4.528-3.396 4.528 0 4.527 3.396 4.527 0 4.528-3.396 4.528 0 4.527 3.396 4.527 0 4.528-3.396 4.528 0 4.528 3.396 4.528 0 4.527-3.396 4.527 0 4.528 3.396 4.528 0 4.527-3.396 4.527 0 4.528 3.396 4.528 0 4.527-3.396 4.527 0 4.528 3.396 4.528 0 4.527-3.396 4.527 0 4.528 3.396 4.528 0 4.528-3.396 4.528 0" stroke="#7f7f7f"/></g><text font-family="sans-serif" font-size="40" x="115.8" y="129.8">S</text><text font-family="sans-serif" font-size="40" x="25.2" y="129.8">O</text><text font-family="sans-serif" font-size="40" x="206.4" y="129.8">O</text><text font-family="sans-serif" font-size="40" x="115.8" y="220.4">N</text><text font-family="sans-serif" font-size="40" x="143.4" y="220.4">H</text><text font-family="sans-serif" font-size="26" x="171" y="236.4">2</text></svg>