<svg xmlns="http://www.w3.org/2000/svg" xmlns:rdkit="http://www.rdkit.org/xml" xmlns:xlink="http://www.w3.org/1999/xlink" width="256" height="256" baseProfile="full" version="1.1" viewBox="0 0 256 256" xml:space="preserve"><rect style="opacity:1;fill:#fff;stroke:none" width="256" height="256" x="0" y="0"/><path d="M 29.809,127.921 L 70.8973,127.954" class="bond-0" style="fill:none;fill-rule:evenodd;stroke:#7f7f7f;stroke-width:3px;stroke-linecap:butt;stroke-linejoin:miter;stroke-opacity:1"/><path d="M 70.8973,127.954 L 111.986,127.987" class="bond-0" style="fill:none;fill-rule:evenodd;stroke:#cc0;stroke-width:3px;stroke-linecap:butt;stroke-linejoin:miter;stroke-opacity:1"/><path d="M 136.853,108.007 L 136.876,78.9116" class="bond-1" style="fill:none;fill-rule:evenodd;stroke:#cc0;stroke-width:3px;stroke-linecap:butt;stroke-linejoin:miter;stroke-opacity:1"/><path d="M 136.876,78.9116 L 136.9,49.8161" class="bond-1" style="fill:none;fill-rule:evenodd;stroke:red;stroke-width:3px;stroke-linecap:butt;stroke-linejoin:miter;stroke-opacity:1"/><path d="M 119.179,107.993 L 119.202,78.8974" class="bond-1" style="fill:none;fill-rule:evenodd;stroke:#cc0;stroke-width:3px;stroke-linecap:butt;stroke-linejoin:miter;stroke-opacity:1"/><path d="M 119.202,78.8974 L 119.225,49.802" class="bond-1" style="fill:none;fill-rule:evenodd;stroke:red;stroke-width:3px;stroke-linecap:butt;stroke-linejoin:miter;stroke-opacity:1"/><path d="M 119.147,147.993 L 119.124,177.088" class="bond-2" style="fill:none;fill-rule:evenodd;stroke:#cc0;stroke-width:3px;stroke-linecap:butt;stroke-linejoin:miter;stroke-opacity:1"/><path d="M 119.124,177.088 L 119.1,206.184" class="bond-2" style="fill:none;fill-rule:evenodd;stroke:red;stroke-width:3px;stroke-linecap:butt;stroke-linejoin:miter;stroke-opacity:1"/><path d="M 136.821,148.007 L 136.798,177.103" class="bond-2" style="fill:none;fill-rule:evenodd;stroke:#cc0;stroke-width:3px;stroke-linecap:butt;stroke-linejoin:miter;stroke-opacity:1"/><path d="M 136.798,177.103 L 136.775,206.198" class="bond-2" style="fill:none;fill-rule:evenodd;stroke:red;stroke-width:3px;stroke-linecap:butt;stroke-linejoin:miter;stroke-opacity:1"/><path d="M 144.014,128.013 L 185.103,128.046" class="bond-3" style="fill:none;fill-rule:evenodd;stroke:#cc0;stroke-width:3px;stroke-linecap:butt;stroke-linejoin:miter;stroke-opacity:1"/><path d="M 185.103,128.046 L 226.191,128.079" class="bond-3" style="fill:none;fill-rule:evenodd;stroke:#000;stroke-width:3px;stroke-linecap:butt;stroke-linejoin:miter;stroke-opacity:1"/><path d="M29.7698,177.017 C34.6809,174.975 34.6826,172.93 29.7747,170.88 C24.8668,168.83 24.8684,166.785 29.7796,164.743 C34.6908,162.701 34.6924,160.656 29.7845,158.606 C24.8766,156.557 24.8782,154.511 29.7894,152.469 C34.7006,150.427 34.7022,148.382 29.7943,146.332 C24.8864,144.283 24.888,142.237 29.7992,140.195 C34.7104,138.154 34.712,136.108 29.8041,134.058 C24.8962,132.009 24.8979,129.963 29.809,127.921 C34.7202,125.88 34.7219,123.834 29.8139,121.785 C24.906,119.735 24.9077,117.689 29.8189,115.648 C34.73,113.606 34.7317,111.56 29.8238,109.511 C24.9159,107.461 24.9175,105.415 29.8287,103.374 C34.7399,101.332 34.7415,99.2864 29.8336,97.2368 C24.9257,95.1872 24.9273,93.1416 29.8385,91.0998 C34.7497,89.0581 34.7513,87.0125 29.8434,84.9629 C24.9355,82.9133 24.9371,80.8677 29.8483,78.826" style="fill:none;stroke:#7f7f7f;stroke-width:3px;stroke-linecap:butt;stroke-linejoin:miter;stroke-opacity:1"/><text x="128" y="134" dominant-baseline="central" text-anchor="middle" style="font-size:40px;font-style:normal;font-weight:700;fill-opacity:1;stroke:none;font-family:sans-serif;fill:#cc0"><tspan>S</tspan></text><text x="113.399" y="35.809" dominant-baseline="central" text-anchor="start" style="font-size:40px;font-style:normal;font-weight:700;fill-opacity:1;stroke:none;font-family:sans-serif;fill:red"><tspan>O</tspan></text><text x="113.242" y="232.191" dominant-baseline="central" text-anchor="start" style="font-size:40px;font-style:normal;font-weight:700;fill-opacity:1;stroke:none;font-family:sans-serif;fill:red"><tspan>O</tspan></text></svg>