<svg xmlns="http://www.w3.org/2000/svg" xmlns:rdkit="http://www.rdkit.org/xml" xmlns:xlink="http://www.w3.org/1999/xlink" width="256" height="256" baseProfile="full" version="1.1" viewBox="0 0 256 256" xml:space="preserve"><rect style="opacity:1;fill:#fff;stroke:none" width="256" height="256" x="0" y="0"/><path d="M 244.364,170.737 L 194.216,141.724" class="bond-0" style="fill:none;fill-rule:evenodd;stroke:#7f7f7f;stroke-width:5px;stroke-linecap:butt;stroke-linejoin:miter;stroke-opacity:1"/><path d="M 194.216,141.724 L 144.068,112.71" class="bond-0" style="fill:none;fill-rule:evenodd;stroke:#cc0;stroke-width:5px;stroke-linecap:butt;stroke-linejoin:miter;stroke-opacity:1"/><path d="M 112.039,112.676 L 61.8379,141.612" class="bond-1" style="fill:none;fill-rule:evenodd;stroke:#cc0;stroke-width:5px;stroke-linecap:butt;stroke-linejoin:miter;stroke-opacity:1"/><path d="M 61.8379,141.612 L 11.6364,170.549" class="bond-1" style="fill:none;fill-rule:evenodd;stroke:#000;stroke-width:5px;stroke-linecap:butt;stroke-linejoin:miter;stroke-opacity:1"/><path d="M278.009,112.584 C270.791,111.642 269.39,114.065 273.803,119.853 C278.216,125.641 276.815,128.064 269.597,127.122 C262.38,126.181 260.978,128.604 265.392,134.391 C269.805,140.179 268.403,142.602 261.186,141.66 C253.969,140.719 252.567,143.142 256.98,148.93 C261.394,154.717 259.992,157.14 252.775,156.199 C245.558,155.257 244.156,157.68 248.569,163.468 C252.983,169.255 251.581,171.678 244.364,170.737 C237.146,169.795 235.745,172.219 240.158,178.006 C244.571,183.794 243.17,186.217 235.952,185.275 C228.735,184.334 227.333,186.757 231.747,192.544 C236.16,198.332 234.758,200.755 227.541,199.813 C220.324,198.872 218.922,201.295 223.336,207.083 C227.749,212.87 226.347,215.293 219.13,214.352 C211.913,213.41 210.511,215.833 214.924,221.621 C219.338,227.408 217.936,229.831 210.719,228.89" style="fill:none;stroke:#7f7f7f;stroke-width:5px;stroke-linecap:butt;stroke-linejoin:miter;stroke-opacity:1"/><text x="128.054" y="109.445" dominant-baseline="central" text-anchor="middle" style="font-size:40px;font-style:normal;font-weight:700;fill-opacity:1;stroke:none;font-family:sans-serif;fill:#cc0"><tspan>S</tspan></text></svg>