<svg xmlns="http://www.w3.org/2000/svg" xmlns:rdkit="http://www.rdkit.org/xml" xmlns:xlink="http://www.w3.org/1999/xlink" width="256" height="256" baseProfile="full" version="1.1" viewBox="0 0 256 256" xml:space="preserve"><rect style="opacity:1;fill:#fff;stroke:none" width="256" height="256" x="0" y="0"/><path d="M 128,19.5237 L 128,59.2182" class="bond-0" style="fill:none;fill-rule:evenodd;stroke:#7f7f7f;stroke-width:3px;stroke-linecap:butt;stroke-linejoin:miter;stroke-opacity:1"/><path d="M 128,59.2182 L 128,98.9126" class="bond-0" style="fill:none;fill-rule:evenodd;stroke:#cc0;stroke-width:3px;stroke-linecap:butt;stroke-linejoin:miter;stroke-opacity:1"/><path d="M 111.986,109.968 L 79.6381,109.968" class="bond-1" style="fill:none;fill-rule:evenodd;stroke:#cc0;stroke-width:3px;stroke-linecap:butt;stroke-linejoin:miter;stroke-opacity:1"/><path d="M 79.6381,109.968 L 47.2906,109.968" class="bond-1" style="fill:none;fill-rule:evenodd;stroke:red;stroke-width:3px;stroke-linecap:butt;stroke-linejoin:miter;stroke-opacity:1"/><path d="M 111.986,127.858 L 79.6381,127.858" class="bond-1" style="fill:none;fill-rule:evenodd;stroke:#cc0;stroke-width:3px;stroke-linecap:butt;stroke-linejoin:miter;stroke-opacity:1"/><path d="M 79.6381,127.858 L 47.2906,127.858" class="bond-1" style="fill:none;fill-rule:evenodd;stroke:red;stroke-width:3px;stroke-linecap:butt;stroke-linejoin:miter;stroke-opacity:1"/><path d="M 144.014,127.858 L 176.362,127.858" class="bond-2" style="fill:none;fill-rule:evenodd;stroke:#cc0;stroke-width:3px;stroke-linecap:butt;stroke-linejoin:miter;stroke-opacity:1"/><path d="M 176.362,127.858 L 208.709,127.858" class="bond-2" style="fill:none;fill-rule:evenodd;stroke:red;stroke-width:3px;stroke-linecap:butt;stroke-linejoin:miter;stroke-opacity:1"/><path d="M 144.014,109.968 L 176.362,109.968" class="bond-2" style="fill:none;fill-rule:evenodd;stroke:#cc0;stroke-width:3px;stroke-linecap:butt;stroke-linejoin:miter;stroke-opacity:1"/><path d="M 176.362,109.968 L 208.709,109.968" class="bond-2" style="fill:none;fill-rule:evenodd;stroke:red;stroke-width:3px;stroke-linecap:butt;stroke-linejoin:miter;stroke-opacity:1"/><path d="M 128,138.913 L 128,168.607" class="bond-3" style="fill:none;fill-rule:evenodd;stroke:#cc0;stroke-width:3px;stroke-linecap:butt;stroke-linejoin:miter;stroke-opacity:1"/><path d="M 128,168.607 L 128,198.301" class="bond-3" style="fill:none;fill-rule:evenodd;stroke:red;stroke-width:3px;stroke-linecap:butt;stroke-linejoin:miter;stroke-opacity:1"/><path d="M78.3056,19.5237 C80.3762,24.4932 82.4468,24.4932 84.5174,19.5237 C86.588,14.5543 88.6586,14.5543 90.7292,19.5237 C92.7998,24.4932 94.8704,24.4932 96.941,19.5237 C99.0116,14.5543 101.082,14.5543 103.153,19.5237 C105.223,24.4932 107.294,24.4932 109.365,19.5237 C111.435,14.5543 113.506,14.5543 115.576,19.5237 C117.647,24.4932 119.718,24.4932 121.788,19.5237 C123.859,14.5543 125.929,14.5543 128,19.5237 C130.071,24.4932 132.141,24.4932 134.212,19.5237 C136.282,14.5543 138.353,14.5543 140.424,19.5237 C142.494,24.4932 144.565,24.4932 146.635,19.5237 C148.706,14.5543 150.777,14.5543 152.847,19.5237 C154.918,24.4932 156.988,24.4932 159.059,19.5237 C161.13,14.5543 163.2,14.5543 165.271,19.5237 C167.341,24.4932 169.412,24.4932 171.483,19.5237 C173.553,14.5543 175.624,14.5543 177.694,19.5237" style="fill:none;stroke:#7f7f7f;stroke-width:3px;stroke-linecap:butt;stroke-linejoin:miter;stroke-opacity:1"/><text x="128" y="124.913" dominant-baseline="central" text-anchor="middle" style="font-size:40px;font-style:normal;font-weight:700;fill-opacity:1;stroke:none;font-family:sans-serif;fill:#cc0"><tspan>S</tspan></text><text x="43.291" y="124.913" dominant-baseline="central" text-anchor="end" style="font-size:40px;font-style:normal;font-weight:700;fill-opacity:1;stroke:none;font-family:sans-serif;fill:red"><tspan>O</tspan></text><text x="212.709" y="124.913" dominant-baseline="central" text-anchor="start" style="font-size:40px;font-style:normal;font-weight:700;fill-opacity:1;stroke:none;font-family:sans-serif;fill:red"><tspan>O</tspan></text><text x="113.321" y="224.301" dominant-baseline="central" text-anchor="start" style="font-size:40px;font-style:normal;font-weight:700;fill-opacity:1;stroke:none;font-family:sans-serif;fill:red"><tspan>OH</tspan></text></svg>