<svg height="256" viewBox="0 0 256 256" width="256" xmlns="http://www.w3.org/2000/svg"><path d="m0 0h256v256h-256z" fill="#fff"/><g fill="none" stroke-width="2"><path d="m18.9 123.7 66.5.1" stroke="#000"/><path d="m106.2 109.1.1-43.8" stroke="#000"/><path d="m94 109.1.1-43.9" stroke="#000"/><path d="m94 146.5v43.8" stroke="#000"/><path d="m106.2 146.5v43.9" stroke="#000"/><path d="m114.8 123.8 51.9.1" stroke="#000"/><path d="m18.852 164.351c3.046.003 3.05-4.059.003-4.061-3.046-.003-3.043-4.064.004-4.062 3.046.003 3.049-4.059.003-4.062-3.046-.002-3.043-4.064.003-4.061 3.046.002 3.05-4.059.003-4.062-3.046-.002-3.043-4.064.004-4.061 3.046.002 3.049-4.06.003-4.062-3.046-.003-3.043-4.064.003-4.062 3.046.003 3.05-4.059.003-4.061-3.046-.003-3.043-4.064.004-4.062 3.046.002 3.049-4.059.003-4.062-3.046-.002-3.043-4.064.003-4.061 3.046.002 3.05-4.059.003-4.062-3.046-.002-3.043-4.064.004-4.062 3.046.003 3.049-4.059.003-4.061-3.046-.003-3.043-4.064.003-4.062 3.046.003 3.05-4.059.003-4.061-3.046-.003-3.043-4.064.004-4.062 3.046.002 3.049-4.059.003-4.062-3.046-.002-3.043-4.064.003-4.061" stroke="#7f7f7f"/></g><text font-family="sans-serif" font-size="40" x="88.1" y="143.8">S</text><text font-family="sans-serif" font-size="40" x="88.2" y="62.6">O</text><text font-family="sans-serif" font-size="40" x="88.1" y="225">O</text><text font-family="sans-serif" font-size="40" x="169.3" y="143.9">C</text><text font-family="sans-serif" font-size="40" x="196.9" y="143.9">H</text><text font-family="sans-serif" font-size="26" x="224.5" y="159.9">3</text></svg>