<svg xmlns="http://www.w3.org/2000/svg" xmlns:rdkit="http://www.rdkit.org/xml" xmlns:xlink="http://www.w3.org/1999/xlink" width="256" height="256" baseProfile="full" version="1.1" viewBox="0 0 256 256" xml:space="preserve"><rect style="opacity:1;fill:#fff;stroke:none" width="256" height="256" x="0" y="0"/><path d="M 128,18.615 L 128,58.3094" class="bond-0" style="fill:none;fill-rule:evenodd;stroke:#7f7f7f;stroke-width:3px;stroke-linecap:butt;stroke-linejoin:miter;stroke-opacity:1"/><path d="M 128,58.3094 L 128,98.0039" class="bond-0" style="fill:none;fill-rule:evenodd;stroke:#cc0;stroke-width:3px;stroke-linecap:butt;stroke-linejoin:miter;stroke-opacity:1"/><path d="M 111.986,109.059 L 79.6381,109.059" class="bond-1" style="fill:none;fill-rule:evenodd;stroke:#cc0;stroke-width:3px;stroke-linecap:butt;stroke-linejoin:miter;stroke-opacity:1"/><path d="M 79.6381,109.059 L 47.2906,109.059" class="bond-1" style="fill:none;fill-rule:evenodd;stroke:red;stroke-width:3px;stroke-linecap:butt;stroke-linejoin:miter;stroke-opacity:1"/><path d="M 111.986,126.949 L 79.6381,126.949" class="bond-1" style="fill:none;fill-rule:evenodd;stroke:#cc0;stroke-width:3px;stroke-linecap:butt;stroke-linejoin:miter;stroke-opacity:1"/><path d="M 79.6381,126.949 L 47.2906,126.949" class="bond-1" style="fill:none;fill-rule:evenodd;stroke:red;stroke-width:3px;stroke-linecap:butt;stroke-linejoin:miter;stroke-opacity:1"/><path d="M 144.014,126.949 L 176.362,126.949" class="bond-2" style="fill:none;fill-rule:evenodd;stroke:#cc0;stroke-width:3px;stroke-linecap:butt;stroke-linejoin:miter;stroke-opacity:1"/><path d="M 176.362,126.949 L 208.709,126.949" class="bond-2" style="fill:none;fill-rule:evenodd;stroke:red;stroke-width:3px;stroke-linecap:butt;stroke-linejoin:miter;stroke-opacity:1"/><path d="M 144.014,109.059 L 176.362,109.059" class="bond-2" style="fill:none;fill-rule:evenodd;stroke:#cc0;stroke-width:3px;stroke-linecap:butt;stroke-linejoin:miter;stroke-opacity:1"/><path d="M 176.362,109.059 L 208.709,109.059" class="bond-2" style="fill:none;fill-rule:evenodd;stroke:red;stroke-width:3px;stroke-linecap:butt;stroke-linejoin:miter;stroke-opacity:1"/><path d="M 128,138.004 L 128,167.698" class="bond-3" style="fill:none;fill-rule:evenodd;stroke:#cc0;stroke-width:3px;stroke-linecap:butt;stroke-linejoin:miter;stroke-opacity:1"/><path d="M 128,167.698 L 128,197.393" class="bond-3" style="fill:none;fill-rule:evenodd;stroke:#00f;stroke-width:3px;stroke-linecap:butt;stroke-linejoin:miter;stroke-opacity:1"/><path d="M78.3056,18.615 C80.3762,23.5844 82.4468,23.5844 84.5174,18.615 C86.588,13.6456 88.6586,13.6456 90.7292,18.615 C92.7998,23.5844 94.8704,23.5844 96.941,18.615 C99.0116,13.6456 101.082,13.6456 103.153,18.615 C105.223,23.5844 107.294,23.5844 109.365,18.615 C111.435,13.6456 113.506,13.6456 115.576,18.615 C117.647,23.5844 119.718,23.5844 121.788,18.615 C123.859,13.6456 125.929,13.6456 128,18.615 C130.071,23.5844 132.141,23.5844 134.212,18.615 C136.282,13.6456 138.353,13.6456 140.424,18.615 C142.494,23.5844 144.565,23.5844 146.635,18.615 C148.706,13.6456 150.777,13.6456 152.847,18.615 C154.918,23.5844 156.988,23.5844 159.059,18.615 C161.13,13.6456 163.2,13.6456 165.271,18.615 C167.341,23.5844 169.412,23.5844 171.483,18.615 C173.553,13.6456 175.624,13.6456 177.694,18.615" style="fill:none;stroke:#7f7f7f;stroke-width:3px;stroke-linecap:butt;stroke-linejoin:miter;stroke-opacity:1"/><text x="128" y="124.004" dominant-baseline="central" text-anchor="middle" style="font-size:40px;font-style:normal;font-weight:700;fill-opacity:1;stroke:none;font-family:sans-serif;fill:#cc0"><tspan>S</tspan></text><text x="43.291" y="124.004" dominant-baseline="central" text-anchor="end" style="font-size:40px;font-style:normal;font-weight:700;fill-opacity:1;stroke:none;font-family:sans-serif;fill:red"><tspan>O</tspan></text><text x="212.709" y="124.004" dominant-baseline="central" text-anchor="start" style="font-size:40px;font-style:normal;font-weight:700;fill-opacity:1;stroke:none;font-family:sans-serif;fill:red"><tspan>O</tspan></text><text x="115.065" y="223.993" dominant-baseline="central" text-anchor="start" style="font-size:40px;font-style:normal;font-weight:700;fill-opacity:1;stroke:none;font-family:sans-serif;fill:#00f"><tspan>NH</tspan><tspan style="baseline-shift:sub;font-size:30px">2</tspan></text></svg>