<svg xmlns="http://www.w3.org/2000/svg" xmlns:rdkit="http://www.rdkit.org/xml" xmlns:xlink="http://www.w3.org/1999/xlink" width="256" height="256" baseProfile="full" version="1.1" viewBox="0 0 256 256" xml:space="preserve"><rect style="opacity:1;fill:#fff;stroke:none" width="256" height="256" x="0" y="0"/><path d="M 151.957,11.6364 L 152.047,36.5501" class="bond-0" style="fill:none;fill-rule:evenodd;stroke:#7f7f7f;stroke-width:2px;stroke-linecap:butt;stroke-linejoin:miter;stroke-opacity:1"/><path d="M 152.047,36.5501 L 152.136,61.4638" class="bond-0" style="fill:none;fill-rule:evenodd;stroke:#cc0;stroke-width:2px;stroke-linecap:butt;stroke-linejoin:miter;stroke-opacity:1"/><path d="M 138.875,72.1415 L 120.063,72.2093" class="bond-1" style="fill:none;fill-rule:evenodd;stroke:#cc0;stroke-width:2px;stroke-linecap:butt;stroke-linejoin:miter;stroke-opacity:1"/><path d="M 120.063,72.2093 L 101.251,72.277" class="bond-1" style="fill:none;fill-rule:evenodd;stroke:red;stroke-width:2px;stroke-linecap:butt;stroke-linejoin:miter;stroke-opacity:1"/><path d="M 138.918,84.1001 L 120.106,84.1678" class="bond-1" style="fill:none;fill-rule:evenodd;stroke:#cc0;stroke-width:2px;stroke-linecap:butt;stroke-linejoin:miter;stroke-opacity:1"/><path d="M 120.106,84.1678 L 101.294,84.2355" class="bond-1" style="fill:none;fill-rule:evenodd;stroke:red;stroke-width:2px;stroke-linecap:butt;stroke-linejoin:miter;stroke-opacity:1"/><path d="M 165.517,84.0043 L 184.329,83.9366" class="bond-2" style="fill:none;fill-rule:evenodd;stroke:#cc0;stroke-width:2px;stroke-linecap:butt;stroke-linejoin:miter;stroke-opacity:1"/><path d="M 184.329,83.9366 L 203.142,83.8688" class="bond-2" style="fill:none;fill-rule:evenodd;stroke:red;stroke-width:2px;stroke-linecap:butt;stroke-linejoin:miter;stroke-opacity:1"/><path d="M 165.474,72.0458 L 184.286,71.9781" class="bond-2" style="fill:none;fill-rule:evenodd;stroke:#cc0;stroke-width:2px;stroke-linecap:butt;stroke-linejoin:miter;stroke-opacity:1"/><path d="M 184.286,71.9781 L 203.099,71.9103" class="bond-2" style="fill:none;fill-rule:evenodd;stroke:red;stroke-width:2px;stroke-linecap:butt;stroke-linejoin:miter;stroke-opacity:1"/><path d="M 152.256,94.6821 L 152.316,111.291" class="bond-3" style="fill:none;fill-rule:evenodd;stroke:#cc0;stroke-width:2px;stroke-linecap:butt;stroke-linejoin:miter;stroke-opacity:1"/><path d="M 152.316,111.291 L 152.376,127.9" class="bond-3" style="fill:none;fill-rule:evenodd;stroke:#00f;stroke-width:2px;stroke-linecap:butt;stroke-linejoin:miter;stroke-opacity:1"/><path d="M 166.831,152.751 L 188.46,165.133" class="bond-4" style="fill:none;fill-rule:evenodd;stroke:#00f;stroke-width:2px;stroke-linecap:butt;stroke-linejoin:miter;stroke-opacity:1"/><path d="M 188.46,165.133 L 210.089,177.515" class="bond-4" style="fill:none;fill-rule:evenodd;stroke:#000;stroke-width:2px;stroke-linecap:butt;stroke-linejoin:miter;stroke-opacity:1"/><path d="M 138.039,152.889 L 116.53,165.408" class="bond-5" style="fill:none;fill-rule:evenodd;stroke:#00f;stroke-width:2px;stroke-linecap:butt;stroke-linejoin:miter;stroke-opacity:1"/><path d="M 116.53,165.408 L 95.0209,177.927" class="bond-5" style="fill:none;fill-rule:evenodd;stroke:#000;stroke-width:2px;stroke-linecap:butt;stroke-linejoin:miter;stroke-opacity:1"/><path d="M 97.9916,172.738 L 76.921,160.675" class="bond-6" style="fill:none;fill-rule:evenodd;stroke:#000;stroke-width:2px;stroke-linecap:butt;stroke-linejoin:miter;stroke-opacity:1"/><path d="M 76.921,160.675 L 55.8504,148.613" class="bond-6" style="fill:none;fill-rule:evenodd;stroke:red;stroke-width:2px;stroke-linecap:butt;stroke-linejoin:miter;stroke-opacity:1"/><path d="M 92.0502,183.116 L 70.9796,171.054" class="bond-6" style="fill:none;fill-rule:evenodd;stroke:#000;stroke-width:2px;stroke-linecap:butt;stroke-linejoin:miter;stroke-opacity:1"/><path d="M 70.9796,171.054 L 49.9091,158.991" class="bond-6" style="fill:none;fill-rule:evenodd;stroke:red;stroke-width:2px;stroke-linecap:butt;stroke-linejoin:miter;stroke-opacity:1"/><path d="M 95.0209,177.927 L 95.2601,244.364" class="bond-7" style="fill:none;fill-rule:evenodd;stroke:#000;stroke-width:2px;stroke-linecap:butt;stroke-linejoin:miter;stroke-opacity:1"/><path d="M118.739,11.7559 C120.135,15.0728 121.519,15.0678 122.891,11.741 C124.263,8.41421 125.647,8.40923 127.043,11.7261 C128.44,15.0429 129.824,15.0379 131.196,11.7111 C132.568,8.38432 133.952,8.37933 135.348,11.6962 C136.744,15.013 138.128,15.008 139.5,11.6812 C140.872,8.35442 142.256,8.34944 143.653,11.6663 C145.049,14.9831 146.433,14.9781 147.805,11.6513 C149.177,8.32452 150.561,8.31954 151.957,11.6364 C153.353,14.9532 154.737,14.9482 156.109,11.6214 C157.481,8.29463 158.865,8.28964 160.262,11.6065 C161.658,14.9233 163.042,14.9183 164.414,11.5915 C165.786,8.26473 167.17,8.25975 168.566,11.5766 C169.962,14.8934 171.346,14.8884 172.718,11.5616 C174.09,8.23483 175.475,8.22985 176.871,11.5467 C178.267,14.8635 179.651,14.8585 181.023,11.5317 C182.395,8.20494 183.779,8.19995 185.175,11.5168" style="fill:none;stroke:#7f7f7f;stroke-width:2px;stroke-linecap:butt;stroke-linejoin:miter;stroke-opacity:1"/><text x="152.196" y="83.056" dominant-baseline="central" text-anchor="middle" style="font-size:33px;font-style:normal;font-weight:700;fill-opacity:1;stroke:none;font-family:sans-serif;fill:#cc0"><tspan>S</tspan></text><text x="97.95" y="83.295" dominant-baseline="central" text-anchor="end" style="font-size:33px;font-style:normal;font-weight:700;fill-opacity:1;stroke:none;font-family:sans-serif;fill:red"><tspan>O</tspan></text><text x="206.442" y="82.817" dominant-baseline="central" text-anchor="start" style="font-size:33px;font-style:normal;font-weight:700;fill-opacity:1;stroke:none;font-family:sans-serif;fill:red"><tspan>O</tspan></text><text x="152.435" y="149.492" dominant-baseline="central" text-anchor="middle" style="font-size:33px;font-style:normal;font-weight:700;fill-opacity:1;stroke:none;font-family:sans-serif;fill:#00f"><tspan>N</tspan></text><text x="49.558" y="149.904" dominant-baseline="central" text-anchor="end" style="font-size:33px;font-style:normal;font-weight:700;fill-opacity:1;stroke:none;font-family:sans-serif;fill:red"><tspan>O</tspan></text></svg>