<svg xmlns="http://www.w3.org/2000/svg" xmlns:rdkit="http://www.rdkit.org/xml" xmlns:xlink="http://www.w3.org/1999/xlink" width="256" height="256" baseProfile="full" version="1.1" viewBox="0 0 256 256" xml:space="preserve"><rect style="opacity:1;fill:#fff;stroke:none" width="256" height="256" x="0" y="0"/><path d="M 53.7678,243.832 L 90.961,222.54" class="bond-0" style="fill:none;fill-rule:evenodd;stroke:#7f7f7f;stroke-width:3px;stroke-linecap:butt;stroke-linejoin:miter;stroke-opacity:1"/><path d="M 90.961,222.54 L 128.154,201.247" class="bond-0" style="fill:none;fill-rule:evenodd;stroke:#000;stroke-width:3px;stroke-linecap:butt;stroke-linejoin:miter;stroke-opacity:1"/><path d="M 135.869,201.275 L 135.987,168.416" class="bond-1" style="fill:none;fill-rule:evenodd;stroke:#000;stroke-width:3px;stroke-linecap:butt;stroke-linejoin:miter;stroke-opacity:1"/><path d="M 135.987,168.416 L 136.105,135.556" class="bond-1" style="fill:none;fill-rule:evenodd;stroke:#cc0;stroke-width:3px;stroke-linecap:butt;stroke-linejoin:miter;stroke-opacity:1"/><path d="M 120.44,201.219 L 120.558,168.36" class="bond-1" style="fill:none;fill-rule:evenodd;stroke:#000;stroke-width:3px;stroke-linecap:butt;stroke-linejoin:miter;stroke-opacity:1"/><path d="M 120.558,168.36 L 120.676,135.501" class="bond-1" style="fill:none;fill-rule:evenodd;stroke:#cc0;stroke-width:3px;stroke-linecap:butt;stroke-linejoin:miter;stroke-opacity:1"/><path d="M 128.154,201.247 L 202.232,244.364" class="bond-3" style="fill:none;fill-rule:evenodd;stroke:#000;stroke-width:3px;stroke-linecap:butt;stroke-linejoin:miter;stroke-opacity:1"/><path d="M 136.249,95.5565 L 136.332,72.6972" class="bond-2" style="fill:none;fill-rule:evenodd;stroke:#cc0;stroke-width:3px;stroke-linecap:butt;stroke-linejoin:miter;stroke-opacity:1"/><path d="M 136.332,72.6972 L 136.414,49.838" class="bond-2" style="fill:none;fill-rule:evenodd;stroke:red;stroke-width:3px;stroke-linecap:butt;stroke-linejoin:miter;stroke-opacity:1"/><path d="M 120.82,95.5009 L 120.903,72.6417" class="bond-2" style="fill:none;fill-rule:evenodd;stroke:#cc0;stroke-width:3px;stroke-linecap:butt;stroke-linejoin:miter;stroke-opacity:1"/><path d="M 120.903,72.6417 L 120.985,49.7824" class="bond-2" style="fill:none;fill-rule:evenodd;stroke:red;stroke-width:3px;stroke-linecap:butt;stroke-linejoin:miter;stroke-opacity:1"/><path d="M75.0614,281.028 C77.8937,277.348 77.0065,275.799 72.3997,276.378 C67.793,276.958 66.9057,275.408 69.738,271.729 C72.5703,268.05 71.6831,266.5 67.0763,267.079 C62.4695,267.659 61.5823,266.109 64.4146,262.43 C67.2469,258.751 66.3597,257.201 61.7529,257.78 C57.1461,258.36 56.2589,256.81 59.0912,253.131 C61.9235,249.452 61.0362,247.902 56.4295,248.482 C51.8227,249.061 50.9355,247.511 53.7678,243.832 C56.6001,240.153 55.7128,238.603 51.1061,239.183 C46.4993,239.762 45.612,238.213 48.4443,234.533 C51.2766,230.854 50.3894,229.304 45.7826,229.884 C41.1759,230.463 40.2886,228.914 43.1209,225.235 C45.9532,221.555 45.066,220.006 40.4592,220.585 C35.8524,221.165 34.9652,219.615 37.7975,215.936 C40.6298,212.256 39.7426,210.707 35.1358,211.286 C30.529,211.866 29.6418,210.316 32.4741,206.637" style="fill:none;stroke:#7f7f7f;stroke-width:3px;stroke-linecap:butt;stroke-linejoin:miter;stroke-opacity:1"/><text x="128.463" y="121.529" dominant-baseline="central" text-anchor="middle" style="font-size:40px;font-style:normal;font-weight:700;fill-opacity:1;stroke:none;font-family:sans-serif;fill:#cc0"><tspan>S</tspan></text><text x="114.092" y="35.81" dominant-baseline="central" text-anchor="start" style="font-size:40px;font-style:normal;font-weight:700;fill-opacity:1;stroke:none;font-family:sans-serif;fill:red"><tspan>O</tspan></text></svg>