<svg xmlns="http://www.w3.org/2000/svg" xmlns:rdkit="http://www.rdkit.org/xml" xmlns:xlink="http://www.w3.org/1999/xlink" width="256" height="256" baseProfile="full" version="1.1" viewBox="0 0 256 256" xml:space="preserve"><rect style="opacity:1;fill:#fff;stroke:none" width="256" height="256" x="0" y="0"/><path d="M 244.364,105.459 L 189.846,137.001" class="bond-0" style="fill:none;fill-rule:evenodd;stroke:#7f7f7f;stroke-width:5px;stroke-linecap:butt;stroke-linejoin:miter;stroke-opacity:1"/><path d="M 189.846,137.001 L 135.328,168.542" class="bond-0" style="fill:none;fill-rule:evenodd;stroke:#000;stroke-width:5px;stroke-linecap:butt;stroke-linejoin:miter;stroke-opacity:1"/><path d="M 140.989,158.72 L 94.4285,131.882" class="bond-1" style="fill:none;fill-rule:evenodd;stroke:#000;stroke-width:5px;stroke-linecap:butt;stroke-linejoin:miter;stroke-opacity:1"/><path d="M 94.4285,131.882 L 47.8675,105.044" class="bond-1" style="fill:none;fill-rule:evenodd;stroke:#cc0;stroke-width:5px;stroke-linecap:butt;stroke-linejoin:miter;stroke-opacity:1"/><path d="M 129.666,178.364 L 83.1055,151.526" class="bond-1" style="fill:none;fill-rule:evenodd;stroke:#000;stroke-width:5px;stroke-linecap:butt;stroke-linejoin:miter;stroke-opacity:1"/><path d="M 83.1055,151.526 L 36.5445,124.688" class="bond-1" style="fill:none;fill-rule:evenodd;stroke:#cc0;stroke-width:5px;stroke-linecap:butt;stroke-linejoin:miter;stroke-opacity:1"/><path d="M212.823,50.9428 C208.685,56.3684 210,58.6399 216.766,57.7573 C223.531,56.8748 224.846,59.1463 220.708,64.5719 C216.571,69.9974 217.885,72.2689 224.651,71.3864 C231.416,70.5038 232.731,72.7753 228.593,78.2009 C224.456,83.6264 225.77,85.898 232.536,85.0154 C239.302,84.1328 240.616,86.4043 236.478,91.8299 C232.341,97.2555 233.655,99.527 240.421,98.6444 C247.187,97.7618 248.501,100.033 244.364,105.459 C240.226,110.884 241.54,113.156 248.306,112.273 C255.072,111.391 256.386,113.662 252.249,119.088 C248.111,124.514 249.426,126.785 256.191,125.902 C262.957,125.02 264.271,127.291 260.134,132.717 C255.997,138.143 257.311,140.414 264.077,139.531 C270.842,138.649 272.157,140.92 268.019,146.346 C263.882,151.772 265.196,154.043 271.962,153.16 C278.728,152.278 280.042,154.549 275.904,159.975" style="fill:none;stroke:#7f7f7f;stroke-width:5px;stroke-linecap:butt;stroke-linejoin:miter;stroke-opacity:1"/><text x="38.206" y="111.635" dominant-baseline="central" text-anchor="end" style="font-size:40px;font-style:normal;font-weight:700;fill-opacity:1;stroke:none;font-family:sans-serif;fill:#cc0"><tspan>S</tspan></text></svg>