<svg xmlns="http://www.w3.org/2000/svg" xmlns:rdkit="http://www.rdkit.org/xml" xmlns:xlink="http://www.w3.org/1999/xlink" width="256" height="256" baseProfile="full" version="1.1" viewBox="0 0 256 256" xml:space="preserve"><rect style="opacity:1;fill:#fff;stroke:none" width="256" height="256" x="0" y="0"/><path d="M 244.364,194.926 L 205.546,172.62" class="bond-0" style="fill:none;fill-rule:evenodd;stroke:#7f7f7f;stroke-width:3px;stroke-linecap:butt;stroke-linejoin:miter;stroke-opacity:1"/><path d="M 205.546,172.62 L 166.728,150.315" class="bond-0" style="fill:none;fill-rule:evenodd;stroke:#000;stroke-width:3px;stroke-linecap:butt;stroke-linejoin:miter;stroke-opacity:1"/><path d="M 174.787,150.298 L 174.718,115.526" class="bond-1" style="fill:none;fill-rule:evenodd;stroke:#000;stroke-width:3px;stroke-linecap:butt;stroke-linejoin:miter;stroke-opacity:1"/><path d="M 174.718,115.526 L 174.648,80.7535" class="bond-1" style="fill:none;fill-rule:evenodd;stroke:red;stroke-width:3px;stroke-linecap:butt;stroke-linejoin:miter;stroke-opacity:1"/><path d="M 158.669,150.331 L 158.6,115.558" class="bond-1" style="fill:none;fill-rule:evenodd;stroke:#000;stroke-width:3px;stroke-linecap:butt;stroke-linejoin:miter;stroke-opacity:1"/><path d="M 158.6,115.558 L 158.53,80.7858" class="bond-1" style="fill:none;fill-rule:evenodd;stroke:red;stroke-width:3px;stroke-linecap:butt;stroke-linejoin:miter;stroke-opacity:1"/><path d="M 166.728,150.315 L 136.007,168.129" class="bond-2" style="fill:none;fill-rule:evenodd;stroke:#000;stroke-width:3px;stroke-linecap:butt;stroke-linejoin:miter;stroke-opacity:1"/><path d="M 136.007,168.129 L 105.286,185.944" class="bond-2" style="fill:none;fill-rule:evenodd;stroke:#cc0;stroke-width:3px;stroke-linecap:butt;stroke-linejoin:miter;stroke-opacity:1"/><path d="M 73.2574,186.028 L 42.4469,168.324" class="bond-3" style="fill:none;fill-rule:evenodd;stroke:#cc0;stroke-width:3px;stroke-linecap:butt;stroke-linejoin:miter;stroke-opacity:1"/><path d="M 42.4469,168.324 L 11.6364,150.619" class="bond-3" style="fill:none;fill-rule:evenodd;stroke:#000;stroke-width:3px;stroke-linecap:butt;stroke-linejoin:miter;stroke-opacity:1"/><path d="M266.67,156.106 C261.859,155.493 260.93,157.11 263.882,160.959 C266.835,164.807 265.905,166.424 261.094,165.811 C256.282,165.198 255.353,166.815 258.305,170.663 C261.258,174.512 260.328,176.129 255.517,175.516 C250.706,174.903 249.776,176.52 252.729,180.368 C255.681,184.217 254.752,185.834 249.94,185.221 C245.129,184.608 244.199,186.225 247.152,190.073 C250.105,193.922 249.175,195.539 244.364,194.926 C239.552,194.313 238.623,195.93 241.575,199.778 C244.528,203.627 243.598,205.244 238.787,204.631 C233.975,204.018 233.046,205.635 235.999,209.483 C238.951,213.331 238.022,214.949 233.21,214.336 C228.399,213.723 227.469,215.34 230.422,219.188 C233.374,223.036 232.445,224.654 227.634,224.041 C222.822,223.428 221.893,225.045 224.845,228.893 C227.798,232.741 226.868,234.359 222.057,233.746" style="fill:none;stroke:#7f7f7f;stroke-width:3px;stroke-linecap:butt;stroke-linejoin:miter;stroke-opacity:1"/><text x="151.87" y="66.77" dominant-baseline="central" text-anchor="start" style="font-size:40px;font-style:normal;font-weight:700;fill-opacity:1;stroke:none;font-family:sans-serif;fill:red"><tspan>O</tspan></text><text x="89.272" y="201.23" dominant-baseline="central" text-anchor="middle" style="font-size:40px;font-style:normal;font-weight:700;fill-opacity:1;stroke:none;font-family:sans-serif;fill:#cc0"><tspan>S</tspan></text></svg>