<svg xmlns="http://www.w3.org/2000/svg" xmlns:rdkit="http://www.rdkit.org/xml" xmlns:xlink="http://www.w3.org/1999/xlink" width="256" height="256" baseProfile="full" version="1.1" viewBox="0 0 256 256" xml:space="preserve"><rect style="opacity:1;fill:#fff;stroke:none" width="256" height="256" x="0" y="0"/><path d="M 11.6364,237.236 L 69.9391,203.859" class="bond-0" style="fill:none;fill-rule:evenodd;stroke:#7f7f7f;stroke-width:5px;stroke-linecap:butt;stroke-linejoin:miter;stroke-opacity:1"/><path d="M 69.9391,203.859 L 128.242,170.482" class="bond-0" style="fill:none;fill-rule:evenodd;stroke:#000;stroke-width:5px;stroke-linecap:butt;stroke-linejoin:miter;stroke-opacity:1"/><path d="M 140.335,170.525 L 140.541,113.341" class="bond-1" style="fill:none;fill-rule:evenodd;stroke:#000;stroke-width:5px;stroke-linecap:butt;stroke-linejoin:miter;stroke-opacity:1"/><path d="M 140.541,113.341 L 140.747,56.1561" class="bond-1" style="fill:none;fill-rule:evenodd;stroke:#cc0;stroke-width:5px;stroke-linecap:butt;stroke-linejoin:miter;stroke-opacity:1"/><path d="M 116.149,170.438 L 116.355,113.254" class="bond-1" style="fill:none;fill-rule:evenodd;stroke:#000;stroke-width:5px;stroke-linecap:butt;stroke-linejoin:miter;stroke-opacity:1"/><path d="M 116.355,113.254 L 116.56,56.069" class="bond-1" style="fill:none;fill-rule:evenodd;stroke:#cc0;stroke-width:5px;stroke-linecap:butt;stroke-linejoin:miter;stroke-opacity:1"/><path d="M 128.242,170.482 L 244.364,238.069" class="bond-2" style="fill:none;fill-rule:evenodd;stroke:#000;stroke-width:5px;stroke-linecap:butt;stroke-linejoin:miter;stroke-opacity:1"/><path d="M45.0155,295.542 C49.4553,289.775 48.0645,287.345 40.8431,288.254 C33.6217,289.162 32.2309,286.733 36.6707,280.966 C41.1105,275.198 39.7197,272.769 32.4983,273.677 C25.2769,274.586 23.8861,272.157 28.3259,266.389 C32.7658,260.622 31.375,258.192 24.1536,259.101 C16.9321,260.009 15.5414,257.58 19.9812,251.813 C24.421,246.045 23.0302,243.616 15.8088,244.524 C8.58736,245.433 7.19656,243.004 11.6364,237.236 C16.0762,231.469 14.6854,229.039 7.46397,229.948 C0.242564,230.856 -1.14823,228.427 3.29157,222.66 C7.73138,216.892 6.34058,214.463 -0.880825,215.371 C-8.10223,216.28 -9.49303,213.851 -5.05322,208.083 C-0.613415,202.316 -2.00421,199.886 -9.22562,200.795 C-16.447,201.703 -17.8378,199.274 -13.398,193.507 C-8.95821,187.739 -10.349,185.31 -17.5704,186.218 C-24.7918,187.127 -26.1826,184.697 -21.7428,178.93" style="fill:none;stroke:#7f7f7f;stroke-width:5px;stroke-linecap:butt;stroke-linejoin:miter;stroke-opacity:1"/><text x="116.711" y="42.112" dominant-baseline="central" text-anchor="start" style="font-size:40px;font-style:normal;font-weight:700;fill-opacity:1;stroke:none;font-family:sans-serif;fill:#cc0"><tspan>S</tspan></text></svg>