<svg height="256" viewBox="0 0 256 256" width="256" xmlns="http://www.w3.org/2000/svg"><path d="m0 0h256v256h-256z" fill="#fff"/><path d="m35.6 127.8h130.1" fill="none" stroke="#000" stroke-width="2"/><path d="m35.633 200.761c5.472 0 5.472-7.296 0-7.296s-5.472-7.296 0-7.296 5.472-7.296 0-7.296-5.472-7.296 0-7.296 5.472-7.296 0-7.296-5.472-7.296 0-7.296 5.472-7.297 0-7.297-5.472-7.296 0-7.296 5.472-7.296 0-7.296-5.472-7.296 0-7.296 5.472-7.296 0-7.296-5.472-7.296 0-7.296 5.472-7.296 0-7.296-5.472-7.297 0-7.297 5.472-7.296 0-7.296-5.472-7.296 0-7.296 5.472-7.296 0-7.296-5.472-7.296 0-7.296 5.472-7.296 0-7.296-5.472-7.296 0-7.296" fill="none" stroke="#7f7f7f" stroke-width="2"/><g font-family="sans-serif" font-size="40"><text x="170.5" y="147.8">S</text><text x="196" y="147.8">H</text></g></svg>