<svg xmlns="http://www.w3.org/2000/svg" xmlns:rdkit="http://www.rdkit.org/xml" xmlns:xlink="http://www.w3.org/1999/xlink" width="256" height="256" baseProfile="full" version="1.1" viewBox="0 0 256 256" xml:space="preserve"><rect style="opacity:1;fill:#fff;stroke:none" width="256" height="256" x="0" y="0"/><path d="M 244.364,81.4844 L 228.367,108.912" class="bond-0" style="fill:none;fill-rule:evenodd;stroke:#7f7f7f;stroke-width:3px;stroke-linecap:butt;stroke-linejoin:miter;stroke-opacity:1"/><path d="M 228.367,108.912 L 212.37,136.339" class="bond-0" style="fill:none;fill-rule:evenodd;stroke:#cc0;stroke-width:3px;stroke-linecap:butt;stroke-linejoin:miter;stroke-opacity:1"/><path d="M 184.691,156.269 L 149.37,156.113" class="bond-1" style="fill:none;fill-rule:evenodd;stroke:#cc0;stroke-width:3px;stroke-linecap:butt;stroke-linejoin:miter;stroke-opacity:1"/><path d="M 149.37,156.113 L 114.048,155.958" class="bond-1" style="fill:none;fill-rule:evenodd;stroke:#000;stroke-width:3px;stroke-linecap:butt;stroke-linejoin:miter;stroke-opacity:1"/><path d="M 114.048,155.958 L 79.387,155.805" class="bond-2" style="fill:none;fill-rule:evenodd;stroke:#000;stroke-width:3px;stroke-linecap:butt;stroke-linejoin:miter;stroke-opacity:1"/><path d="M 79.387,155.805 L 44.7258,155.653" class="bond-2" style="fill:none;fill-rule:evenodd;stroke:#00f;stroke-width:3px;stroke-linecap:butt;stroke-linejoin:miter;stroke-opacity:1"/><path d="M 103.718,140.314 L 74.2564,140.184" class="bond-2" style="fill:none;fill-rule:evenodd;stroke:#000;stroke-width:3px;stroke-linecap:butt;stroke-linejoin:miter;stroke-opacity:1"/><path d="M 74.2564,140.184 L 44.7944,140.055" class="bond-2" style="fill:none;fill-rule:evenodd;stroke:#00f;stroke-width:3px;stroke-linecap:butt;stroke-linejoin:miter;stroke-opacity:1"/><path d="M 103.581,171.51 L 74.1192,171.381" class="bond-2" style="fill:none;fill-rule:evenodd;stroke:#000;stroke-width:3px;stroke-linecap:butt;stroke-linejoin:miter;stroke-opacity:1"/><path d="M 74.1192,171.381 L 44.6571,171.251" class="bond-2" style="fill:none;fill-rule:evenodd;stroke:#00f;stroke-width:3px;stroke-linecap:butt;stroke-linejoin:miter;stroke-opacity:1"/><path d="M206.936,59.655 C206.312,64.3074 207.872,65.2169 211.614,62.3837 C215.357,59.5504 216.916,60.46 216.293,65.1124 C215.669,69.7647 217.229,70.6743 220.971,67.841 C224.714,65.0078 226.273,65.9173 225.65,70.5697 C225.026,75.2221 226.586,76.1316 230.328,73.2984 C234.071,70.4651 235.63,71.3747 235.007,76.027 C234.383,80.6794 235.943,81.589 239.685,78.7557 C243.428,75.9225 244.987,76.832 244.364,81.4844 C243.74,86.1367 245.3,87.0463 249.042,84.2131 C252.785,81.3798 254.344,82.2894 253.721,86.9417 C253.097,91.5941 254.657,92.5036 258.399,89.6704 C262.142,86.8372 263.701,87.7467 263.078,92.3991 C262.454,97.0514 264.014,97.961 267.756,95.1278 C271.499,92.2945 273.058,93.2041 272.435,97.8564 C271.811,102.509 273.371,103.418 277.113,100.585 C280.856,97.7519 282.415,98.6614 281.792,103.314" style="fill:none;stroke:#7f7f7f;stroke-width:3px;stroke-linecap:butt;stroke-linejoin:miter;stroke-opacity:1"/><text x="188.691" y="162.339" dominant-baseline="central" text-anchor="start" style="font-size:40px;font-style:normal;font-weight:700;fill-opacity:1;stroke:none;font-family:sans-serif;fill:#cc0"><tspan>S</tspan></text><text x="40.726" y="161.576" dominant-baseline="central" text-anchor="end" style="font-size:40px;font-style:normal;font-weight:700;fill-opacity:1;stroke:none;font-family:sans-serif;fill:#00f"><tspan>N</tspan></text></svg>