<svg xmlns="http://www.w3.org/2000/svg" xmlns:rdkit="http://www.rdkit.org/xml" xmlns:xlink="http://www.w3.org/1999/xlink" width="256" height="256" baseProfile="full" version="1.1" viewBox="0 0 256 256" xml:space="preserve"><rect style="opacity:1;fill:#fff;stroke:none" width="256" height="256" x="0" y="0"/><path d="M 11.6364,128 L 96.9601,128" class="bond-0" style="fill:none;fill-rule:evenodd;stroke:#7f7f7f;stroke-width:7px;stroke-linecap:butt;stroke-linejoin:miter;stroke-opacity:1"/><path d="M 96.9601,128 L 182.284,128" class="bond-0" style="fill:none;fill-rule:evenodd;stroke:#cc0;stroke-width:7px;stroke-linecap:butt;stroke-linejoin:miter;stroke-opacity:1"/><path d="M11.6364,221.331 C20.9695,217.442 20.9695,213.553 11.6364,209.665 C2.30327,205.776 2.30327,201.887 11.6364,197.998 C20.9695,194.109 20.9695,190.221 11.6364,186.332 C2.30327,182.443 2.30327,178.554 11.6364,174.665 C20.9695,170.777 20.9695,166.888 11.6364,162.999 C2.30327,159.11 2.30327,155.222 11.6364,151.333 C20.9695,147.444 20.9695,143.555 11.6364,139.666 C2.30327,135.778 2.30327,131.889 11.6364,128 C20.9695,124.111 20.9695,120.222 11.6364,116.334 C2.30327,112.445 2.30327,108.556 11.6364,104.667 C20.9695,100.778 20.9695,96.8897 11.6364,93.0009 C2.30327,89.1121 2.30327,85.2233 11.6364,81.3345 C20.9695,77.4457 20.9695,73.5569 11.6364,69.6682 C2.30327,65.7794 2.30327,61.8906 11.6364,58.0018 C20.9695,54.113 20.9695,50.2242 11.6364,46.3354 C2.30327,42.4466 2.30327,38.5578 11.6364,34.669" style="fill:none;stroke:#7f7f7f;stroke-width:7px;stroke-linecap:butt;stroke-linejoin:miter;stroke-opacity:1"/><text x="186.284" y="134" dominant-baseline="central" text-anchor="start" style="font-size:40px;font-style:normal;font-weight:700;fill-opacity:1;stroke:none;font-family:sans-serif;fill:#cc0"><tspan>SH</tspan></text></svg>