<svg xmlns="http://www.w3.org/2000/svg" xmlns:rdkit="http://www.rdkit.org/xml" xmlns:xlink="http://www.w3.org/1999/xlink" width="256" height="256" baseProfile="full" version="1.1" viewBox="0 0 256 256" xml:space="preserve"><rect style="opacity:1;fill:#fff;stroke:none" width="256" height="256" x="0" y="0"/><path d="M 244.364,78.2362 L 226.451,88.4251" class="bond-0" style="fill:none;fill-rule:evenodd;stroke:#7f7f7f;stroke-width:2px;stroke-linecap:butt;stroke-linejoin:miter;stroke-opacity:1"/><path d="M 226.451,88.4251 L 208.538,98.6139" class="bond-0" style="fill:none;fill-rule:evenodd;stroke:#cc0;stroke-width:2px;stroke-linecap:butt;stroke-linejoin:miter;stroke-opacity:1"/><path d="M 194.393,88.9409 L 188.77,79.0557" class="bond-1" style="fill:none;fill-rule:evenodd;stroke:#cc0;stroke-width:2px;stroke-linecap:butt;stroke-linejoin:miter;stroke-opacity:1"/><path d="M 188.77,79.0557 L 183.147,69.1704" class="bond-1" style="fill:none;fill-rule:evenodd;stroke:red;stroke-width:2px;stroke-linecap:butt;stroke-linejoin:miter;stroke-opacity:1"/><path d="M 186.014,93.7066 L 180.391,83.8213" class="bond-1" style="fill:none;fill-rule:evenodd;stroke:#cc0;stroke-width:2px;stroke-linecap:butt;stroke-linejoin:miter;stroke-opacity:1"/><path d="M 180.391,83.8213 L 174.769,73.936" class="bond-1" style="fill:none;fill-rule:evenodd;stroke:red;stroke-width:2px;stroke-linecap:butt;stroke-linejoin:miter;stroke-opacity:1"/><path d="M 201.244,120.481 L 206.866,130.367" class="bond-2" style="fill:none;fill-rule:evenodd;stroke:#cc0;stroke-width:2px;stroke-linecap:butt;stroke-linejoin:miter;stroke-opacity:1"/><path d="M 206.866,130.367 L 212.489,140.252" class="bond-2" style="fill:none;fill-rule:evenodd;stroke:red;stroke-width:2px;stroke-linecap:butt;stroke-linejoin:miter;stroke-opacity:1"/><path d="M 209.622,115.716 L 215.245,125.601" class="bond-2" style="fill:none;fill-rule:evenodd;stroke:#cc0;stroke-width:2px;stroke-linecap:butt;stroke-linejoin:miter;stroke-opacity:1"/><path d="M 215.245,125.601 L 220.868,135.486" class="bond-2" style="fill:none;fill-rule:evenodd;stroke:red;stroke-width:2px;stroke-linecap:butt;stroke-linejoin:miter;stroke-opacity:1"/><path d="M 187.099,110.811 L 169.186,121.004" class="bond-3" style="fill:none;fill-rule:evenodd;stroke:#cc0;stroke-width:2px;stroke-linecap:butt;stroke-linejoin:miter;stroke-opacity:1"/><path d="M 169.186,121.004 L 151.273,131.197" class="bond-3" style="fill:none;fill-rule:evenodd;stroke:#000;stroke-width:2px;stroke-linecap:butt;stroke-linejoin:miter;stroke-opacity:1"/><path d="M 151.273,131.197 L 105.07,104.122" class="bond-4" style="fill:none;fill-rule:evenodd;stroke:#000;stroke-width:2px;stroke-linecap:butt;stroke-linejoin:miter;stroke-opacity:1"/><path d="M 139.469,135.452 L 107.127,116.5" class="bond-4" style="fill:none;fill-rule:evenodd;stroke:#000;stroke-width:2px;stroke-linecap:butt;stroke-linejoin:miter;stroke-opacity:1"/><path d="M 151.273,131.197 L 150.93,184.736" class="bond-10" style="fill:none;fill-rule:evenodd;stroke:#000;stroke-width:2px;stroke-linecap:butt;stroke-linejoin:miter;stroke-opacity:1"/><path d="M 105.07,104.122 L 58.5245,130.597" class="bond-5" style="fill:none;fill-rule:evenodd;stroke:#000;stroke-width:2px;stroke-linecap:butt;stroke-linejoin:miter;stroke-opacity:1"/><path d="M 58.5245,130.597 L 58.1818,184.147" class="bond-6" style="fill:none;fill-rule:evenodd;stroke:#000;stroke-width:2px;stroke-linecap:butt;stroke-linejoin:miter;stroke-opacity:1"/><path d="M 68.1119,138.691 L 67.872,176.176" class="bond-6" style="fill:none;fill-rule:evenodd;stroke:#000;stroke-width:2px;stroke-linecap:butt;stroke-linejoin:miter;stroke-opacity:1"/><path d="M 58.1818,184.147 L 11.6364,210.622" class="bond-7" style="fill:none;fill-rule:evenodd;stroke:#000;stroke-width:2px;stroke-linecap:butt;stroke-linejoin:miter;stroke-opacity:1"/><path d="M 58.1818,184.147 L 104.385,211.222" class="bond-8" style="fill:none;fill-rule:evenodd;stroke:#000;stroke-width:2px;stroke-linecap:butt;stroke-linejoin:miter;stroke-opacity:1"/><path d="M 104.385,211.222 L 150.93,184.736" class="bond-9" style="fill:none;fill-rule:evenodd;stroke:#000;stroke-width:2px;stroke-linecap:butt;stroke-linejoin:miter;stroke-opacity:1"/><path d="M 106.599,198.871 L 139.181,180.331" class="bond-9" style="fill:none;fill-rule:evenodd;stroke:#000;stroke-width:2px;stroke-linecap:butt;stroke-linejoin:miter;stroke-opacity:1"/><path d="M231.126,54.9628 C229.35,57.2563 229.902,58.226 232.78,57.872 C235.659,57.5179 236.211,58.4876 234.435,60.7811 C232.659,63.0746 233.211,64.0444 236.09,63.6903 C238.969,63.3362 239.52,64.306 237.745,66.5995 C235.969,68.893 236.521,69.8627 239.399,69.5087 C242.278,69.1546 242.83,70.1243 241.054,72.4178 C239.278,74.7114 239.83,75.6811 242.709,75.327 C245.588,74.973 246.139,75.9427 244.364,78.2362 C242.588,80.5297 243.139,81.4994 246.018,81.1454 C248.897,80.7913 249.449,81.761 247.673,84.0546 C245.897,86.3481 246.449,87.3178 249.328,86.9637 C252.207,86.6097 252.758,87.5794 250.983,89.8729 C249.207,92.1664 249.758,93.1362 252.637,92.7821 C255.516,92.428 256.068,93.3978 254.292,95.6913 C252.516,97.9848 253.068,98.9545 255.947,98.6005 C258.826,98.2464 259.377,99.2161 257.602,101.51" style="fill:none;stroke:#7f7f7f;stroke-width:2px;stroke-linecap:butt;stroke-linejoin:miter;stroke-opacity:1"/><text x="197.818" y="108.727" dominant-baseline="central" text-anchor="middle" style="font-size:26px;font-style:normal;font-weight:700;fill-opacity:1;stroke:none;font-family:sans-serif;fill:#cc0"><tspan>S</tspan></text><text x="181.169" y="62.182" dominant-baseline="central" text-anchor="end" style="font-size:26px;font-style:normal;font-weight:700;fill-opacity:1;stroke:none;font-family:sans-serif;fill:red"><tspan>O</tspan></text><text x="214.467" y="155.273" dominant-baseline="central" text-anchor="start" style="font-size:26px;font-style:normal;font-weight:700;fill-opacity:1;stroke:none;font-family:sans-serif;fill:red"><tspan>O</tspan></text></svg>