<svg xmlns="http://www.w3.org/2000/svg" xmlns:rdkit="http://www.rdkit.org/xml" xmlns:xlink="http://www.w3.org/1999/xlink" width="256" height="256" baseProfile="full" version="1.1" viewBox="0 0 256 256" xml:space="preserve"><rect style="opacity:1;fill:#fff;stroke:none" width="256" height="256" x="0" y="0"/><path d="M 11.6364,172.594 L 59.8357,159.53" class="bond-0" style="fill:none;fill-rule:evenodd;stroke:#7f7f7f;stroke-width:3px;stroke-linecap:butt;stroke-linejoin:miter;stroke-opacity:1"/><path d="M 59.8357,159.53 L 108.035,146.467" class="bond-0" style="fill:none;fill-rule:evenodd;stroke:#000;stroke-width:3px;stroke-linecap:butt;stroke-linejoin:miter;stroke-opacity:1"/><path d="M 108.035,146.467 L 157.733,59.8357" class="bond-1" style="fill:none;fill-rule:evenodd;stroke:#000;stroke-width:3px;stroke-linecap:butt;stroke-linejoin:miter;stroke-opacity:1"/><path d="M 108.035,146.467 L 194.666,196.164" class="bond-4" style="fill:none;fill-rule:evenodd;stroke:#000;stroke-width:3px;stroke-linecap:butt;stroke-linejoin:miter;stroke-opacity:1"/><path d="M 157.733,59.8357 L 244.364,109.533" class="bond-2" style="fill:none;fill-rule:evenodd;stroke:#000;stroke-width:3px;stroke-linecap:butt;stroke-linejoin:miter;stroke-opacity:1"/><path d="M 244.364,109.533 L 194.666,196.164" class="bond-3" style="fill:none;fill-rule:evenodd;stroke:#000;stroke-width:3px;stroke-linecap:butt;stroke-linejoin:miter;stroke-opacity:1"/><path d="M24.6996,220.792 C28.9752,217.478 28.4309,215.469 23.0667,214.767 C17.7026,214.065 17.1583,212.057 21.4338,208.743 C25.7093,205.428 25.165,203.42 19.8009,202.718 C14.4368,202.016 13.8925,200.008 18.168,196.693 C22.4435,193.378 21.8992,191.37 16.5351,190.668 C11.171,189.966 10.6267,187.958 14.9022,184.643 C19.1777,181.329 18.6334,179.321 13.2693,178.619 C7.90514,177.917 7.36084,175.909 11.6364,172.594 C15.9119,169.279 15.3676,167.271 10.0035,166.569 C4.63932,165.867 4.09502,163.859 8.37055,160.544 C12.6461,157.23 12.1018,155.221 6.73764,154.52 C1.37351,153.818 0.829203,151.809 5.10473,148.495 C9.38025,145.18 8.83595,143.172 3.47182,142.47 C-1.89231,141.768 -2.43662,139.76 1.83891,136.445 C6.11443,133.131 5.57013,131.122 0.206,130.42 C-5.15813,129.718 -5.70243,127.71 -1.42691,124.396" style="fill:none;stroke:#7f7f7f;stroke-width:3px;stroke-linecap:butt;stroke-linejoin:miter;stroke-opacity:1"/></svg>