<svg height="41" viewBox="0 0 68 41" width="68" xmlns="http://www.w3.org/2000/svg"><text font-family="Helvetica" font-size="320" font-weight="bold" transform="matrix(.05 0 0 .05 1.668 13.758)">HC</text><text font-family="Helvetica" font-size="320" font-weight="bold" transform="matrix(.05 0 0 .05 43.223 13.758)">CH</text><g transform="matrix(.05 0 0 .05 -236 -352)"><path d="m5558.83 7118v20h-315.41v-20z"/><path d="m5558.83 7190v20h-88.83v-20z"/><path d="m5243.42 7210v-20h126.58v20z"/><path d="m5558.83 7262v20h-88.83v-20z"/><path d="m5243.42 7282v-20h126.58v20z"/><path d="m5410 7220h20v54.55h-20z"/><path d="m5410 7329.09h20v54.55h-20z"/><path d="m5410 7438.18h20v54.55h-20z"/><path d="m5410 7547.27h20v54.55h-20z"/><path d="m5410 7656.36h20v54.55h-20z"/><path d="m5410 7765.45h20v54.55h-20z"/></g></svg>