<svg xmlns="http://www.w3.org/2000/svg" xmlns:xlink="http://www.w3.org/1999/xlink" width="81" height="39" version="1.1" viewBox="0 0 81 39" style="background-color:#ffffff00"><text x="0" y="0" fill="#000" stroke="none" font-family="Helvetica" font-size="320" font-style="normal" font-weight="bold" transform="matrix(0.05 0 0 0.05 0.994141 13.7578)">H</text><text x="0" y="0" fill="#000" stroke="none" font-family="Helvetica" font-size="240" font-style="normal" font-weight="bold" transform="matrix(0.05 0 0 0.05 12.5488 17.4375)">2</text><text x="0" y="0" fill="#000" stroke="none" font-family="Helvetica" font-size="320" font-style="normal" font-weight="bold" transform="matrix(0.05 0 0 0.05 19.2227 13.7578)">C</text><text x="0" y="0" fill="#000" stroke="none" font-family="Helvetica" font-size="320" font-style="normal" font-weight="bold" transform="matrix(0.05 0 0 0.05 49.2227 13.7578)">CH</text><text x="0" y="0" fill="#000" stroke="none" font-family="Helvetica" font-size="240" font-style="normal" font-weight="bold" transform="matrix(0.05 0 0 0.05 72.332 17.4375)">2</text><path fill="#000" stroke="none" d="M 5558.83,7154 L 5558.83,7174 L 5450,7174 L 5450,7154 L 5558.83,7154 L 5558.83,7154 Z" transform="matrix(0.05 0 0 0.05 -230 -352)"/><path fill="#000" stroke="none" d="M 5243.95,7174 L 5243.95,7154 L 5350,7154 L 5350,7174 L 5243.95,7174 L 5243.95,7174 Z" transform="matrix(0.05 0 0 0.05 -230 -352)"/><path fill="#000" stroke="none" d="M 5558.83,7226 L 5558.83,7246 L 5450,7246 L 5450,7226 L 5558.83,7226 L 5558.83,7226 Z" transform="matrix(0.05 0 0 0.05 -230 -352)"/><path fill="#000" stroke="none" d="M 5243.95,7246 L 5243.95,7226 L 5350,7226 L 5350,7246 L 5243.95,7246 L 5243.95,7246 Z" transform="matrix(0.05 0 0 0.05 -230 -352)"/><path fill="#000" stroke="none" d="M 5390,7180 L 5410,7180 L 5410,7234.55 L 5390,7234.55 L 5390,7180 Z" transform="matrix(0.05 0 0 0.05 -230 -352)"/><path fill="#000" stroke="none" d="M 5390,7289.09 L 5410,7289.09 L 5410,7343.64 L 5390,7343.64 L 5390,7289.09 Z" transform="matrix(0.05 0 0 0.05 -230 -352)"/><path fill="#000" stroke="none" d="M 5390,7398.18 L 5410,7398.18 L 5410,7452.73 L 5390,7452.73 L 5390,7398.18 Z" transform="matrix(0.05 0 0 0.05 -230 -352)"/><path fill="#000" stroke="none" d="M 5390,7507.27 L 5410,7507.27 L 5410,7561.82 L 5390,7561.82 L 5390,7507.27 Z" transform="matrix(0.05 0 0 0.05 -230 -352)"/><path fill="#000" stroke="none" d="M 5390,7616.36 L 5410,7616.36 L 5410,7670.91 L 5390,7670.91 L 5390,7616.36 Z" transform="matrix(0.05 0 0 0.05 -230 -352)"/><path fill="#000" stroke="none" d="M 5390,7725.45 L 5410,7725.45 L 5410,7780 L 5390,7780 L 5390,7725.45 Z" transform="matrix(0.05 0 0 0.05 -230 -352)"/></svg>