<svg xmlns="http://www.w3.org/2000/svg" xmlns:xlink="http://www.w3.org/1999/xlink" width="68" height="41" version="1.1" viewBox="0 0 68 41" style="background-color:#ffffff00"><text x="0" y="0" fill="#000" stroke="none" font-family="Helvetica" font-size="320" font-style="normal" font-weight="bold" transform="matrix(0.05 0 0 0.05 1.66797 13.7578)">HC</text><text x="0" y="0" fill="#000" stroke="none" font-family="Helvetica" font-size="320" font-style="normal" font-weight="bold" transform="matrix(0.05 0 0 0.05 43.2227 13.7578)">CH</text><path fill="#000" stroke="none" d="M 5558.83,7118 L 5558.83,7138 L 5243.42,7138 L 5243.42,7118 L 5558.83,7118 L 5558.83,7118 Z" transform="matrix(0.05 0 0 0.05 -236 -352)"/><path fill="#000" stroke="none" d="M 5558.83,7190 L 5558.83,7210 L 5470,7210 L 5470,7190 L 5558.83,7190 L 5558.83,7190 Z" transform="matrix(0.05 0 0 0.05 -236 -352)"/><path fill="#000" stroke="none" d="M 5243.42,7210 L 5243.42,7190 L 5370,7190 L 5370,7210 L 5243.42,7210 L 5243.42,7210 Z" transform="matrix(0.05 0 0 0.05 -236 -352)"/><path fill="#000" stroke="none" d="M 5558.83,7262 L 5558.83,7282 L 5470,7282 L 5470,7262 L 5558.83,7262 L 5558.83,7262 Z" transform="matrix(0.05 0 0 0.05 -236 -352)"/><path fill="#000" stroke="none" d="M 5243.42,7282 L 5243.42,7262 L 5370,7262 L 5370,7282 L 5243.42,7282 L 5243.42,7282 Z" transform="matrix(0.05 0 0 0.05 -236 -352)"/><path fill="#000" stroke="none" d="M 5410,7220 L 5430,7220 L 5430,7274.55 L 5410,7274.55 L 5410,7220 Z" transform="matrix(0.05 0 0 0.05 -236 -352)"/><path fill="#000" stroke="none" d="M 5410,7329.09 L 5430,7329.09 L 5430,7383.64 L 5410,7383.64 L 5410,7329.09 Z" transform="matrix(0.05 0 0 0.05 -236 -352)"/><path fill="#000" stroke="none" d="M 5410,7438.18 L 5430,7438.18 L 5430,7492.73 L 5410,7492.73 L 5410,7438.18 Z" transform="matrix(0.05 0 0 0.05 -236 -352)"/><path fill="#000" stroke="none" d="M 5410,7547.27 L 5430,7547.27 L 5430,7601.82 L 5410,7601.82 L 5410,7547.27 Z" transform="matrix(0.05 0 0 0.05 -236 -352)"/><path fill="#000" stroke="none" d="M 5410,7656.36 L 5430,7656.36 L 5430,7710.91 L 5410,7710.91 L 5410,7656.36 Z" transform="matrix(0.05 0 0 0.05 -236 -352)"/><path fill="#000" stroke="none" d="M 5410,7765.45 L 5430,7765.45 L 5430,7820 L 5410,7820 L 5410,7765.45 Z" transform="matrix(0.05 0 0 0.05 -236 -352)"/></svg>