<svg height="42" viewBox="0 0 62 42" width="62" xmlns="http://www.w3.org/2000/svg"><g transform="matrix(.05 0 0 .05 -238 -298)"><path d="m5410 6760h-20v-54.55h20z"/><path d="m5410 6650.91h-20v-54.55h20z"/><path d="m5410 6541.82h-20v-54.55h20z"/><path d="m5410 6214.55h-20v-54.55h20z"/><path d="m4877.87 6036.91-76.5-20h1158.48l-64.84 20z"/><path d="m5433.79 6304.45 6.18 142.23-638.6-429.77 76.5 20z"/><path d="m5895.01 6036.91 64.84-20-519.88 429.77-6.18-142.23z"/><path d="m5259.56 6141.97c4.37 28.31 71.21 51.29 149.2 51.29 77.98 0 137.74-22.98 133.37-51.29-4.36-28.31-71.21-51.29-149.19-51.29-77.99 0-137.75 22.98-133.38 51.29" fill="none" stroke="#000" stroke-width="20"/></g></svg>