<svg height="45" viewBox="0 0 66 45" width="66" xmlns="http://www.w3.org/2000/svg"><g transform="matrix(.05 0 0 .05 -170 -244)"><path d="m4038.89 5720.08-20-.37 1.01-54.53 20 .37z"/><path d="m4040.91 5611.01-20-.37 1.01-54.54 20 .37z"/><path d="m4042.93 5501.94-20-.37 1.01-54.54 20 .37z"/><path d="m4044.95 5392.87-20-.37.43-23.01h20z"/><path d="m4030 5119.81 20 .38-.05 2.59h-20z"/><path d="m3654.16 5344.49 90.08-80h630.56l90.12 80z"/><path d="m3746.08 5197.78v-20h627.07v20z"/><path d="m3458.07 5078.39 40.67 11.13 245.5 174.97-90.08 80z"/><path d="m4060.43 4939.11-.01 20.53-561.68 129.88-40.67-11.13z"/><path d="m4058.16 5013.64 4.51 19.49-49.04 11.33-4.5-19.48z"/><path d="m3960.1 5036.31 4.5 19.49-49.03 11.34-4.5-19.49z"/><path d="m3862.04 5058.99 4.5 19.49-49.03 11.33-4.51-19.48z"/><path d="m3763.97 5081.66 4.51 19.49-49.03 11.34-4.51-19.49z"/><path d="m3665.91 5104.34 4.51 19.49-49.03 11.33-4.51-19.48z"/><path d="m4661.93 5078.41-40.74 11.09-560.77-129.86.01-20.53z"/><path d="m4503.04 5115.51-4.52 19.49-48.93-11.33 4.52-19.49z"/><path d="m4405.18 5092.85-4.51 19.49-48.93-11.33 4.51-19.49z"/><path d="m4307.32 5070.19-4.51 19.48-48.93-11.33 4.51-19.48z"/><path d="m4209.46 5047.53-4.51 19.48-48.93-11.33 4.51-19.48z"/><path d="m4111.6 5024.87-4.51 19.48-48.93-11.33 4.51-19.49z"/><path d="m4621.19 5089.5 40.74-11.09-197.01 266.08-90.12-80z"/></g></svg>