<svg height="51" viewBox="0 0 80 51" width="80" xmlns="http://www.w3.org/2000/svg"><g transform="matrix(.05 0 0 .05 -103 -214)"><path d="m2547.09 4332.77 8.14 19.96-428.28 414.46-13.9-14.38z"/><path d="m2573.5 4407.41 13.91 14.37-410.39 397.15-13.9-14.38z"/><path d="m3155.01 4329.61-7.71 20.04-592.07 3.08-8.14-19.96z"/><path d="m3600.91 4736.9-13.49 14.76-440.12-402.01 7.71-20.04z"/><path d="m3552.35 4790.06-13.49 14.76-422.23-385.66 13.49-14.77z"/><path d="m2869.98 5259.33-19.99.67-1.81-54.52 19.99-.66z"/><path d="m2866.35 5150.3-19.99.67-1.82-54.52 19.99-.66z"/><path d="m2862.71 5041.27-19.98.67-1.82-54.52 19.99-.66z"/><path d="m2859.08 4932.24-19.99.67-1.82-54.52 19.99-.66z"/><path d="m2855.45 4823.21-19.99.67-1.82-54.52 19.99-.66z"/><path d="m2851.81 4714.18-19.99.67-1.81-54.52 19.98-.66z"/></g></svg>