<svg height="45" viewBox="0 0 66 45" width="66" xmlns="http://www.w3.org/2000/svg"><g transform="matrix(.05 0 0 .05 -170 -244)"><path d="m4038.89 5720.08-20-.37 1.01-54.53 20 .37z"/><path d="m4040.91 5611.01-20-.37 1.01-54.54 20 .37z"/><path d="m4042.93 5501.94-20-.37 1.01-54.54 20 .37z"/><path d="m4044.95 5392.87-20-.37.15-8.01h20z"/><path d="m4048.99 5174.72-20-.37 1.01-54.54 20 .38z"/><path d="m3724.66 5344.49-52.77-80h775.44l-53.03 80z"/><path d="m3455.03 5079.1 39.97 11.28 176.89 174.11 52.77 80z"/><path d="m3567.94 5120.08 14.03-14.26 143.8 141.54-14.03 14.25z"/><path d="m4060.43 4939.11-.01 20.53-565.42 130.74-39.97-11.28z"/><path d="m4664.98 5079.11-40.05 11.26-564.51-130.73.01-20.53z"/><path d="m4624.93 5090.37 40.05-11.26-270.68 265.38 53.03-80z"/><path d="m4537.83 5105.74 14 14.28-144.44 141.61-14-14.28z"/></g></svg>