<svg xmlns="http://www.w3.org/2000/svg" xmlns:xlink="http://www.w3.org/1999/xlink" width="141" height="61" version="1.1" viewBox="0 0 141 61" style="background-color:#ffffff00"><path fill="#000" stroke="none" d="M 4570,5580 L 4550,5580 L 4550,5525.45 L 4570,5525.45 L 4570,5580 L 4570,5580 Z" transform="matrix(0.05 0 0 0.05 -161 -220)"/><path fill="#000" stroke="none" d="M 4570,5470.91 L 4550,5470.91 L 4550,5416.36 L 4570,5416.36 L 4570,5470.91 L 4570,5470.91 Z" transform="matrix(0.05 0 0 0.05 -161 -220)"/><path fill="#000" stroke="none" d="M 4570,5361.82 L 4550,5361.82 L 4550,5315.71 L 4570,5315.71 L 4570,5361.82 L 4570,5361.82 Z" transform="matrix(0.05 0 0 0.05 -161 -220)"/><path fill="#000" stroke="none" d="M 4570,5034.55 L 4550,5034.55 L 4550,4980 L 4570,4980 L 4570,5034.55 L 4570,5034.55 Z" transform="matrix(0.05 0 0 0.05 -161 -220)"/><path fill="#000" stroke="none" d="M 5995.37,4451.77 L 5916.91,4502.18 L 5208.81,4764.58 L 5205.22,4744.58 L 5995.37,4451.77 Z" transform="matrix(0.05 0 0 0.05 -161 -220)"/><path fill="#000" stroke="none" d="M 5432.4,4988.38 L 5353.73,5095.66 L 4706.93,5290.71 L 4695.13,5210.71 L 5432.4,4988.38 Z" transform="matrix(0.05 0 0 0.05 -161 -220)"/><path fill="#000" stroke="none" d="M 3931.79,4541.65 L 3934.61,4563.9 L 3374.19,4943.24 L 3273.52,4987.23 L 3931.79,4541.65 Z" transform="matrix(0.05 0 0 0.05 -161 -220)"/><path fill="#000" stroke="none" d="M 4000.45,5210.71 L 3984.08,5290.71 L 3273.52,4987.23 L 3374.19,4943.24 L 4000.45,5210.71 Z" transform="matrix(0.05 0 0 0.05 -161 -220)"/><path fill="#000" stroke="none" d="M 4499.98,4744.58 L 4496.51,4764.58 L 3934.61,4563.9 L 3931.79,4541.65 L 4499.98,4744.58 Z" transform="matrix(0.05 0 0 0.05 -161 -220)"/><path fill="#000" stroke="none" d="M 4496.51,4764.58 L 4499.98,4744.58 L 5205.22,4744.58 L 5208.81,4764.58 L 4496.51,4764.58 Z" transform="matrix(0.05 0 0 0.05 -161 -220)"/><path fill="#000" stroke="none" d="M 4498.25,4849.63 L 4498.25,4829.63 L 5207.01,4829.63 L 5207.01,4849.63 L 4498.25,4849.63 Z" transform="matrix(0.05 0 0 0.05 -161 -220)"/><path fill="#000" stroke="none" d="M 3984.08,5290.71 L 4000.45,5210.71 L 4695.13,5210.71 L 4706.93,5290.71 L 3984.08,5290.71 Z" transform="matrix(0.05 0 0 0.05 -161 -220)"/><path fill="#000" stroke="none" d="M 4015.81,5145.66 L 4015.81,5125.66 L 4684.06,5125.66 L 4684.06,5145.66 L 4015.81,5145.66 Z" transform="matrix(0.05 0 0 0.05 -161 -220)"/><path fill="#000" stroke="none" d="M 5916.91,4502.18 L 5995.37,4451.77 L 5353.73,5095.66 L 5432.4,4988.38 L 5916.91,4502.18 Z" transform="matrix(0.05 0 0 0.05 -161 -220)"/></svg>