<svg height="42" viewBox="0 0 36 42" width="36" xmlns="http://www.w3.org/2000/svg"><g transform="matrix(.05 0 0 .05 -65 -227)"><path d="m1370 4871.4-20 20v-302.8l20 20z"/><path d="m1420 4831.4h-20v-182.8h20z"/><path d="m1950 4871.4 20 20h-620l20-20z"/><path d="m1950 4608.6 20-20v302.8l-20-20z"/><path d="m1900 4648.6h20v182.8h-20z"/><path d="m1370 4608.6-20-20h620l-20 20z"/><path d="m1650 5340h-20v-54.55h20z"/><path d="m1650 5230.91h-20v-54.55h20z"/><path d="m1650 5121.82h-20v-54.55h20z"/><path d="m1650 5012.73h-20v-54.55h20z"/><path d="m1650 4794.55h-20v-54.55h20z"/></g></svg>