<svg height="61" viewBox="0 0 72 61" width="72" xmlns="http://www.w3.org/2000/svg"><g transform="matrix(.05 0 0 .05 -176 -259)"><path d="m3586.97 5724.01-20.46 13.16 10.78-316.45 19.55 13.76z"/><path d="m4092.44 5874.61-95.85 91.44-430.08-228.88 20.46-13.16z"/><path d="m4573.38 5819.78 101.24 68.97-678.03 77.3 95.85-91.44z"/><path d="m4882.26 5579.64 27.64.5-235.28 308.61-101.24-68.97z"/><path d="m4640.08 5316.57 9.69-19 260.13 282.57-27.64-.5z"/><path d="m4063.52 5249.27-2.69-20.45 588.94 68.75-9.69 19z"/><path d="m4060.83 5228.82 2.69 20.45-466.68 185.21-19.55-13.76z"/><path d="m4731.9 5580.27c5.02-147.25-226.97-266.77-517.79-266.77s-530.95 119.52-535.97 266.77 226.97 266.77 517.79 266.77 530.95-119.52 535.97-266.77" fill="none" stroke="#000" stroke-width="20"/><path d="m4230 6360h-20v-52h20z"/><path d="m4230 6256h-20v-52h20z"/><path d="m4230 6152h-20v-52h20z"/><path d="m4230 6048h-20v-52h20z"/><path d="m4210 5788h20v30.67l-20 2.28z"/><path d="m4230 5736h-20v-52h20z"/><path d="m4230 5632h-20v-52h20z"/></g></svg>