<svg height="47" viewBox="0 0 79 47" width="79" xmlns="http://www.w3.org/2000/svg"><g transform="matrix(.05 0 0 .05 -182 -274)"><path d="m4122.07 5556.96-3.63-19.96 603.15-6.1-3.18 20.03z"/><path d="m4133.42 5628.82-.2-20 575.2-5.81.2 20z"/><path d="m3718.65 5704-20-14 419.79-153 3.63 19.96z"/><path d="m3718.65 5895.02-20 14.49v-219.51l20 14z"/><path d="m3768.65 5866.74h-20v-134.75h20z"/><path d="m4245.92 6004.54-157.26 80-390.01-175.03 20-14.49z"/><path d="m4656.28 6004.54 142 80h-709.62l157.26-80z"/><path d="m4726.94 5932.58v20h-565.63v-20z"/><path d="m5146.55 5886.71 20 13.93-368.27 183.9-142-80z"/><path d="m5146.55 5695.6 20-14.35v219.39l-20-13.93z"/><path d="m5096.55 5724.31h20v135.22h-20z"/><path d="m4718.41 5550.93 3.18-20.03 444.96 150.35-20 14.35z"/><path d="m4430 6380h-20v-54.55h20z"/><path d="m4430 6270.91h-20v-54.55h20z"/><path d="m4430 6161.82h-20v-52.28h20z"/><path d="m4430 5834.55h-20v-54.55h20z"/></g></svg>