<?xml version="1.0" standalone="no" ?>
<!DOCTYPE svg PUBLIC "-//W3C//DTD SVG 1.1//EN" "http://www.w3.org/Graphics/SVG/1.1/DTD/svg11.dtd">
<svg width="68px" height="41px" viewBox="0 0 68 41" style="background-color: #ffffff00" xmlns="http://www.w3.org/2000/svg" xmlns:xlink="http://www.w3.org/1999/xlink" version="1.1" >
<text x="0" y="0" stroke="none" fill="#000000" transform="matrix(0.05 0 0 0.05 1.66797 13.7578)" font-style="normal" font-weight="bold" font-size="320px" font-family="Helvetica" >
HC</text>
<text x="0" y="0" stroke="none" fill="#000000" transform="matrix(0.05 0 0 0.05 43.2227 13.7578)" font-style="normal" font-weight="bold" font-size="320px" font-family="Helvetica" >
CH</text>
<path stroke="none" fill="#000000" transform="matrix(0.05 0 0 0.05 -236 -352)" d="M 5558.83,7118 L 5558.83,7138 L 5243.42,7138 L 5243.42,7118 L 5558.83,7118 L 5558.83,7118 Z " />
<path stroke="none" fill="#000000" transform="matrix(0.05 0 0 0.05 -236 -352)" d="M 5558.83,7190 L 5558.83,7210 L 5470,7210 L 5470,7190 L 5558.83,7190 L 5558.83,7190 Z " />
<path stroke="none" fill="#000000" transform="matrix(0.05 0 0 0.05 -236 -352)" d="M 5243.42,7210 L 5243.42,7190 L 5370,7190 L 5370,7210 L 5243.42,7210 L 5243.42,7210 Z " />
<path stroke="none" fill="#000000" transform="matrix(0.05 0 0 0.05 -236 -352)" d="M 5558.83,7262 L 5558.83,7282 L 5470,7282 L 5470,7262 L 5558.83,7262 L 5558.83,7262 Z " />
<path stroke="none" fill="#000000" transform="matrix(0.05 0 0 0.05 -236 -352)" d="M 5243.42,7282 L 5243.42,7262 L 5370,7262 L 5370,7282 L 5243.42,7282 L 5243.42,7282 Z " />
<path stroke="none" fill="#000000" transform="matrix(0.05 0 0 0.05 -236 -352)" d="M 5410,7220 L 5430,7220 L 5430,7274.55 L 5410,7274.55 L 5410,7220 Z " />
<path stroke="none" fill="#000000" transform="matrix(0.05 0 0 0.05 -236 -352)" d="M 5410,7329.09 L 5430,7329.09 L 5430,7383.64 L 5410,7383.64 L 5410,7329.09 Z " />
<path stroke="none" fill="#000000" transform="matrix(0.05 0 0 0.05 -236 -352)" d="M 5410,7438.18 L 5430,7438.18 L 5430,7492.73 L 5410,7492.73 L 5410,7438.18 Z " />
<path stroke="none" fill="#000000" transform="matrix(0.05 0 0 0.05 -236 -352)" d="M 5410,7547.27 L 5430,7547.27 L 5430,7601.82 L 5410,7601.82 L 5410,7547.27 Z " />
<path stroke="none" fill="#000000" transform="matrix(0.05 0 0 0.05 -236 -352)" d="M 5410,7656.36 L 5430,7656.36 L 5430,7710.91 L 5410,7710.91 L 5410,7656.36 Z " />
<path stroke="none" fill="#000000" transform="matrix(0.05 0 0 0.05 -236 -352)" d="M 5410,7765.45 L 5430,7765.45 L 5430,7820 L 5410,7820 L 5410,7765.45 Z " />
</svg>
