<?xml version="1.0" standalone="no" ?>
<!DOCTYPE svg PUBLIC "-//W3C//DTD SVG 1.1//EN" "http://www.w3.org/Graphics/SVG/1.1/DTD/svg11.dtd">
<svg width="58px" height="49px" viewBox="0 0 58 49" style="background-color: #ffffff00" xmlns="http://www.w3.org/2000/svg" xmlns:xlink="http://www.w3.org/1999/xlink" version="1.1" >
<path stroke="none" fill="#000000" transform="matrix(0.05 0 0 0.05 -186 -237)" d="M 4296.66,4783.7 L 4296.98,4806.72 L 3785.08,5108.61 L 3774.92,5091.39 L 4296.66,4783.7 Z " />
<path stroke="none" fill="#000000" transform="matrix(0.05 0 0 0.05 -186 -237)" d="M 4292.91,4869.49 L 4303.07,4886.72 L 4259.3,4912.53 L 4249.14,4895.3 L 4292.91,4869.49 Z " />
<path stroke="none" fill="#000000" transform="matrix(0.05 0 0 0.05 -186 -237)" d="M 4205.38,4921.11 L 4215.54,4938.34 L 4171.77,4964.15 L 4161.61,4946.92 L 4205.38,4921.11 Z " />
<path stroke="none" fill="#000000" transform="matrix(0.05 0 0 0.05 -186 -237)" d="M 4117.85,4972.73 L 4128.01,4989.96 L 4084.24,5015.77 L 4074.08,4998.54 L 4117.85,4972.73 Z " />
<path stroke="none" fill="#000000" transform="matrix(0.05 0 0 0.05 -186 -237)" d="M 4030.32,5024.35 L 4040.48,5041.58 L 3996.71,5067.39 L 3986.55,5050.16 L 4030.32,5024.35 Z " />
<path stroke="none" fill="#000000" transform="matrix(0.05 0 0 0.05 -186 -237)" d="M 3942.79,5075.97 L 3952.95,5093.2 L 3909.18,5119.01 L 3899.02,5101.78 L 3942.79,5075.97 Z " />
<path stroke="none" fill="#000000" transform="matrix(0.05 0 0 0.05 -186 -237)" d="M 3855.26,5127.59 L 3865.42,5144.82 L 3821.65,5170.63 L 3811.5,5153.4 L 3855.26,5127.59 Z " />
<path stroke="none" fill="#000000" transform="matrix(0.05 0 0 0.05 -186 -237)" d="M 4826.86,5076.55 L 4817.19,5094.06 L 4296.98,4806.72 L 4296.66,4783.7 L 4826.86,5076.55 Z " />
<path stroke="none" fill="#000000" transform="matrix(0.05 0 0 0.05 -186 -237)" d="M 4792.05,5139.58 L 4782.38,5157.09 L 4737.9,5132.52 L 4747.57,5115.01 L 4792.05,5139.58 Z " />
<path stroke="none" fill="#000000" transform="matrix(0.05 0 0 0.05 -186 -237)" d="M 4703.1,5090.45 L 4693.43,5107.95 L 4648.95,5083.39 L 4658.62,5065.88 L 4703.1,5090.45 Z " />
<path stroke="none" fill="#000000" transform="matrix(0.05 0 0 0.05 -186 -237)" d="M 4614.15,5041.32 L 4604.48,5058.82 L 4560,5034.26 L 4569.67,5016.75 L 4614.15,5041.32 Z " />
<path stroke="none" fill="#000000" transform="matrix(0.05 0 0 0.05 -186 -237)" d="M 4525.2,4992.18 L 4515.53,5009.69 L 4471.05,4985.12 L 4480.72,4967.62 L 4525.2,4992.18 Z " />
<path stroke="none" fill="#000000" transform="matrix(0.05 0 0 0.05 -186 -237)" d="M 4436.25,4943.05 L 4426.58,4960.56 L 4382.1,4935.99 L 4391.77,4918.49 L 4436.25,4943.05 Z " />
<path stroke="none" fill="#000000" transform="matrix(0.05 0 0 0.05 -186 -237)" d="M 4347.3,4893.92 L 4337.63,4911.43 L 4293.15,4886.86 L 4302.82,4869.35 L 4347.3,4893.92 Z " />
<path stroke="none" fill="#000000" transform="matrix(0.05 0 0 0.05 -186 -237)" d="M 4308.74,5659.39 L 4288.75,5660.02 L 4287.04,5605.5 L 4307.03,5604.88 L 4308.74,5659.39 Z " />
<path stroke="none" fill="#000000" transform="matrix(0.05 0 0 0.05 -186 -237)" d="M 4305.33,5550.36 L 4285.34,5550.98 L 4283.63,5496.46 L 4303.62,5495.84 L 4305.33,5550.36 Z " />
<path stroke="none" fill="#000000" transform="matrix(0.05 0 0 0.05 -186 -237)" d="M 4301.92,5441.32 L 4281.93,5441.94 L 4280.23,5387.43 L 4300.22,5386.8 L 4301.92,5441.32 Z " />
<path stroke="none" fill="#000000" transform="matrix(0.05 0 0 0.05 -186 -237)" d="M 4298.51,5332.28 L 4278.52,5332.91 L 4276.82,5278.39 L 4296.81,5277.76 L 4298.51,5332.28 Z " />
<path stroke="none" fill="#000000" transform="matrix(0.05 0 0 0.05 -186 -237)" d="M 4295.11,5223.24 L 4275.12,5223.87 L 4273.41,5169.35 L 4293.4,5168.73 L 4295.11,5223.24 Z " />
<path stroke="none" fill="#000000" transform="matrix(0.05 0 0 0.05 -186 -237)" d="M 4291.7,5114.21 L 4271.71,5114.83 L 4270,5060.31 L 4290,5059.69 L 4291.7,5114.21 Z " />
</svg>
