<?xml version="1.0" standalone="no" ?>
<!DOCTYPE svg PUBLIC "-//W3C//DTD SVG 1.1//EN" "http://www.w3.org/Graphics/SVG/1.1/DTD/svg11.dtd">
<svg width="62px" height="42px" viewBox="0 0 62 42" style="background-color: #ffffff00" xmlns="http://www.w3.org/2000/svg" xmlns:xlink="http://www.w3.org/1999/xlink" version="1.1" >
<path stroke="none" fill="#000000" transform="matrix(0.05 0 0 0.05 -238 -298)" d="M 5410,6760 L 5390,6760 L 5390,6705.45 L 5410,6705.45 L 5410,6760 L 5410,6760 Z " />
<path stroke="none" fill="#000000" transform="matrix(0.05 0 0 0.05 -238 -298)" d="M 5410,6650.91 L 5390,6650.91 L 5390,6596.36 L 5410,6596.36 L 5410,6650.91 L 5410,6650.91 Z " />
<path stroke="none" fill="#000000" transform="matrix(0.05 0 0 0.05 -238 -298)" d="M 5410,6541.82 L 5390,6541.82 L 5390,6487.27 L 5410,6487.27 L 5410,6541.82 L 5410,6541.82 Z " />
<path stroke="none" fill="#000000" transform="matrix(0.05 0 0 0.05 -238 -298)" d="M 5410,6214.55 L 5390,6214.55 L 5390,6160 L 5410,6160 L 5410,6214.55 L 5410,6214.55 Z " />
<path stroke="none" fill="#000000" transform="matrix(0.05 0 0 0.05 -238 -298)" d="M 4877.87,6036.91 L 4801.37,6016.91 L 5959.85,6016.91 L 5895.01,6036.91 L 4877.87,6036.91 Z " />
<path stroke="none" fill="#000000" transform="matrix(0.05 0 0 0.05 -238 -298)" d="M 5433.79,6304.45 L 5439.97,6446.68 L 4801.37,6016.91 L 4877.87,6036.91 L 5433.79,6304.45 Z " />
<path stroke="none" fill="#000000" transform="matrix(0.05 0 0 0.05 -238 -298)" d="M 5895.01,6036.91 L 5959.85,6016.91 L 5439.97,6446.68 L 5433.79,6304.45 L 5895.01,6036.91 Z " />
<path stroke="#000000" stroke-width="20" fill="none" transform="matrix(0.05 0 0 0.05 -238 -298)" d="M 5259.56,6141.97 C 5263.93,6170.28 5330.77,6193.26 5408.76,6193.26 C 5486.74,6193.26 5546.5,6170.28 5542.13,6141.97 C 5537.77,6113.66 5470.92,6090.68 5392.94,6090.68 C 5314.95,6090.68 5255.19,6113.66 5259.56,6141.97 " />
</svg>
