<?xml version="1.0" standalone="no" ?>
<!DOCTYPE svg PUBLIC "-//W3C//DTD SVG 1.1//EN" "http://www.w3.org/Graphics/SVG/1.1/DTD/svg11.dtd">
<svg width="36px" height="42px" viewBox="0 0 36 42" style="background-color: #ffffff00" xmlns="http://www.w3.org/2000/svg" xmlns:xlink="http://www.w3.org/1999/xlink" version="1.1" >
<path stroke="none" fill="#000000" transform="matrix(0.05 0 0 0.05 -65 -227)" d="M 1370,4871.4 L 1350,4891.4 L 1350,4588.6 L 1370,4608.6 L 1370,4871.4 Z " />
<path stroke="none" fill="#000000" transform="matrix(0.05 0 0 0.05 -65 -227)" d="M 1420,4831.4 L 1400,4831.4 L 1400,4648.6 L 1420,4648.6 L 1420,4831.4 Z " />
<path stroke="none" fill="#000000" transform="matrix(0.05 0 0 0.05 -65 -227)" d="M 1950,4871.4 L 1970,4891.4 L 1350,4891.4 L 1370,4871.4 L 1950,4871.4 Z " />
<path stroke="none" fill="#000000" transform="matrix(0.05 0 0 0.05 -65 -227)" d="M 1950,4608.6 L 1970,4588.6 L 1970,4891.4 L 1950,4871.4 L 1950,4608.6 Z " />
<path stroke="none" fill="#000000" transform="matrix(0.05 0 0 0.05 -65 -227)" d="M 1900,4648.6 L 1920,4648.6 L 1920,4831.4 L 1900,4831.4 L 1900,4648.6 Z " />
<path stroke="none" fill="#000000" transform="matrix(0.05 0 0 0.05 -65 -227)" d="M 1370,4608.6 L 1350,4588.6 L 1970,4588.6 L 1950,4608.6 L 1370,4608.6 Z " />
<path stroke="none" fill="#000000" transform="matrix(0.05 0 0 0.05 -65 -227)" d="M 1650,5340 L 1630,5340 L 1630,5285.45 L 1650,5285.45 L 1650,5340 L 1650,5340 Z " />
<path stroke="none" fill="#000000" transform="matrix(0.05 0 0 0.05 -65 -227)" d="M 1650,5230.91 L 1630,5230.91 L 1630,5176.36 L 1650,5176.36 L 1650,5230.91 L 1650,5230.91 Z " />
<path stroke="none" fill="#000000" transform="matrix(0.05 0 0 0.05 -65 -227)" d="M 1650,5121.82 L 1630,5121.82 L 1630,5067.27 L 1650,5067.27 L 1650,5121.82 L 1650,5121.82 Z " />
<path stroke="none" fill="#000000" transform="matrix(0.05 0 0 0.05 -65 -227)" d="M 1650,5012.73 L 1630,5012.73 L 1630,4958.18 L 1650,4958.18 L 1650,5012.73 L 1650,5012.73 Z " />
<path stroke="none" fill="#000000" transform="matrix(0.05 0 0 0.05 -65 -227)" d="M 1650,4794.55 L 1630,4794.55 L 1630,4740 L 1650,4740 L 1650,4794.55 L 1650,4794.55 Z " />
</svg>
