<?xml version="1.0" standalone="no" ?>
<!DOCTYPE svg PUBLIC "-//W3C//DTD SVG 1.1//EN" "http://www.w3.org/Graphics/SVG/1.1/DTD/svg11.dtd">
<svg width="96px" height="69px" viewBox="0 0 96 69" style="background-color: #ffffff00" xmlns="http://www.w3.org/2000/svg" xmlns:xlink="http://www.w3.org/1999/xlink" version="1.1" >
<path stroke="none" fill="#000000" transform="matrix(0.05 0 0 0.05 -177 -235)" d="M 4490,6040 L 4470,6040 L 4470,5982.67 L 4490,5982.67 L 4490,6040 L 4490,6040 Z " />
<path stroke="none" fill="#000000" transform="matrix(0.05 0 0 0.05 -177 -235)" d="M 4490,5925.33 L 4470,5925.33 L 4470,5868 L 4490,5868 L 4490,5925.33 L 4490,5925.33 Z " />
<path stroke="none" fill="#000000" transform="matrix(0.05 0 0 0.05 -177 -235)" d="M 4490,5810.67 L 4470,5810.67 L 4470,5753.33 L 4490,5753.33 L 4490,5810.67 L 4490,5810.67 Z " />
<path stroke="none" fill="#000000" transform="matrix(0.05 0 0 0.05 -177 -235)" d="M 4490,5696 L 4470,5696 L 4470,5638.67 L 4490,5638.67 L 4490,5696 L 4490,5696 Z " />
<path stroke="none" fill="#000000" transform="matrix(0.05 0 0 0.05 -177 -235)" d="M 4490,5466.67 L 4470,5466.67 L 4470,5409.33 L 4490,5409.33 L 4490,5466.67 L 4490,5466.67 Z " />
<path stroke="none" fill="#000000" transform="matrix(0.05 0 0 0.05 -177 -235)" d="M 4490,5352 L 4470,5352 L 4470,5294.67 L 4490,5294.67 L 4490,5352 L 4490,5352 Z " />
<path stroke="none" fill="#000000" transform="matrix(0.05 0 0 0.05 -177 -235)" d="M 4490,5237.33 L 4470,5237.33 L 4470,5180 L 4490,5180 L 4490,5237.33 L 4490,5237.33 Z " />
<path stroke="none" fill="#000000" transform="matrix(0.05 0 0 0.05 -177 -235)" d="M 4906.01,5519.84 L 4996.71,5600.14 L 4005.27,5596.82 L 4096.51,5517.13 L 4906.01,5519.84 Z " />
<path stroke="none" fill="#000000" transform="matrix(0.05 0 0 0.05 -177 -235)" d="M 5389.01,5165.35 L 5419.37,5165.46 L 4996.71,5600.14 L 4906.01,5519.84 L 5389.01,5165.35 Z " />
<path stroke="none" fill="#000000" transform="matrix(0.05 0 0 0.05 -177 -235)" d="M 4951.21,4779.06 L 4958.8,4759.08 L 5419.37,5165.46 L 5389.01,5165.35 L 4951.21,4779.06 Z " />
<path stroke="none" fill="#000000" transform="matrix(0.05 0 0 0.05 -177 -235)" d="M 4056.28,4776.06 L 4048.82,4756.04 L 4958.8,4759.08 L 4951.21,4779.06 L 4056.28,4776.06 Z " />
<path stroke="none" fill="#000000" transform="matrix(0.05 0 0 0.05 -177 -235)" d="M 3615.9,5159.41 L 3585.54,5159.33 L 4048.82,4756.04 L 4056.28,4776.06 L 3615.9,5159.41 Z " />
<path stroke="none" fill="#000000" transform="matrix(0.05 0 0 0.05 -177 -235)" d="M 4096.51,5517.13 L 4005.27,5596.82 L 3585.54,5159.33 L 3615.9,5159.41 L 4096.51,5517.13 Z " />
<path stroke="#000000" stroke-width="20" fill="none" transform="matrix(0.05 0 0 0.05 -177 -235)" d="M 3865.3,5160.89 C 3864.7,5338.84 4149.68,5484.24 4501.37,5485.42 C 4853.06,5486.6 5139.01,5343.11 5139.61,5165.15 C 5140.2,4987.2 4855.22,4841.8 4503.53,4840.62 C 4151.84,4839.44 3865.89,4982.93 3865.3,5160.89 " />
</svg>
