<svg xmlns="http://www.w3.org/2000/svg" xmlns:xlink="http://www.w3.org/1999/xlink" width="72" height="61" version="1.1" viewBox="0 0 72 61" style="background-color:#ffffff00"><path fill="#000" stroke="none" d="M 3586.97,5724.01 L 3566.51,5737.17 L 3577.29,5420.72 L 3596.84,5434.48 L 3586.97,5724.01 Z" transform="matrix(0.05 0 0 0.05 -176 -259)"/><path fill="#000" stroke="none" d="M 4092.44,5874.61 L 3996.59,5966.05 L 3566.51,5737.17 L 3586.97,5724.01 L 4092.44,5874.61 Z" transform="matrix(0.05 0 0 0.05 -176 -259)"/><path fill="#000" stroke="none" d="M 4573.38,5819.78 L 4674.62,5888.75 L 3996.59,5966.05 L 4092.44,5874.61 L 4573.38,5819.78 Z" transform="matrix(0.05 0 0 0.05 -176 -259)"/><path fill="#000" stroke="none" d="M 4882.26,5579.64 L 4909.9,5580.14 L 4674.62,5888.75 L 4573.38,5819.78 L 4882.26,5579.64 Z" transform="matrix(0.05 0 0 0.05 -176 -259)"/><path fill="#000" stroke="none" d="M 4640.08,5316.57 L 4649.77,5297.57 L 4909.9,5580.14 L 4882.26,5579.64 L 4640.08,5316.57 Z" transform="matrix(0.05 0 0 0.05 -176 -259)"/><path fill="#000" stroke="none" d="M 4063.52,5249.27 L 4060.83,5228.82 L 4649.77,5297.57 L 4640.08,5316.57 L 4063.52,5249.27 Z" transform="matrix(0.05 0 0 0.05 -176 -259)"/><path fill="#000" stroke="none" d="M 4060.83,5228.82 L 4063.52,5249.27 L 3596.84,5434.48 L 3577.29,5420.72 L 4060.83,5228.82 Z" transform="matrix(0.05 0 0 0.05 -176 -259)"/><path fill="none" stroke="#000" stroke-width="20" d="M 4731.9,5580.27 C 4736.92,5433.02 4504.93,5313.5 4214.11,5313.5 C 3923.29,5313.5 3683.16,5433.02 3678.14,5580.27 C 3673.12,5727.52 3905.11,5847.04 4195.93,5847.04 C 4486.75,5847.04 4726.88,5727.52 4731.9,5580.27" transform="matrix(0.05 0 0 0.05 -176 -259)"/><path fill="#000" stroke="none" d="M 4230,6360 L 4210,6360 L 4210,6308 L 4230,6308 L 4230,6360 L 4230,6360 Z" transform="matrix(0.05 0 0 0.05 -176 -259)"/><path fill="#000" stroke="none" d="M 4230,6256 L 4210,6256 L 4210,6204 L 4230,6204 L 4230,6256 L 4230,6256 Z" transform="matrix(0.05 0 0 0.05 -176 -259)"/><path fill="#000" stroke="none" d="M 4230,6152 L 4210,6152 L 4210,6100 L 4230,6100 L 4230,6152 L 4230,6152 Z" transform="matrix(0.05 0 0 0.05 -176 -259)"/><path fill="#000" stroke="none" d="M 4230,6048 L 4210,6048 L 4210,5996 L 4230,5996 L 4230,6048 L 4230,6048 Z" transform="matrix(0.05 0 0 0.05 -176 -259)"/><path fill="#000" stroke="none" d="M 4210,5788 L 4230,5788 L 4230,5818.67 L 4210,5820.95 L 4210,5788 L 4210,5788 Z" transform="matrix(0.05 0 0 0.05 -176 -259)"/><path fill="#000" stroke="none" d="M 4230,5736 L 4210,5736 L 4210,5684 L 4230,5684 L 4230,5736 L 4230,5736 Z" transform="matrix(0.05 0 0 0.05 -176 -259)"/><path fill="#000" stroke="none" d="M 4230,5632 L 4210,5632 L 4210,5580 L 4230,5580 L 4230,5632 L 4230,5632 Z" transform="matrix(0.05 0 0 0.05 -176 -259)"/></svg>