<svg xmlns="http://www.w3.org/2000/svg" xmlns:xlink="http://www.w3.org/1999/xlink" width="79" height="47" version="1.1" viewBox="0 0 79 47" style="background-color:#ffffff00"><path fill="#000" stroke="none" d="M 4122.07,5556.96 L 4118.44,5537 L 4721.59,5530.9 L 4718.41,5550.93 L 4122.07,5556.96 Z" transform="matrix(0.05 0 0 0.05 -182 -274)"/><path fill="#000" stroke="none" d="M 4133.42,5628.82 L 4133.22,5608.82 L 4708.42,5603.01 L 4708.62,5623.01 L 4133.42,5628.82 Z" transform="matrix(0.05 0 0 0.05 -182 -274)"/><path fill="#000" stroke="none" d="M 3718.65,5704 L 3698.65,5690 L 4118.44,5537 L 4122.07,5556.96 L 3718.65,5704 Z" transform="matrix(0.05 0 0 0.05 -182 -274)"/><path fill="#000" stroke="none" d="M 3718.65,5895.02 L 3698.65,5909.51 L 3698.65,5690 L 3718.65,5704 L 3718.65,5895.02 Z" transform="matrix(0.05 0 0 0.05 -182 -274)"/><path fill="#000" stroke="none" d="M 3768.65,5866.74 L 3748.65,5866.74 L 3748.65,5731.99 L 3768.65,5731.99 L 3768.65,5866.74 Z" transform="matrix(0.05 0 0 0.05 -182 -274)"/><path fill="#000" stroke="none" d="M 4245.92,6004.54 L 4088.66,6084.54 L 3698.65,5909.51 L 3718.65,5895.02 L 4245.92,6004.54 Z" transform="matrix(0.05 0 0 0.05 -182 -274)"/><path fill="#000" stroke="none" d="M 4656.28,6004.54 L 4798.28,6084.54 L 4088.66,6084.54 L 4245.92,6004.54 L 4656.28,6004.54 Z" transform="matrix(0.05 0 0 0.05 -182 -274)"/><path fill="#000" stroke="none" d="M 4726.94,5932.58 L 4726.94,5952.58 L 4161.31,5952.58 L 4161.31,5932.58 L 4726.94,5932.58 Z" transform="matrix(0.05 0 0 0.05 -182 -274)"/><path fill="#000" stroke="none" d="M 5146.55,5886.71 L 5166.55,5900.64 L 4798.28,6084.54 L 4656.28,6004.54 L 5146.55,5886.71 Z" transform="matrix(0.05 0 0 0.05 -182 -274)"/><path fill="#000" stroke="none" d="M 5146.55,5695.6 L 5166.55,5681.25 L 5166.55,5900.64 L 5146.55,5886.71 L 5146.55,5695.6 Z" transform="matrix(0.05 0 0 0.05 -182 -274)"/><path fill="#000" stroke="none" d="M 5096.55,5724.31 L 5116.55,5724.31 L 5116.55,5859.53 L 5096.55,5859.53 L 5096.55,5724.31 Z" transform="matrix(0.05 0 0 0.05 -182 -274)"/><path fill="#000" stroke="none" d="M 4718.41,5550.93 L 4721.59,5530.9 L 5166.55,5681.25 L 5146.55,5695.6 L 4718.41,5550.93 Z" transform="matrix(0.05 0 0 0.05 -182 -274)"/><path fill="#000" stroke="none" d="M 4430,6380 L 4410,6380 L 4410,6325.45 L 4430,6325.45 L 4430,6380 L 4430,6380 Z" transform="matrix(0.05 0 0 0.05 -182 -274)"/><path fill="#000" stroke="none" d="M 4430,6270.91 L 4410,6270.91 L 4410,6216.36 L 4430,6216.36 L 4430,6270.91 L 4430,6270.91 Z" transform="matrix(0.05 0 0 0.05 -182 -274)"/><path fill="#000" stroke="none" d="M 4430,6161.82 L 4410,6161.82 L 4410,6109.54 L 4430,6109.54 L 4430,6161.82 L 4430,6161.82 Z" transform="matrix(0.05 0 0 0.05 -182 -274)"/><path fill="#000" stroke="none" d="M 4430,5834.55 L 4410,5834.55 L 4410,5780 L 4430,5780 L 4430,5834.55 L 4430,5834.55 Z" transform="matrix(0.05 0 0 0.05 -182 -274)"/></svg>