<svg height="256" viewBox="0 0 256 256" width="256" xmlns="http://www.w3.org/2000/svg"><path d="m0 0h256v256h-256z" fill="#fff"/><path d="m37.3 127.8h109.5" fill="none" stroke="#000" stroke-width="2"/><path d="m37.293 190.608c4.71 0 4.71-6.281 0-6.281-4.711 0-4.711-6.28 0-6.28 4.71 0 4.71-6.281 0-6.281-4.711 0-4.711-6.281 0-6.281 4.71 0 4.71-6.281 0-6.281-4.711 0-4.711-6.281 0-6.281 4.71 0 4.71-6.281 0-6.281-4.711 0-4.711-6.28 0-6.28 4.71 0 4.71-6.281 0-6.281-4.711 0-4.711-6.281 0-6.281 4.71 0 4.71-6.281 0-6.281-4.711 0-4.711-6.281 0-6.281 4.71 0 4.71-6.28 0-6.28-4.711 0-4.711-6.281 0-6.281 4.71 0 4.71-6.281 0-6.281-4.711 0-4.711-6.281 0-6.281 4.71 0 4.71-6.281 0-6.281-4.711 0-4.711-6.28 0-6.28 4.71 0 4.71-6.281 0-6.281-4.711 0-4.711-6.281 0-6.281" fill="none" stroke="#7f7f7f" stroke-width="2"/><g font-family="sans-serif"><text font-size="40" x="150.9" y="147.8">C</text><text font-size="40" x="178.5" y="147.8">H</text><text font-size="26" x="206.1" y="163.8">3</text></g></svg>