<svg height="256" viewBox="0 0 256 256" width="256" xmlns="http://www.w3.org/2000/svg"><path d="m0 0h256v256h-256z" fill="#fff"/><g fill="none" stroke-width="2"><path d="m22 143.7 31.7-18.4" stroke="#000"/><path d="m53.7 125.3 31.7 18.3" stroke="#000"/><path d="m85.4 143.6 31.7-18.4" stroke="#000"/><path d="m117.1 125.2 24 13.8" stroke="#000"/><path d="m156.7 138.9 23.9-13.8" stroke="#000"/><path d="m183.3 126.6v-26" stroke="#000"/><path d="m177.8 126.7v-26.1" stroke="#000"/><path d="m180.6 125.1 24 13.7" stroke="#000"/><path d="m52.1 126.2 1.6-.9 1.6.9" stroke="#000" stroke-miterlimit="10"/><path d="m83.9 142.7 1.5.9 1.6-1" stroke="#000" stroke-miterlimit="10"/><path d="m115.5 126.1 1.6-.9 1.2.7" stroke="#000" stroke-miterlimit="10"/><path d="m179.4 125.8 1.2-.7 1.2.6" stroke="#000" stroke-miterlimit="10"/><path d="m31.183 159.537c1.189-.689.27-2.274-.919-1.584-1.188.689-2.107-.895-.919-1.585 1.188-.689.269-2.274-.919-1.584-1.188.689-2.108-.895-.919-1.585 1.188-.689.269-2.274-.919-1.584-1.189.689-2.108-.895-.92-1.585 1.189-.689.27-2.274-.919-1.584-1.188.689-2.107-.895-.919-1.585 1.188-.689.269-2.273-.919-1.584s-2.108-.895-.919-1.585c1.188-.689.269-2.273-.919-1.584-1.189.689-2.108-.895-.92-1.584 1.189-.69.27-2.274-.919-1.585-1.188.689-2.107-.895-.919-1.584 1.188-.69.269-2.274-.919-1.585-1.188.69-2.108-.895-.919-1.584 1.188-.69.269-2.274-.919-1.585-1.189.69-2.108-.895-.92-1.584 1.189-.69.27-2.274-.919-1.585-1.188.69-2.107-.895-.919-1.584" stroke="#7f7f7f"/></g><text font-family="sans-serif" font-size="21" x="142.3" y="154.4">N</text><text font-family="sans-serif" font-size="21" x="142.3" y="173.8">H</text><text font-family="sans-serif" font-size="21" x="173.9" y="99.4">N</text><text font-family="sans-serif" font-size="21" x="189.1" y="99.4">H</text><text font-family="sans-serif" font-size="14" x="204.3" y="108.2">2</text><text font-family="sans-serif" font-size="14" x="204.3" y="90.6">+</text><text font-family="sans-serif" font-size="21" x="205.8" y="154.3">N</text><text font-family="sans-serif" font-size="21" x="220.9" y="154.3">H</text><text font-family="sans-serif" font-size="14" x="236.1" y="163.1">2</text></svg>