<svg height="256" viewBox="0 0 256 256" width="256" xmlns="http://www.w3.org/2000/svg"><path d="m0 0h256v256h-256z" fill="#fff"/><g fill="none" stroke-width="2"><g stroke="#000"><path d="m184.3 15.2.1 82.1"/><path d="m184.4 97.3-71 41.1"/><path d="m119.6 134.9-59.5-34.2"/><path d="m113.5 145.5-59.6-34.2"/><path d="m113.4 138.4.2 67.4"/><path d="m184.4 93.1v4.2l-3.5 2" stroke-miterlimit="10"/><path d="m117 136.4-3.6 2 .1 3.4" stroke-miterlimit="10"/></g><path d="m143.237 15.273c.006 3.078 4.109 3.069 4.103-.008s4.097-3.085 4.103-.008 4.109 3.069 4.103-.008c-.006-3.078 4.097-3.086 4.103-.009.006 3.078 4.109 3.07 4.103-.008-.006-3.077 4.097-3.085 4.103-.008s4.109 3.069 4.103-.008 4.097-3.086 4.103-.008c.007 3.077 4.11 3.069 4.103-.009-.006-3.077 4.097-3.085 4.103-.008.007 3.078 4.11 3.069 4.103-.008-.006-3.077 4.097-3.086 4.103-.008.007 3.077 4.11 3.069 4.104-.008-.007-3.078 4.096-3.086 4.103-.009.006 3.078 4.109 3.07 4.103-.008-.007-3.077 4.096-3.085 4.103-.008.006 3.077 4.109 3.069 4.103-.008-.007-3.078 4.097-3.086 4.103-.008.006 3.077 4.109 3.069 4.103-.009-.006-3.077 4.097-3.085 4.103-.008" stroke="#7f7f7f"/></g><g font-family="sans-serif"><text font-size="40" x="30.3" y="117.5">O</text><text font-size="40" x="101.6" y="240.5">O</text><text font-size="26" x="129.2" y="224.5">-</text></g></svg>