<svg height="256" viewBox="0 0 256 256" width="256" xmlns="http://www.w3.org/2000/svg"><path d="m0 0h256v256h-256z" fill="#fff"/><g fill="none" stroke-width="2"><g stroke="#000"><path d="m180.3 15.3.1 75.6"/><path d="m180.4 90.9-65.3 37.9"/><path d="m120.7 125.5-53.9-31"/><path d="m115.1 135.3-53.9-30.9"/><path d="m115.1 128.8.1 61.1"/><path d="m180.4 87.1v3.8l-3.2 1.9" stroke-miterlimit="10"/><path d="m118.3 126.9-3.2 1.9v3.1" stroke-miterlimit="10"/></g><path d="m142.493 15.36c.005 2.835 3.785 2.827 3.779-.008-.005-2.834 3.774-2.842 3.78-.007.005 2.835 3.785 2.827 3.779-.008-.006-2.834 3.774-2.842 3.779-.007.006 2.834 3.785 2.827 3.78-.008-.006-2.834 3.774-2.842 3.779-.007.006 2.834 3.785 2.827 3.78-.008-.006-2.834 3.773-2.842 3.779-.007.006 2.834 3.785 2.827 3.779-.008-.005-2.835 3.774-2.842 3.78-.008.005 2.835 3.785 2.828 3.779-.007-.005-2.835 3.774-2.842 3.78-.008.005 2.835 3.785 2.827 3.779-.007-.006-2.835 3.774-2.842 3.779-.008.006 2.835 3.786 2.827 3.78-.007-.006-2.835 3.774-2.842 3.779-.008.006 2.835 3.785 2.827 3.78-.007-.006-2.835 3.773-2.843 3.779-.008s3.785 2.827 3.779-.008c-.005-2.834 3.774-2.842 3.78-.007" stroke="#7f7f7f"/></g><g font-family="sans-serif"><text font-size="40" x="37.5" y="111.1">O</text><text font-size="40" x="103.2" y="224.4">N</text><text font-size="40" x="130.8" y="224.4">H</text><text font-size="26" x="158.4" y="240.4">2</text></g></svg>