<svg height="256" viewBox="0 0 256 256" width="256" xmlns="http://www.w3.org/2000/svg"><path d="m0 0h256v256h-256z" fill="#fff"/><g fill="none" stroke-width="2"><path d="m213.6 130.9-77.7-45" stroke="#000"/><path d="m135.9 85.9-63.7 36.7" stroke="#000"/><path d="m139.8 88.2-3.9-2.3-3.1 1.8" stroke="#000" stroke-miterlimit="10"/><path d="m236.103 92.01c-2.914-1.686-5.161 2.198-2.248 3.884 2.914 1.685.666 5.57-2.247 3.884-2.913-1.685-5.16 2.199-2.247 3.884 2.913 1.686.666 5.57-2.247 3.885-2.914-1.686-5.161 2.198-2.248 3.884 2.914 1.685.666 5.57-2.247 3.884-2.913-1.685-5.161 2.199-2.247 3.884 2.913 1.686.666 5.57-2.248 3.885-2.913-1.686-5.16 2.198-2.247 3.884 2.913 1.685.666 5.57-2.247 3.884-2.913-1.685-5.161 2.199-2.247 3.884 2.913 1.686.666 5.57-2.248 3.885-2.913-1.686-5.16 2.198-2.247 3.884 2.913 1.685.666 5.57-2.247 3.884-2.913-1.685-5.161 2.199-2.247 3.884 2.913 1.686.666 5.57-2.248 3.885-2.913-1.686-5.16 2.198-2.247 3.884 2.913 1.685.666 5.57-2.247 3.884-2.913-1.685-5.161 2.199-2.247 3.884 2.913 1.686.666 5.57-2.248 3.885" stroke="#7f7f7f"/></g><text font-family="sans-serif" font-size="40" x="19.5" y="150.7">H</text><text font-family="sans-serif" font-size="40" x="47.1" y="150.7">S</text></svg>