<svg height="256" viewBox="0 0 256 256" width="256" xmlns="http://www.w3.org/2000/svg"><path d="m0 0h256v256h-256z" fill="#fff"/><g fill="none" stroke-width="2"><g stroke="#000"><path d="m25.5 156.9 43.8-25.3"/><path d="m69.3 131.6 43.8 25.2"/><path d="m113.1 156.8 43.8-25.4"/><path d="m160.7 133.6-.1-36"/><path d="m153.1 133.6-.1-36"/><path d="m156.9 131.4 33.1 19"/><path d="m67.1 132.8 2.2-1.2 2.2 1.2" stroke-miterlimit="10"/><path d="m110.9 155.5 2.2 1.3 2.2-1.3" stroke-miterlimit="10"/><path d="m154.7 132.7 2.2-1.3 1.6.9" stroke-miterlimit="10"/></g><path d="m38.188 178.83c1.642-.952.372-3.14-1.269-2.188s-2.911-1.236-1.269-2.188c1.641-.952.371-3.141-1.27-2.188-1.641.952-2.91-1.237-1.269-2.189s.372-3.14-1.27-2.188c-1.641.952-2.91-1.236-1.269-2.188s.372-3.14-1.269-2.188c-1.642.952-2.911-1.236-1.27-2.189 1.641-.952.372-3.14-1.269-2.188s-2.911-1.236-1.27-2.188.372-3.14-1.269-2.188-2.911-1.236-1.27-2.188c1.642-.953.372-3.141-1.269-2.189s-2.911-1.236-1.269-2.188c1.641-.952.371-3.14-1.27-2.188s-2.91-1.236-1.269-2.188.371-3.141-1.27-2.189c-1.641.953-2.91-1.236-1.269-2.188s.372-3.14-1.27-2.188c-1.641.952-2.91-1.236-1.269-2.188" stroke="#7f7f7f"/></g><g font-family="sans-serif"><text font-size="30" x="147.7" y="96">O</text><text font-size="30" x="191.6" y="171.8">N</text><text font-size="30" x="212.6" y="171.8">H</text><text font-size="20" x="233.5" y="183.9">2</text></g></svg>