<svg height="256" viewBox="0 0 256 256" width="256" xmlns="http://www.w3.org/2000/svg"><path d="m0 0h256v256h-256z" fill="#fff"/><g fill="none" stroke-width="2"><path d="m27 163.4 49.2-28.5" stroke="#000"/><path d="m76.2 134.9 49.2 28.3" stroke="#000"/><path d="m125.4 163.2 49.1-28.5" stroke="#000"/><path d="m178.8 137.1-.1-40.3" stroke="#000"/><path d="m170.3 137.1-.1-40.3" stroke="#000"/><path d="m174.5 134.7 37.1 21.3" stroke="#000"/><path d="m73.7 136.3 2.5-1.4 2.4 1.4" stroke="#000" stroke-miterlimit="10"/><path d="m122.9 161.8 2.5 1.4 2.4-1.5" stroke="#000" stroke-miterlimit="10"/><path d="m172.1 136.1 2.4-1.4 1.9 1" stroke="#000" stroke-miterlimit="10"/><path d="m41.293 187.923c1.842-1.068.417-3.524-1.425-2.456-1.842 1.069-3.266-1.387-1.425-2.455 1.842-1.069.418-3.525-1.424-2.456-1.842 1.068-3.267-1.387-1.425-2.456 1.842-1.068.417-3.524-1.424-2.456-1.842 1.069-3.267-1.387-1.425-2.455 1.842-1.069.417-3.525-1.425-2.456-1.842 1.068-3.266-1.388-1.424-2.456s.417-3.524-1.425-2.456c-1.842 1.069-3.266-1.387-1.425-2.456 1.842-1.068.418-3.524-1.424-2.455-1.842 1.068-3.267-1.388-1.425-2.456 1.842-1.069.417-3.524-1.425-2.456-1.841 1.069-3.266-1.387-1.424-2.456 1.842-1.068.417-3.524-1.425-2.455-1.842 1.068-3.266-1.388-1.424-2.456 1.841-1.069.417-3.524-1.425-2.456s-3.267-1.387-1.425-2.456c1.842-1.068.418-3.524-1.424-2.456-1.842 1.069-3.267-1.387-1.425-2.455" stroke="#7f7f7f"/></g><text font-family="sans-serif" font-size="34" x="164.2" y="94.9">O</text><text font-family="sans-serif" font-size="34" x="213.5" y="180">O</text><text font-family="sans-serif" font-size="22" x="237" y="166.4">-</text></svg>