<svg height="256" viewBox="0 0 256 256" width="256" xmlns="http://www.w3.org/2000/svg"><path d="m0 0h256v256h-256z" fill="#fff"/><path d="m24.3 127.8h176.5" fill="none" stroke="#000" stroke-width="2"/><path d="m24.342 225.258c7.31 0 7.31-9.746 0-9.746-7.309 0-7.309-9.746 0-9.746 7.31 0 7.31-9.746 0-9.746-7.309 0-7.309-9.745 0-9.745 7.31 0 7.31-9.746 0-9.746-7.309 0-7.309-9.746 0-9.746 7.31 0 7.31-9.746 0-9.746-7.309 0-7.309-9.745 0-9.745 7.31 0 7.31-9.746 0-9.746-7.309 0-7.309-9.746 0-9.746 7.31 0 7.31-9.746 0-9.746-7.309 0-7.309-9.746 0-9.746 7.31 0 7.31-9.745 0-9.745-7.309 0-7.309-9.746 0-9.746 7.31 0 7.31-9.746 0-9.746-7.309 0-7.309-9.746 0-9.746 7.31 0 7.31-9.745 0-9.745-7.309 0-7.309-9.746 0-9.746 7.31 0 7.31-9.746 0-9.746-7.309 0-7.309-9.746 0-9.746" fill="none" stroke="#7f7f7f" stroke-width="2"/><text font-family="sans-serif" font-size="40" x="207.3" y="147.8">H</text></svg>