<svg height="256" viewBox="0 0 256 256" width="256" xmlns="http://www.w3.org/2000/svg"><path d="m0 0h256v256h-256z" fill="#fff"/><g fill="none" stroke-width="2"><path d="m29 132.4 55.8 32.3" stroke="#000"/><path d="m84.8 164.7 55.9-32.2" stroke="#000"/><path d="m140.7 132.5 6.8-64.1" stroke="#000"/><path d="m151 126.5 5.4-50.1" stroke="#000"/><path d="m147.5 68.4 49.4-10.5" stroke="#000"/><path d="m223 76.5 19.8 34.4" stroke="#000"/><path d="m214.6 81.3 16.3 28.3" stroke="#000"/><path d="m242.8 110.9-30.8 34.2" stroke="#000"/><path d="m185.9 152.7-45.2-20.2" stroke="#000"/><path d="m82 163.1 2.8 1.6 2.8-1.6" stroke="#000" stroke-miterlimit="10"/><path d="m147.2 71.6.3-3.2 2.5-.6" stroke="#000" stroke-miterlimit="10"/><path d="m241.8 109.2 1 1.7-1.5 1.7" stroke="#000" stroke-miterlimit="10"/><path d="m12.8 160.274c2.093 1.212 3.71-1.579 1.616-2.792-2.093-1.212-.477-4.003 1.617-2.791 2.093 1.212 3.709-1.579 1.616-2.791s-.477-4.004 1.616-2.791c2.094 1.212 3.71-1.58 1.617-2.792-2.094-1.212-.477-4.003 1.616-2.791s3.71-1.579 1.616-2.791c-2.093-1.212-.477-4.004 1.617-2.792 2.093 1.213 3.709-1.579 1.616-2.791s-.477-4.003 1.616-2.791c2.094 1.212 3.71-1.579 1.617-2.791-2.094-1.213-.478-4.004 1.616-2.792 2.093 1.212 3.71-1.579 1.616-2.791-2.093-1.212-.477-4.003 1.616-2.791 2.094 1.212 3.71-1.579 1.617-2.792-2.094-1.212-.477-4.003 1.616-2.791s3.71-1.579 1.616-2.791c-2.093-1.212-.477-4.004 1.617-2.791 2.093 1.212 3.709-1.58 1.616-2.792s-.477-4.003 1.616-2.791" stroke="#7f7f7f"/></g><text font-family="sans-serif" font-size="38" x="199" y="74.4">N</text><text font-family="sans-serif" font-size="38" x="188" y="178.1">N</text><text font-family="sans-serif" font-size="38" x="188" y="212.2">H</text></svg>