<svg height="256" viewBox="0 0 256 256" width="256" xmlns="http://www.w3.org/2000/svg"><path d="m0 0h256v256h-256z" fill="#fff"/><g stroke="#000"><path d="m150.2 126.7-4.1-54.5h8.1z" fill-rule="evenodd" stroke-miterlimit="10" stroke-width=".5"/><path d="m150.2 126.7-47.2 27.4" fill="none" stroke-width="2"/><path d="m103 154.1-35.7-20.6" fill="none" stroke-width="2"/><path d="m150.2 126.7 35.6 20.6" fill="none" stroke-width="2"/><path d="m147.8 128.1 2.4-1.4 1.8 1.1" fill="none" stroke-miterlimit="10" stroke-width="2"/><path d="m105.3 152.7-2.3 1.4-1.8-1.1" fill="none" stroke-miterlimit="10" stroke-width="2"/></g><path d="m122.866 72.203c.002 2.046 2.73 2.043 2.728-.002-.001-2.046 2.727-2.049 2.728-.003.002 2.046 2.73 2.044 2.728-.002-.001-2.046 2.727-2.048 2.728-.002.002 2.046 2.73 2.044 2.728-.002-.001-2.046 2.727-2.048 2.729-.002.001 2.046 2.729 2.043 2.728-.003-.002-2.045 2.726-2.048 2.728-.002.001 2.046 2.729 2.044 2.728-.002-.002-2.046 2.726-2.048 2.728-.002.001 2.046 2.729 2.044 2.728-.002-.002-2.046 2.726-2.048 2.728-.002.001 2.045 2.729 2.043 2.728-.003-.002-2.046 2.726-2.048 2.728-.002.001 2.046 2.729 2.044 2.728-.002-.002-2.046 2.726-2.048 2.728-.002.001 2.046 2.73 2.044 2.728-.002s2.726-2.048 2.728-.003c.002 2.046 2.73 2.044 2.728-.002s2.726-2.048 2.728-.002" fill="none" stroke="#7f7f7f" stroke-width="2"/><g font-family="sans-serif"><text font-size="32" x="12.8" y="143.2">H</text><text font-size="21" x="35.4" y="156.3">3</text><g font-size="32"><text x="45.9" y="143.2">C</text><text x="187.6" y="170.3">C</text><text x="210.2" y="170.3">H</text></g><text font-size="21" x="232.8" y="183.4">3</text><text font-size="16" x="112.4" y="121.3">(</text><text font-size="16" x="118" y="121.3">S</text><text font-size="16" x="129.3" y="121.3">)</text></g></svg>