<svg height="256" viewBox="0 0 256 256" width="256" xmlns="http://www.w3.org/2000/svg"><path d="m0 0h256v256h-256z" fill="#fff"/><g fill="none" stroke-width="2"><path d="m230 131.5-44.2-25.6" stroke="#000"/><path d="m185.8 105.9-44.3 25.5" stroke="#000"/><path d="m141.5 131.4-33.4-19.3" stroke="#000"/><path d="m86.4 112.1-22.5 13" stroke="#000"/><path d="m188 107.2-2.2-1.3-2.2 1.3" stroke="#000" stroke-miterlimit="10"/><path d="m143.7 130.2-2.2 1.2-1.7-.9" stroke="#000" stroke-miterlimit="10"/><path d="m242.8 109.382c-1.659-.959-2.938 1.252-1.28 2.212 1.659.96.38 3.172-1.279 2.212s-2.939 1.252-1.28 2.212c1.659.959.379 3.171-1.28 2.211-1.658-.959-2.938 1.252-1.279 2.212s.379 3.172-1.28 2.212-2.938 1.252-1.279 2.212c1.658.959.379 3.171-1.28 2.211-1.659-.959-2.939 1.253-1.28 2.212 1.659.96.379 3.172-1.279 2.212-1.659-.96-2.939 1.252-1.28 2.212 1.659.959.379 3.171-1.28 2.212-1.658-.96-2.938 1.252-1.279 2.211 1.659.96.379 3.172-1.28 2.212s-2.938 1.252-1.28 2.212c1.659.96.38 3.171-1.279 2.212-1.659-.96-2.939 1.252-1.28 2.211 1.659.96.379 3.172-1.279 2.212-1.659-.96-2.939 1.252-1.28 2.212s.379 3.171-1.28 2.212" stroke="#7f7f7f"/></g><text font-family="sans-serif" font-size="30" x="88.1" y="121.2">S</text><text font-family="sans-serif" font-size="30" x="12.8" y="146.7">H</text><text font-family="sans-serif" font-size="20" x="34" y="159">3</text><text font-family="sans-serif" font-size="30" x="43.8" y="146.7">C</text></svg>