<svg height="256" viewBox="0 0 256 256" width="256" xmlns="http://www.w3.org/2000/svg"><path d="m0 0h256v256h-256z" fill="#fff"/><g fill="none" stroke-width="2"><path d="m171.3 38.2-50.7 29.1" stroke="#000"/><path d="m120.6 67.3-.1 58.5" stroke="#000"/><path d="m120.5 125.8-50.7 29.2" stroke="#000"/><path d="m120.5 135.9-41.9 24.1" stroke="#000"/><path d="m69.8 155-.1 58.5" stroke="#000"/><path d="m69.7 213.5 50.6 29.3" stroke="#000"/><path d="m78.5 208.4 41.8 24.3" stroke="#000"/><path d="m120.3 242.8 50.7-29.1" stroke="#000"/><path d="m171 213.7.1-58.5" stroke="#000"/><path d="m162.2 208.6.1-48.4" stroke="#000"/><path d="m171.1 155.2-50.6-29.4" stroke="#000"/><path d="m123.2 65.9-2.6 1.4v2.9" stroke="#000" stroke-miterlimit="10"/><path d="m72.3 153.5-2.5 1.5v2.9" stroke="#000" stroke-miterlimit="10"/><path d="m69.7 210.5v3l2.5 1.4" stroke="#000" stroke-miterlimit="10"/><path d="m117.7 241.3 2.6 1.5 2.5-1.5" stroke="#000" stroke-miterlimit="10"/><path d="m168.5 215.1 2.5-1.4v-3" stroke="#000" stroke-miterlimit="10"/><path d="m171.1 158.1v-2.9l-2.5-1.5" stroke="#000" stroke-miterlimit="10"/><path d="m156.77 12.8c-1.902 1.093-.444 3.629 1.458 2.536 1.901-1.093 3.359 1.442 1.457 2.536-1.902 1.093-.444 3.629 1.458 2.536 1.902-1.094 3.36 1.442 1.458 2.535-1.902 1.094-.444 3.629 1.457 2.536 1.902-1.093 3.36 1.443 1.458 2.536s-.444 3.629 1.458 2.536 3.359 1.442 1.458 2.536c-1.902 1.093-.444 3.629 1.457 2.535 1.902-1.093 3.36 1.443 1.458 2.536-1.902 1.094-.444 3.629 1.458 2.536s3.359 1.443 1.458 2.536c-1.902 1.093-.445 3.629 1.457 2.536 1.902-1.094 3.36 1.442 1.458 2.536-1.902 1.093-.444 3.629 1.458 2.535 1.902-1.093 3.359 1.443 1.458 2.536-1.902 1.093-.445 3.629 1.457 2.536s3.36 1.443 1.458 2.536-.444 3.629 1.458 2.536c1.902-1.094 3.359 1.442 1.457 2.536" stroke="#7f7f7f"/></g></svg>