<svg height="256" viewBox="0 0 256 256" width="256" xmlns="http://www.w3.org/2000/svg"><path d="m0 0h256v256h-256z" fill="#fff"/><g stroke="#000"><g fill="none"><path d="m210.4 228.4-28.8-14.6" stroke-width="2"/><path d="m181.6 213.8-1.9-32.2" stroke-width="2"/><path d="m179.7 181.6-28.8-14.6" stroke-width="2"/><path d="m150.9 167-1.8-32.2" stroke-width="2"/><path d="m149.1 134.8-22-11.1" stroke-width="2"/><path d="m119.8 113.4-1.4-25.4" stroke-width="2"/><path d="m118.6 90.8 21.3-14" stroke-width="2"/><path d="m115.9 86.7 21.3-13.9" stroke-width="2"/><path d="m92.7 75.3.2-.5"/><path d="m95.7 77.2.6-1.1"/><path d="m98.8 79.1.8-1.6"/><path d="m101.9 81 1-2.2"/><path d="m104.9 82.9 1.4-2.7"/><path d="m108 84.7 1.6-3.2"/><path d="m111 86.6 2-3.8"/><path d="m114.1 88.5 2.2-4.3"/><path d="m89.6 73.4-5.2-31.8" stroke-width="2"/></g><path d="m84.4 41.6 13.1-16.7 3.4 3.4z" fill-rule="evenodd" stroke-miterlimit="10" stroke-width=".5"/><path d="m84.4 41.6-31.9-5" fill="none" stroke-width="2"/><path d="m52.5 36.6-14.6 28.9" fill="none" stroke-width="2"/><path d="m37.9 65.5 16.1 15.9" fill="none" stroke-width="2"/><path d="m43.8 64.5 13.6 13.4" fill="none" stroke-width="2"/><path d="m67.7 84.7 21.9-11.3" fill="none" stroke-width="2"/><path d="m183 214.6-1.4-.8-.1-1.6" fill="none" stroke-miterlimit="10" stroke-width="2"/><path d="m179.8 183.2-.1-1.6-1.4-.7" fill="none" stroke-miterlimit="10" stroke-width="2"/><path d="m152.3 167.8-1.4-.8-.1-1.6" fill="none" stroke-miterlimit="10" stroke-width="2"/><path d="m149.2 136.4-.1-1.6-1.1-.6" fill="none" stroke-miterlimit="10" stroke-width="2"/><path d="m89.3 71.8.3 1.6-1.1.6" fill="none" stroke-miterlimit="10" stroke-width="2"/><path d="m84.6 43.2-.2-1.6-1.6-.3" fill="none" stroke-miterlimit="10" stroke-width="2"/><path d="m54.1 36.9-1.6-.3-.7 1.5" fill="none" stroke-miterlimit="10" stroke-width="2"/><path d="m38.7 64-.8 1.5.8.8" fill="none" stroke-miterlimit="10" stroke-width="2"/></g><path d="m217.677 213.961c-1.082-.545-1.809.897-.728 1.442 1.082.546.354 1.988-.727 1.442-1.082-.545-1.809.897-.728 1.442 1.082.546.354 1.988-.727 1.442-1.082-.546-1.809.896-.728 1.442 1.082.546.354 1.988-.727 1.442-1.082-.546-1.809.896-.727 1.442 1.081.545.354 1.987-.728 1.442-1.081-.546-1.809.896-.727 1.442 1.081.545.354 1.987-.728 1.442-1.081-.546-1.809.896-.727 1.442 1.081.545.354 1.987-.728 1.442-1.081-.546-1.809.896-.727 1.441 1.081.546.354 1.988-.727 1.442-1.082-.545-1.809.897-.728 1.442 1.082.546.354 1.988-.727 1.442-1.082-.545-1.809.897-.728 1.442 1.082.546.354 1.988-.727 1.442-1.082-.545-1.809.896-.728 1.442 1.082.546.354 1.988-.727 1.442" fill="none" stroke="#7f7f7f" stroke-width="2"/><g font-family="sans-serif"><text font-size="19" x="101.1" y="129.9">H</text><text font-size="19" x="114.4" y="129.9">N</text><text font-size="19" x="139.6" y="80">O</text><text font-size="19" x="101.3" y="28.3">C</text><text font-size="19" x="114.7" y="28.3">H</text><text font-size="12" x="128.1" y="36.1">3</text><text font-size="19" x="55.1" y="97.9">N</text><text font-size="9" x="94.5" y="68.7">(</text><text font-size="9" x="97.6" y="68.7">R</text><text font-size="9" x="104.3" y="68.7">)</text><text font-size="9" x="70.3" y="51.8">(</text><text font-size="9" x="73.4" y="51.8">R</text><text font-size="9" x="80.1" y="51.8">)</text></g></svg>