<svg height="256" viewBox="0 0 256 256" width="256" xmlns="http://www.w3.org/2000/svg"><path d="m0 0h256v256h-256z" fill="#fff"/><g fill="none" stroke-width="2"><g stroke="#000"><path d="m217.4 130.5-68.3-39.5"/><path d="m149.1 91-56.4 32.5"/><path d="m152.5 93-3.4-2-2.8 1.6" stroke-miterlimit="10"/></g><path d="m237.111 96.362c-2.559-1.48-4.533 1.931-1.974 3.412 2.559 1.48.585 4.892-1.974 3.412-2.559-1.481-4.533 1.931-1.974 3.412 2.559 1.48.585 4.892-1.974 3.412-2.559-1.481-4.533 1.931-1.974 3.412 2.559 1.48.585 4.892-1.974 3.411-2.559-1.48-4.533 1.932-1.974 3.412 2.559 1.481.585 4.893-1.974 3.412-2.559-1.48-4.533 1.932-1.974 3.412 2.559 1.481.585 4.892-1.974 3.412-2.559-1.481-4.533 1.931-1.974 3.412 2.559 1.48.585 4.892-1.974 3.412-2.559-1.481-4.533 1.931-1.974 3.412 2.559 1.48.585 4.892-1.974 3.412-2.559-1.481-4.533 1.931-1.974 3.411 2.559 1.481.585 4.893-1.974 3.412-2.559-1.48-4.533 1.932-1.974 3.412 2.559 1.481.585 4.893-1.974 3.412-2.559-1.48-4.533 1.931-1.974 3.412 2.559 1.48.585 4.892-1.974 3.412" stroke="#7f7f7f"/></g><g font-family="sans-serif" font-size="40"><text x="18.5" y="150.4">H</text><text x="46.1" y="150.4">S</text><text x="71.6" y="150.4">e</text></g></svg>