<svg height="256" viewBox="0 0 256 256" width="256" xmlns="http://www.w3.org/2000/svg"><path d="m0 0h256v256h-256z" fill="#fff"/><g fill="none" stroke-width="2"><g stroke="#000"><path d="m213.5 130.9-78.2-45.3"/><path d="m135.3 85.6-63.2 36.5"/><path d="m139.2 87.9-3.9-2.3-3.1 1.9" stroke-miterlimit="10"/></g><path d="m236.128 91.784c-2.931-1.697-5.193 2.212-2.261 3.908 2.932 1.697.67 5.605-2.262 3.909-2.931-1.696-5.193 2.213-2.261 3.909s.67 5.605-2.262 3.909c-2.931-1.696-5.193 2.212-2.261 3.908 2.932 1.697.67 5.605-2.261 3.909-2.932-1.696-5.194 2.213-2.262 3.909s.67 5.605-2.261 3.909c-2.932-1.696-5.194 2.212-2.262 3.909 2.932 1.696.67 5.605-2.261 3.908-2.932-1.696-5.193 2.213-2.262 3.909 2.932 1.696.67 5.605-2.261 3.909-2.932-1.696-5.193 2.213-2.262 3.909 2.932 1.696.671 5.605-2.261 3.909-2.932-1.697-5.193 2.212-2.262 3.908 2.932 1.696.671 5.605-2.261 3.909s-5.193 2.213-2.262 3.909c2.932 1.696.671 5.605-2.261 3.909s-5.193 2.212-2.261 3.908c2.931 1.697.67 5.605-2.262 3.909" stroke="#7f7f7f"/></g><g font-family="sans-serif" font-size="40"><text x="19.5" y="150.7">H</text><text x="45.1" y="150.7">O</text></g></svg>