<svg height="256" viewBox="0 0 256 256" width="256" xmlns="http://www.w3.org/2000/svg"><path d="m0 0h256v256h-256z" fill="#fff"/><g fill="none"><g stroke="#000"><path d="m107.5 138.1-.3-.4"/><path d="m104.5 140.1-.5-.9"/><path d="m101.5 142.1-.7-1.4"/><path d="m98.6 144.1-1.1-1.8"/><path d="m95.6 146.1-1.3-2.3"/><path d="m92.7 148.1-1.6-2.8"/><path d="m89.7 150.1-1.8-3.2"/><path d="m86.8 152.1-2.1-3.7"/><path d="m83.8 154.1-2.4-4.1"/><path d="m80.9 156.1-2.7-4.6"/><path d="m77.9 158.1-2.9-5.1"/><path d="m75 160.1-3.2-5.5"/><path d="m72 162.1-3.4-6"/><path d="m69.1 164.1-3.8-6.5"/><path d="m66.1 166.1-4-6.9"/><path d="m63.1 168.1-4.2-7.4"/><path d="m60.2 170.1-4.5-7.9"/><path d="m57.2 172.1-4.7-8.3"/><path d="m54.3 174.1-5.1-8.8"/><path d="m51.3 176.1-5.3-9.3"/><path d="m48.4 178.1-5.6-9.7"/><path d="m45.4 180.1-5.8-10.2"/><path d="m42.5 182.1-6.1-10.7"/><path d="m110.4 136.1.2-59.1" stroke-width="2"/><path d="m110.4 136.1 56 32.6" stroke-width="2"/><path d="m110.4 133.2v2.9l2.8 1.7" stroke-miterlimit="10" stroke-width="2"/></g><path d="m59.738 212.273c2.662-1.525.63-5.075-2.033-3.55-2.662 1.524-4.694-2.026-2.032-3.55s.63-5.074-2.032-3.55c-2.663 1.524-4.695-2.026-2.033-3.55 2.663-1.524.631-5.074-2.032-3.55-2.662 1.524-4.694-2.026-2.032-3.55s.63-5.074-2.032-3.55c-2.663 1.524-4.695-2.026-2.033-3.55 2.663-1.524.63-5.074-2.032-3.55s-4.695-2.026-2.032-3.55c2.662-1.524.63-5.074-2.033-3.55-2.662 1.524-4.694-2.026-2.032-3.55 2.663-1.524.63-5.074-2.032-3.55s-4.695-2.025-2.032-3.55c2.662-1.524.63-5.074-2.033-3.55-2.662 1.525-4.694-2.025-2.032-3.55 2.662-1.524.63-5.074-2.032-3.549-2.663 1.524-4.695-2.026-2.032-3.55 2.662-1.525.63-5.075-2.033-3.55-2.662 1.524-4.694-2.026-2.032-3.55" stroke="#7f7f7f" stroke-width="2"/></g><g font-family="sans-serif"><text font-size="40" x="98.7" y="74.3">O</text><text font-size="40" x="126.3" y="74.3">H</text><text font-size="40" x="169.1" y="197.3">C</text><text font-size="40" x="196.7" y="197.3">H</text><text font-size="26" x="224.3" y="213.3">3</text><text font-size="20" x="57.7" y="125.5">(</text><text font-size="20" x="64.6" y="125.5">S</text><text font-size="20" x="78.4" y="125.5">)</text></g></svg>