<svg height="256" viewBox="0 0 256 256" width="256" xmlns="http://www.w3.org/2000/svg"><path d="m0 0h256v256h-256z" fill="#fff"/><g fill="none" stroke-width="2"><g stroke="#000"><path d="m163.2 30 34.4 38.2"/><path d="m197.6 68.2-15.9 48.9"/><path d="m181.7 117.1 30.2 41.6"/><path d="m178.7 126.1 23.6 32.6"/><path d="m211.9 158.7-22.3 30.6"/><path d="m181.7 117.1-48.9 15.8"/><path d="m132.8 132.9v51.4"/><path d="m140.5 138.5v40.2"/><path d="m132.8 184.3-44.6 25.7"/><path d="m88.2 210-44.5-25.8"/><path d="m88.2 201.1-36.8-21.3"/><path d="m43.7 184.2.1-51.4"/><path d="m43.8 132.8 44.5-25.6"/><path d="m51.5 137.3 36.8-21.2"/><path d="m88.3 107.2 44.5 25.7"/><path d="m132.8 184.3 37.9 12.4"/><path d="m195.9 66.3 1.7 1.9-.8 2.4" stroke-miterlimit="10"/><path d="m210.4 156.6 1.5 2.1-1.1 1.5" stroke-miterlimit="10"/><path d="m90.4 208.7-2.2 1.3-2.2-1.3" stroke-miterlimit="10"/><path d="m46 185.5-2.3-1.3v-2.5" stroke-miterlimit="10"/><path d="m43.8 135.4v-2.6l2.2-1.2" stroke-miterlimit="10"/><path d="m86.1 108.5 2.2-1.3 2.2 1.3" stroke-miterlimit="10"/></g><path d="m144.135 47.167c1.288 1.433 3.199-.285 1.911-1.719-1.289-1.433.622-3.151 1.911-1.718s3.2-.285 1.911-1.718c-1.289-1.434.622-3.152 1.911-1.719 1.289 1.434 3.2-.285 1.911-1.718s.622-3.152 1.911-1.718c1.289 1.433 3.2-.285 1.911-1.719-1.289-1.433.623-3.151 1.911-1.718 1.289 1.433 3.2-.285 1.911-1.718-1.288-1.434.623-3.152 1.911-1.719 1.289 1.434 3.2-.285 1.912-1.718-1.289-1.433.622-3.152 1.911-1.718 1.288 1.433 3.199-.285 1.911-1.719-1.289-1.433.622-3.151 1.911-1.718s3.2-.285 1.911-1.718c-1.289-1.434.622-3.152 1.911-1.719 1.289 1.434 3.2-.285 1.911-1.718s.622-3.152 1.911-1.718c1.289 1.433 3.2-.285 1.911-1.719-1.289-1.433.623-3.151 1.911-1.718" stroke="#7f7f7f"/></g><g font-family="sans-serif" font-size="30"><text x="172.4" y="215.7">N</text><text x="172.4" y="242.8">H</text></g></svg>