<svg height="256" viewBox="0 0 256 256" width="256" xmlns="http://www.w3.org/2000/svg"><path d="m0 0h256v256h-256z" fill="#fff"/><g fill="none" stroke-width="2"><g stroke="#000"><path d="m161.3 223.3-39-22.4"/><path d="m122.3 200.9-.1-45"/><path d="m122.2 155.9-39-22.4"/><path d="m122.2 148.1-32.3-18.6"/><path d="m83.2 133.5-.1-45"/><path d="m83.1 88.5 38.9-22.6"/><path d="m89.9 92.4 32.1-18.7"/><path d="m122 65.9v-30"/><path d="m122 65.9 39 22.4"/><path d="m161 88.3.1 45"/><path d="m154.3 92.2.1 37.2"/><path d="m161.1 133.3-38.9 22.6"/><path d="m124.2 202-1.9-1.1v-2.3" stroke-miterlimit="10"/><path d="m85.1 134.6-1.9-1.1v-2.3" stroke-miterlimit="10"/><path d="m83.1 90.7v-2.2l1.9-1.2" stroke-miterlimit="10"/><path d="m159.1 87.2 1.9 1.1v2.3" stroke-miterlimit="10"/><path d="m161.1 131.1v2.2l-1.9 1.1" stroke-miterlimit="10"/></g><path d="m172.505 203.788c-1.463-.841-2.584 1.11-1.121 1.95 1.463.841.342 2.791-1.121 1.951-1.463-.841-2.584 1.11-1.121 1.95 1.463.841.342 2.792-1.121 1.951s-2.584 1.11-1.121 1.951c1.463.84.342 2.791-1.121 1.95-1.462-.84-2.583 1.11-1.12 1.951 1.462.841.342 2.791-1.121 1.951-1.463-.841-2.584 1.11-1.121 1.95 1.463.841.342 2.791-1.121 1.951-1.463-.841-2.584 1.11-1.121 1.95 1.463.841.342 2.792-1.121 1.951s-2.584 1.11-1.121 1.951c1.463.84.342 2.791-1.121 1.95-1.463-.84-2.583 1.11-1.12 1.951 1.462.841.342 2.791-1.121 1.951-1.463-.841-2.584 1.109-1.121 1.95s.342 2.791-1.121 1.951c-1.463-.841-2.584 1.11-1.121 1.95 1.463.841.342 2.792-1.121 1.951" stroke="#7f7f7f"/></g><g font-family="sans-serif" font-size="26"><text x="113.8" y="34.4">O</text><text x="132.5" y="34.4">H</text></g></svg>