<svg xmlns="http://www.w3.org/2000/svg" xmlns:rdkit="http://www.rdkit.org/xml" xmlns:xlink="http://www.w3.org/1999/xlink" width="256" height="256" baseProfile="full" version="1.1" viewBox="0 0 256 256" xml:space="preserve"><rect style="opacity:1;fill:#fff;stroke:none" width="256" height="256" x="0" y="0"/><path d="M 127.866,220.439 L 127.916,195.245" class="bond-0" style="fill:none;fill-rule:evenodd;stroke:#7f7f7f;stroke-width:2px;stroke-linecap:butt;stroke-linejoin:miter;stroke-opacity:1"/><path d="M 127.916,195.245 L 127.966,170.051" class="bond-0" style="fill:none;fill-rule:evenodd;stroke:#00f;stroke-width:2px;stroke-linecap:butt;stroke-linejoin:miter;stroke-opacity:1"/><path d="M 113.442,144.809 L 91.6637,132.175" class="bond-1" style="fill:none;fill-rule:evenodd;stroke:#00f;stroke-width:2px;stroke-linecap:butt;stroke-linejoin:miter;stroke-opacity:1"/><path d="M 91.6637,132.175 L 69.8854,119.541" class="bond-1" style="fill:none;fill-rule:evenodd;stroke:#000;stroke-width:2px;stroke-linecap:butt;stroke-linejoin:miter;stroke-opacity:1"/><path d="M 142.558,144.886 L 164.404,132.328" class="bond-4" style="fill:none;fill-rule:evenodd;stroke:#00f;stroke-width:2px;stroke-linecap:butt;stroke-linejoin:miter;stroke-opacity:1"/><path d="M 164.404,132.328 L 186.249,119.77" class="bond-4" style="fill:none;fill-rule:evenodd;stroke:#000;stroke-width:2px;stroke-linecap:butt;stroke-linejoin:miter;stroke-opacity:1"/><path d="M 75.932,119.554 L 75.9824,94.3594" class="bond-2" style="fill:none;fill-rule:evenodd;stroke:#000;stroke-width:2px;stroke-linecap:butt;stroke-linejoin:miter;stroke-opacity:1"/><path d="M 75.9824,94.3594 L 76.0327,69.1651" class="bond-2" style="fill:none;fill-rule:evenodd;stroke:red;stroke-width:2px;stroke-linecap:butt;stroke-linejoin:miter;stroke-opacity:1"/><path d="M 63.8388,119.529 L 63.8892,94.3352" class="bond-2" style="fill:none;fill-rule:evenodd;stroke:#000;stroke-width:2px;stroke-linecap:butt;stroke-linejoin:miter;stroke-opacity:1"/><path d="M 63.8892,94.3352 L 63.9395,69.141" class="bond-2" style="fill:none;fill-rule:evenodd;stroke:red;stroke-width:2px;stroke-linecap:butt;stroke-linejoin:miter;stroke-opacity:1"/><path d="M 69.8854,119.541 L 11.6364,153.013" class="bond-3" style="fill:none;fill-rule:evenodd;stroke:#000;stroke-width:2px;stroke-linecap:butt;stroke-linejoin:miter;stroke-opacity:1"/><path d="M 192.296,119.782 L 192.346,94.5945" class="bond-5" style="fill:none;fill-rule:evenodd;stroke:#000;stroke-width:2px;stroke-linecap:butt;stroke-linejoin:miter;stroke-opacity:1"/><path d="M 192.346,94.5945 L 192.396,69.407" class="bond-5" style="fill:none;fill-rule:evenodd;stroke:red;stroke-width:2px;stroke-linecap:butt;stroke-linejoin:miter;stroke-opacity:1"/><path d="M 180.202,119.758 L 180.253,94.5703" class="bond-5" style="fill:none;fill-rule:evenodd;stroke:#000;stroke-width:2px;stroke-linecap:butt;stroke-linejoin:miter;stroke-opacity:1"/><path d="M 180.253,94.5703 L 180.303,69.3828" class="bond-5" style="fill:none;fill-rule:evenodd;stroke:red;stroke-width:2px;stroke-linecap:butt;stroke-linejoin:miter;stroke-opacity:1"/><path d="M 186.249,119.77 L 244.364,153.483" class="bond-6" style="fill:none;fill-rule:evenodd;stroke:#000;stroke-width:2px;stroke-linecap:butt;stroke-linejoin:miter;stroke-opacity:1"/><path d="M161.458,220.506 C160.065,217.144 158.665,217.142 157.259,220.498 C155.852,223.854 154.453,223.852 153.06,220.49 C151.667,217.128 150.267,217.125 148.861,220.481 C147.454,223.838 146.055,223.835 144.662,220.473 C143.269,217.111 141.869,217.108 140.463,220.464 C139.056,223.821 137.657,223.818 136.264,220.456 C134.871,217.094 133.471,217.091 132.065,220.448 C130.658,223.804 129.259,223.801 127.866,220.439 C126.473,217.077 125.073,217.074 123.667,220.431 C122.26,223.787 120.861,223.784 119.468,220.422 C118.075,217.06 116.675,217.058 115.269,220.414 C113.862,223.77 112.462,223.768 111.07,220.406 C109.677,217.044 108.277,217.041 106.871,220.397 C105.464,223.754 104.064,223.751 102.671,220.389 C101.279,217.027 99.8788,217.024 98.4725,220.38 C97.0661,223.737 95.6664,223.734 94.2734,220.372" style="fill:none;stroke:#7f7f7f;stroke-width:2px;stroke-linecap:butt;stroke-linejoin:miter;stroke-opacity:1"/><text x="128" y="158.294" dominant-baseline="central" text-anchor="middle" style="font-size:33px;font-style:normal;font-weight:700;fill-opacity:1;stroke:none;font-family:sans-serif;fill:#00f"><tspan>N</tspan></text><text x="57.692" y="57.396" dominant-baseline="central" text-anchor="start" style="font-size:33px;font-style:normal;font-weight:700;fill-opacity:1;stroke:none;font-family:sans-serif;fill:red"><tspan>O</tspan></text><text x="174.055" y="57.638" dominant-baseline="central" text-anchor="start" style="font-size:33px;font-style:normal;font-weight:700;fill-opacity:1;stroke:none;font-family:sans-serif;fill:red"><tspan>O</tspan></text></svg>