<svg height="256" viewBox="0 0 256 256" width="256" xmlns="http://www.w3.org/2000/svg"><path d="m0 0h256v256h-256z" fill="#fff"/><g fill="none" stroke-width="2"><g stroke="#000"><path d="m126.7 188.5.1-30.2"/><path d="m117.1 137.6-29.5-17.1"/><path d="m91 122.5.1-32.2"/><path d="m84.2 122.4.1-32.1"/><path d="m87.6 120.5-29.6 17"/><path d="m136.4 137.7 29.6-17.1"/><path d="m169.4 122.6.1-32.1"/><path d="m162.6 122.6.1-32.1"/><path d="m166 120.6 29.5 17.2"/><path d="m89.1 121.4-1.5-.9-1.5.8" stroke-miterlimit="10"/><path d="m164.6 121.5 1.4-.9 1.5.9" stroke-miterlimit="10"/></g><path d="m149.327 188.52c.004-1.698-2.26-1.702-2.263-.005-.003 1.698-2.267 1.693-2.263-.004.003-1.698-2.26-1.702-2.264-.005-.003 1.697-2.266 1.693-2.263-.004.003-1.698-2.26-1.702-2.263-.005-.004 1.697-2.267 1.693-2.263-.005.003-1.697-2.26-1.701-2.264-.004-.003 1.697-2.266 1.693-2.263-.005.003-1.697-2.26-1.702-2.263-.004-.004 1.697-2.267 1.693-2.264-.005.004-1.697-2.26-1.702-2.263-.004-.003 1.697-2.267 1.693-2.263-.005.003-1.697-2.26-1.702-2.264-.004-.003 1.697-2.266 1.693-2.263-.005.004-1.697-2.26-1.702-2.263-.004-.003 1.697-2.267 1.693-2.263-.005.003-1.697-2.26-1.702-2.264-.004-.003 1.697-2.266 1.693-2.263-.005.003-1.697-2.26-1.702-2.263-.004-.004 1.697-2.267 1.693-2.264-.005" stroke="#7f7f7f"/></g><g font-family="sans-serif"><text font-size="27" x="118.6" y="156.8">N</text><text font-size="27" x="79.6" y="88.8">O</text><text font-size="27" x="12.8" y="156.6">H</text><text font-size="17" x="31.5" y="167.5">3</text><text font-size="27" x="40.2" y="156.6">C</text><text font-size="27" x="158" y="89">O</text><text font-size="27" x="197" y="156.9">C</text><text font-size="27" x="215.8" y="156.9">H</text><text font-size="17" x="234.5" y="167.8">3</text></g></svg>