<svg xmlns="http://www.w3.org/2000/svg" xmlns:rdkit="http://www.rdkit.org/xml" xmlns:xlink="http://www.w3.org/1999/xlink" width="256" height="256" baseProfile="full" version="1.1" viewBox="0 0 256 256" xml:space="preserve"><rect style="opacity:1;fill:#fff;stroke:none" width="256" height="256" x="0" y="0"/><path d="M 193.595,244.364 L 193.66,211.846" class="bond-0" style="fill:none;fill-rule:evenodd;stroke:#7f7f7f;stroke-width:3px;stroke-linecap:butt;stroke-linejoin:miter;stroke-opacity:1"/><path d="M 193.66,211.846 L 193.725,179.329" class="bond-0" style="fill:none;fill-rule:evenodd;stroke:#00f;stroke-width:3px;stroke-linecap:butt;stroke-linejoin:miter;stroke-opacity:1"/><path d="M 176.43,149.273 L 148.32,132.966" class="bond-1" style="fill:none;fill-rule:evenodd;stroke:#00f;stroke-width:3px;stroke-linecap:butt;stroke-linejoin:miter;stroke-opacity:1"/><path d="M 148.32,132.966 L 120.21,116.659" class="bond-1" style="fill:none;fill-rule:evenodd;stroke:#000;stroke-width:3px;stroke-linecap:butt;stroke-linejoin:miter;stroke-opacity:1"/><path d="M 160.316,157.621 L 140.639,146.206" class="bond-1" style="fill:none;fill-rule:evenodd;stroke:#00f;stroke-width:3px;stroke-linecap:butt;stroke-linejoin:miter;stroke-opacity:1"/><path d="M 140.639,146.206 L 120.963,134.791" class="bond-1" style="fill:none;fill-rule:evenodd;stroke:#000;stroke-width:3px;stroke-linecap:butt;stroke-linejoin:miter;stroke-opacity:1"/><path d="M 120.21,116.659 L 46.4853,159.04" class="bond-2" style="fill:none;fill-rule:evenodd;stroke:#000;stroke-width:3px;stroke-linecap:butt;stroke-linejoin:miter;stroke-opacity:1"/><path d="M 120.21,116.659 L 120.275,84.1419" class="bond-3" style="fill:none;fill-rule:evenodd;stroke:#000;stroke-width:3px;stroke-linecap:butt;stroke-linejoin:miter;stroke-opacity:1"/><path d="M 120.275,84.1419 L 120.34,51.6248" class="bond-3" style="fill:none;fill-rule:evenodd;stroke:#00f;stroke-width:3px;stroke-linecap:butt;stroke-linejoin:miter;stroke-opacity:1"/><path d="M236.112,244.449 C234.349,240.193 232.577,240.19 230.797,244.438 C229.017,248.686 227.246,248.683 225.483,244.427 C223.719,240.172 221.948,240.169 220.168,244.417 C218.388,248.665 216.616,248.661 214.853,244.406 C213.09,240.151 211.319,240.147 209.539,244.396 C207.759,248.644 205.987,248.64 204.224,244.385 C202.461,240.13 200.689,240.126 198.909,244.374 C197.129,248.622 195.358,248.619 193.595,244.364 C191.832,240.108 190.06,240.105 188.28,244.353 C186.5,248.601 184.728,248.598 182.965,244.342 C181.202,240.087 179.431,240.084 177.651,244.332 C175.871,248.58 174.099,248.576 172.336,244.321 C170.573,240.066 168.802,240.062 167.022,244.31 C165.241,248.559 163.47,248.555 161.707,244.3 C159.944,240.045 158.172,240.041 156.392,244.289 C154.612,248.537 152.841,248.534 151.078,244.279" style="fill:none;stroke:#7f7f7f;stroke-width:3px;stroke-linecap:butt;stroke-linejoin:miter;stroke-opacity:1"/><text x="180.43" y="165.329" dominant-baseline="central" text-anchor="start" style="font-size:40px;font-style:normal;font-weight:700;fill-opacity:1;stroke:none;font-family:sans-serif;fill:#00f"><tspan>N</tspan></text><text x="107.445" y="38.225" dominant-baseline="central" text-anchor="start" style="font-size:40px;font-style:normal;font-weight:700;fill-opacity:1;stroke:none;font-family:sans-serif;fill:#00f"><tspan>NH</tspan><tspan style="baseline-shift:sub;font-size:30px">2</tspan></text></svg>