<svg xmlns="http://www.w3.org/2000/svg" xmlns:rdkit="http://www.rdkit.org/xml" xmlns:xlink="http://www.w3.org/1999/xlink" width="256" height="256" baseProfile="full" version="1.1" viewBox="0 0 256 256" xml:space="preserve"><rect style="opacity:1;fill:#fff;stroke:none" width="256" height="256" x="0" y="0"/><path d="M 244.364,80.5756 L 228.367,108.003" class="bond-0" style="fill:none;fill-rule:evenodd;stroke:#7f7f7f;stroke-width:3px;stroke-linecap:butt;stroke-linejoin:miter;stroke-opacity:1"/><path d="M 228.367,108.003 L 212.37,135.43" class="bond-0" style="fill:none;fill-rule:evenodd;stroke:#00f;stroke-width:3px;stroke-linecap:butt;stroke-linejoin:miter;stroke-opacity:1"/><path d="M 183.371,155.354 L 138.394,155.156" class="bond-1" style="fill:none;fill-rule:evenodd;stroke:#00f;stroke-width:3px;stroke-linecap:butt;stroke-linejoin:miter;stroke-opacity:1"/><path d="M 89.7025,154.942 L 44.7258,154.744" class="bond-2" style="fill:none;fill-rule:evenodd;stroke:#00f;stroke-width:3px;stroke-linecap:butt;stroke-linejoin:miter;stroke-opacity:1"/><path d="M 83.0246,139.314 L 44.7944,139.146" class="bond-2" style="fill:none;fill-rule:evenodd;stroke:#00f;stroke-width:3px;stroke-linecap:butt;stroke-linejoin:miter;stroke-opacity:1"/><path d="M 82.8874,170.51 L 44.6571,170.342" class="bond-2" style="fill:none;fill-rule:evenodd;stroke:#00f;stroke-width:3px;stroke-linecap:butt;stroke-linejoin:miter;stroke-opacity:1"/><path d="M206.936,58.7462 C206.312,63.3985 207.872,64.3081 211.614,61.4749 C215.357,58.6416 216.916,59.5512 216.293,64.2035 C215.669,68.8559 217.229,69.7654 220.971,66.9322 C224.714,64.099 226.273,65.0085 225.65,69.6609 C225.026,74.3132 226.586,75.2228 230.328,72.3895 C234.071,69.5563 235.63,70.4659 235.007,75.1182 C234.383,79.7706 235.943,80.6801 239.685,77.8469 C243.428,75.0136 244.987,75.9232 244.364,80.5756 C243.74,85.2279 245.3,86.1375 249.042,83.3042 C252.785,80.471 254.344,81.3805 253.721,86.0329 C253.097,90.6853 254.657,91.5948 258.399,88.7616 C262.142,85.9283 263.701,86.8379 263.078,91.4903 C262.454,96.1426 264.014,97.0522 267.756,94.2189 C271.499,91.3857 273.058,92.2952 272.435,96.9476 C271.811,101.6 273.371,102.51 277.113,99.6763 C280.856,96.843 282.415,97.7526 281.792,102.405" style="fill:none;stroke:#7f7f7f;stroke-width:3px;stroke-linecap:butt;stroke-linejoin:miter;stroke-opacity:1"/><text x="187.771" y="162.03" dominant-baseline="central" text-anchor="start" style="font-size:40px;font-style:normal;font-weight:700;fill-opacity:1;stroke:none;font-family:sans-serif;fill:#00f"><tspan>N</tspan><tspan style="baseline-shift:super;font-size:30px">-</tspan></text><text x="114.048" y="161.649" dominant-baseline="central" text-anchor="middle" style="font-size:40px;font-style:normal;font-weight:700;fill-opacity:1;stroke:none;font-family:sans-serif;fill:#00f"><tspan>N</tspan><tspan style="baseline-shift:super;font-size:30px">+</tspan></text><text x="40.726" y="160.668" dominant-baseline="central" text-anchor="end" style="font-size:40px;font-style:normal;font-weight:700;fill-opacity:1;stroke:none;font-family:sans-serif;fill:#00f"><tspan>N</tspan></text></svg>