<svg height="256" viewBox="0 0 256 256" width="256" xmlns="http://www.w3.org/2000/svg"><path d="m0 0h256v256h-256z" fill="#fff"/><g fill="none" stroke-width="2"><g stroke="#000"><path d="m25.5 106 33 19.1"/><path d="m80 125.1 33.1-19.1"/><path d="m116.9 108.2v-35.9"/><path d="m109.3 108.2v-35.9"/><path d="m113.1 106 33 19.1"/><path d="m167.7 125.1 22.3-12.8"/><path d="m156.9 148.2v23"/><path d="m111.5 107 1.6-1 1.7 1" stroke-miterlimit="10"/></g><path d="m12.8 127.857c1.643.95 2.909-1.24 1.267-2.19-1.643-.95-.376-3.14 1.266-2.19 1.643.95 2.91-1.24 1.267-2.19s-.376-3.141 1.267-2.191c1.642.95 2.909-1.24 1.266-2.19-1.642-.95-.376-3.14 1.267-2.19s2.909-1.24 1.267-2.19c-1.643-.95-.376-3.14 1.266-2.19 1.643.95 2.909-1.241 1.267-2.191-1.643-.95-.376-3.14 1.267-2.19 1.642.95 2.909-1.24 1.266-2.19-1.642-.95-.376-3.14 1.267-2.19 1.642.95 2.909-1.24 1.267-2.19-1.643-.95-.376-3.14 1.266-2.191 1.643.95 2.909-1.24 1.267-2.19-1.643-.95-.376-3.14 1.266-2.19 1.643.95 2.91-1.24 1.267-2.19-1.642-.95-.376-3.14 1.267-2.19 1.642.95 2.909-1.241 1.266-2.191-1.642-.949-.376-3.14 1.267-2.19" stroke="#7f7f7f"/></g><g font-family="sans-serif"><text font-size="30" x="60.2" y="146.5">O</text><text font-size="30" x="104" y="70.6">O</text><text font-size="30" x="147.8" y="146.5">N</text><text font-size="30" x="191.6" y="121.3">C</text><text font-size="30" x="212.6" y="121.3">H</text><text font-size="20" x="233.5" y="133.4">3</text><text font-size="30" x="147.8" y="197.1">C</text><text font-size="30" x="168.7" y="197.1">H</text><text font-size="20" x="189.7" y="209.3">3</text></g></svg>