<svg xmlns="http://www.w3.org/2000/svg" xmlns:rdkit="http://www.rdkit.org/xml" xmlns:xlink="http://www.w3.org/1999/xlink" width="256" height="256" baseProfile="full" version="1.1" viewBox="0 0 256 256" xml:space="preserve"><rect style="opacity:1;fill:#fff;stroke:none" width="256" height="256" x="0" y="0"/><path d="M 11.6364,119.488 L 33.9893,132.415" class="bond-0" style="fill:none;fill-rule:evenodd;stroke:#7f7f7f;stroke-width:2px;stroke-linecap:butt;stroke-linejoin:miter;stroke-opacity:1"/><path d="M 33.9893,132.415 L 56.3423,145.342" class="bond-0" style="fill:none;fill-rule:evenodd;stroke:#cc0;stroke-width:2px;stroke-linecap:butt;stroke-linejoin:miter;stroke-opacity:1"/><path d="M 83.2403,145.371 L 105.62,132.477" class="bond-1" style="fill:none;fill-rule:evenodd;stroke:#cc0;stroke-width:2px;stroke-linecap:butt;stroke-linejoin:miter;stroke-opacity:1"/><path d="M 105.62,132.477 L 128,119.582" class="bond-1" style="fill:none;fill-rule:evenodd;stroke:#000;stroke-width:2px;stroke-linecap:butt;stroke-linejoin:miter;stroke-opacity:1"/><path d="M 134.047,119.587 L 134.067,94.3924" class="bond-2" style="fill:none;fill-rule:evenodd;stroke:#000;stroke-width:2px;stroke-linecap:butt;stroke-linejoin:miter;stroke-opacity:1"/><path d="M 134.067,94.3924 L 134.087,69.1982" class="bond-2" style="fill:none;fill-rule:evenodd;stroke:#cc0;stroke-width:2px;stroke-linecap:butt;stroke-linejoin:miter;stroke-opacity:1"/><path d="M 121.953,119.577 L 121.974,94.3827" class="bond-2" style="fill:none;fill-rule:evenodd;stroke:#000;stroke-width:2px;stroke-linecap:butt;stroke-linejoin:miter;stroke-opacity:1"/><path d="M 121.974,94.3827 L 121.994,69.1885" class="bond-2" style="fill:none;fill-rule:evenodd;stroke:#cc0;stroke-width:2px;stroke-linecap:butt;stroke-linejoin:miter;stroke-opacity:1"/><path d="M 128,119.582 L 149.798,132.188" class="bond-3" style="fill:none;fill-rule:evenodd;stroke:#000;stroke-width:2px;stroke-linecap:butt;stroke-linejoin:miter;stroke-opacity:1"/><path d="M 149.798,132.188 L 171.597,144.795" class="bond-3" style="fill:none;fill-rule:evenodd;stroke:#00f;stroke-width:2px;stroke-linecap:butt;stroke-linejoin:miter;stroke-opacity:1"/><path d="M 200.713,144.826 L 222.538,132.251" class="bond-4" style="fill:none;fill-rule:evenodd;stroke:#00f;stroke-width:2px;stroke-linecap:butt;stroke-linejoin:miter;stroke-opacity:1"/><path d="M 222.538,132.251 L 244.364,119.676" class="bond-4" style="fill:none;fill-rule:evenodd;stroke:#000;stroke-width:2px;stroke-linecap:butt;stroke-linejoin:miter;stroke-opacity:1"/><path d="M 186.142,170.011 L 186.121,195.205" class="bond-5" style="fill:none;fill-rule:evenodd;stroke:#00f;stroke-width:2px;stroke-linecap:butt;stroke-linejoin:miter;stroke-opacity:1"/><path d="M 186.121,195.205 L 186.101,220.399" class="bond-5" style="fill:none;fill-rule:evenodd;stroke:#000;stroke-width:2px;stroke-linecap:butt;stroke-linejoin:miter;stroke-opacity:1"/><path d="M-5.18108,148.567 C-1.5724,149.037 -0.871677,147.826 -3.0789,144.932 C-5.28611,142.039 -4.58539,140.827 -0.976716,141.297 C2.63196,141.767 3.33268,140.556 1.12546,137.662 C-1.08175,134.769 -0.381028,133.557 3.22764,134.027 C6.83632,134.498 7.53704,133.286 5.32982,130.393 C3.12261,127.499 3.82333,126.287 7.432,126.758 C11.0407,127.228 11.7414,126.016 9.53418,123.123 C7.32696,120.229 8.02769,119.018 11.6364,119.488 C15.245,119.958 15.9458,118.746 13.7385,115.853 C11.5313,112.959 12.2321,111.748 15.8407,112.218 C19.4494,112.688 20.1501,111.476 17.9429,108.583 C15.7357,105.69 16.4364,104.478 20.0451,104.948 C23.6538,105.418 24.3545,104.206 22.1473,101.313 C19.94,98.4197 20.6408,97.208 24.2494,97.6781 C27.8581,98.1482 28.5588,96.9366 26.3516,94.0432 C24.1444,91.1498 24.8451,89.9382 28.4538,90.4083" style="fill:none;stroke:#7f7f7f;stroke-width:2px;stroke-linecap:butt;stroke-linejoin:miter;stroke-opacity:1"/><text x="69.791" y="158.159" dominant-baseline="central" text-anchor="middle" style="font-size:33px;font-style:normal;font-weight:700;fill-opacity:1;stroke:none;font-family:sans-serif;fill:#cc0"><tspan>S</tspan></text><text x="117.964" y="57.436" dominant-baseline="central" text-anchor="start" style="font-size:33px;font-style:normal;font-weight:700;fill-opacity:1;stroke:none;font-family:sans-serif;fill:#cc0"><tspan>S</tspan></text><text x="186.155" y="158.253" dominant-baseline="central" text-anchor="middle" style="font-size:33px;font-style:normal;font-weight:700;fill-opacity:1;stroke:none;font-family:sans-serif;fill:#00f"><tspan>N</tspan></text></svg>