<svg height="256" viewBox="0 0 256 256" width="256" xmlns="http://www.w3.org/2000/svg"><path d="m0 0h256v256h-256z" fill="#fff"/><g fill="none" stroke-width="2"><g stroke="#000"><path d="m226.9 214.9-41.3-24"/><path d="m172.2 169.6.1-49.8"/><path d="m181.7 169.7.1-49.9"/><path d="m172.3 119.8-41.3-23.9"/><path d="m117.5 74.5.1-28.7"/><path d="m104 95.8-27.9 16"/><path d="m172.3 122.3v-2.5l-2.1-1.2" stroke-miterlimit="10"/></g><path d="m242.8 187.514c-2.054-1.192-3.643 1.547-1.589 2.738 2.054 1.192.465 3.931-1.589 2.739-2.054-1.191-3.643 1.547-1.588 2.739 2.054 1.192.465 3.93-1.589 2.739-2.054-1.192-3.643 1.547-1.589 2.739 2.054 1.191.465 3.93-1.589 2.738-2.054-1.191-3.643 1.548-1.589 2.739 2.054 1.192.465 3.931-1.589 2.739s-3.642 1.547-1.588 2.739c2.054 1.191.465 3.93-1.589 2.739-2.054-1.192-3.643 1.547-1.589 2.738 2.054 1.192.465 3.931-1.589 2.739-2.054-1.191-3.643 1.547-1.589 2.739s.466 3.93-1.588 2.739c-2.055-1.192-3.643 1.547-1.589 2.739 2.054 1.191.465 3.93-1.589 2.738-2.054-1.191-3.643 1.548-1.589 2.739 2.054 1.192.465 3.93-1.589 2.739-2.054-1.192-3.643 1.547-1.589 2.739 2.054 1.191.466 3.93-1.588 2.739" stroke="#7f7f7f"/></g><g font-family="sans-serif"><text font-size="37" x="160.7" y="202.1">N</text><text font-size="37" x="106.1" y="107">N</text><text font-size="37" x="106.2" y="43.7">C</text><text font-size="37" x="132.4" y="43.7">H</text><text font-size="25" x="158.6" y="58.9">3</text><text font-size="37" x="12.8" y="138.6">H</text><text font-size="25" x="39" y="153.8">3</text><text font-size="37" x="51.2" y="138.6">C</text></g></svg>