<svg height="256" viewBox="0 0 256 256" width="256" xmlns="http://www.w3.org/2000/svg"><path d="m0 0h256v256h-256z" fill="#fff"/><g fill="none" stroke-width="2"><path d="m200.9 229.2.1-53.8" stroke="#000"/><path d="m186.5 144.5-51.4-29.9" stroke="#000"/><path d="m180.8 154.4-45.7-26.6" stroke="#000"/><path d="m135.1 114.6.1-53.7" stroke="#000"/><path d="m135.1 114.6-51.6 29.7" stroke="#000"/><path d="m239.03 229.228c.006-2.86-3.807-2.867-3.812-.008-.006 2.86-3.819 2.852-3.813-.007.005-2.86-3.807-2.868-3.813-.008s-3.819 2.852-3.813-.008c.006-2.859-3.807-2.867-3.813-.007-.005 2.859-3.818 2.852-3.813-.008.006-2.86-3.807-2.867-3.812-.007-.006 2.859-3.819 2.852-3.813-.008.005-2.86-3.807-2.867-3.813-.008-.006 2.86-3.819 2.852-3.813-.007.006-2.86-3.807-2.868-3.813-.008-.005 2.86-3.818 2.852-3.813-.008.006-2.859-3.807-2.867-3.812-.007-.006 2.859-3.819 2.852-3.813-.008.005-2.86-3.807-2.867-3.813-.007-.006 2.859-3.819 2.852-3.813-.008s-3.807-2.867-3.813-.008c-.006 2.86-3.818 2.852-3.813-.007.006-2.86-3.807-2.868-3.812-.008-.006 2.86-3.819 2.852-3.813-.008" stroke="#7f7f7f"/></g><g font-family="sans-serif"><g font-size="40"><text x="189.1" y="172.9">N</text><text x="123.2" y="58.4">N</text><text x="150.8" y="58.4">H</text></g><text font-size="26" x="178.4" y="74.4">2</text><text font-size="40" x="16.6" y="172.6">H</text><text font-size="26" x="44.2" y="188.6">2</text><text font-size="40" x="57" y="172.6">N</text></g></svg>