<svg xmlns="http://www.w3.org/2000/svg" xmlns:rdkit="http://www.rdkit.org/xml" xmlns:xlink="http://www.w3.org/1999/xlink" width="256" height="256" baseProfile="full" version="1.1" viewBox="0 0 256 256" xml:space="preserve"><rect style="opacity:1;fill:#fff;stroke:none" width="256" height="256" x="0" y="0"/><path d="M 220.252,244.364 L 220.317,211.846" class="bond-0" style="fill:none;fill-rule:evenodd;stroke:#7f7f7f;stroke-width:3px;stroke-linecap:butt;stroke-linejoin:miter;stroke-opacity:1"/><path d="M 220.317,211.846 L 220.382,179.329" class="bond-0" style="fill:none;fill-rule:evenodd;stroke:#00f;stroke-width:3px;stroke-linecap:butt;stroke-linejoin:miter;stroke-opacity:1"/><path d="M 203.087,149.273 L 174.977,132.966" class="bond-1" style="fill:none;fill-rule:evenodd;stroke:#00f;stroke-width:3px;stroke-linecap:butt;stroke-linejoin:miter;stroke-opacity:1"/><path d="M 174.977,132.966 L 146.867,116.659" class="bond-1" style="fill:none;fill-rule:evenodd;stroke:#000;stroke-width:3px;stroke-linecap:butt;stroke-linejoin:miter;stroke-opacity:1"/><path d="M 186.973,157.621 L 167.296,146.206" class="bond-1" style="fill:none;fill-rule:evenodd;stroke:#00f;stroke-width:3px;stroke-linecap:butt;stroke-linejoin:miter;stroke-opacity:1"/><path d="M 167.296,146.206 L 147.62,134.791" class="bond-1" style="fill:none;fill-rule:evenodd;stroke:#000;stroke-width:3px;stroke-linecap:butt;stroke-linejoin:miter;stroke-opacity:1"/><path d="M 146.867,116.659 L 146.932,84.1419" class="bond-2" style="fill:none;fill-rule:evenodd;stroke:#000;stroke-width:3px;stroke-linecap:butt;stroke-linejoin:miter;stroke-opacity:1"/><path d="M 146.932,84.1419 L 146.997,51.6248" class="bond-2" style="fill:none;fill-rule:evenodd;stroke:#00f;stroke-width:3px;stroke-linecap:butt;stroke-linejoin:miter;stroke-opacity:1"/><path d="M 146.867,116.659 L 118.672,132.867" class="bond-3" style="fill:none;fill-rule:evenodd;stroke:#000;stroke-width:3px;stroke-linecap:butt;stroke-linejoin:miter;stroke-opacity:1"/><path d="M 118.672,132.867 L 90.4773,149.075" class="bond-3" style="fill:none;fill-rule:evenodd;stroke:#00f;stroke-width:3px;stroke-linecap:butt;stroke-linejoin:miter;stroke-opacity:1"/><path d="M262.769,244.449 C261.006,240.193 259.234,240.19 257.454,244.438 C255.674,248.686 253.903,248.683 252.14,244.427 C250.376,240.172 248.605,240.169 246.825,244.417 C245.045,248.665 243.273,248.661 241.51,244.406 C239.747,240.151 237.976,240.147 236.196,244.396 C234.416,248.644 232.644,248.64 230.881,244.385 C229.118,240.13 227.346,240.126 225.566,244.374 C223.786,248.622 222.015,248.619 220.252,244.364 C218.489,240.108 216.717,240.105 214.937,244.353 C213.157,248.601 211.385,248.598 209.622,244.342 C207.859,240.087 206.088,240.084 204.308,244.332 C202.528,248.58 200.756,248.576 198.993,244.321 C197.23,240.066 195.459,240.062 193.679,244.31 C191.899,248.559 190.127,248.555 188.364,244.3 C186.601,240.045 184.829,240.041 183.049,244.289 C181.269,248.537 179.498,248.534 177.735,244.279" style="fill:none;stroke:#7f7f7f;stroke-width:3px;stroke-linecap:butt;stroke-linejoin:miter;stroke-opacity:1"/><text x="207.087" y="165.329" dominant-baseline="central" text-anchor="start" style="font-size:40px;font-style:normal;font-weight:700;fill-opacity:1;stroke:none;font-family:sans-serif;fill:#00f"><tspan>N</tspan></text><text x="134.102" y="38.225" dominant-baseline="central" text-anchor="start" style="font-size:40px;font-style:normal;font-weight:700;fill-opacity:1;stroke:none;font-family:sans-serif;fill:#00f"><tspan>NH</tspan><tspan style="baseline-shift:sub;font-size:30px">2</tspan></text><text x="86.077" y="165.64" dominant-baseline="central" text-anchor="end" style="font-size:40px;font-style:normal;font-weight:700;fill-opacity:1;stroke:none;font-family:sans-serif;fill:#00f"><tspan>H</tspan><tspan style="baseline-shift:sub;font-size:30px">2</tspan><tspan>N</tspan></text></svg>