<svg height="256" viewBox="0 0 256 256" width="256" xmlns="http://www.w3.org/2000/svg"><path d="m0 0h256v256h-256z" fill="#fff"/><path d="m215.5 154.2-57.1-33.1" fill="none" stroke="#000" stroke-width="2"/><path d="m128.9 121.1-42.5 24.5" fill="none" stroke="#000" stroke-width="2"/><path d="m236.35 118.271c-2.697-1.561-4.777 2.035-2.08 3.595 2.696 1.56.616 5.156-2.081 3.595-2.696-1.56-4.777 2.036-2.08 3.596s.617 5.156-2.08 3.595c-2.697-1.56-4.777 2.036-2.08 3.596 2.696 1.56.616 5.156-2.08 3.595-2.697-1.56-4.777 2.036-2.081 3.596 2.697 1.56.617 5.155-2.08 3.595-2.696-1.56-4.777 2.036-2.08 3.596s.617 5.155-2.08 3.595-4.777 2.035-2.08 3.596c2.696 1.56.616 5.155-2.081 3.595-2.696-1.56-4.776 2.035-2.08 3.596 2.697 1.56.617 5.155-2.08 3.595s-4.777 2.035-2.08 3.596c2.697 1.56.616 5.155-2.08 3.595-2.697-1.56-4.777 2.035-2.08 3.595 2.696 1.561.616 5.156-2.081 3.596-2.696-1.56-4.776 2.035-2.08 3.595 2.697 1.561.617 5.156-2.08 3.596" fill="none" stroke="#7f7f7f" stroke-width="2"/><g font-family="sans-serif"><text font-size="40" x="131.6" y="132.6">N</text><text font-size="40" x="131.6" y="97.4">H</text><text font-size="40" x="19.3" y="174.1">H</text><text font-size="26" x="46.9" y="190.1">2</text><text font-size="40" x="59.7" y="174.1">N</text></g></svg>