<svg height="256" viewBox="0 0 256 256" width="256" xmlns="http://www.w3.org/2000/svg"><path d="m0 0h256v256h-256z" fill="#fff"/><g fill="none" stroke-width="2"><path d="m227 139.7-54.8-31.6" stroke="#000"/><path d="m176.9 110.9-.1-45" stroke="#000"/><path d="m167.4 110.9-.1-45" stroke="#000"/><path d="m172.2 108.1-41.3 24" stroke="#000"/><path d="m103.9 132.1-27.9-16" stroke="#000"/><path d="m117.5 160.9v28.8" stroke="#000"/><path d="m174.9 109.7-2.7-1.6-2.1 1.2" stroke="#000" stroke-miterlimit="10"/><path d="m242.8 112.224c-2.058-1.182-3.634 1.562-1.576 2.744 2.057 1.182.481 3.926-1.577 2.743-2.058-1.182-3.634 1.562-1.576 2.744 2.057 1.182.481 3.926-1.577 2.743-2.058-1.182-3.634 1.562-1.576 2.744 2.057 1.182.481 3.926-1.577 2.743-2.057-1.182-3.634 1.562-1.576 2.744 2.057 1.182.481 3.926-1.577 2.743-2.057-1.182-3.634 1.561-1.576 2.744 2.057 1.182.481 3.926-1.577 2.743-2.057-1.182-3.634 1.561-1.576 2.744 2.057 1.182.481 3.926-1.577 2.743-2.057-1.182-3.634 1.561-1.576 2.744 2.057 1.182.481 3.926-1.577 2.743-2.057-1.182-3.634 1.561-1.576 2.744 2.057 1.182.481 3.926-1.577 2.743-2.057-1.182-3.634 1.561-1.576 2.744 2.057 1.182.481 3.926-1.577 2.743-2.057-1.182-3.634 1.561-1.576 2.744 2.058 1.182.481 3.926-1.577 2.743" stroke="#7f7f7f"/></g><text font-family="sans-serif" font-size="37" x="160.6" y="63.8">O</text><text font-family="sans-serif" font-size="37" x="106" y="158.9">N</text><text font-family="sans-serif" font-size="37" x="12.8" y="127.3">H</text><text font-family="sans-serif" font-size="25" x="39" y="142.5">3</text><text font-family="sans-serif" font-size="37" x="51.2" y="127.3">C</text><text font-family="sans-serif" font-size="37" x="106.2" y="222.1">O</text><text font-family="sans-serif" font-size="37" x="132.4" y="222.1">H</text></svg>