<svg xmlns="http://www.w3.org/2000/svg" xmlns:rdkit="http://www.rdkit.org/xml" xmlns:xlink="http://www.w3.org/1999/xlink" width="256" height="256" baseProfile="full" version="1.1" viewBox="0 0 256 256" xml:space="preserve"><rect style="opacity:1;fill:#fff;stroke:none" width="256" height="256" x="0" y="0"/><path d="M 11.6364,161.416 L 40.7659,144.681" class="bond-0" style="fill:none;fill-rule:evenodd;stroke:#7f7f7f;stroke-width:2px;stroke-linecap:butt;stroke-linejoin:miter;stroke-opacity:1"/><path d="M 40.7659,144.681 L 69.8954,127.946" class="bond-0" style="fill:none;fill-rule:evenodd;stroke:#000;stroke-width:2px;stroke-linecap:butt;stroke-linejoin:miter;stroke-opacity:1"/><path d="M 75.9417,127.958 L 75.9921,102.766" class="bond-1" style="fill:none;fill-rule:evenodd;stroke:#000;stroke-width:2px;stroke-linecap:butt;stroke-linejoin:miter;stroke-opacity:1"/><path d="M 75.9921,102.766 L 76.0425,77.5728" class="bond-1" style="fill:none;fill-rule:evenodd;stroke:red;stroke-width:2px;stroke-linecap:butt;stroke-linejoin:miter;stroke-opacity:1"/><path d="M 63.8492,127.934 L 63.8996,102.741" class="bond-1" style="fill:none;fill-rule:evenodd;stroke:#000;stroke-width:2px;stroke-linecap:butt;stroke-linejoin:miter;stroke-opacity:1"/><path d="M 63.8996,102.741 L 63.95,77.5487" class="bond-1" style="fill:none;fill-rule:evenodd;stroke:red;stroke-width:2px;stroke-linecap:butt;stroke-linejoin:miter;stroke-opacity:1"/><path d="M 69.8954,127.946 L 91.6725,140.574" class="bond-2" style="fill:none;fill-rule:evenodd;stroke:#000;stroke-width:2px;stroke-linecap:butt;stroke-linejoin:miter;stroke-opacity:1"/><path d="M 91.6725,140.574 L 113.45,153.203" class="bond-2" style="fill:none;fill-rule:evenodd;stroke:#00f;stroke-width:2px;stroke-linecap:butt;stroke-linejoin:miter;stroke-opacity:1"/><path d="M 142.564,153.279 L 164.408,140.727" class="bond-3" style="fill:none;fill-rule:evenodd;stroke:#00f;stroke-width:2px;stroke-linecap:butt;stroke-linejoin:miter;stroke-opacity:1"/><path d="M 164.408,140.727 L 186.252,128.175" class="bond-3" style="fill:none;fill-rule:evenodd;stroke:#000;stroke-width:2px;stroke-linecap:butt;stroke-linejoin:miter;stroke-opacity:1"/><path d="M 192.299,128.187 L 192.349,102.994" class="bond-4" style="fill:none;fill-rule:evenodd;stroke:#000;stroke-width:2px;stroke-linecap:butt;stroke-linejoin:miter;stroke-opacity:1"/><path d="M 192.349,102.994 L 192.399,77.8013" class="bond-4" style="fill:none;fill-rule:evenodd;stroke:red;stroke-width:2px;stroke-linecap:butt;stroke-linejoin:miter;stroke-opacity:1"/><path d="M 180.206,128.163 L 180.256,102.97" class="bond-4" style="fill:none;fill-rule:evenodd;stroke:#000;stroke-width:2px;stroke-linecap:butt;stroke-linejoin:miter;stroke-opacity:1"/><path d="M 180.256,102.97 L 180.307,77.7771" class="bond-4" style="fill:none;fill-rule:evenodd;stroke:red;stroke-width:2px;stroke-linecap:butt;stroke-linejoin:miter;stroke-opacity:1"/><path d="M 186.252,128.175 L 244.364,161.886" class="bond-5" style="fill:none;fill-rule:evenodd;stroke:#000;stroke-width:2px;stroke-linecap:butt;stroke-linejoin:miter;stroke-opacity:1"/><path d="M28.3691,190.542 C30.5845,187.655 29.8873,186.441 26.2775,186.901 C22.6677,187.361 21.9705,186.147 24.1859,183.26 C26.4013,180.373 25.7041,179.16 22.0943,179.619 C18.4845,180.079 17.7873,178.866 20.0027,175.979 C22.2181,173.092 21.5209,171.878 17.9111,172.338 C14.3013,172.798 13.6041,171.584 15.8195,168.697 C18.0349,165.81 17.3378,164.597 13.728,165.056 C10.1181,165.516 9.42095,164.303 11.6364,161.416 C13.8518,158.529 13.1546,157.315 9.54478,157.775 C5.93497,158.235 5.23778,157.021 7.45319,154.134 C9.6686,151.247 8.9714,150.034 5.3616,150.493 C1.7518,150.953 1.0546,149.739 3.27001,146.853 C5.48542,143.966 4.78822,142.752 1.17842,143.212 C-2.43138,143.672 -3.12857,142.458 -0.913165,139.571 C1.30224,136.684 0.605049,135.471 -3.00475,135.93 C-6.61455,136.39 -7.31175,135.176 -5.09634,132.29" style="fill:none;stroke:#7f7f7f;stroke-width:2px;stroke-linecap:butt;stroke-linejoin:miter;stroke-opacity:1"/><text x="57.703" y="65.804" dominant-baseline="central" text-anchor="start" style="font-size:33px;font-style:normal;font-weight:700;fill-opacity:1;stroke:none;font-family:sans-serif;fill:red"><tspan>O</tspan></text><text x="128.007" y="166.683" dominant-baseline="central" text-anchor="middle" style="font-size:33px;font-style:normal;font-weight:700;fill-opacity:1;stroke:none;font-family:sans-serif;fill:#00f"><tspan>N</tspan></text><text x="116.809" y="200.273" dominant-baseline="central" text-anchor="start" style="font-size:33px;font-style:normal;font-weight:700;fill-opacity:1;stroke:none;font-family:sans-serif;fill:#00f"><tspan>H</tspan></text><text x="174.06" y="66.032" dominant-baseline="central" text-anchor="start" style="font-size:33px;font-style:normal;font-weight:700;fill-opacity:1;stroke:none;font-family:sans-serif;fill:red"><tspan>O</tspan></text></svg>