<svg xmlns="http://www.w3.org/2000/svg" xmlns:rdkit="http://www.rdkit.org/xml" xmlns:xlink="http://www.w3.org/1999/xlink" width="256" height="256" baseProfile="full" version="1.1" viewBox="0 0 256 256" xml:space="preserve"><rect style="opacity:1;fill:#fff;stroke:none" width="256" height="256" x="0" y="0"/><path d="M 11.6364,128.134 L 32.8758,115.854" class="bond-0" style="fill:none;fill-rule:evenodd;stroke:#7f7f7f;stroke-width:2px;stroke-linecap:butt;stroke-linejoin:miter;stroke-opacity:1"/><path d="M 32.8758,115.854 L 54.1151,103.573" class="bond-0" style="fill:none;fill-rule:evenodd;stroke:red;stroke-width:2px;stroke-linecap:butt;stroke-linejoin:miter;stroke-opacity:1"/><path d="M 85.4876,103.542 L 106.747,115.791" class="bond-1" style="fill:none;fill-rule:evenodd;stroke:red;stroke-width:2px;stroke-linecap:butt;stroke-linejoin:miter;stroke-opacity:1"/><path d="M 106.747,115.791 L 128.007,128.04" class="bond-1" style="fill:none;fill-rule:evenodd;stroke:#000;stroke-width:2px;stroke-linecap:butt;stroke-linejoin:miter;stroke-opacity:1"/><path d="M 128.007,128.04 L 128.022,153.233" class="bond-2" style="fill:none;fill-rule:evenodd;stroke:#000;stroke-width:2px;stroke-linecap:butt;stroke-linejoin:miter;stroke-opacity:1"/><path d="M 128.022,153.233 L 128.037,178.426" class="bond-2" style="fill:none;fill-rule:evenodd;stroke:#00f;stroke-width:2px;stroke-linecap:butt;stroke-linejoin:miter;stroke-opacity:1"/><path d="M 115.919,135.605 L 115.929,153.24" class="bond-2" style="fill:none;fill-rule:evenodd;stroke:#000;stroke-width:2px;stroke-linecap:butt;stroke-linejoin:miter;stroke-opacity:1"/><path d="M 115.929,153.24 L 115.94,170.875" class="bond-2" style="fill:none;fill-rule:evenodd;stroke:#00f;stroke-width:2px;stroke-linecap:butt;stroke-linejoin:miter;stroke-opacity:1"/><path d="M 128.007,128.04 L 149.804,115.434" class="bond-4" style="fill:none;fill-rule:evenodd;stroke:#000;stroke-width:2px;stroke-linecap:butt;stroke-linejoin:miter;stroke-opacity:1"/><path d="M 149.804,115.434 L 171.601,102.828" class="bond-4" style="fill:none;fill-rule:evenodd;stroke:#00f;stroke-width:2px;stroke-linecap:butt;stroke-linejoin:miter;stroke-opacity:1"/><path d="M 142.604,203.612 L 164.428,216.191" class="bond-3" style="fill:none;fill-rule:evenodd;stroke:#00f;stroke-width:2px;stroke-linecap:butt;stroke-linejoin:miter;stroke-opacity:1"/><path d="M 164.428,216.191 L 186.252,228.771" class="bond-3" style="fill:none;fill-rule:evenodd;stroke:#000;stroke-width:2px;stroke-linecap:butt;stroke-linejoin:miter;stroke-opacity:1"/><path d="M 200.715,102.797 L 222.54,115.372" class="bond-5" style="fill:none;fill-rule:evenodd;stroke:#00f;stroke-width:2px;stroke-linecap:butt;stroke-linejoin:miter;stroke-opacity:1"/><path d="M 222.54,115.372 L 244.364,127.946" class="bond-5" style="fill:none;fill-rule:evenodd;stroke:#000;stroke-width:2px;stroke-linecap:butt;stroke-linejoin:miter;stroke-opacity:1"/><path d="M 186.145,77.6145 L 186.125,52.4217" class="bond-6" style="fill:none;fill-rule:evenodd;stroke:#00f;stroke-width:2px;stroke-linecap:butt;stroke-linejoin:miter;stroke-opacity:1"/><path d="M 186.125,52.4217 L 186.105,27.229" class="bond-6" style="fill:none;fill-rule:evenodd;stroke:#000;stroke-width:2px;stroke-linecap:butt;stroke-linejoin:miter;stroke-opacity:1"/><path d="M28.4499,157.214 C30.6573,154.321 29.9567,153.109 26.3482,153.579 C22.7397,154.049 22.0391,152.837 24.2465,149.944 C26.4539,147.051 25.7533,145.839 22.1448,146.309 C18.5363,146.779 17.8358,145.567 20.0431,142.674 C22.2505,139.781 21.55,138.569 17.9414,139.039 C14.3329,139.509 13.6324,138.297 15.8398,135.404 C18.0471,132.511 17.3466,131.3 13.7381,131.769 C10.1295,132.239 9.42898,131.027 11.6364,128.134 C13.8437,125.241 13.1432,124.03 9.53467,124.499 C5.92616,124.969 5.22559,123.757 7.43297,120.864 C9.64036,117.971 8.93979,116.76 5.33128,117.23 C1.72277,117.699 1.0222,116.488 3.22959,113.595 C5.43697,110.702 4.7364,109.49 1.12789,109.96 C-2.48062,110.429 -3.18118,109.218 -0.973803,106.325 C1.23358,103.432 0.533013,102.22 -3.0755,102.69 C-6.68401,103.16 -7.38457,101.948 -5.17719,99.0549" style="fill:none;stroke:#7f7f7f;stroke-width:2px;stroke-linecap:butt;stroke-linejoin:miter;stroke-opacity:1"/><text x="69.801" y="99.542" dominant-baseline="central" text-anchor="middle" style="font-size:33px;font-style:normal;font-weight:700;fill-opacity:1;stroke:none;font-family:sans-serif;fill:red"><tspan>O</tspan></text><text x="139.245" y="200.26" dominant-baseline="central" text-anchor="end" style="font-size:33px;font-style:normal;font-weight:700;fill-opacity:1;stroke:none;font-family:sans-serif;fill:#00f"><tspan>N</tspan></text><text x="186.158" y="99.448" dominant-baseline="central" text-anchor="middle" style="font-size:33px;font-style:normal;font-weight:700;fill-opacity:1;stroke:none;font-family:sans-serif;fill:#00f"><tspan>N</tspan></text></svg>