<svg height="256" viewBox="0 0 256 256" width="256" xmlns="http://www.w3.org/2000/svg"><path d="m0 0h256v256h-256z" fill="#fff"/><g fill="none" stroke-width="2"><path d="m25.5 118.8 33-19.1" stroke="#000"/><path d="m80.1 99.7 33 19" stroke="#000"/><path d="m113.1 118.7v39.8" stroke="#000"/><path d="m120.7 118.7v39.8" stroke="#000"/><path d="m123.9 175.5 22.3 12.9" stroke="#000"/><path d="m113.1 118.7 33-19.1" stroke="#000"/><path d="m167.7 99.6 22.3 12.8" stroke="#000"/><path d="m156.9 82.6v-23" stroke="#000"/><path d="m38.128 140.696c1.642-.95.376-3.14-1.267-2.191-1.642.95-2.909-1.24-1.266-2.19s.376-3.14-1.266-2.19c-1.643.95-2.909-1.241-1.267-2.19 1.643-.95.377-3.14-1.266-2.191-1.643.95-2.909-1.24-1.267-2.19 1.643-.95.377-3.14-1.266-2.19s-2.909-1.241-1.266-2.19c1.642-.95.376-3.14-1.267-2.191-1.642.95-2.909-1.24-1.266-2.19s.376-3.14-1.266-2.19c-1.643.95-2.91-1.241-1.267-2.19 1.643-.95.376-3.14-1.266-2.191-1.643.95-2.909-1.24-1.267-2.19 1.643-.95.377-3.14-1.266-2.19s-2.909-1.241-1.266-2.19c1.642-.95.376-3.14-1.267-2.191-1.642.95-2.909-1.24-1.266-2.19 1.642-.95.376-3.14-1.267-2.19-1.642.95-2.909-1.24-1.266-2.19" stroke="#7f7f7f"/></g><g font-family="sans-serif"><g font-size="30"><text x="60.2" y="108.6">O</text><text x="104" y="184.5">N</text><text x="147.9" y="209.8">C</text><text x="168.8" y="209.8">H</text></g><text font-size="20" x="189.8" y="221.9">3</text><text font-size="30" x="147.8" y="108.6">N</text><text font-size="30" x="191.6" y="133.8">C</text><text font-size="30" x="212.6" y="133.8">H</text><text font-size="20" x="233.5" y="146">3</text><text font-size="30" x="147.8" y="58">C</text><text font-size="30" x="168.7" y="58">H</text><text font-size="20" x="189.7" y="70.1">3</text></g></svg>