<svg xmlns="http://www.w3.org/2000/svg" xmlns:rdkit="http://www.rdkit.org/xml" xmlns:xlink="http://www.w3.org/1999/xlink" width="256" height="256" baseProfile="full" version="1.1" viewBox="0 0 256 256" xml:space="preserve"><rect style="opacity:1;fill:#fff;stroke:none" width="256" height="256" x="0" y="0"/><path d="M 244.364,81.6956 L 228.49,108.912" class="bond-0" style="fill:none;fill-rule:evenodd;stroke:#7f7f7f;stroke-width:3px;stroke-linecap:butt;stroke-linejoin:miter;stroke-opacity:1"/><path d="M 228.49,108.912 L 212.616,136.129" class="bond-0" style="fill:none;fill-rule:evenodd;stroke:#00f;stroke-width:3px;stroke-linecap:butt;stroke-linejoin:miter;stroke-opacity:1"/><path d="M 183.65,148.298 L 157.9,148.184" class="bond-1" style="fill:none;fill-rule:evenodd;stroke:#00f;stroke-width:3px;stroke-linecap:butt;stroke-linejoin:miter;stroke-opacity:1"/><path d="M 157.9,148.184 L 132.15,148.071" class="bond-1" style="fill:none;fill-rule:evenodd;stroke:#000;stroke-width:3px;stroke-linecap:butt;stroke-linejoin:miter;stroke-opacity:1"/><path d="M 183.582,163.808 L 157.832,163.695" class="bond-1" style="fill:none;fill-rule:evenodd;stroke:#00f;stroke-width:3px;stroke-linecap:butt;stroke-linejoin:miter;stroke-opacity:1"/><path d="M 157.832,163.695 L 132.082,163.581" class="bond-1" style="fill:none;fill-rule:evenodd;stroke:#000;stroke-width:3px;stroke-linecap:butt;stroke-linejoin:miter;stroke-opacity:1"/><path d="M 97.4806,147.918 L 72.4029,147.808" class="bond-2" style="fill:none;fill-rule:evenodd;stroke:#000;stroke-width:3px;stroke-linecap:butt;stroke-linejoin:miter;stroke-opacity:1"/><path d="M 72.4029,147.808 L 47.3252,147.698" class="bond-2" style="fill:none;fill-rule:evenodd;stroke:red;stroke-width:3px;stroke-linecap:butt;stroke-linejoin:miter;stroke-opacity:1"/><path d="M 97.4124,163.429 L 72.3347,163.319" class="bond-2" style="fill:none;fill-rule:evenodd;stroke:#000;stroke-width:3px;stroke-linecap:butt;stroke-linejoin:miter;stroke-opacity:1"/><path d="M 72.3347,163.319 L 47.2569,163.208" class="bond-2" style="fill:none;fill-rule:evenodd;stroke:red;stroke-width:3px;stroke-linecap:butt;stroke-linejoin:miter;stroke-opacity:1"/><path d="M207.146,59.989 C206.526,64.6152 208.077,65.5197 211.798,62.7024 C215.52,59.8851 217.071,60.7895 216.451,65.4157 C215.831,70.0419 217.381,70.9463 221.103,68.129 C224.824,65.3117 226.375,66.2161 225.755,70.8423 C225.135,75.4685 226.686,76.3729 230.407,73.5556 C234.128,70.7383 235.679,71.6428 235.059,76.269 C234.439,80.8951 235.99,81.7996 239.711,78.9823 C243.433,76.165 244.984,77.0694 244.364,81.6956 C243.744,86.3218 245.294,87.2262 249.016,84.4089 C252.737,81.5916 254.288,82.4961 253.668,87.1222 C253.048,91.7484 254.599,92.6529 258.32,89.8356 C262.042,87.0183 263.592,87.9227 262.972,92.5489 C262.352,97.1751 263.903,98.0795 267.625,95.2622 C271.346,92.4449 272.897,93.3493 272.277,97.9755 C271.657,102.602 273.207,103.506 276.929,100.689 C280.65,97.8716 282.201,98.776 281.581,103.402" style="fill:none;stroke:#7f7f7f;stroke-width:3px;stroke-linecap:butt;stroke-linejoin:miter;stroke-opacity:1"/><text x="187.616" y="162.129" dominant-baseline="central" text-anchor="start" style="font-size:40px;font-style:normal;font-weight:700;fill-opacity:1;stroke:none;font-family:sans-serif;fill:#00f"><tspan>N</tspan></text><text x="114.781" y="161.75" dominant-baseline="central" text-anchor="middle" style="font-size:40px;font-style:normal;font-weight:700;fill-opacity:1;stroke:none;font-family:sans-serif;fill:#000"><tspan>C</tspan></text><text x="43.291" y="161.371" dominant-baseline="central" text-anchor="end" style="font-size:40px;font-style:normal;font-weight:700;fill-opacity:1;stroke:none;font-family:sans-serif;fill:red"><tspan>O</tspan></text></svg>