<svg xmlns="http://www.w3.org/2000/svg" xmlns:rdkit="http://www.rdkit.org/xml" xmlns:xlink="http://www.w3.org/1999/xlink" width="256" height="256" baseProfile="full" version="1.1" viewBox="0 0 256 256" xml:space="preserve"><rect style="opacity:1;fill:#fff;stroke:none" width="256" height="256" x="0" y="0"/><path d="M 11.6364,198.024 L 51.889,174.981" class="bond-0" style="fill:none;fill-rule:evenodd;stroke:#7f7f7f;stroke-width:4px;stroke-linecap:butt;stroke-linejoin:miter;stroke-opacity:1"/><path d="M 51.889,174.981 L 92.1416,151.937" class="bond-0" style="fill:none;fill-rule:evenodd;stroke:#00f;stroke-width:4px;stroke-linecap:butt;stroke-linejoin:miter;stroke-opacity:1"/><path d="M 140.833,124.062 L 172.418,105.98" class="bond-1" style="fill:none;fill-rule:evenodd;stroke:#00f;stroke-width:4px;stroke-linecap:butt;stroke-linejoin:miter;stroke-opacity:1"/><path d="M 172.418,105.98 L 204.003,87.8978" class="bond-1" style="fill:none;fill-rule:evenodd;stroke:#000;stroke-width:4px;stroke-linecap:butt;stroke-linejoin:miter;stroke-opacity:1"/><path d="M 161.114,137.511 L 187.961,122.142" class="bond-1" style="fill:none;fill-rule:evenodd;stroke:#00f;stroke-width:4px;stroke-linecap:butt;stroke-linejoin:miter;stroke-opacity:1"/><path d="M 187.961,122.142 L 214.808,106.772" class="bond-1" style="fill:none;fill-rule:evenodd;stroke:#000;stroke-width:4px;stroke-linecap:butt;stroke-linejoin:miter;stroke-opacity:1"/><path d="M 139.503,99.7628 L 166.351,84.3932" class="bond-1" style="fill:none;fill-rule:evenodd;stroke:#00f;stroke-width:4px;stroke-linecap:butt;stroke-linejoin:miter;stroke-opacity:1"/><path d="M 166.351,84.3932 L 193.198,69.0236" class="bond-1" style="fill:none;fill-rule:evenodd;stroke:#000;stroke-width:4px;stroke-linecap:butt;stroke-linejoin:miter;stroke-opacity:1"/><path d="M41.6507,250.453 C45.6429,245.267 44.3924,243.082 37.8989,243.899 C31.4055,244.716 30.1549,242.532 34.1471,237.346 C38.1394,232.16 36.8888,229.975 30.3953,230.792 C23.9019,231.609 22.6513,229.425 26.6435,224.239 C30.6358,219.053 29.3852,216.868 22.8917,217.685 C16.3983,218.502 15.1477,216.317 19.1399,211.132 C23.1322,205.946 21.8816,203.761 15.3882,204.578 C8.89472,205.395 7.64412,203.21 11.6364,198.024 C15.6286,192.838 14.378,190.654 7.88457,191.471 C1.39113,192.288 0.140534,190.103 4.13278,184.917 C8.12502,179.731 6.87443,177.547 0.380986,178.364 C-6.11245,179.181 -7.36305,176.996 -3.37081,171.81 C0.621439,166.624 -0.629158,164.44 -7.1226,165.257 C-13.616,166.074 -14.8666,163.889 -10.8744,158.703 C-6.88215,153.517 -8.13274,151.333 -14.6262,152.15 C-21.1196,152.966 -22.3702,150.782 -18.378,145.596" style="fill:none;stroke:#7f7f7f;stroke-width:4px;stroke-linecap:butt;stroke-linejoin:miter;stroke-opacity:1"/><text x="116.487" y="144.599" dominant-baseline="central" text-anchor="middle" style="font-size:40px;font-style:normal;font-weight:700;fill-opacity:1;stroke:none;font-family:sans-serif;fill:#00f"><tspan>N</tspan><tspan style="baseline-shift:super;font-size:30px">+</tspan></text><text x="208.403" y="84.574" dominant-baseline="central" text-anchor="start" style="font-size:40px;font-style:normal;font-weight:700;fill-opacity:1;stroke:none;font-family:sans-serif;fill:#000"><tspan>C</tspan><tspan style="baseline-shift:super;font-size:30px">-</tspan></text></svg>