<svg height="256" viewBox="0 0 256 256" width="256" xmlns="http://www.w3.org/2000/svg"><path d="m0 0h256v256h-256z" fill="#fff"/><g fill="none" stroke-width="2"><path d="m184.3 15.2.1 67.3" stroke="#000"/><path d="m169.7 105.8-31.2 18.1" stroke="#000"/><path d="m101.8 124.6-41.7-23.9" stroke="#000"/><path d="m95.7 135.3-41.8-24" stroke="#000"/><path d="m113.5 161.1.1 44.7" stroke="#000"/><path d="m143.237 15.273c.006 3.078 4.109 3.069 4.103-.008s4.097-3.085 4.103-.008 4.109 3.069 4.103-.008c-.006-3.078 4.097-3.086 4.103-.009.006 3.078 4.109 3.07 4.103-.008-.006-3.077 4.097-3.085 4.103-.008s4.109 3.069 4.103-.008 4.097-3.086 4.103-.008c.007 3.077 4.11 3.069 4.103-.009-.006-3.077 4.097-3.085 4.103-.008.007 3.078 4.11 3.069 4.103-.008-.006-3.077 4.097-3.086 4.103-.008.007 3.077 4.11 3.069 4.104-.008-.007-3.078 4.096-3.086 4.103-.009.006 3.078 4.109 3.07 4.103-.008-.007-3.077 4.096-3.085 4.103-.008.006 3.077 4.109 3.069 4.103-.008-.007-3.078 4.097-3.086 4.103-.008.006 3.077 4.109 3.069 4.103-.009-.006-3.077 4.097-3.085 4.103-.008" stroke="#7f7f7f"/></g><text font-family="sans-serif" font-size="40" x="172.4" y="117.3">O</text><text font-family="sans-serif" font-size="40" x="101.4" y="158.4">N</text><text font-family="sans-serif" font-size="26" x="129" y="142.4">+</text><text font-family="sans-serif" font-size="40" x="30.3" y="117.5">O</text><text font-family="sans-serif" font-size="40" x="101.6" y="240.5">O</text><text font-family="sans-serif" font-size="26" x="129.2" y="224.5">-</text></svg>