<svg xmlns="http://www.w3.org/2000/svg" xmlns:rdkit="http://www.rdkit.org/xml" xmlns:xlink="http://www.w3.org/1999/xlink" width="256" height="256" baseProfile="full" version="1.1" viewBox="0 0 256 256" xml:space="preserve"><rect style="opacity:1;fill:#fff;stroke:none" width="256" height="256" x="0" y="0"/><path d="M 244.364,96.7209 L 199.118,122.898" class="bond-0" style="fill:none;fill-rule:evenodd;stroke:#7f7f7f;stroke-width:4px;stroke-linecap:butt;stroke-linejoin:miter;stroke-opacity:1"/><path d="M 199.118,122.898 L 153.872,149.075" class="bond-0" style="fill:none;fill-rule:evenodd;stroke:#00f;stroke-width:4px;stroke-linecap:butt;stroke-linejoin:miter;stroke-opacity:1"/><path d="M 124.801,139.4 L 88.8455,118.674" class="bond-1" style="fill:none;fill-rule:evenodd;stroke:#00f;stroke-width:4px;stroke-linecap:butt;stroke-linejoin:miter;stroke-opacity:1"/><path d="M 88.8455,118.674 L 52.8898,97.9492" class="bond-1" style="fill:none;fill-rule:evenodd;stroke:red;stroke-width:4px;stroke-linecap:butt;stroke-linejoin:miter;stroke-opacity:1"/><path d="M 113.604,158.826 L 77.6481,138.101" class="bond-1" style="fill:none;fill-rule:evenodd;stroke:#00f;stroke-width:4px;stroke-linecap:butt;stroke-linejoin:miter;stroke-opacity:1"/><path d="M 77.6481,138.101 L 41.6924,117.375" class="bond-1" style="fill:none;fill-rule:evenodd;stroke:red;stroke-width:4px;stroke-linecap:butt;stroke-linejoin:miter;stroke-opacity:1"/><path d="M213.173,42.8096 C209.081,48.175 210.381,50.4213 217.072,49.5485 C223.762,48.6757 225.062,50.922 220.97,56.2874 C216.879,61.6528 218.179,63.8991 224.869,63.0263 C231.56,62.1535 232.86,64.3999 228.768,69.7652 C224.677,75.1306 225.976,77.3769 232.667,76.5042 C239.358,75.6314 240.657,77.8777 236.566,83.2431 C232.474,88.6085 233.774,90.8548 240.465,89.982 C247.156,89.1092 248.455,91.3555 244.364,96.7209 C240.272,102.086 241.572,104.333 248.262,103.46 C254.953,102.587 256.253,104.833 252.161,110.199 C248.07,115.564 249.369,117.81 256.06,116.938 C262.751,116.065 264.051,118.311 259.959,123.677 C255.868,129.042 257.167,131.288 263.858,130.416 C270.549,129.543 271.848,131.789 267.757,137.154 C263.665,142.52 264.965,144.766 271.656,143.893 C278.346,143.021 279.646,145.267 275.555,150.632" style="fill:none;stroke:#7f7f7f;stroke-width:4px;stroke-linecap:butt;stroke-linejoin:miter;stroke-opacity:1"/><text x="136.537" y="165.105" dominant-baseline="central" text-anchor="middle" style="font-size:40px;font-style:normal;font-weight:700;fill-opacity:1;stroke:none;font-family:sans-serif;fill:#00f"><tspan>N</tspan></text><text x="43.291" y="102.895" dominant-baseline="central" text-anchor="end" style="font-size:40px;font-style:normal;font-weight:700;fill-opacity:1;stroke:none;font-family:sans-serif;fill:red"><tspan>O</tspan></text></svg>