<svg xmlns="http://www.w3.org/2000/svg" xmlns:rdkit="http://www.rdkit.org/xml" xmlns:xlink="http://www.w3.org/1999/xlink" width="256" height="256" baseProfile="full" version="1.1" viewBox="0 0 256 256" xml:space="preserve"><rect style="opacity:1;fill:#fff;stroke:none" width="256" height="256" x="0" y="0"/><path d="M 201.47,11.6364 L 201.535,44.1535" class="bond-0" style="fill:none;fill-rule:evenodd;stroke:#7f7f7f;stroke-width:3px;stroke-linecap:butt;stroke-linejoin:miter;stroke-opacity:1"/><path d="M 201.535,44.1535 L 201.6,76.6707" class="bond-0" style="fill:none;fill-rule:evenodd;stroke:red;stroke-width:3px;stroke-linecap:butt;stroke-linejoin:miter;stroke-opacity:1"/><path d="M 182.96,107.507 L 167.696,116.362" class="bond-1" style="fill:none;fill-rule:evenodd;stroke:red;stroke-width:3px;stroke-linecap:butt;stroke-linejoin:miter;stroke-opacity:1"/><path d="M 167.696,116.362 L 152.431,125.218" class="bond-1" style="fill:none;fill-rule:evenodd;stroke:#00f;stroke-width:3px;stroke-linecap:butt;stroke-linejoin:miter;stroke-opacity:1"/><path d="M 107.553,118.711 L 92.2036,109.887" class="bond-2" style="fill:none;fill-rule:evenodd;stroke:#00f;stroke-width:3px;stroke-linecap:butt;stroke-linejoin:miter;stroke-opacity:1"/><path d="M 92.2036,109.887 L 76.8539,101.063" class="bond-2" style="fill:none;fill-rule:evenodd;stroke:red;stroke-width:3px;stroke-linecap:butt;stroke-linejoin:miter;stroke-opacity:1"/><path d="M 99.9252,131.981 L 84.5754,123.157" class="bond-2" style="fill:none;fill-rule:evenodd;stroke:#00f;stroke-width:3px;stroke-linecap:butt;stroke-linejoin:miter;stroke-opacity:1"/><path d="M 84.5754,123.157 L 69.2256,114.333" class="bond-2" style="fill:none;fill-rule:evenodd;stroke:red;stroke-width:3px;stroke-linecap:butt;stroke-linejoin:miter;stroke-opacity:1"/><path d="M 128.129,161.341 L 128.172,182.858" class="bond-3" style="fill:none;fill-rule:evenodd;stroke:#00f;stroke-width:3px;stroke-linecap:butt;stroke-linejoin:miter;stroke-opacity:1"/><path d="M 128.172,182.858 L 128.215,204.375" class="bond-3" style="fill:none;fill-rule:evenodd;stroke:red;stroke-width:3px;stroke-linecap:butt;stroke-linejoin:miter;stroke-opacity:1"/><path d="M158.953,11.7214 C160.733,15.9696 162.504,15.966 164.267,11.7108 C166.03,7.45552 167.802,7.45197 169.582,11.7001 C171.362,15.9483 173.133,15.9448 174.896,11.6895 C176.66,7.43426 178.431,7.43072 180.211,11.6789 C181.991,15.927 183.763,15.9235 185.526,11.6683 C187.289,7.413 189.06,7.40946 190.84,11.6576 C192.62,15.9058 194.392,15.9022 196.155,11.647 C197.918,7.39174 199.69,7.3882 201.47,11.6364 C203.25,15.8845 205.021,15.881 206.784,11.6257 C208.547,7.37048 210.319,7.36694 212.099,11.6151 C213.879,15.8633 215.651,15.8597 217.414,11.6045 C219.177,7.34923 220.948,7.34568 222.728,11.5938 C224.508,15.842 226.28,15.8385 228.043,11.5832 C229.806,7.32797 231.577,7.32442 233.357,11.5726 C235.138,15.8208 236.909,15.8172 238.672,11.562 C240.435,7.30671 242.207,7.30317 243.987,11.5513" style="fill:none;stroke:#7f7f7f;stroke-width:3px;stroke-linecap:butt;stroke-linejoin:miter;stroke-opacity:1"/><text x="186.96" y="102.671" dominant-baseline="central" text-anchor="start" style="font-size:40px;font-style:normal;font-weight:700;fill-opacity:1;stroke:none;font-family:sans-serif;fill:red"><tspan>O</tspan></text><text x="128.085" y="145.941" dominant-baseline="central" text-anchor="middle" style="font-size:40px;font-style:normal;font-weight:700;fill-opacity:1;stroke:none;font-family:sans-serif;fill:#00f"><tspan>N</tspan><tspan style="baseline-shift:super;font-size:30px">+</tspan></text><text x="69.04" y="102.96" dominant-baseline="central" text-anchor="end" style="font-size:40px;font-style:normal;font-weight:700;fill-opacity:1;stroke:none;font-family:sans-serif;fill:red"><tspan>O</tspan></text><text x="113.976" y="230.975" dominant-baseline="central" text-anchor="start" style="font-size:40px;font-style:normal;font-weight:700;fill-opacity:1;stroke:none;font-family:sans-serif;fill:red"><tspan>O</tspan><tspan style="baseline-shift:super;font-size:30px">-</tspan></text></svg>