<svg xmlns="http://www.w3.org/2000/svg" xmlns:rdkit="http://www.rdkit.org/xml" xmlns:xlink="http://www.w3.org/1999/xlink" width="256" height="256" baseProfile="full" version="1.1" viewBox="0 0 256 256" xml:space="preserve"><rect style="opacity:1;fill:#fff;stroke:none" width="256" height="256" x="0" y="0"/><path d="M 11.6364,216.802 L 51.6919,193.871" class="bond-0" style="fill:none;fill-rule:evenodd;stroke:#7f7f7f;stroke-width:4px;stroke-linecap:butt;stroke-linejoin:miter;stroke-opacity:1"/><path d="M 51.6919,193.871 L 91.7474,170.94" class="bond-0" style="fill:none;fill-rule:evenodd;stroke:#00f;stroke-width:4px;stroke-linecap:butt;stroke-linejoin:miter;stroke-opacity:1"/><path d="M 127.005,135.042 L 127.147,95.8571" class="bond-1" style="fill:none;fill-rule:evenodd;stroke:#00f;stroke-width:4px;stroke-linecap:butt;stroke-linejoin:miter;stroke-opacity:1"/><path d="M 127.147,95.8571 L 127.288,56.6723" class="bond-1" style="fill:none;fill-rule:evenodd;stroke:red;stroke-width:4px;stroke-linecap:butt;stroke-linejoin:miter;stroke-opacity:1"/><path d="M 105.339,134.964 L 105.48,95.7791" class="bond-1" style="fill:none;fill-rule:evenodd;stroke:#00f;stroke-width:4px;stroke-linecap:butt;stroke-linejoin:miter;stroke-opacity:1"/><path d="M 105.48,95.7791 L 105.621,56.5943" class="bond-1" style="fill:none;fill-rule:evenodd;stroke:red;stroke-width:4px;stroke-linecap:butt;stroke-linejoin:miter;stroke-opacity:1"/><path d="M 140.439,171.173 L 170.938,188.925" class="bond-2" style="fill:none;fill-rule:evenodd;stroke:#00f;stroke-width:4px;stroke-linecap:butt;stroke-linejoin:miter;stroke-opacity:1"/><path d="M 170.938,188.925 L 201.437,206.677" class="bond-2" style="fill:none;fill-rule:evenodd;stroke:red;stroke-width:4px;stroke-linecap:butt;stroke-linejoin:miter;stroke-opacity:1"/><path d="M41.5379,269.034 C45.5151,263.867 44.2692,261.691 37.8002,262.505 C31.3311,263.319 30.0852,261.142 34.0625,255.976 C38.0397,250.809 36.7938,248.633 30.3248,249.447 C23.8558,250.261 22.6099,248.085 26.5871,242.918 C30.5643,237.752 29.3185,235.575 22.8494,236.389 C16.3804,237.203 15.1345,235.027 19.1117,229.86 C23.089,224.694 21.8431,222.518 15.3741,223.331 C8.90502,224.145 7.65913,221.969 11.6364,216.802 C15.6136,211.636 14.3677,209.46 7.89868,210.274 C1.42965,211.087 0.183754,208.911 4.16099,203.745 C8.13823,198.578 6.89233,196.402 0.423303,197.216 C-6.04572,198.03 -7.29162,195.853 -3.31438,190.687 C0.662852,185.52 -0.583044,183.344 -7.05207,184.158 C-13.5211,184.972 -14.767,182.795 -10.7898,177.629 C-6.81252,172.463 -8.05842,170.286 -14.5274,171.1 C-20.9965,171.914 -22.2424,169.738 -18.2651,164.571" style="fill:none;stroke:#7f7f7f;stroke-width:4px;stroke-linecap:butt;stroke-linejoin:miter;stroke-opacity:1"/><text x="116.093" y="163.603" dominant-baseline="central" text-anchor="middle" style="font-size:40px;font-style:normal;font-weight:700;fill-opacity:1;stroke:none;font-family:sans-serif;fill:#00f"><tspan>N</tspan><tspan style="baseline-shift:super;font-size:30px">+</tspan></text><text x="101.847" y="42.633" dominant-baseline="central" text-anchor="start" style="font-size:40px;font-style:normal;font-weight:700;fill-opacity:1;stroke:none;font-family:sans-serif;fill:red"><tspan>O</tspan></text><text x="205.837" y="224.149" dominant-baseline="central" text-anchor="start" style="font-size:40px;font-style:normal;font-weight:700;fill-opacity:1;stroke:none;font-family:sans-serif;fill:red"><tspan>O</tspan><tspan style="baseline-shift:super;font-size:30px">-</tspan></text></svg>