<svg xmlns="http://www.w3.org/2000/svg" xmlns:rdkit="http://www.rdkit.org/xml" xmlns:xlink="http://www.w3.org/1999/xlink" width="256" height="256" baseProfile="full" version="1.1" viewBox="0 0 256 256" xml:space="preserve"><rect style="opacity:1;fill:#fff;stroke:none" width="256" height="256" x="0" y="0"/><path d="M 244.364,148.675 L 217.734,133.325" class="bond-0" style="fill:none;fill-rule:evenodd;stroke:#7f7f7f;stroke-width:3px;stroke-linecap:butt;stroke-linejoin:miter;stroke-opacity:1"/><path d="M 217.734,133.325 L 191.104,117.976" class="bond-0" style="fill:none;fill-rule:evenodd;stroke:red;stroke-width:3px;stroke-linecap:butt;stroke-linejoin:miter;stroke-opacity:1"/><path d="M 153.745,118.016 L 135.815,128.389" class="bond-1" style="fill:none;fill-rule:evenodd;stroke:red;stroke-width:3px;stroke-linecap:butt;stroke-linejoin:miter;stroke-opacity:1"/><path d="M 135.815,128.389 L 117.886,138.762" class="bond-1" style="fill:none;fill-rule:evenodd;stroke:#00f;stroke-width:3px;stroke-linecap:butt;stroke-linejoin:miter;stroke-opacity:1"/><path d="M 86.948,132.325 L 68.9855,121.971" class="bond-2" style="fill:none;fill-rule:evenodd;stroke:#00f;stroke-width:3px;stroke-linecap:butt;stroke-linejoin:miter;stroke-opacity:1"/><path d="M 68.9855,121.971 L 51.023,111.617" class="bond-2" style="fill:none;fill-rule:evenodd;stroke:red;stroke-width:3px;stroke-linecap:butt;stroke-linejoin:miter;stroke-opacity:1"/><path d="M 79.4842,145.274 L 61.5217,134.92" class="bond-2" style="fill:none;fill-rule:evenodd;stroke:#00f;stroke-width:3px;stroke-linecap:butt;stroke-linejoin:miter;stroke-opacity:1"/><path d="M 61.5217,134.92 L 43.5592,124.566" class="bond-2" style="fill:none;fill-rule:evenodd;stroke:red;stroke-width:3px;stroke-linecap:butt;stroke-linejoin:miter;stroke-opacity:1"/><path d="M265.096,112.706 C260.636,112.132 259.772,113.63 262.505,117.202 C265.238,120.774 264.374,122.273 259.913,121.698 C255.452,121.124 254.589,122.623 257.322,126.195 C260.055,129.767 259.191,131.265 254.73,130.691 C250.269,130.116 249.405,131.615 252.138,135.187 C254.871,138.759 254.008,140.257 249.547,139.683 C245.086,139.108 244.222,140.607 246.955,144.179 C249.688,147.751 248.824,149.25 244.364,148.675 C239.903,148.101 239.039,149.599 241.772,153.171 C244.505,156.743 243.641,158.242 239.18,157.667 C234.72,157.093 233.856,158.591 236.589,162.163 C239.322,165.735 238.458,167.234 233.997,166.66 C229.537,166.085 228.673,167.584 231.406,171.156 C234.139,174.728 233.275,176.226 228.814,175.652 C224.353,175.077 223.489,176.576 226.222,180.148 C228.956,183.72 228.092,185.219 223.631,184.644" style="fill:none;stroke:#7f7f7f;stroke-width:3px;stroke-linecap:butt;stroke-linejoin:miter;stroke-opacity:1"/><text x="172.424" y="113.209" dominant-baseline="central" text-anchor="middle" style="font-size:40px;font-style:normal;font-weight:700;fill-opacity:1;stroke:none;font-family:sans-serif;fill:red"><tspan>O</tspan></text><text x="100.551" y="154.791" dominant-baseline="central" text-anchor="middle" style="font-size:40px;font-style:normal;font-weight:700;fill-opacity:1;stroke:none;font-family:sans-serif;fill:#00f"><tspan>N</tspan></text><text x="43.291" y="113.325" dominant-baseline="central" text-anchor="end" style="font-size:40px;font-style:normal;font-weight:700;fill-opacity:1;stroke:none;font-family:sans-serif;fill:red"><tspan>O</tspan></text></svg>