<svg xmlns="http://www.w3.org/2000/svg" xmlns:rdkit="http://www.rdkit.org/xml" xmlns:xlink="http://www.w3.org/1999/xlink" width="256" height="256" baseProfile="full" version="1.1" viewBox="0 0 256 256" xml:space="preserve"><rect style="opacity:1;fill:#fff;stroke:none" width="256" height="256" x="0" y="0"/><path d="M 11.6364,199.195 L 65.8796,168.142" class="bond-0" style="fill:none;fill-rule:evenodd;stroke:#7f7f7f;stroke-width:5px;stroke-linecap:butt;stroke-linejoin:miter;stroke-opacity:1"/><path d="M 65.8796,168.142 L 120.123,137.088" class="bond-0" style="fill:none;fill-rule:evenodd;stroke:#000;stroke-width:5px;stroke-linecap:butt;stroke-linejoin:miter;stroke-opacity:1"/><path d="M 120.123,137.088 L 165.698,110.997" class="bond-1" style="fill:none;fill-rule:evenodd;stroke:#000;stroke-width:5px;stroke-linecap:butt;stroke-linejoin:miter;stroke-opacity:1"/><path d="M 165.698,110.997 L 211.274,84.9057" class="bond-1" style="fill:none;fill-rule:evenodd;stroke:#00f;stroke-width:5px;stroke-linecap:butt;stroke-linejoin:miter;stroke-opacity:1"/><path d="M 144.975,148.79 L 183.715,126.612" class="bond-1" style="fill:none;fill-rule:evenodd;stroke:#000;stroke-width:5px;stroke-linecap:butt;stroke-linejoin:miter;stroke-opacity:1"/><path d="M 183.715,126.612 L 222.454,104.434" class="bond-1" style="fill:none;fill-rule:evenodd;stroke:#00f;stroke-width:5px;stroke-linecap:butt;stroke-linejoin:miter;stroke-opacity:1"/><path d="M 122.616,109.732 L 161.355,87.5546" class="bond-1" style="fill:none;fill-rule:evenodd;stroke:#000;stroke-width:5px;stroke-linecap:butt;stroke-linejoin:miter;stroke-opacity:1"/><path d="M 161.355,87.5546 L 200.094,65.377" class="bond-1" style="fill:none;fill-rule:evenodd;stroke:#00f;stroke-width:5px;stroke-linecap:butt;stroke-linejoin:miter;stroke-opacity:1"/><path d="M42.6914,253.441 C46.822,248.075 45.5281,245.815 38.8095,246.66 C32.0909,247.506 30.797,245.245 34.9276,239.88 C39.0583,234.514 37.7643,232.253 31.0457,233.099 C24.3272,233.944 23.0332,231.684 27.1639,226.318 C31.2945,220.952 30.0006,218.692 23.282,219.537 C16.5634,220.382 15.2695,218.122 19.4001,212.756 C23.5308,207.391 22.2368,205.13 15.5182,205.976 C8.79966,206.821 7.5057,204.561 11.6364,199.195 C15.767,193.829 14.4731,191.569 7.75449,192.414 C1.0359,193.259 -0.258058,190.999 3.87261,185.633 C8.00328,180.267 6.70932,178.007 -0.00926811,178.852 C-6.72785,179.698 -8.02181,177.437 -3.89115,172.072 C0.239522,166.706 -1.05444,164.446 -7.77302,165.291 C-14.4916,166.136 -15.7856,163.876 -11.6549,158.51 C-7.52423,153.144 -8.81819,150.884 -15.5368,151.729 C-22.2554,152.575 -23.5493,150.314 -19.4187,144.949" style="fill:none;stroke:#7f7f7f;stroke-width:5px;stroke-linecap:butt;stroke-linejoin:miter;stroke-opacity:1"/><text x="215.274" y="80.982" dominant-baseline="central" text-anchor="start" style="font-size:40px;font-style:normal;font-weight:700;fill-opacity:1;stroke:none;font-family:sans-serif;fill:#00f"><tspan>N</tspan></text></svg>