<svg height="256" viewBox="0 0 256 256" width="256" xmlns="http://www.w3.org/2000/svg"><path d="m0 0h256v256h-256z" fill="#fff"/><g fill="none" stroke-width="2"><path d="m134.6 62.8v50.2" stroke="#000"/><path d="m121.1 134.4-28 16.2" stroke="#000"/><path d="m68.3 146.5-28.1-16.2" stroke="#000"/><path d="m63.5 154.8-28-16.2" stroke="#000"/><path d="m148.2 134.4 28.1 16.2" stroke="#000"/><path d="m102.726 62.866c.002 2.39 3.188 2.387 3.186-.002-.002-2.39 3.184-2.392 3.186-.003.002 2.39 3.188 2.387 3.186-.002-.002-2.39 3.185-2.392 3.187-.003.001 2.39 3.188 2.387 3.186-.002-.002-2.39 3.184-2.392 3.186-.003s3.188 2.387 3.186-.003c-.002-2.389 3.184-2.392 3.186-.002.002 2.389 3.188 2.387 3.186-.003-.002-2.389 3.184-2.392 3.186-.002.002 2.389 3.188 2.387 3.187-.003-.002-2.389 3.184-2.392 3.186-.002.002 2.389 3.188 2.387 3.186-.003-.002-2.389 3.184-2.392 3.186-.002.002 2.389 3.188 2.387 3.186-.003-.002-2.389 3.184-2.392 3.186-.002.002 2.389 3.188 2.386 3.186-.003-.001-2.39 3.185-2.392 3.187-.003.002 2.39 3.188 2.387 3.186-.002-.002-2.39 3.184-2.392 3.186-.003" stroke="#7f7f7f"/></g><text font-family="sans-serif" font-size="38" x="123.2" y="145.7">N</text><text font-family="sans-serif" font-size="38" x="68" y="177.6">N</text><text font-family="sans-serif" font-size="38" x="12.8" y="145.8">O</text><text font-family="sans-serif" font-size="38" x="178.4" y="177.5">C</text><text font-family="sans-serif" font-size="38" x="204.8" y="177.5">H</text><text font-family="sans-serif" font-size="25" x="231.1" y="192.8">3</text></svg>