<svg xmlns="http://www.w3.org/2000/svg" xmlns:rdkit="http://www.rdkit.org/xml" xmlns:xlink="http://www.w3.org/1999/xlink" width="256" height="256" baseProfile="full" version="1.1" viewBox="0 0 256 256" xml:space="preserve"><rect style="opacity:1;fill:#fff;stroke:none" width="256" height="256" x="0" y="0"/><path d="M 182.872,65.9337 L 182.9,101.388" class="bond-0" style="fill:none;fill-rule:evenodd;stroke:#7f7f7f;stroke-width:2px;stroke-linecap:butt;stroke-linejoin:miter;stroke-opacity:1"/><path d="M 182.9,101.388 L 182.928,136.842" class="bond-0" style="fill:none;fill-rule:evenodd;stroke:#000;stroke-width:2px;stroke-linecap:butt;stroke-linejoin:miter;stroke-opacity:1"/><path d="M 182.928,136.842 L 159.922,150.148" class="bond-1" style="fill:none;fill-rule:evenodd;stroke:#000;stroke-width:2px;stroke-linecap:butt;stroke-linejoin:miter;stroke-opacity:1"/><path d="M 159.922,150.148 L 136.915,163.453" class="bond-1" style="fill:none;fill-rule:evenodd;stroke:#00f;stroke-width:2px;stroke-linecap:butt;stroke-linejoin:miter;stroke-opacity:1"/><path d="M 169.637,129.785 L 153.532,139.099" class="bond-1" style="fill:none;fill-rule:evenodd;stroke:#000;stroke-width:2px;stroke-linecap:butt;stroke-linejoin:miter;stroke-opacity:1"/><path d="M 153.532,139.099 L 137.427,148.413" class="bond-1" style="fill:none;fill-rule:evenodd;stroke:#00f;stroke-width:2px;stroke-linecap:butt;stroke-linejoin:miter;stroke-opacity:1"/><path d="M 182.928,136.842 L 244.364,172.24" class="bond-3" style="fill:none;fill-rule:evenodd;stroke:#000;stroke-width:2px;stroke-linecap:butt;stroke-linejoin:miter;stroke-opacity:1"/><path d="M 106.185,163.486 L 91.4282,154.984" class="bond-2" style="fill:none;fill-rule:evenodd;stroke:#00f;stroke-width:2px;stroke-linecap:butt;stroke-linejoin:miter;stroke-opacity:1"/><path d="M 91.4282,154.984 L 76.6714,146.481" class="bond-2" style="fill:none;fill-rule:evenodd;stroke:red;stroke-width:2px;stroke-linecap:butt;stroke-linejoin:miter;stroke-opacity:1"/><path d="M147.417,65.9621 C148.897,69.5063 150.375,69.5051 151.849,65.9585 C153.324,62.4119 154.801,62.4107 156.281,65.955 C157.761,69.4992 159.238,69.498 160.713,65.9514 C162.187,62.4048 163.664,62.4036 165.145,65.9479 C166.625,69.4921 168.102,69.4909 169.576,65.9443 C171.051,62.3977 172.528,62.3965 174.008,65.9408 C175.488,69.485 176.965,69.4838 178.44,65.9372 C179.914,62.3906 181.392,62.3894 182.872,65.9337 C184.352,69.4779 185.829,69.4768 187.303,65.9301 C188.778,62.3835 190.255,62.3824 191.735,65.9266 C193.215,69.4708 194.693,69.4697 196.167,65.9231 C197.641,62.3764 199.119,62.3753 200.599,65.9195 C202.079,69.4638 203.556,69.4626 205.031,65.916 C206.505,62.3694 207.982,62.3682 209.462,65.9124 C210.943,69.4567 212.42,69.4555 213.894,65.9089 C215.369,62.3623 216.846,62.3611 218.326,65.9053" style="fill:none;stroke:#7f7f7f;stroke-width:2px;stroke-linecap:butt;stroke-linejoin:miter;stroke-opacity:1"/><text x="121.55" y="177.657" dominant-baseline="central" text-anchor="middle" style="font-size:35px;font-style:normal;font-weight:700;fill-opacity:1;stroke:none;font-family:sans-serif;fill:#00f"><tspan>N</tspan></text><text x="73.126" y="142.26" dominant-baseline="central" text-anchor="end" style="font-size:35px;font-style:normal;font-weight:700;fill-opacity:1;stroke:none;font-family:sans-serif;fill:red"><tspan>HO</tspan></text></svg>