<svg height="256" viewBox="0 0 256 256" width="256" xmlns="http://www.w3.org/2000/svg"><path d="m0 0h256v256h-256z" fill="#fff"/><g fill="none" stroke-width="2"><g stroke="#000"><path d="m145 69.1v57.6"/><path d="m145 126.7-37.5 21.7"/><path d="m136.4 121.7-33.3 19.2"/><path d="m82.9 148.4-25.3-14.6"/><path d="m145 126.7 37.7 21.7"/></g><path d="m116.202 69.113c.001 2.16 2.881 2.158 2.879-.002-.001-2.16 2.878-2.162 2.88-.002.002 2.159 2.881 2.157 2.88-.003-.002-2.159 2.877-2.162 2.879-.002s2.882 2.157 2.88-.002c-.002-2.16 2.878-2.162 2.879-.003.002 2.16 2.882 2.158 2.88-.002-.002-2.159 2.878-2.162 2.88-.002.001 2.159 2.881 2.157 2.879-.002-.001-2.16 2.878-2.162 2.88-.003.002 2.16 2.881 2.158 2.88-.002-.002-2.16 2.877-2.162 2.879-.002.002 2.159 2.882 2.157 2.88-.003-.002-2.159 2.878-2.162 2.879-.002.002 2.16 2.882 2.157 2.88-.002-.002-2.16 2.878-2.162 2.88-.003.001 2.16 2.881 2.158 2.879-.002-.001-2.16 2.878-2.162 2.88-.002.002 2.159 2.881 2.157 2.88-.003-.002-2.159 2.878-2.161 2.879-.002" stroke="#7f7f7f"/></g><g font-family="sans-serif"><text font-size="34" x="84.8" y="172.8">N</text><text font-size="34" x="12.8" y="144">H</text><text font-size="34" x="34.9" y="144">O</text><text font-size="34" x="184.6" y="172.7">C</text><text font-size="34" x="208.4" y="172.7">H</text><text font-size="22" x="232.3" y="186.5">3</text></g></svg>