<svg xmlns="http://www.w3.org/2000/svg" xmlns:rdkit="http://www.rdkit.org/xml" xmlns:xlink="http://www.w3.org/1999/xlink" width="256" height="256" baseProfile="full" version="1.1" viewBox="0 0 256 256" xml:space="preserve"><rect style="opacity:1;fill:#fff;stroke:none" width="256" height="256" x="0" y="0"/><path d="M 244.364,111.13 L 215.279,127.953" class="bond-0" style="fill:none;fill-rule:evenodd;stroke:#7f7f7f;stroke-width:2px;stroke-linecap:butt;stroke-linejoin:miter;stroke-opacity:1"/><path d="M 215.279,127.953 L 186.195,144.776" class="bond-0" style="fill:none;fill-rule:evenodd;stroke:#000;stroke-width:2px;stroke-linecap:butt;stroke-linejoin:miter;stroke-opacity:1"/><path d="M 180.149,144.781 L 180.169,169.975" class="bond-1" style="fill:none;fill-rule:evenodd;stroke:#000;stroke-width:2px;stroke-linecap:butt;stroke-linejoin:miter;stroke-opacity:1"/><path d="M 180.169,169.975 L 180.189,195.169" class="bond-1" style="fill:none;fill-rule:evenodd;stroke:red;stroke-width:2px;stroke-linecap:butt;stroke-linejoin:miter;stroke-opacity:1"/><path d="M 192.242,144.771 L 192.262,169.965" class="bond-1" style="fill:none;fill-rule:evenodd;stroke:#000;stroke-width:2px;stroke-linecap:butt;stroke-linejoin:miter;stroke-opacity:1"/><path d="M 192.262,169.965 L 192.282,195.16" class="bond-1" style="fill:none;fill-rule:evenodd;stroke:red;stroke-width:2px;stroke-linecap:butt;stroke-linejoin:miter;stroke-opacity:1"/><path d="M 186.195,144.776 L 128,111.224" class="bond-2" style="fill:none;fill-rule:evenodd;stroke:#000;stroke-width:2px;stroke-linecap:butt;stroke-linejoin:miter;stroke-opacity:1"/><path d="M 134.047,111.219 L 134.026,86.025" class="bond-3" style="fill:none;fill-rule:evenodd;stroke:#000;stroke-width:2px;stroke-linecap:butt;stroke-linejoin:miter;stroke-opacity:1"/><path d="M 134.026,86.025 L 134.006,60.8308" class="bond-3" style="fill:none;fill-rule:evenodd;stroke:red;stroke-width:2px;stroke-linecap:butt;stroke-linejoin:miter;stroke-opacity:1"/><path d="M 121.953,111.229 L 121.933,86.0347" class="bond-3" style="fill:none;fill-rule:evenodd;stroke:#000;stroke-width:2px;stroke-linecap:butt;stroke-linejoin:miter;stroke-opacity:1"/><path d="M 121.933,86.0347 L 121.913,60.8404" class="bond-3" style="fill:none;fill-rule:evenodd;stroke:red;stroke-width:2px;stroke-linecap:butt;stroke-linejoin:miter;stroke-opacity:1"/><path d="M 128,111.224 L 106.195,123.832" class="bond-4" style="fill:none;fill-rule:evenodd;stroke:#000;stroke-width:2px;stroke-linecap:butt;stroke-linejoin:miter;stroke-opacity:1"/><path d="M 106.195,123.832 L 84.3896,136.439" class="bond-4" style="fill:none;fill-rule:evenodd;stroke:#00f;stroke-width:2px;stroke-linecap:butt;stroke-linejoin:miter;stroke-opacity:1"/><path d="M 55.2736,136.467 L 33.455,123.892" class="bond-5" style="fill:none;fill-rule:evenodd;stroke:#00f;stroke-width:2px;stroke-linecap:butt;stroke-linejoin:miter;stroke-opacity:1"/><path d="M 33.455,123.892 L 11.6364,111.318" class="bond-5" style="fill:none;fill-rule:evenodd;stroke:#000;stroke-width:2px;stroke-linecap:butt;stroke-linejoin:miter;stroke-opacity:1"/><path d="M 69.8451,161.653 L 69.8652,186.847" class="bond-6" style="fill:none;fill-rule:evenodd;stroke:#00f;stroke-width:2px;stroke-linecap:butt;stroke-linejoin:miter;stroke-opacity:1"/><path d="M 69.8652,186.847 L 69.8854,212.041" class="bond-6" style="fill:none;fill-rule:evenodd;stroke:#000;stroke-width:2px;stroke-linecap:butt;stroke-linejoin:miter;stroke-opacity:1"/><path d="M227.544,82.0517 C225.337,84.9453 226.038,86.1569 229.647,85.6865 C233.255,85.2162 233.956,86.4277 231.749,89.3213 C229.542,92.2148 230.243,93.4264 233.851,92.9561 C237.46,92.4857 238.161,93.6973 235.954,96.5908 C233.747,99.4844 234.448,100.696 238.056,100.226 C241.665,99.7553 242.366,100.967 240.159,103.86 C237.952,106.754 238.653,107.966 242.261,107.495 C245.87,107.025 246.571,108.236 244.364,111.13 C242.157,114.024 242.857,115.235 246.466,114.765 C250.075,114.294 250.776,115.506 248.569,118.4 C246.362,121.293 247.062,122.505 250.671,122.034 C254.28,121.564 254.98,122.776 252.773,125.669 C250.566,128.563 251.267,129.774 254.876,129.304 C258.484,128.833 259.185,130.045 256.978,132.939 C254.771,135.832 255.472,137.044 259.081,136.573 C262.689,136.103 263.39,137.315 261.183,140.208" style="fill:none;stroke:#7f7f7f;stroke-width:2px;stroke-linecap:butt;stroke-linejoin:miter;stroke-opacity:1"/><text x="173.921" y="216.999" dominant-baseline="central" text-anchor="start" style="font-size:33px;font-style:normal;font-weight:700;fill-opacity:1;stroke:none;font-family:sans-serif;fill:red"><tspan>O</tspan></text><text x="115.618" y="49.078" dominant-baseline="central" text-anchor="start" style="font-size:33px;font-style:normal;font-weight:700;fill-opacity:1;stroke:none;font-family:sans-serif;fill:red"><tspan>O</tspan></text><text x="81.03" y="149.895" dominant-baseline="central" text-anchor="end" style="font-size:33px;font-style:normal;font-weight:700;fill-opacity:1;stroke:none;font-family:sans-serif;fill:#00f"><tspan>N</tspan></text></svg>