<svg height="256" viewBox="0 0 256 256" width="256" xmlns="http://www.w3.org/2000/svg"><path d="m0 0h256v256h-256z" fill="#fff"/><g fill="none" stroke-width="2"><path d="m230 105.7-44.2 25.6" stroke="#000"/><path d="m181.9 129.1.1 42.5" stroke="#000"/><path d="m189.6 129.1v42.4" stroke="#000"/><path d="m185.8 131.3-44.3-25.5" stroke="#000"/><path d="m145.3 108v-36.3" stroke="#000"/><path d="m137.7 108-.1-36.3" stroke="#000"/><path d="m141.5 105.8-33.4 19.3" stroke="#000"/><path d="m86.4 125.1-22.5-12.9" stroke="#000"/><path d="m97.3 148.4v23.2" stroke="#000"/><path d="m188 130.1-2.2 1.2-2.3-1.2" stroke="#000" stroke-miterlimit="10"/><path d="m143.7 107.1-2.2-1.3-1.7 1" stroke="#000" stroke-miterlimit="10"/><path d="m217.211 83.619c-1.658.959-.379 3.171 1.28 2.211 1.659-.959 2.938 1.253 1.279 2.212-1.659.96-.379 3.172 1.28 2.212 1.659-.959 2.938 1.253 1.279 2.212-1.659.96-.379 3.172 1.28 2.212 1.659-.959 2.938 1.252 1.279 2.212s-.379 3.171 1.279 2.212c1.659-.96 2.939 1.252 1.28 2.212-1.659.959-.38 3.171 1.279 2.212 1.659-.96 2.939 1.252 1.28 2.212-1.659.959-.38 3.171 1.279 2.212 1.659-.96 2.939 1.252 1.28 2.211-1.659.96-.38 3.172 1.279 2.212 1.659-.959 2.938 1.253 1.279 2.212-1.658.96-.379 3.172 1.28 2.212 1.659-.959 2.938 1.253 1.279 2.212-1.659.96-.379 3.172 1.28 2.212s2.938 1.252 1.279 2.212-.379 3.171 1.28 2.212c1.658-.96 2.938 1.252 1.279 2.212" stroke="#7f7f7f"/></g><text font-family="sans-serif" font-size="30" x="176.6" y="197.8">O</text><text font-family="sans-serif" font-size="30" x="132.3" y="70">O</text><text font-family="sans-serif" font-size="30" x="88" y="146.7">N</text><text font-family="sans-serif" font-size="30" x="12.8" y="121.2">H</text><text font-family="sans-serif" font-size="20" x="34" y="133.5">3</text><text font-family="sans-serif" font-size="30" x="43.8" y="121.2">C</text><text font-family="sans-serif" font-size="30" x="88.1" y="197.8">C</text><text font-family="sans-serif" font-size="30" x="109.2" y="197.8">H</text><text font-family="sans-serif" font-size="20" x="130.4" y="210.1">3</text></svg>