<svg height="256" viewBox="0 0 256 256" width="256" xmlns="http://www.w3.org/2000/svg"><path d="m0 0h256v256h-256z" fill="#fff"/><path d="m87.6 176.3v-30.2" fill="none" stroke="#000" stroke-width="2"/><path d="m78 125.5-20-11.5" fill="none" stroke="#000" stroke-width="2"/><path d="m97.2 125.4 29.6-17.1" fill="none" stroke="#000" stroke-width="2"/><path d="m130.2 110.3v-32.1" fill="none" stroke="#000" stroke-width="2"/><path d="m123.4 110.3v-32.1" fill="none" stroke="#000" stroke-width="2"/><path d="m126.8 108.3 29.6 17.1" fill="none" stroke="#000" stroke-width="2"/><path d="m175.6 125.4 19.9-11.5" fill="none" stroke="#000" stroke-width="2"/><path d="m166 146v20.6" fill="none" stroke="#000" stroke-width="2"/><path d="m125.3 109.2 1.5-.9 1.5.9" fill="none" stroke="#000" stroke-miterlimit="10" stroke-width="2"/><path d="m110.263 176.257c-.002-1.697-2.265-1.696-2.263.002.001 1.697-2.262 1.699-2.264.002-.001-1.698-2.264-1.696-2.263.002.001 1.697-2.262 1.699-2.263.001-.002-1.697-2.265-1.695-2.264.002.002 1.698-2.262 1.699-2.263.002s-2.265-1.696-2.263.002c.001 1.697-2.262 1.699-2.263.002-.002-1.698-2.265-1.696-2.264.001.002 1.698-2.262 1.7-2.263.002-.001-1.697-2.265-1.695-2.263.002.001 1.697-2.262 1.699-2.264.002-.001-1.698-2.264-1.696-2.263.002.001 1.697-2.262 1.699-2.263.001-.002-1.697-2.265-1.695-2.263.002.001 1.698-2.262 1.7-2.264.002-.001-1.697-2.264-1.696-2.263.002.001 1.697-2.262 1.699-2.263.002-.002-1.698-2.265-1.696-2.264.002.002 1.697-2.262 1.699-2.263.001" fill="none" stroke="#7f7f7f" stroke-width="2"/><g font-family="sans-serif"><text font-size="27" x="79.4" y="144.6">N</text><text font-size="27" x="12.8" y="122">H</text><text font-size="17" x="31.5" y="132.9">3</text><text font-size="27" x="40.2" y="122">C</text><text font-size="27" x="118.6" y="76.7">O</text><text font-size="27" x="157.8" y="144.5">N</text><text font-size="27" x="197" y="121.9">C</text><text font-size="27" x="215.8" y="121.9">H</text><text font-size="17" x="234.5" y="132.7">3</text><text font-size="27" x="157.9" y="189.8">C</text><text font-size="27" x="176.6" y="189.8">H</text><text font-size="17" x="195.4" y="200.7">3</text></g></svg>