<svg xmlns="http://www.w3.org/2000/svg" xmlns:rdkit="http://www.rdkit.org/xml" xmlns:xlink="http://www.w3.org/1999/xlink" width="256" height="256" baseProfile="full" version="1.1" viewBox="0 0 256 256" xml:space="preserve"><rect style="opacity:1;fill:#fff;stroke:none" width="256" height="256" x="0" y="0"/><path d="M 69.8854,220.399 L 69.8652,195.205" class="bond-0" style="fill:none;fill-rule:evenodd;stroke:#7f7f7f;stroke-width:2px;stroke-linecap:butt;stroke-linejoin:miter;stroke-opacity:1"/><path d="M 69.8652,195.205 L 69.8451,170.011" class="bond-0" style="fill:none;fill-rule:evenodd;stroke:#00f;stroke-width:2px;stroke-linecap:butt;stroke-linejoin:miter;stroke-opacity:1"/><path d="M 55.2736,144.824 L 33.455,132.25" class="bond-1" style="fill:none;fill-rule:evenodd;stroke:#00f;stroke-width:2px;stroke-linecap:butt;stroke-linejoin:miter;stroke-opacity:1"/><path d="M 33.455,132.25 L 11.6364,119.676" class="bond-1" style="fill:none;fill-rule:evenodd;stroke:#000;stroke-width:2px;stroke-linecap:butt;stroke-linejoin:miter;stroke-opacity:1"/><path d="M 84.3896,144.797 L 106.195,132.189" class="bond-2" style="fill:none;fill-rule:evenodd;stroke:#00f;stroke-width:2px;stroke-linecap:butt;stroke-linejoin:miter;stroke-opacity:1"/><path d="M 106.195,132.189 L 128,119.582" class="bond-2" style="fill:none;fill-rule:evenodd;stroke:#000;stroke-width:2px;stroke-linecap:butt;stroke-linejoin:miter;stroke-opacity:1"/><path d="M 134.047,119.577 L 134.026,94.3827" class="bond-3" style="fill:none;fill-rule:evenodd;stroke:#000;stroke-width:2px;stroke-linecap:butt;stroke-linejoin:miter;stroke-opacity:1"/><path d="M 134.026,94.3827 L 134.006,69.1885" class="bond-3" style="fill:none;fill-rule:evenodd;stroke:red;stroke-width:2px;stroke-linecap:butt;stroke-linejoin:miter;stroke-opacity:1"/><path d="M 121.953,119.587 L 121.933,94.3924" class="bond-3" style="fill:none;fill-rule:evenodd;stroke:#000;stroke-width:2px;stroke-linecap:butt;stroke-linejoin:miter;stroke-opacity:1"/><path d="M 121.933,94.3924 L 121.913,69.1982" class="bond-3" style="fill:none;fill-rule:evenodd;stroke:red;stroke-width:2px;stroke-linecap:butt;stroke-linejoin:miter;stroke-opacity:1"/><path d="M 128,119.582 L 149.819,132.161" class="bond-4" style="fill:none;fill-rule:evenodd;stroke:#000;stroke-width:2px;stroke-linecap:butt;stroke-linejoin:miter;stroke-opacity:1"/><path d="M 149.819,132.161 L 171.637,144.74" class="bond-4" style="fill:none;fill-rule:evenodd;stroke:#00f;stroke-width:2px;stroke-linecap:butt;stroke-linejoin:miter;stroke-opacity:1"/><path d="M 200.753,144.713 L 222.558,132.1" class="bond-5" style="fill:none;fill-rule:evenodd;stroke:#00f;stroke-width:2px;stroke-linecap:butt;stroke-linejoin:miter;stroke-opacity:1"/><path d="M 222.558,132.1 L 244.364,119.488" class="bond-5" style="fill:none;fill-rule:evenodd;stroke:#000;stroke-width:2px;stroke-linecap:butt;stroke-linejoin:miter;stroke-opacity:1"/><path d="M 186.209,169.93 L 186.229,195.124" class="bond-6" style="fill:none;fill-rule:evenodd;stroke:#00f;stroke-width:2px;stroke-linecap:butt;stroke-linejoin:miter;stroke-opacity:1"/><path d="M 186.229,195.124 L 186.249,220.318" class="bond-6" style="fill:none;fill-rule:evenodd;stroke:#000;stroke-width:2px;stroke-linecap:butt;stroke-linejoin:miter;stroke-opacity:1"/><path d="M103.478,220.372 C102.075,217.014 100.676,217.015 99.2786,220.375 C97.8816,223.736 96.4819,223.737 95.0796,220.379 C93.6772,217.021 92.2775,217.022 90.8805,220.382 C89.4835,223.742 88.0839,223.744 86.6815,220.385 C85.2791,217.027 83.8795,217.028 82.4825,220.389 C81.0855,223.749 79.6858,223.75 78.2834,220.392 C76.8811,217.034 75.4814,217.035 74.0844,220.396 C72.6874,223.756 71.2877,223.757 69.8854,220.399 C68.483,217.041 67.0833,217.042 65.6863,220.402 C64.2893,223.763 62.8897,223.764 61.4873,220.406 C60.0849,217.048 58.6853,217.049 57.2883,220.409 C55.8913,223.769 54.4916,223.77 53.0892,220.412 C51.6869,217.054 50.2872,217.055 48.8902,220.416 C47.4932,223.776 46.0935,223.777 44.6912,220.419 C43.2888,217.061 41.8891,217.062 40.4921,220.422 C39.0951,223.783 37.6955,223.784 36.2931,220.426" style="fill:none;stroke:#7f7f7f;stroke-width:2px;stroke-linecap:butt;stroke-linejoin:miter;stroke-opacity:1"/><text x="81.03" y="158.253" dominant-baseline="central" text-anchor="end" style="font-size:33px;font-style:normal;font-weight:700;fill-opacity:1;stroke:none;font-family:sans-serif;fill:#00f"><tspan>N</tspan></text><text x="115.618" y="57.436" dominant-baseline="central" text-anchor="start" style="font-size:33px;font-style:normal;font-weight:700;fill-opacity:1;stroke:none;font-family:sans-serif;fill:red"><tspan>O</tspan></text><text x="197.394" y="158.173" dominant-baseline="central" text-anchor="end" style="font-size:33px;font-style:normal;font-weight:700;fill-opacity:1;stroke:none;font-family:sans-serif;fill:#00f"><tspan>N</tspan></text></svg>