<svg height="122" viewBox="0 0 110 122" width="110" xmlns="http://www.w3.org/2000/svg"><text font-family="Helvetica" font-size="480" font-weight="bold" transform="matrix(.05 0 0 .05 73.65 40.387)">o</text><text font-family="Helvetica" font-size="480" font-weight="bold" transform="matrix(.05 0 0 .05 73.65 100.387)">o</text><text font-family="Helvetica" font-size="480" font-weight="bold" transform="matrix(.05 0 0 .05 21.69 100.387)">o</text><text font-family="Helvetica" font-size="480" font-weight="bold" transform="matrix(.05 0 0 .05 21.69 40.387)">o</text><g transform="matrix(.05 0 0 .05 -215 -299)"><path d="m6067.42 6711.89 10-17.32 371.78 214.66-20 11.54z"/><path d="m6429.2 6920.77 20-11.54v611.54l-20-11.54z"/><path d="m6429.2 7509.23 20 11.54-375.59 216.86-10-17.33z"/><path d="m5844.87 7983.02 18.68 7.13-146.66 384.85-13.78-20z"/><path d="m5166.13 8355-12.26 20-199.74-392.91 17.82-9.06z"/><path d="m4733.94 7718.89-10 17.32-373.14-215.44 20-11.54z"/><path d="m4370.8 7509.23-20 11.54v-611.54l20 11.54z"/><path d="m4370.8 6920.77-20-11.54 369.33-213.24 10 17.32z"/><path d="m4944.12 6452.25-19.01-6.22 137.64-421.03 14.5 20z"/><path d="m5871.89 6445.62-18.92 6.51-140.1-407.13 14.26-20z"/><path d="m5380.29 7180.01-.29 14.99-13.01.21-375.73-436.19 15.15-13.06z"/><path d="m5393.45 7195.22-13.45-.22.29-14.99 407.06-437.54 14.64 13.63z"/><path d="m5366.99 7195.21 13.01-.21.3 15.57-382.1 474.18-15.57-12.55z"/><path d="m5380.3 7210.57-.3-15.57 13.45.22 417.29 479.47-15.08 13.13z"/><path d="m5020 7195a360 360 0 1 0 720 0 360 360 0 1 0 -720 0z" fill="#fa666a"/><path d="m5077.25 6045-14.5-20h664.38l-14.26 20z"/><path d="m5153.87 8375 12.26-20h536.98l13.78 20z"/></g></svg>