<?xml version="1.0" standalone="no" ?>
<!DOCTYPE svg PUBLIC "-//W3C//DTD SVG 1.1//EN" "http://www.w3.org/Graphics/SVG/1.1/DTD/svg11.dtd">
<svg width="110px" height="122px" viewBox="0 0 110 122" style="background-color: #ffffff00" xmlns="http://www.w3.org/2000/svg" xmlns:xlink="http://www.w3.org/1999/xlink" version="1.1" >
<text x="0" y="0" stroke="none" fill="#000000" transform="matrix(0.05 0 0 0.05 75.9248 36.7881)" font-style="normal" font-weight="bold" font-size="280px" font-family="Helvetica" >
NH</text>
<text x="0" y="0" stroke="none" fill="#000000" transform="matrix(0.05 0 0 0.05 75.9248 96.7881)" font-style="normal" font-weight="bold" font-size="280px" font-family="Helvetica" >
NH</text>
<text x="0" y="0" stroke="none" fill="#000000" transform="matrix(0.05 0 0 0.05 13.8545 96.7881)" font-style="normal" font-weight="bold" font-size="280px" font-family="Helvetica" >
HN</text>
<text x="0" y="0" stroke="none" fill="#000000" transform="matrix(0.05 0 0 0.05 13.8545 36.7881)" font-style="normal" font-weight="bold" font-size="280px" font-family="Helvetica" >
HN</text>
<path stroke="none" fill="#000000" transform="matrix(0.05 0 0 0.05 -215 -299)" d="M 6197.8,6787.17 L 6207.8,6769.85 L 6449.2,6909.23 L 6429.2,6920.77 L 6197.8,6787.17 Z " />
<path stroke="none" fill="#000000" transform="matrix(0.05 0 0 0.05 -215 -299)" d="M 6429.2,6920.77 L 6449.2,6909.23 L 6449.2,7520.77 L 6429.2,7509.23 L 6429.2,6920.77 Z " />
<path stroke="none" fill="#000000" transform="matrix(0.05 0 0 0.05 -215 -299)" d="M 6429.2,7509.23 L 6449.2,7520.77 L 6209.96,7658.9 L 6199.96,7641.58 L 6429.2,7509.23 Z " />
<path stroke="none" fill="#000000" transform="matrix(0.05 0 0 0.05 -215 -299)" d="M 5852.33,7963.45 L 5871.01,7970.57 L 5716.89,8375 L 5703.11,8355 L 5852.33,7963.45 Z " />
<path stroke="none" fill="#000000" transform="matrix(0.05 0 0 0.05 -215 -299)" d="M 5166.13,8355 L 5153.87,8375 L 4947.1,7968.27 L 4964.93,7959.2 L 5166.13,8355 Z " />
<path stroke="none" fill="#000000" transform="matrix(0.05 0 0 0.05 -215 -299)" d="M 4600.26,7641.71 L 4590.26,7659.03 L 4350.8,7520.77 L 4370.8,7509.23 L 4600.26,7641.71 Z " />
<path stroke="none" fill="#000000" transform="matrix(0.05 0 0 0.05 -215 -299)" d="M 4370.8,7509.23 L 4350.8,7520.77 L 4350.8,6909.23 L 4370.8,6920.77 L 4370.8,7509.23 Z " />
<path stroke="none" fill="#000000" transform="matrix(0.05 0 0 0.05 -215 -299)" d="M 4370.8,6920.77 L 4350.8,6909.23 L 4592.42,6769.73 L 4602.42,6787.05 L 4370.8,6920.77 Z " />
<path stroke="none" fill="#000000" transform="matrix(0.05 0 0 0.05 -215 -299)" d="M 4940.38,6463.71 L 4921.37,6457.5 L 5062.75,6025 L 5077.25,6045 L 4940.38,6463.71 Z " />
<path stroke="none" fill="#000000" transform="matrix(0.05 0 0 0.05 -215 -299)" d="M 5876.1,6457.87 L 5857.19,6464.38 L 5712.87,6045 L 5727.13,6025 L 5876.1,6457.87 Z " />
<path stroke="none" fill="#000000" transform="matrix(0.05 0 0 0.05 -215 -299)" d="M 5380.29,7180.01 L 5380,7195 L 5366.99,7195.21 L 4983.74,6750.29 L 4998.89,6737.24 L 5380.29,7180.01 Z " />
<path stroke="none" fill="#000000" transform="matrix(0.05 0 0 0.05 -215 -299)" d="M 5393.45,7195.22 L 5380,7195 L 5380.29,7180.01 L 5797.25,6731.83 L 5811.89,6745.45 L 5393.45,7195.22 Z " />
<path stroke="none" fill="#000000" transform="matrix(0.05 0 0 0.05 -215 -299)" d="M 5366.99,7195.21 L 5380,7195 L 5380.3,7210.57 L 4995.58,7688 L 4980,7675.45 L 5366.99,7195.21 Z " />
<path stroke="none" fill="#000000" transform="matrix(0.05 0 0 0.05 -215 -299)" d="M 5380.3,7210.57 L 5380,7195 L 5393.45,7195.22 L 5815.38,7680.02 L 5800.29,7693.15 L 5380.3,7210.57 Z " />
<path stroke="none" fill="#fa666a" transform="matrix(0.05 0 0 0.05 -215 -299)" d="M 5020,7195 A 360,360 0 1 0 5740,7195 A 360,360 0 1 0 5020,7195 Z " />
<path stroke="none" fill="#000000" transform="matrix(0.05 0 0 0.05 -215 -299)" d="M 5077.25,6045 L 5062.75,6025 L 5727.13,6025 L 5712.87,6045 L 5077.25,6045 Z " />
<path stroke="none" fill="#000000" transform="matrix(0.05 0 0 0.05 -215 -299)" d="M 5153.87,8375 L 5166.13,8355 L 5703.11,8355 L 5716.89,8375 L 5153.87,8375 Z " />
</svg>
