<svg height="122" viewBox="0 0 110 122" width="110" xmlns="http://www.w3.org/2000/svg"><text font-family="Helvetica" font-size="280" font-weight="bold" transform="matrix(.05 0 0 .05 75.925 36.788)">NH</text><text font-family="Helvetica" font-size="280" font-weight="bold" transform="matrix(.05 0 0 .05 75.925 96.788)">NH</text><text font-family="Helvetica" font-size="280" font-weight="bold" transform="matrix(.05 0 0 .05 13.855 96.788)">HN</text><text font-family="Helvetica" font-size="280" font-weight="bold" transform="matrix(.05 0 0 .05 13.855 36.788)">HN</text><g transform="matrix(.05 0 0 .05 -215 -299)"><path d="m6197.8 6787.17 10-17.32 241.4 139.38-20 11.54z"/><path d="m6429.2 6920.77 20-11.54v611.54l-20-11.54z"/><path d="m6429.2 7509.23 20 11.54-239.24 138.13-10-17.32z"/><path d="m5852.33 7963.45 18.68 7.12-154.12 404.43-13.78-20z"/><path d="m5166.13 8355-12.26 20-206.77-406.73 17.83-9.07z"/><path d="m4600.26 7641.71-10 17.32-239.46-138.26 20-11.54z"/><path d="m4370.8 7509.23-20 11.54v-611.54l20 11.54z"/><path d="m4370.8 6920.77-20-11.54 241.62-139.5 10 17.32z"/><path d="m4940.38 6463.71-19.01-6.21 141.38-432.5 14.5 20z"/><path d="m5876.1 6457.87-18.91 6.51-144.32-419.38 14.26-20z"/><path d="m5380.29 7180.01-.29 14.99-13.01.21-383.25-444.92 15.15-13.05z"/><path d="m5393.45 7195.22-13.45-.22.29-14.99 416.96-448.18 14.64 13.62z"/><path d="m5366.99 7195.21 13.01-.21.3 15.57-384.72 477.43-15.58-12.55z"/><path d="m5380.3 7210.57-.3-15.57 13.45.22 421.93 484.8-15.09 13.13z"/><path d="m5020 7195a360 360 0 1 0 720 0 360 360 0 1 0 -720 0z" fill="#fa666a"/><path d="m5077.25 6045-14.5-20h664.38l-14.26 20z"/><path d="m5153.87 8375 12.26-20h536.98l13.78 20z"/></g></svg>