<svg height="156" viewBox="0 0 110 156" width="110" xmlns="http://www.w3.org/2000/svg"><text font-family="Helvetica" font-size="280" font-weight="bold" transform="matrix(.05 0 0 .05 65.815 53.038)">HN</text><text font-family="Helvetica" font-size="280" font-weight="bold" transform="matrix(.05 0 0 .05 65.815 113.038)">HN</text><text font-family="Helvetica" font-size="280" font-weight="bold" transform="matrix(.05 0 0 .05 23.965 113.038)">NH</text><text font-family="Helvetica" font-size="280" font-weight="bold" transform="matrix(.05 0 0 .05 23.965 53.038)">NH</text><g transform="matrix(.05 0 0 .05 -220 -287)"><path d="m6154.7 6789.55 10-17.32 384.5 222-20 11.54z"/><path d="m6529.2 7005.77 20-11.54v611.54l-20-11.54z"/><path d="m6529.2 7594.23 20 11.54-383.84 221.62-10-17.32z"/><path d="m6009.6 8040.24h20v465.53l-20-11.54z"/><path d="m6009.6 8494.23 20 11.54-529.6 305.78v-23.1z"/><path d="m5500 8788.45v23.1l-529.6-305.78 20-11.54z"/><path d="m4990.4 8494.23-20 11.54v-465.53h20z"/><path d="m4846.35 7811.06-10 17.32-385.55-222.61 20-11.54z"/><path d="m4470.8 7594.23-20 11.54v-611.54l20 11.54z"/><path d="m4470.8 7005.77-20-11.54 386.21-222.99 10 17.32z"/><path d="m4990.4 6558.24h-20v-464.01l20 11.54z"/><path d="m4990.4 6105.77-20-11.54 529.6-305.78v23.1z"/><path d="m5500 5811.55v-23.1l529.6 305.78-20 11.54z"/><path d="m6029.6 6558.24h-20v-452.47l20-11.54z"/><path d="m5480.29 7265.01-.29 14.99-13.01.21-353.95-410.9 15.16-13.05z"/><path d="m5493.45 7280.22-13.45-.22.29-14.99 379.94-408.39 14.64 13.63z"/><path d="m5466.99 7280.21 13.01-.21.3 15.57-360 446.75-15.57-12.55z"/><path d="m5480.3 7295.57-.3-15.57 13.45.22 390.56 448.75-15.09 13.13z"/><path d="m5120 7280a360 360 0 1 0 720 0 360 360 0 1 0 -720 0z" fill="#fa666a"/></g></svg>