<svg height="256" viewBox="0 0 256 256" width="256" xmlns="http://www.w3.org/2000/svg"><path d="m0 0h256v256h-256z" fill="#fff"/><ellipse cx="118.2" cy="134.9" fill="#ff7f7f" fill-rule="evenodd" rx="12.7" ry="12.7" stroke="#ff7f7f"/><g fill="none" stroke="#000" stroke-width="2"><path d="m121.1 97 10.5-3.9"/><path d="m137.3 102.8-6.2-24.3"/><path d="m128.7 94.2-3.7-14.2"/><path d="m131.6 93.1 26.7 45"/><path d="m158.3 138.1-20.7 26.2"/><path d="m121.5 179.7-25.9 18.4"/><path d="m95.6 198.1-33.8-25"/><path d="m63 169.5-34.3 8.7"/><path d="m65.1 175.5-34.9 8.7"/><path d="m61.8 173.1 8.8-25.1"/><path d="m139.5 173.4 36.7.7"/><path d="m176.2 174.1 17.3-42"/><path d="m192.1 135.6 34.7-7.5"/><path d="m190.5 129.5 35-7.6"/><path d="m193.5 132.1-22.3-19.1"/><path d="m111.4 116.7 3.4 9.2"/><path d="m127.6 164.3-4.9-15.3"/><path d="m91.1 134.3 18.1.4"/><path d="m153.2 111.4-26 17.5"/><path d="m131.1 93.3.5-.2 1.4 2.3" stroke-miterlimit="10"/><path d="m157 135.9 1.3 2.2-1.1 1.3" stroke-miterlimit="10"/><path d="m96.9 197.1-1.3 1-1.7-1.3" stroke-miterlimit="10"/><path d="m63.5 174.3-1.7-1.2.4-1.3" stroke-miterlimit="10"/><path d="m174.3 174.1h1.9l.8-2.1" stroke-miterlimit="10"/><path d="m192.6 134.2.9-2.1-1.1-1" stroke-miterlimit="10"/></g><text x="110.6" y="147.6"/><text font-family="sans-serif" font-size="25" x="98.6" y="115.3">O</text><text font-family="sans-serif" font-size="16" x="116.1" y="105.1">-</text><text font-family="sans-serif" font-size="25" x="116.8" y="77.9">O</text><text font-family="sans-serif" font-size="25" x="122.9" y="186">N</text><text font-family="sans-serif" font-size="25" x="12.8" y="196.2">O</text><text font-family="sans-serif" font-size="25" x="67.9" y="146.6">O</text><text font-family="sans-serif" font-size="16" x="85.4" y="136.5">-</text><text font-family="sans-serif" font-size="25" x="227.6" y="135.8">O</text><text font-family="sans-serif" font-size="25" x="154.5" y="118">O</text><text font-family="sans-serif" font-size="16" x="172.1" y="107.8">-</text></svg>