<?xml version="1.0" standalone="no" ?>
<!DOCTYPE svg PUBLIC "-//W3C//DTD SVG 1.1//EN" "http://www.w3.org/Graphics/SVG/1.1/DTD/svg11.dtd">
<svg width="121px" height="56px" viewBox="0 0 121 56" style="background-color: #ffffff00" xmlns="http://www.w3.org/2000/svg" xmlns:xlink="http://www.w3.org/1999/xlink" version="1.1" >
<path stroke="none" fill="#fd6666" transform="matrix(0.05 0 0 0.05 -117 -162)" d="M 3405.52,3790.5 A 143.984,143.984 0 1 0 3693.48,3790.5A 143.984,143.984 0 1 0 3405.52,3790.5Z " />
<path stroke="none" fill="#000000" transform="matrix(0.05 0 0 0.05 -117 -162)" d="M 3697.5,3292.88 L 3687.19,3310.73 L 3410.5,3310.73 L 3400.19,3292.88 L 3697.5,3292.88 Z " />
<text x="0" y="0" stroke="none" fill="#0000ff" transform="matrix(0.05 0 0 0.05 71.1814 19.1164)" font-style="normal" font-weight="bold" font-size="200px" font-family="Helvetica" >
N</text>
<path stroke="none" fill="#000000" transform="matrix(0.05 0 0 0.05 -117 -162)" d="M 3781.35,3438.1 L 3765.88,3447.03 L 3687.19,3310.73 L 3697.5,3292.88 L 3781.35,3438.1 Z " />
<text x="0" y="0" stroke="none" fill="#0000ff" transform="matrix(0.05 0 0 0.05 42.4814 19.1164)" font-style="normal" font-weight="bold" font-size="200px" font-family="Helvetica" >
N</text>
<path stroke="none" fill="#000000" transform="matrix(0.05 0 0 0.05 -117 -162)" d="M 3331.82,3447.01 L 3316.36,3438.08 L 3400.19,3292.88 L 3410.5,3310.73 L 3331.82,3447.01 Z " />
<path stroke="none" fill="#000000" transform="matrix(0.05 0 0 0.05 -117 -162)" d="M 2980,3559.28 L 2969.69,3541.43 L 3171.34,3541.43 L 3171.34,3559.28 L 2980,3559.28 Z " />
<path stroke="none" fill="#000000" transform="matrix(0.05 0 0 0.05 -117 -162)" d="M 3004.67,3610.94 L 3004.67,3593.09 L 3171.34,3593.09 L 3171.34,3610.94 L 3004.67,3610.94 Z " />
<path stroke="none" fill="#000000" transform="matrix(0.05 0 0 0.05 -117 -162)" d="M 4128,3541.43 L 4117.69,3559.28 L 3926.41,3559.28 L 3926.41,3541.43 L 4128,3541.43 Z " />
<path stroke="none" fill="#000000" transform="matrix(0.05 0 0 0.05 -117 -162)" d="M 4093.02,3593.09 L 4093.02,3610.94 L 3926.41,3610.94 L 3926.41,3593.09 L 4093.02,3593.09 Z " />
<path stroke="none" fill="#000000" transform="matrix(0.05 0 0 0.05 -117 -162)" d="M 2841.65,3798.91 L 2831.35,3798.91 L 2826.19,3789.98 L 2969.69,3541.43 L 2980,3559.28 L 2841.65,3798.91 Z " />
<path stroke="none" fill="#000000" transform="matrix(0.05 0 0 0.05 -117 -162)" d="M 4271.5,3789.98 L 4266.35,3798.91 L 4256.04,3798.91 L 4117.69,3559.28 L 4128,3541.43 L 4271.5,3789.98 Z " />
<path stroke="none" fill="#000000" transform="matrix(0.05 0 0 0.05 -117 -162)" d="M 2548.53,3807.83 L 2538.22,3789.98 L 2826.19,3789.98 L 2831.35,3798.91 L 2826.19,3807.83 L 2548.53,3807.83 Z " />
<path stroke="none" fill="#000000" transform="matrix(0.05 0 0 0.05 -117 -162)" d="M 2573.3,3859.67 L 2573.3,3841.81 L 2801.42,3841.81 L 2801.42,3859.67 L 2573.3,3859.67 Z " />
<path stroke="none" fill="#000000" transform="matrix(0.05 0 0 0.05 -117 -162)" d="M 2409.7,4048.29 L 2389.08,4048.29 L 2538.22,3789.98 L 2548.53,3807.83 L 2409.7,4048.29 Z " />
<path stroke="none" fill="#000000" transform="matrix(0.05 0 0 0.05 -117 -162)" d="M 2548.53,4288.75 L 2538.22,4306.61 L 2389.08,4048.29 L 2409.7,4048.29 L 2548.53,4288.75 Z " />
<path stroke="none" fill="#000000" transform="matrix(0.05 0 0 0.05 -117 -162)" d="M 2581.04,4241.38 L 2565.57,4250.31 L 2451.51,4052.76 L 2466.98,4043.83 L 2581.04,4241.38 Z " />
<path stroke="none" fill="#000000" transform="matrix(0.05 0 0 0.05 -117 -162)" d="M 2826.19,4288.75 L 2836.5,4306.61 L 2538.22,4306.61 L 2548.53,4288.75 L 2826.19,4288.75 Z " />
<path stroke="none" fill="#000000" transform="matrix(0.05 0 0 0.05 -117 -162)" d="M 2965.02,4048.29 L 2975.33,4048.29 L 2980.48,4057.22 L 2836.5,4306.61 L 2826.19,4288.75 L 2965.02,4048.29 Z " />
<path stroke="none" fill="#000000" transform="matrix(0.05 0 0 0.05 -117 -162)" d="M 2907.75,4043.83 L 2923.21,4052.76 L 2809.15,4250.31 L 2793.69,4241.38 L 2907.75,4043.83 Z " />
<path stroke="none" fill="#000000" transform="matrix(0.05 0 0 0.05 -117 -162)" d="M 2826.19,3807.83 L 2831.35,3798.91 L 2841.65,3798.91 L 2980.48,4039.37 L 2975.33,4048.29 L 2965.02,4048.29 L 2826.19,3807.83 Z " />
<path stroke="none" fill="#000000" transform="matrix(0.05 0 0 0.05 -117 -162)" d="M 4132.67,4048.29 L 4122.36,4048.29 L 4117.21,4039.37 L 4256.04,3798.91 L 4266.35,3798.91 L 4271.5,3807.83 L 4132.67,4048.29 Z " />
<path stroke="none" fill="#000000" transform="matrix(0.05 0 0 0.05 -117 -162)" d="M 4189.95,4052.76 L 4174.48,4043.83 L 4288.54,3846.28 L 4304,3855.2 L 4189.95,4052.76 Z " />
<path stroke="none" fill="#000000" transform="matrix(0.05 0 0 0.05 -117 -162)" d="M 4271.5,4288.75 L 4261.19,4306.61 L 4117.21,4057.22 L 4122.36,4048.29 L 4132.67,4048.29 L 4271.5,4288.75 Z " />
<path stroke="none" fill="#000000" transform="matrix(0.05 0 0 0.05 -117 -162)" d="M 4549.16,4288.75 L 4559.47,4306.61 L 4261.19,4306.61 L 4271.5,4288.75 L 4549.16,4288.75 Z " />
<path stroke="none" fill="#000000" transform="matrix(0.05 0 0 0.05 -117 -162)" d="M 4524.39,4236.92 L 4524.39,4254.78 L 4296.27,4254.78 L 4296.27,4236.92 L 4524.39,4236.92 Z " />
<path stroke="none" fill="#000000" transform="matrix(0.05 0 0 0.05 -117 -162)" d="M 4687.99,4048.29 L 4708.61,4048.29 L 4559.47,4306.61 L 4549.16,4288.75 L 4687.99,4048.29 Z " />
<path stroke="none" fill="#000000" transform="matrix(0.05 0 0 0.05 -117 -162)" d="M 4549.16,3807.83 L 4559.47,3789.98 L 4708.61,4048.29 L 4687.99,4048.29 L 4549.16,3807.83 Z " />
<path stroke="none" fill="#000000" transform="matrix(0.05 0 0 0.05 -117 -162)" d="M 4516.66,3855.2 L 4532.12,3846.28 L 4646.18,4043.83 L 4630.71,4052.76 L 4516.66,3855.2 Z " />
<path stroke="none" fill="#000000" transform="matrix(0.05 0 0 0.05 -117 -162)" d="M 4271.5,3807.83 L 4266.35,3798.91 L 4271.5,3789.98 L 4559.47,3789.98 L 4549.16,3807.83 L 4271.5,3807.83 Z " />
<text x="0" y="0" stroke="none" fill="#ff0000" transform="matrix(0.05 0 0 0.05 42.2758 44.0133)" font-style="normal" font-weight="bold" font-size="200px" font-family="Helvetica" >
O-</text>
<path stroke="none" fill="#000000" transform="matrix(0.05 0 0 0.05 -117 -162)" d="M 3162.35,4039.37 L 3162.35,4057.22 L 2980.48,4057.22 L 2975.33,4048.29 L 2980.48,4039.37 L 3162.35,4039.37 Z " />
<text x="0" y="0" stroke="none" fill="#ff0000" transform="matrix(0.05 0 0 0.05 70.8305 44.0133)" font-style="normal" font-weight="bold" font-size="200px" font-family="Helvetica" >
O-</text>
<path stroke="none" fill="#000000" transform="matrix(0.05 0 0 0.05 -117 -162)" d="M 4004.5,4057.22 L 4004.5,4039.37 L 4117.21,4039.37 L 4122.36,4048.29 L 4117.21,4057.22 L 4004.5,4057.22 Z " />
<path stroke="none" fill="#000000" transform="matrix(0.05 0 0 0.05 -117 -162)" d="M 3549.98,3778.37 L 3536.36,3790.27 L 3499.15,3759.32 L 3510.56,3745.59 L 3549.98,3778.37 Z " />
<path stroke="none" fill="#000000" transform="matrix(0.05 0 0 0.05 -117 -162)" d="M 3473.35,3714.64 L 3461.93,3728.37 L 3424.71,3697.42 L 3436.13,3683.69 L 3473.35,3714.64 Z " />
<path stroke="none" fill="#000000" transform="matrix(0.05 0 0 0.05 -117 -162)" d="M 3398.92,3652.74 L 3387.5,3666.47 L 3350.28,3635.52 L 3361.7,3621.79 L 3398.92,3652.74 Z " />
<path stroke="none" fill="#000000" transform="matrix(0.05 0 0 0.05 -117 -162)" d="M 3736.26,3622.2 L 3747.73,3635.88 L 3710.9,3666.76 L 3699.43,3653.07 L 3736.26,3622.2 Z " />
<path stroke="none" fill="#000000" transform="matrix(0.05 0 0 0.05 -117 -162)" d="M 3662.6,3683.95 L 3674.07,3697.64 L 3637.24,3728.51 L 3625.77,3714.83 L 3662.6,3683.95 Z " />
<path stroke="none" fill="#000000" transform="matrix(0.05 0 0 0.05 -117 -162)" d="M 3588.93,3745.71 L 3600.41,3759.39 L 3563.58,3790.27 L 3549.98,3778.37 L 3588.93,3745.71 Z " />
<path stroke="none" fill="#000000" transform="matrix(0.05 0 0 0.05 -117 -162)" d="M 3761.17,3969.73 L 3749.17,3982.95 L 3709.65,3947.06 L 3721.65,3933.84 L 3761.17,3969.73 Z " />
<path stroke="none" fill="#000000" transform="matrix(0.05 0 0 0.05 -117 -162)" d="M 3682.13,3897.95 L 3670.13,3911.16 L 3630.61,3875.27 L 3642.61,3862.05 L 3682.13,3897.95 Z " />
<path stroke="none" fill="#000000" transform="matrix(0.05 0 0 0.05 -117 -162)" d="M 3603.09,3826.16 L 3591.09,3839.38 L 3549.98,3802.04 L 3563.58,3790.27 L 3603.09,3826.16 Z " />
<path stroke="none" fill="#000000" transform="matrix(0.05 0 0 0.05 -117 -162)" d="M 3349.36,3982.77 L 3337.41,3969.51 L 3377.2,3933.66 L 3389.15,3946.93 L 3349.36,3982.77 Z " />
<path stroke="none" fill="#000000" transform="matrix(0.05 0 0 0.05 -117 -162)" d="M 3428.94,3911.08 L 3416.99,3897.81 L 3456.78,3861.96 L 3468.73,3875.23 L 3428.94,3911.08 Z " />
<path stroke="none" fill="#000000" transform="matrix(0.05 0 0 0.05 -117 -162)" d="M 3508.52,3839.38 L 3496.57,3826.12 L 3536.36,3790.27 L 3549.98,3802.04 L 3508.52,3839.38 Z " />
</svg>
