<svg height="140" viewBox="0 0 172 140" width="172" xmlns="http://www.w3.org/2000/svg"><text font-family="Helvetica" font-size="360" font-weight="bold" transform="matrix(.05 0 0 .05 48.135 54.09)">N</text><path d="m3723.46 6146.47 20 11.55v588.45l-20 11.55z" transform="matrix(.05 0 0 .05 -184 -290)"/><path d="m3795.46 6193.82h20v516.86h-20z" transform="matrix(.05 0 0 .05 -184 -290)"/><path d="m3723.46 6758.02 20-11.55 509.61 294.23v23.09z" transform="matrix(.05 0 0 .05 -184 -290)"/><path d="m4253.07 7063.79v-23.09l350.79-202.52 10 17.32z" transform="matrix(.05 0 0 .05 -184 -290)"/><path d="m4258.07 6977.77-10-17.32 319.79-184.63 10 17.32z" transform="matrix(.05 0 0 .05 -184 -290)"/><path d="m4782.69 6582.7h-20v-424.68l10-5.77 10 7.26z" transform="matrix(.05 0 0 .05 -184 -290)"/><path d="m4773.83 6141.36-1.14 10.89-10 5.77-509.62-294.23v-23.09z" transform="matrix(.05 0 0 .05 -184 -290)"/><path d="m4705.69 6185.16-10 17.32-447.62-258.44 10-17.32z" transform="matrix(.05 0 0 .05 -184 -290)"/><path d="m4253.07 5840.7v23.09l-509.61 294.23-20-11.55z" transform="matrix(.05 0 0 .05 -184 -290)"/><text font-family="Helvetica" font-size="360" font-weight="bold" transform="matrix(.05 0 0 .05 97.154 37.09)">N</text><path d="m4927.58 6801.25 4.85-19.4 397.14 99.21 3.5 11.19-18.84 5.6z" transform="matrix(.05 0 0 .05 -184 -290)"/><path d="m5346.13 6892.51-13.06-.26-3.5-11.19 280.2-320.22 15.05 13.17z" transform="matrix(.05 0 0 .05 -184 -290)"/><path d="m5620.93 6253.83-14.72 13.54-265.9-289.04 6.03-22.99z" transform="matrix(.05 0 0 .05 -184 -290)"/><path d="m5346.34 5955.34-6.03 22.99-557.62 181.18-10-7.26 1.14-10.89z" transform="matrix(.05 0 0 .05 -184 -290)"/><path d="m5910.85 6481.9 7-18.74 366.52 137-17.64 14.76z" transform="matrix(.05 0 0 .05 -184 -290)"/><path d="m5824.01 6600.76 18.34-7.96 165.26 380.7-23.23-3.28z" transform="matrix(.05 0 0 .05 -184 -290)"/><path d="m6266.73 6614.92 17.64-14.76 117.51 644.61-8.81 7.48-10.87-3.89z" transform="matrix(.05 0 0 .05 -184 -290)"/><text font-family="Helvetica" font-size="360" font-weight="bold" transform="matrix(.05 0 0 .05 106.285 98.506)">N</text><path d="m6382.2 7248.36 10.87 3.89 2.08 11.36-296.66 251.86-12.95-15.25z" transform="matrix(.05 0 0 .05 -184 -290)"/><path d="m6401.51 7326.41 12.95 15.25-269.37 228.69-12.95-15.24z" transform="matrix(.05 0 0 .05 -184 -290)"/><path d="m5958.22 7819.98 19.68-3.59 74.19 406.98-17.61 14.94z" transform="matrix(.05 0 0 .05 -184 -290)"/><path d="m6034.48 8238.31 17.61-14.94 554.12 198.06 4.14 22.72z" transform="matrix(.05 0 0 .05 -184 -290)"/><path d="m6103.3 8186.45 6.73-18.83 486.7 173.96-6.73 18.84z" transform="matrix(.05 0 0 .05 -184 -290)"/><path d="m6610.35 8444.15-4.14-22.72 448.58-380.85 21.75 7.78z" transform="matrix(.05 0 0 .05 -184 -290)"/><path d="m7076.54 8048.36-21.75-7.78-105.53-578.91 17.61-14.95z" transform="matrix(.05 0 0 .05 -184 -290)"/><path d="m6997.22 8014.69-19.68 3.59-92.69-508.48 19.68-3.59z" transform="matrix(.05 0 0 .05 -184 -290)"/><path d="m6966.87 7446.72-17.61 14.95-554.11-198.06-2.08-11.36 8.81-7.48z" transform="matrix(.05 0 0 .05 -184 -290)"/><text font-family="Helvetica" font-size="360" font-weight="bold" transform="matrix(.05 0 0 .05 54.793 84.096)">N</text><g transform="matrix(.05 0 0 .05 -184 -290)"><path d="m4739.95 7418.69 8.46 18.12-376.89 175.75-18.92-13.25z"/><path d="m4770.38 7483.94 8.45 18.13-344.44 160.61-8.45-18.12z"/><path d="m4352.6 7599.31 18.92 13.25-51.29 586.21-20.93 9.76z"/><path d="m4299.3 8208.53 20.93-9.76 482.04 337.52-2.02 23.01z"/><path d="m4379.38 8176.71 11.47-16.39 423.39 296.46-11.47 16.39z"/><path d="m4800.25 8559.3 2.02-23.01 533.32-248.69 18.91 13.25z"/><path d="m5354.5 8300.85-18.91-13.25 51.28-586.21 10.47-4.88 9.69 3.97z"/><path d="m5286.9 8247.41-19.92-1.74 45.05-514.9 19.92 1.75z"/><path d="m5395.51 7683.02 1.83 13.49-10.47 4.88-321.67-225.24 11.47-16.38z"/><path d="m5407.03 7700.48-9.69-3.97-1.83-13.49 258.34-312.71 12.81 15.9z"/><path d="m5984.38 6970.22 23.23 3.28-275.93 334.01-12.81-15.9z"/><path d="m5332.54 6907.52.53-15.27 13.06.26 467.88 581.02-15.58 12.54z"/><path d="m5314.23 6897.85 18.84-5.6-.53 15.27-278.22 299.63-14.65-13.6z"/><path d="m5053.27 6882.25a289.8 289.8 0 1 0 579.6 0 289.8 289.8 0 1 0 -579.6 0z" fill="#fa666a"/></g></svg>