<?xml version="1.0" standalone="no" ?>
<!DOCTYPE svg PUBLIC "-//W3C//DTD SVG 1.1//EN" "http://www.w3.org/Graphics/SVG/1.1/DTD/svg11.dtd">
<svg width="172px" height="140px" viewBox="0 0 172 140" style="background-color: #ffffff00" xmlns="http://www.w3.org/2000/svg" xmlns:xlink="http://www.w3.org/1999/xlink" version="1.1" >
<text x="0" y="0" stroke="none" fill="#000000" transform="matrix(0.05 0 0 0.05 48.135 54.0898)" font-style="normal" font-weight="bold" font-size="360px" font-family="Helvetica" >
N</text>
<path stroke="none" fill="#000000" transform="matrix(0.05 0 0 0.05 -184 -290)" d="M 3723.46,6146.47 L 3743.46,6158.02 L 3743.46,6746.47 L 3723.46,6758.02 L 3723.46,6146.47 Z " />
<path stroke="none" fill="#000000" transform="matrix(0.05 0 0 0.05 -184 -290)" d="M 3795.46,6193.82 L 3815.46,6193.82 L 3815.46,6710.68 L 3795.46,6710.68 L 3795.46,6193.82 Z " />
<path stroke="none" fill="#000000" transform="matrix(0.05 0 0 0.05 -184 -290)" d="M 3723.46,6758.02 L 3743.46,6746.47 L 4253.07,7040.7 L 4253.07,7063.79 L 3723.46,6758.02 Z " />
<path stroke="none" fill="#000000" transform="matrix(0.05 0 0 0.05 -184 -290)" d="M 4253.07,7063.79 L 4253.07,7040.7 L 4603.86,6838.18 L 4613.86,6855.5 L 4253.07,7063.79 Z " />
<path stroke="none" fill="#000000" transform="matrix(0.05 0 0 0.05 -184 -290)" d="M 4258.07,6977.77 L 4248.07,6960.45 L 4567.86,6775.82 L 4577.86,6793.14 L 4258.07,6977.77 Z " />
<path stroke="none" fill="#000000" transform="matrix(0.05 0 0 0.05 -184 -290)" d="M 4782.69,6582.7 L 4762.69,6582.7 L 4762.69,6158.02 L 4772.69,6152.25 L 4782.69,6159.51 L 4782.69,6582.7 Z " />
<path stroke="none" fill="#000000" transform="matrix(0.05 0 0 0.05 -184 -290)" d="M 4773.83,6141.36 L 4772.69,6152.25 L 4762.69,6158.02 L 4253.07,5863.79 L 4253.07,5840.7 L 4773.83,6141.36 Z " />
<path stroke="none" fill="#000000" transform="matrix(0.05 0 0 0.05 -184 -290)" d="M 4705.69,6185.16 L 4695.69,6202.48 L 4248.07,5944.04 L 4258.07,5926.72 L 4705.69,6185.16 Z " />
<path stroke="none" fill="#000000" transform="matrix(0.05 0 0 0.05 -184 -290)" d="M 4253.07,5840.7 L 4253.07,5863.79 L 3743.46,6158.02 L 3723.46,6146.47 L 4253.07,5840.7 Z " />
<text x="0" y="0" stroke="none" fill="#000000" transform="matrix(0.05 0 0 0.05 97.1542 37.0898)" font-style="normal" font-weight="bold" font-size="360px" font-family="Helvetica" >
N</text>
<path stroke="none" fill="#000000" transform="matrix(0.05 0 0 0.05 -184 -290)" d="M 4927.58,6801.25 L 4932.43,6781.85 L 5329.57,6881.06 L 5333.07,6892.25 L 5314.23,6897.85 L 4927.58,6801.25 Z " />
<path stroke="none" fill="#000000" transform="matrix(0.05 0 0 0.05 -184 -290)" d="M 5346.13,6892.51 L 5333.07,6892.25 L 5329.57,6881.06 L 5609.77,6560.84 L 5624.82,6574.01 L 5346.13,6892.51 Z " />
<path stroke="none" fill="#000000" transform="matrix(0.05 0 0 0.05 -184 -290)" d="M 5620.93,6253.83 L 5606.21,6267.37 L 5340.31,5978.33 L 5346.34,5955.34 L 5620.93,6253.83 Z " />
<path stroke="none" fill="#000000" transform="matrix(0.05 0 0 0.05 -184 -290)" d="M 5346.34,5955.34 L 5340.31,5978.33 L 4782.69,6159.51 L 4772.69,6152.25 L 4773.83,6141.36 L 5346.34,5955.34 Z " />
<path stroke="none" fill="#000000" transform="matrix(0.05 0 0 0.05 -184 -290)" d="M 5910.85,6481.9 L 5917.85,6463.16 L 6284.37,6600.16 L 6266.73,6614.92 L 5910.85,6481.9 Z " />
<path stroke="none" fill="#000000" transform="matrix(0.05 0 0 0.05 -184 -290)" d="M 5824.01,6600.76 L 5842.35,6592.8 L 6007.61,6973.5 L 5984.38,6970.22 L 5824.01,6600.76 Z " />
<path stroke="none" fill="#000000" transform="matrix(0.05 0 0 0.05 -184 -290)" d="M 6266.73,6614.92 L 6284.37,6600.16 L 6401.88,7244.77 L 6393.07,7252.25 L 6382.2,7248.36 L 6266.73,6614.92 Z " />
<text x="0" y="0" stroke="none" fill="#000000" transform="matrix(0.05 0 0 0.05 106.285 98.5059)" font-style="normal" font-weight="bold" font-size="360px" font-family="Helvetica" >
N</text>
<path stroke="none" fill="#000000" transform="matrix(0.05 0 0 0.05 -184 -290)" d="M 6382.2,7248.36 L 6393.07,7252.25 L 6395.15,7263.61 L 6098.49,7515.47 L 6085.54,7500.22 L 6382.2,7248.36 Z " />
<path stroke="none" fill="#000000" transform="matrix(0.05 0 0 0.05 -184 -290)" d="M 6401.51,7326.41 L 6414.46,7341.66 L 6145.09,7570.35 L 6132.14,7555.11 L 6401.51,7326.41 Z " />
<path stroke="none" fill="#000000" transform="matrix(0.05 0 0 0.05 -184 -290)" d="M 5958.22,7819.98 L 5977.9,7816.39 L 6052.09,8223.37 L 6034.48,8238.31 L 5958.22,7819.98 Z " />
<path stroke="none" fill="#000000" transform="matrix(0.05 0 0 0.05 -184 -290)" d="M 6034.48,8238.31 L 6052.09,8223.37 L 6606.21,8421.43 L 6610.35,8444.15 L 6034.48,8238.31 Z " />
<path stroke="none" fill="#000000" transform="matrix(0.05 0 0 0.05 -184 -290)" d="M 6103.3,8186.45 L 6110.03,8167.62 L 6596.73,8341.58 L 6590,8360.42 L 6103.3,8186.45 Z " />
<path stroke="none" fill="#000000" transform="matrix(0.05 0 0 0.05 -184 -290)" d="M 6610.35,8444.15 L 6606.21,8421.43 L 7054.79,8040.58 L 7076.54,8048.36 L 6610.35,8444.15 Z " />
<path stroke="none" fill="#000000" transform="matrix(0.05 0 0 0.05 -184 -290)" d="M 7076.54,8048.36 L 7054.79,8040.58 L 6949.26,7461.67 L 6966.87,7446.72 L 7076.54,8048.36 Z " />
<path stroke="none" fill="#000000" transform="matrix(0.05 0 0 0.05 -184 -290)" d="M 6997.22,8014.69 L 6977.54,8018.28 L 6884.85,7509.8 L 6904.53,7506.21 L 6997.22,8014.69 Z " />
<path stroke="none" fill="#000000" transform="matrix(0.05 0 0 0.05 -184 -290)" d="M 6966.87,7446.72 L 6949.26,7461.67 L 6395.15,7263.61 L 6393.07,7252.25 L 6401.88,7244.77 L 6966.87,7446.72 Z " />
<text x="0" y="0" stroke="none" fill="#000000" transform="matrix(0.05 0 0 0.05 54.7929 84.0957)" font-style="normal" font-weight="bold" font-size="360px" font-family="Helvetica" >
N</text>
<path stroke="none" fill="#000000" transform="matrix(0.05 0 0 0.05 -184 -290)" d="M 4739.95,7418.69 L 4748.41,7436.81 L 4371.52,7612.56 L 4352.6,7599.31 L 4739.95,7418.69 Z " />
<path stroke="none" fill="#000000" transform="matrix(0.05 0 0 0.05 -184 -290)" d="M 4770.38,7483.94 L 4778.83,7502.07 L 4434.39,7662.68 L 4425.94,7644.56 L 4770.38,7483.94 Z " />
<path stroke="none" fill="#000000" transform="matrix(0.05 0 0 0.05 -184 -290)" d="M 4352.6,7599.31 L 4371.52,7612.56 L 4320.23,8198.77 L 4299.3,8208.53 L 4352.6,7599.31 Z " />
<path stroke="none" fill="#000000" transform="matrix(0.05 0 0 0.05 -184 -290)" d="M 4299.3,8208.53 L 4320.23,8198.77 L 4802.27,8536.29 L 4800.25,8559.3 L 4299.3,8208.53 Z " />
<path stroke="none" fill="#000000" transform="matrix(0.05 0 0 0.05 -184 -290)" d="M 4379.38,8176.71 L 4390.85,8160.32 L 4814.24,8456.78 L 4802.77,8473.17 L 4379.38,8176.71 Z " />
<path stroke="none" fill="#000000" transform="matrix(0.05 0 0 0.05 -184 -290)" d="M 4800.25,8559.3 L 4802.27,8536.29 L 5335.59,8287.6 L 5354.5,8300.85 L 4800.25,8559.3 Z " />
<path stroke="none" fill="#000000" transform="matrix(0.05 0 0 0.05 -184 -290)" d="M 5354.5,8300.85 L 5335.59,8287.6 L 5386.87,7701.39 L 5397.34,7696.51 L 5407.03,7700.48 L 5354.5,8300.85 Z " />
<path stroke="none" fill="#000000" transform="matrix(0.05 0 0 0.05 -184 -290)" d="M 5286.9,8247.41 L 5266.98,8245.67 L 5312.03,7730.77 L 5331.95,7732.52 L 5286.9,8247.41 Z " />
<path stroke="none" fill="#000000" transform="matrix(0.05 0 0 0.05 -184 -290)" d="M 5395.51,7683.02 L 5397.34,7696.51 L 5386.87,7701.39 L 5065.2,7476.15 L 5076.67,7459.77 L 5395.51,7683.02 Z " />
<path stroke="none" fill="#000000" transform="matrix(0.05 0 0 0.05 -184 -290)" d="M 5407.03,7700.48 L 5397.34,7696.51 L 5395.51,7683.02 L 5653.85,7370.31 L 5666.66,7386.21 L 5407.03,7700.48 L 5407.03,7700.48 Z " />
<path stroke="none" fill="#000000" transform="matrix(0.05 0 0 0.05 -184 -290)" d="M 5984.38,6970.22 L 6007.61,6973.5 L 5731.68,7307.51 L 5718.87,7291.61 L 5984.38,6970.22 L 5984.38,6970.22 Z " />
<path stroke="none" fill="#000000" transform="matrix(0.05 0 0 0.05 -184 -290)" d="M 5332.54,6907.52 L 5333.07,6892.25 L 5346.13,6892.51 L 5814.01,7473.53 L 5798.43,7486.07 L 5332.54,6907.52 Z " />
<path stroke="none" fill="#000000" transform="matrix(0.05 0 0 0.05 -184 -290)" d="M 5314.23,6897.85 L 5333.07,6892.25 L 5332.54,6907.52 L 5054.32,7207.15 L 5039.67,7193.55 L 5314.23,6897.85 Z " />
<path stroke="none" fill="#fa666a" transform="matrix(0.05 0 0 0.05 -184 -290)" d="M 5053.27,6882.25 A 289.8,289.8 0 1 0 5632.87,6882.25 A 289.8,289.8 0 1 0 5053.27,6882.25 Z " />
</svg>
