<svg height="256" viewBox="0 0 256 256" width="256" xmlns="http://www.w3.org/2000/svg"><path d="m0 0h256v256h-256z" fill="#fff"/><g fill="none" stroke-width="2"><g stroke="#000"><path d="m34.1 187.8 73.8-42.5"/><path d="m107.9 145.3 63 28.1"/><path d="m107.9 145.3 6.6-62"/><path d="m121.6 137.4 5.6-52.7"/><path d="m131.7 57.4 53.8-11.4"/><path d="m213.4 65.7 29.4 51"/><path d="m202.3 72.1 24.8 43"/><path d="m242.8 116.7-43.7 48.5"/><path d="m241.3 114.2 1.5 2.5-2.2 2.5" stroke-miterlimit="10"/></g><path d="m55.322 224.702c2.769-1.595.643-5.287-2.126-3.693-2.77 1.595-4.896-2.098-2.126-3.692 2.769-1.595.643-5.287-2.127-3.692-2.769 1.594-4.895-2.098-2.126-3.693 2.77-1.594.643-5.286-2.126-3.692-2.769 1.595-4.895-2.098-2.126-3.692 2.769-1.595.643-5.287-2.126-3.693-2.769 1.595-4.895-2.097-2.126-3.692 2.769-1.594.643-5.287-2.126-3.692-2.769 1.594-4.895-2.098-2.126-3.692 2.769-1.595.643-5.287-2.126-3.693-2.769 1.595-4.895-2.098-2.126-3.692 2.769-1.595.643-5.287-2.126-3.692-2.77 1.594-4.896-2.098-2.126-3.693 2.769-1.594.643-5.287-2.127-3.692-2.769 1.594-4.895-2.098-2.126-3.692 2.77-1.595.643-5.287-2.126-3.693-2.769 1.595-4.895-2.097-2.126-3.692 2.769-1.594.643-5.287-2.126-3.692-2.769 1.594-4.895-2.098-2.126-3.693" stroke="#7f7f7f"/></g><g font-family="sans-serif" font-size="40"><text x="173.7" y="200">S</text><text x="104.9" y="80.5">N</text><text x="188.3" y="62.9">N</text></g></svg>