<svg height="256" viewBox="0 0 256 256" width="256" xmlns="http://www.w3.org/2000/svg"><path d="m0 0h256v256h-256z" fill="#fff"/><g fill="none" stroke-width="2"><path d="m16.8 132.7 37.5 8" stroke="#000"/><path d="m54.3 140.7 11.9 36.5" stroke="#000"/><path d="m60.8 142.1 9.8 30.1" stroke="#000"/><path d="m66.2 177.2 37.5 8" stroke="#000"/><path d="m103.7 185.2 25.7-28.6" stroke="#000"/><path d="m101.6 178.8 21.3-23.5" stroke="#000"/><path d="m129.4 156.6h38.3" stroke="#000"/><path d="m167.7 156.6 25.7 28.6" stroke="#000"/><path d="m174.2 155.3 21.3 23.5" stroke="#000"/><path d="m193.4 185.2 37.5-8" stroke="#000"/><path d="m230.9 177.2 11.9-36.5" stroke="#000"/><path d="m226.5 172.2 9.8-30.1" stroke="#000"/><path d="m242.8 140.7-25.7-28.5" stroke="#000"/><path d="m217.1 112.2-37.5 8" stroke="#000"/><path d="m215.1 118.5-31.1 6.6" stroke="#000"/><path d="m179.6 120.2-22.9-16.7" stroke="#000"/><path d="m140.4 103.5-22.9 16.7" stroke="#000"/><path d="m117.5 120.2-37.5-8" stroke="#000"/><path d="m113.1 125.1-31.1-6.6" stroke="#000"/><path d="m80 112.2-25.7 28.5" stroke="#000"/><path d="m117.5 120.2 11.9 36.4" stroke="#000"/><path d="m179.6 120.2-11.9 36.4" stroke="#000"/><path d="m65.6 175.4.6 1.8 1.9.4" stroke="#000" stroke-miterlimit="10"/><path d="m101.8 184.8 1.9.4 1.3-1.5" stroke="#000" stroke-miterlimit="10"/><path d="m192.1 183.7 1.3 1.5 1.9-.4" stroke="#000" stroke-miterlimit="10"/><path d="m229.1 177.6 1.8-.4.6-1.8" stroke="#000" stroke-miterlimit="10"/><path d="m242.2 142.5.6-1.8-1.3-1.4" stroke="#000" stroke-miterlimit="10"/><path d="m218.4 113.6-1.3-1.4-1.8.4" stroke="#000" stroke-miterlimit="10"/><path d="m81.9 112.6-1.9-.4-1.3 1.4" stroke="#000" stroke-miterlimit="10"/><path d="m12.8 151.484c1.407.299 1.806-1.577.399-1.876-1.408-.299-1.009-2.176.398-1.877 1.408.299 1.806-1.577.399-1.876s-1.009-2.176.399-1.877c1.407.299 1.806-1.577.398-1.876-1.407-.299-1.009-2.176.399-1.877 1.407.299 1.806-1.578.399-1.877-1.408-.298-1.009-2.175.398-1.876 1.408.299 1.806-1.578.399-1.877-1.408-.299-1.009-2.175.398-1.876 1.408.299 1.806-1.578.399-1.877s-1.009-2.175.399-1.876c1.407.299 1.806-1.578.398-1.877-1.407-.299-1.008-2.175.399-1.876s1.806-1.578.399-1.877c-1.408-.299-1.009-2.175.398-1.876 1.408.299 1.806-1.578.399-1.877-1.408-.299-1.009-2.176.399-1.877 1.407.299 1.806-1.577.398-1.876-1.407-.299-1.009-2.176.399-1.877" stroke="#7f7f7f"/></g><text font-family="sans-serif" font-size="23" x="141.7" y="109.1">N</text><text font-family="sans-serif" font-size="23" x="141.7" y="88.9">H</text></svg>