<svg xmlns="http://www.w3.org/2000/svg" xmlns:rdkit="http://www.rdkit.org/xml" xmlns:xlink="http://www.w3.org/1999/xlink" width="256" height="256" baseProfile="full" version="1.1" viewBox="0 0 256 256" xml:space="preserve"><rect style="opacity:1;fill:#fff;stroke:none" width="256" height="256" x="0" y="0"/><path d="M 11.6364,194.925 L 52.8026,171.221" class="bond-0" style="fill:none;fill-rule:evenodd;stroke:#7f7f7f;stroke-width:3px;stroke-linecap:butt;stroke-linejoin:miter;stroke-opacity:1"/><path d="M 52.8026,171.221 L 93.9688,147.517" class="bond-0" style="fill:none;fill-rule:evenodd;stroke:#000;stroke-width:3px;stroke-linecap:butt;stroke-linejoin:miter;stroke-opacity:1"/><path d="M 93.9688,147.517 L 128.681,163.01" class="bond-1" style="fill:none;fill-rule:evenodd;stroke:#000;stroke-width:3px;stroke-linecap:butt;stroke-linejoin:miter;stroke-opacity:1"/><path d="M 128.681,163.01 L 163.394,178.504" class="bond-1" style="fill:none;fill-rule:evenodd;stroke:#00f;stroke-width:3px;stroke-linecap:butt;stroke-linejoin:miter;stroke-opacity:1"/><path d="M 93.9688,147.517 L 104.001,53.0425" class="bond-2" style="fill:none;fill-rule:evenodd;stroke:#000;stroke-width:3px;stroke-linecap:butt;stroke-linejoin:miter;stroke-opacity:1"/><path d="M 112.479,135.151 L 119.502,69.0195" class="bond-2" style="fill:none;fill-rule:evenodd;stroke:#000;stroke-width:3px;stroke-linecap:butt;stroke-linejoin:miter;stroke-opacity:1"/><path d="M 198.063,167.032 L 221.214,141.38" class="bond-5" style="fill:none;fill-rule:evenodd;stroke:#00f;stroke-width:3px;stroke-linecap:butt;stroke-linejoin:miter;stroke-opacity:1"/><path d="M 221.214,141.38 L 244.364,115.728" class="bond-5" style="fill:none;fill-rule:evenodd;stroke:#000;stroke-width:3px;stroke-linecap:butt;stroke-linejoin:miter;stroke-opacity:1"/><path d="M 104.001,53.0425 L 141.811,45.0508" class="bond-3" style="fill:none;fill-rule:evenodd;stroke:#000;stroke-width:3px;stroke-linecap:butt;stroke-linejoin:miter;stroke-opacity:1"/><path d="M 141.811,45.0508 L 179.621,37.0592" class="bond-3" style="fill:none;fill-rule:evenodd;stroke:#00f;stroke-width:3px;stroke-linecap:butt;stroke-linejoin:miter;stroke-opacity:1"/><path d="M 208.472,53.3952 L 226.418,84.5614" class="bond-4" style="fill:none;fill-rule:evenodd;stroke:#00f;stroke-width:3px;stroke-linecap:butt;stroke-linejoin:miter;stroke-opacity:1"/><path d="M 226.418,84.5614 L 244.364,115.728" class="bond-4" style="fill:none;fill-rule:evenodd;stroke:#000;stroke-width:3px;stroke-linecap:butt;stroke-linejoin:miter;stroke-opacity:1"/><path d="M 199.036,71.2785 L 211.598,93.0948" class="bond-4" style="fill:none;fill-rule:evenodd;stroke:#00f;stroke-width:3px;stroke-linecap:butt;stroke-linejoin:miter;stroke-opacity:1"/><path d="M 211.598,93.0948 L 224.16,114.911" class="bond-4" style="fill:none;fill-rule:evenodd;stroke:#000;stroke-width:3px;stroke-linecap:butt;stroke-linejoin:miter;stroke-opacity:1"/><path d="M35.3405,236.091 C38.4694,232.005 37.4817,230.29 32.3774,230.945 C27.2732,231.6 26.2855,229.885 29.4144,225.799 C32.5434,221.714 31.5557,219.999 26.4514,220.654 C21.3471,221.309 20.3595,219.594 23.4884,215.508 C26.6174,211.422 25.6297,209.707 20.5254,210.362 C15.4211,211.017 14.4334,209.302 17.5624,205.216 C20.6913,201.131 19.7037,199.415 14.5994,200.071 C9.49508,200.726 8.50741,199.01 11.6364,194.925 C14.7653,190.839 13.7776,189.124 8.67335,189.779 C3.56905,190.434 2.58138,188.719 5.71034,184.633 C8.8393,180.548 7.85163,178.832 2.74733,179.487 C-2.35697,180.143 -3.34464,178.427 -0.215685,174.342 C2.91327,170.256 1.9256,168.541 -3.1787,169.196 C-8.28299,169.851 -9.27067,168.136 -6.14171,164.05 C-3.01275,159.964 -4.00042,158.249 -9.10472,158.904 C-14.209,159.559 -15.1967,157.844 -12.0677,153.758" style="fill:none;stroke:#7f7f7f;stroke-width:3px;stroke-linecap:butt;stroke-linejoin:miter;stroke-opacity:1"/><text x="180.728" y="192.241" dominant-baseline="central" text-anchor="middle" style="font-size:40px;font-style:normal;font-weight:700;fill-opacity:1;stroke:none;font-family:sans-serif;fill:#00f"><tspan>N</tspan></text><text x="167.394" y="232.241" dominant-baseline="central" text-anchor="start" style="font-size:40px;font-style:normal;font-weight:700;fill-opacity:1;stroke:none;font-family:sans-serif;fill:#00f"><tspan>H</tspan></text><text x="183.621" y="39.395" dominant-baseline="central" text-anchor="start" style="font-size:40px;font-style:normal;font-weight:700;fill-opacity:1;stroke:none;font-family:sans-serif;fill:#00f"><tspan>N</tspan></text></svg>