<svg height="256" viewBox="0 0 256 256" width="256" xmlns="http://www.w3.org/2000/svg"><path d="m0 0h256v256h-256z" fill="#fff"/><g fill="none" stroke-width="2"><path d="m34.1 182.5 73.8-42.5" stroke="#000"/><path d="m107.9 140 63 28.1" stroke="#000"/><path d="m107.9 140 9-84.7" stroke="#000"/><path d="m121.6 132.1 7-66.2" stroke="#000"/><path d="m116.9 55.3 68.6-14.5" stroke="#000"/><path d="m213.4 60.5 29.4 51" stroke="#000"/><path d="m202.3 66.8 24.8 43" stroke="#000"/><path d="m242.8 111.5-43.7 48.4" stroke="#000"/><path d="m116.5 59.5.4-4.2 3.4-.7" stroke="#000" stroke-miterlimit="10"/><path d="m241.3 108.9 1.5 2.6-2.2 2.4" stroke="#000" stroke-miterlimit="10"/><path d="m55.322 219.457c2.769-1.594.643-5.286-2.126-3.692-2.77 1.595-4.896-2.098-2.126-3.692 2.769-1.595.643-5.287-2.127-3.693-2.769 1.595-4.895-2.097-2.126-3.692 2.77-1.594.643-5.287-2.126-3.692-2.769 1.594-4.895-2.098-2.126-3.692 2.769-1.595.643-5.287-2.126-3.693-2.769 1.595-4.895-2.098-2.126-3.692 2.769-1.595.643-5.287-2.126-3.692-2.769 1.594-4.895-2.098-2.126-3.693 2.769-1.594.643-5.286-2.126-3.692-2.769 1.595-4.895-2.098-2.126-3.692 2.769-1.595.643-5.287-2.126-3.693-2.77 1.595-4.896-2.097-2.126-3.692 2.769-1.594.643-5.287-2.127-3.692-2.769 1.594-4.895-2.098-2.126-3.693 2.77-1.594.643-5.286-2.126-3.692-2.769 1.595-4.895-2.098-2.126-3.692 2.769-1.595.643-5.287-2.126-3.692-2.769 1.594-4.895-2.098-2.126-3.693" stroke="#7f7f7f"/></g><text font-family="sans-serif" font-size="40" x="173.7" y="194.7">N</text><text font-family="sans-serif" font-size="40" x="173.7" y="229.9">H</text><text font-family="sans-serif" font-size="40" x="188.3" y="57.7">N</text></svg>