<svg xmlns="http://www.w3.org/2000/svg" xmlns:rdkit="http://www.rdkit.org/xml" xmlns:xlink="http://www.w3.org/1999/xlink" width="256" height="256" baseProfile="full" version="1.1" viewBox="0 0 256 256" xml:space="preserve"><rect style="opacity:1;fill:#fff;stroke:none" width="256" height="256" x="0" y="0"/><path d="M 11.6364,226.504 L 50.4242,204.146" class="bond-0" style="fill:none;fill-rule:evenodd;stroke:#7f7f7f;stroke-width:3px;stroke-linecap:butt;stroke-linejoin:miter;stroke-opacity:1"/><path d="M 50.4242,204.146 L 89.2121,181.788" class="bond-0" style="fill:none;fill-rule:evenodd;stroke:#000;stroke-width:3px;stroke-linecap:butt;stroke-linejoin:miter;stroke-opacity:1"/><path d="M 89.2121,181.788 L 89.2399,147.019" class="bond-1" style="fill:none;fill-rule:evenodd;stroke:#000;stroke-width:3px;stroke-linecap:butt;stroke-linejoin:miter;stroke-opacity:1"/><path d="M 89.2399,147.019 L 89.2677,112.25" class="bond-1" style="fill:none;fill-rule:evenodd;stroke:#00f;stroke-width:3px;stroke-linecap:butt;stroke-linejoin:miter;stroke-opacity:1"/><path d="M 105.337,171.37 L 105.357,147.032" class="bond-1" style="fill:none;fill-rule:evenodd;stroke:#000;stroke-width:3px;stroke-linecap:butt;stroke-linejoin:miter;stroke-opacity:1"/><path d="M 105.357,147.032 L 105.376,122.694" class="bond-1" style="fill:none;fill-rule:evenodd;stroke:#00f;stroke-width:3px;stroke-linecap:butt;stroke-linejoin:miter;stroke-opacity:1"/><path d="M 89.2121,181.788 L 166.716,226.629" class="bond-3" style="fill:none;fill-rule:evenodd;stroke:#000;stroke-width:3px;stroke-linecap:butt;stroke-linejoin:miter;stroke-opacity:1"/><path d="M 106.619,82.2623 L 149.525,57.5409" class="bond-2" style="fill:none;fill-rule:evenodd;stroke:#00f;stroke-width:3px;stroke-linecap:butt;stroke-linejoin:miter;stroke-opacity:1"/><path d="M 184.194,57.5781 L 214.279,74.9769" class="bond-6" style="fill:none;fill-rule:evenodd;stroke:#00f;stroke-width:3px;stroke-linecap:butt;stroke-linejoin:miter;stroke-opacity:1"/><path d="M 214.279,74.9769 L 244.364,92.3756" class="bond-6" style="fill:none;fill-rule:evenodd;stroke:#000;stroke-width:3px;stroke-linecap:butt;stroke-linejoin:miter;stroke-opacity:1"/><path d="M 185.151,76.7494 L 206.21,88.9286" class="bond-6" style="fill:none;fill-rule:evenodd;stroke:#00f;stroke-width:3px;stroke-linecap:butt;stroke-linejoin:miter;stroke-opacity:1"/><path d="M 206.21,88.9286 L 227.27,101.108" class="bond-6" style="fill:none;fill-rule:evenodd;stroke:#000;stroke-width:3px;stroke-linecap:butt;stroke-linejoin:miter;stroke-opacity:1"/><path d="M 166.716,226.629 L 244.292,181.914" class="bond-4" style="fill:none;fill-rule:evenodd;stroke:#000;stroke-width:3px;stroke-linecap:butt;stroke-linejoin:miter;stroke-opacity:1"/><path d="M 170.304,205.958 L 224.607,174.658" class="bond-4" style="fill:none;fill-rule:evenodd;stroke:#000;stroke-width:3px;stroke-linecap:butt;stroke-linejoin:miter;stroke-opacity:1"/><path d="M 244.292,181.914 L 244.364,92.3756" class="bond-5" style="fill:none;fill-rule:evenodd;stroke:#000;stroke-width:3px;stroke-linecap:butt;stroke-linejoin:miter;stroke-opacity:1"/><path d="M33.9935,265.291 C36.9406,261.439 36.0091,259.823 31.1988,260.442 C26.3886,261.062 25.457,259.446 28.4042,255.594 C31.3513,251.742 30.4198,250.126 25.6096,250.745 C20.7993,251.365 19.8678,249.749 22.8149,245.897 C25.7621,242.045 24.8305,240.429 20.0203,241.049 C15.21,241.668 14.2785,240.052 17.2256,236.2 C20.1728,232.348 19.2412,230.732 14.431,231.352 C9.62076,231.972 8.68922,230.355 11.6364,226.504 C14.5835,222.652 13.652,221.036 8.84173,221.655 C4.03149,222.275 3.09994,220.659 6.04709,216.807 C8.99423,212.955 8.06269,211.339 3.25245,211.959 C-1.55779,212.578 -2.48933,210.962 0.457814,207.11 C3.40496,203.258 2.47341,201.642 -2.33682,202.262 C-7.14706,202.881 -8.07861,201.265 -5.13146,197.413 C-2.18432,193.562 -3.11586,191.945 -7.9261,192.565 C-12.7363,193.185 -13.6679,191.569 -10.7207,187.717" style="fill:none;stroke:#7f7f7f;stroke-width:3px;stroke-linecap:butt;stroke-linejoin:miter;stroke-opacity:1"/><text x="102.619" y="98.25" dominant-baseline="central" text-anchor="end" style="font-size:40px;font-style:normal;font-weight:700;fill-opacity:1;stroke:none;font-family:sans-serif;fill:#00f"><tspan>N</tspan></text><text x="166.86" y="53.553" dominant-baseline="central" text-anchor="middle" style="font-size:40px;font-style:normal;font-weight:700;fill-opacity:1;stroke:none;font-family:sans-serif;fill:#00f"><tspan>N</tspan></text></svg>