<svg height="256" viewBox="0 0 256 256" width="256" xmlns="http://www.w3.org/2000/svg"><path d="m0 0h256v256h-256z" fill="#fff"/><g fill="none" stroke-width="2"><g stroke="#000"><path d="m33 197 69.9-40.3"/><path d="m102.9 156.7.1-58.1"/><path d="m115 149.7.1-51.1"/><path d="m117.6 67.5 40.7-23.4"/><path d="m102.9 156.7 69.9 40.4"/><path d="m172.8 197.1 69.9-40.3"/><path d="m172.8 183.1 57.8-33.3"/><path d="m242.7 156.8.1-80.7"/><path d="m242.8 76.1-55.2-32"/><path d="m230.7 83-49.2-28.4"/><path d="m169.3 195.1 3.5 2 3.5-2" stroke-miterlimit="10"/><path d="m239.2 158.8 3.5-2v-4.1" stroke-miterlimit="10"/><path d="m242.8 80.1v-4l-2.8-1.6" stroke-miterlimit="10"/></g><path d="m53.117 231.963c2.623-1.512.607-5.009-2.016-3.497s-4.638-1.986-2.016-3.498c2.623-1.511.608-5.009-2.015-3.497s-4.639-1.985-2.016-3.497.607-5.009-2.016-3.497c-2.623 1.511-4.639-1.986-2.016-3.498s.607-5.009-2.016-3.497-4.639-1.985-2.016-3.497.607-5.009-2.016-3.498c-2.622 1.512-4.638-1.985-2.015-3.497s.607-5.009-2.016-3.497-4.639-1.985-2.016-3.497.607-5.009-2.016-3.498c-2.623 1.512-4.639-1.985-2.016-3.497s.607-5.009-2.016-3.497-4.638-1.986-2.016-3.497c2.623-1.512.608-5.01-2.015-3.498s-4.639-1.985-2.016-3.497.607-5.009-2.016-3.497-4.639-1.986-2.016-3.497" stroke="#7f7f7f"/></g><g font-family="sans-serif" font-size="40"><text x="91" y="95.9">N</text><text x="160.9" y="55.6">N</text></g></svg>