<svg xmlns="http://www.w3.org/2000/svg" xmlns:rdkit="http://www.rdkit.org/xml" xmlns:xlink="http://www.w3.org/1999/xlink" width="256" height="256" baseProfile="full" version="1.1" viewBox="0 0 256 256" xml:space="preserve"><rect style="opacity:1;fill:#fff;stroke:none" width="256" height="256" x="0" y="0"/><path d="M 11.6364,211.36 L 47.7985,190.516" class="bond-0" style="fill:none;fill-rule:evenodd;stroke:#7f7f7f;stroke-width:3px;stroke-linecap:butt;stroke-linejoin:miter;stroke-opacity:1"/><path d="M 47.7985,190.516 L 83.9606,169.672" class="bond-0" style="fill:none;fill-rule:evenodd;stroke:#000;stroke-width:3px;stroke-linecap:butt;stroke-linejoin:miter;stroke-opacity:1"/><path d="M 83.9606,169.672 L 83.986,137.933" class="bond-1" style="fill:none;fill-rule:evenodd;stroke:#000;stroke-width:3px;stroke-linecap:butt;stroke-linejoin:miter;stroke-opacity:1"/><path d="M 83.986,137.933 L 84.0114,106.195" class="bond-1" style="fill:none;fill-rule:evenodd;stroke:#00f;stroke-width:3px;stroke-linecap:butt;stroke-linejoin:miter;stroke-opacity:1"/><path d="M 98.9941,160.162 L 99.0118,137.945" class="bond-1" style="fill:none;fill-rule:evenodd;stroke:#000;stroke-width:3px;stroke-linecap:butt;stroke-linejoin:miter;stroke-opacity:1"/><path d="M 99.0118,137.945 L 99.0296,115.728" class="bond-1" style="fill:none;fill-rule:evenodd;stroke:#00f;stroke-width:3px;stroke-linecap:butt;stroke-linejoin:miter;stroke-opacity:1"/><path d="M 83.9606,169.672 L 156.218,211.477" class="bond-3" style="fill:none;fill-rule:evenodd;stroke:#000;stroke-width:3px;stroke-linecap:butt;stroke-linejoin:miter;stroke-opacity:1"/><path d="M 101.362,76.2068 L 128.857,60.365" class="bond-2" style="fill:none;fill-rule:evenodd;stroke:#00f;stroke-width:3px;stroke-linecap:butt;stroke-linejoin:miter;stroke-opacity:1"/><path d="M 128.857,60.365 L 156.352,44.5232" class="bond-2" style="fill:none;fill-rule:evenodd;stroke:#000;stroke-width:3px;stroke-linecap:butt;stroke-linejoin:miter;stroke-opacity:1"/><path d="M 156.352,44.5232 L 183.813,60.4048" class="bond-6" style="fill:none;fill-rule:evenodd;stroke:#000;stroke-width:3px;stroke-linecap:butt;stroke-linejoin:miter;stroke-opacity:1"/><path d="M 183.813,60.4048 L 211.274,76.2864" class="bond-6" style="fill:none;fill-rule:evenodd;stroke:#00f;stroke-width:3px;stroke-linecap:butt;stroke-linejoin:miter;stroke-opacity:1"/><path d="M 157.068,62.2949 L 176.291,73.4121" class="bond-6" style="fill:none;fill-rule:evenodd;stroke:#000;stroke-width:3px;stroke-linecap:butt;stroke-linejoin:miter;stroke-opacity:1"/><path d="M 176.291,73.4121 L 195.513,84.5292" class="bond-6" style="fill:none;fill-rule:evenodd;stroke:#00f;stroke-width:3px;stroke-linecap:butt;stroke-linejoin:miter;stroke-opacity:1"/><path d="M 156.218,211.477 L 228.542,169.788" class="bond-4" style="fill:none;fill-rule:evenodd;stroke:#000;stroke-width:3px;stroke-linecap:butt;stroke-linejoin:miter;stroke-opacity:1"/><path d="M 159.563,192.205 L 210.19,163.024" class="bond-4" style="fill:none;fill-rule:evenodd;stroke:#000;stroke-width:3px;stroke-linecap:butt;stroke-linejoin:miter;stroke-opacity:1"/><path d="M 228.542,169.788 L 228.568,138.05" class="bond-5" style="fill:none;fill-rule:evenodd;stroke:#000;stroke-width:3px;stroke-linecap:butt;stroke-linejoin:miter;stroke-opacity:1"/><path d="M 228.568,138.05 L 228.593,106.312" class="bond-5" style="fill:none;fill-rule:evenodd;stroke:#00f;stroke-width:3px;stroke-linecap:butt;stroke-linejoin:miter;stroke-opacity:1"/><path d="M32.48,247.521 C35.2276,243.93 34.3592,242.423 29.8745,243.001 C25.3899,243.579 24.5215,242.072 27.2691,238.481 C30.0167,234.89 29.1482,233.383 24.6636,233.961 C20.179,234.538 19.3105,233.032 22.0582,229.441 C24.8058,225.849 23.9373,224.343 19.4527,224.92 C14.9681,225.498 14.0996,223.991 16.8473,220.4 C19.5949,216.809 18.7264,215.302 14.2418,215.88 C9.75721,216.458 8.88872,214.951 11.6364,211.36 C14.384,207.769 13.5155,206.262 9.03091,206.84 C4.5463,207.417 3.67782,205.911 6.42545,202.32 C9.17309,198.729 8.30461,197.222 3.82,197.799 C-0.664609,198.377 -1.53309,196.87 1.21455,193.279 C3.96218,189.688 3.0937,188.181 -1.39091,188.759 C-5.87552,189.337 -6.744,187.83 -3.99636,184.239 C-1.24872,180.648 -2.11721,179.141 -6.60182,179.719 C-11.0864,180.296 -11.9549,178.79 -9.20727,175.199" style="fill:none;stroke:#7f7f7f;stroke-width:3px;stroke-linecap:butt;stroke-linejoin:miter;stroke-opacity:1"/><text x="97.362" y="92.195" dominant-baseline="central" text-anchor="end" style="font-size:40px;font-style:normal;font-weight:700;fill-opacity:1;stroke:none;font-family:sans-serif;fill:#00f"><tspan>N</tspan></text><text x="215.274" y="92.312" dominant-baseline="central" text-anchor="start" style="font-size:40px;font-style:normal;font-weight:700;fill-opacity:1;stroke:none;font-family:sans-serif;fill:#00f"><tspan>N</tspan></text></svg>