<svg xmlns="http://www.w3.org/2000/svg" xmlns:rdkit="http://www.rdkit.org/xml" xmlns:xlink="http://www.w3.org/1999/xlink" width="256" height="256" baseProfile="full" version="1.1" viewBox="0 0 256 256" xml:space="preserve"><rect style="opacity:1;fill:#fff;stroke:none" width="256" height="256" x="0" y="0"/><path d="M 11.6364,217.413 L 50.4242,195.055" class="bond-0" style="fill:none;fill-rule:evenodd;stroke:#7f7f7f;stroke-width:3px;stroke-linecap:butt;stroke-linejoin:miter;stroke-opacity:1"/><path d="M 50.4242,195.055 L 89.2121,172.697" class="bond-0" style="fill:none;fill-rule:evenodd;stroke:#000;stroke-width:3px;stroke-linecap:butt;stroke-linejoin:miter;stroke-opacity:1"/><path d="M 89.2121,172.697 L 89.2399,137.928" class="bond-1" style="fill:none;fill-rule:evenodd;stroke:#000;stroke-width:3px;stroke-linecap:butt;stroke-linejoin:miter;stroke-opacity:1"/><path d="M 89.2399,137.928 L 89.2677,103.159" class="bond-1" style="fill:none;fill-rule:evenodd;stroke:#00f;stroke-width:3px;stroke-linecap:butt;stroke-linejoin:miter;stroke-opacity:1"/><path d="M 105.337,162.28 L 105.357,137.941" class="bond-1" style="fill:none;fill-rule:evenodd;stroke:#000;stroke-width:3px;stroke-linecap:butt;stroke-linejoin:miter;stroke-opacity:1"/><path d="M 105.357,137.941 L 105.376,113.603" class="bond-1" style="fill:none;fill-rule:evenodd;stroke:#00f;stroke-width:3px;stroke-linecap:butt;stroke-linejoin:miter;stroke-opacity:1"/><path d="M 89.2121,172.697 L 166.716,217.538" class="bond-2" style="fill:none;fill-rule:evenodd;stroke:#000;stroke-width:3px;stroke-linecap:butt;stroke-linejoin:miter;stroke-opacity:1"/><path d="M 106.619,73.1714 L 136.739,55.8167" class="bond-6" style="fill:none;fill-rule:evenodd;stroke:#00f;stroke-width:3px;stroke-linecap:butt;stroke-linejoin:miter;stroke-opacity:1"/><path d="M 136.739,55.8167 L 166.86,38.462" class="bond-6" style="fill:none;fill-rule:evenodd;stroke:#000;stroke-width:3px;stroke-linecap:butt;stroke-linejoin:miter;stroke-opacity:1"/><path d="M 166.716,217.538 L 244.292,172.823" class="bond-3" style="fill:none;fill-rule:evenodd;stroke:#000;stroke-width:3px;stroke-linecap:butt;stroke-linejoin:miter;stroke-opacity:1"/><path d="M 170.304,196.867 L 224.607,165.567" class="bond-3" style="fill:none;fill-rule:evenodd;stroke:#000;stroke-width:3px;stroke-linecap:butt;stroke-linejoin:miter;stroke-opacity:1"/><path d="M 244.292,172.823 L 244.364,83.2847" class="bond-4" style="fill:none;fill-rule:evenodd;stroke:#000;stroke-width:3px;stroke-linecap:butt;stroke-linejoin:miter;stroke-opacity:1"/><path d="M 244.364,83.2847 L 166.86,38.462" class="bond-5" style="fill:none;fill-rule:evenodd;stroke:#000;stroke-width:3px;stroke-linecap:butt;stroke-linejoin:miter;stroke-opacity:1"/><path d="M 224.669,90.513 L 170.416,59.1371" class="bond-5" style="fill:none;fill-rule:evenodd;stroke:#000;stroke-width:3px;stroke-linecap:butt;stroke-linejoin:miter;stroke-opacity:1"/><path d="M33.9935,256.2 C36.9406,252.348 36.0091,250.732 31.1988,251.351 C26.3886,251.971 25.457,250.355 28.4042,246.503 C31.3513,242.651 30.4198,241.035 25.6096,241.655 C20.7993,242.274 19.8678,240.658 22.8149,236.806 C25.7621,232.954 24.8305,231.338 20.0203,231.958 C15.21,232.577 14.2785,230.961 17.2256,227.109 C20.1728,223.258 19.2412,221.641 14.431,222.261 C9.62076,222.881 8.68922,221.265 11.6364,217.413 C14.5835,213.561 13.652,211.945 8.84173,212.564 C4.03149,213.184 3.09994,211.568 6.04709,207.716 C8.99423,203.864 8.06269,202.248 3.25245,202.868 C-1.55779,203.487 -2.48933,201.871 0.457814,198.019 C3.40496,194.167 2.47341,192.551 -2.33682,193.171 C-7.14706,193.79 -8.07861,192.174 -5.13146,188.322 C-2.18432,184.471 -3.11586,182.855 -7.9261,183.474 C-12.7363,184.094 -13.6679,182.478 -10.7207,178.626" style="fill:none;stroke:#7f7f7f;stroke-width:3px;stroke-linecap:butt;stroke-linejoin:miter;stroke-opacity:1"/><text x="102.619" y="89.159" dominant-baseline="central" text-anchor="end" style="font-size:40px;font-style:normal;font-weight:700;fill-opacity:1;stroke:none;font-family:sans-serif;fill:#00f"><tspan>N</tspan></text></svg>