<svg height="256" viewBox="0 0 256 256" width="256" xmlns="http://www.w3.org/2000/svg"><path d="m0 0h256v256h-256z" fill="#fff"/><g fill="none" stroke-width="2"><path d="m32.6 187.2 65.8-37.9" stroke="#000"/><path d="m98.4 149.3v-53.4" stroke="#000"/><path d="m109.8 142.7v-46.8" stroke="#000"/><path d="m113 65 51.2-29.5" stroke="#000"/><path d="m98.4 149.3 65.7 38" stroke="#000"/><path d="m164.1 187.3 65.8-37.9" stroke="#000"/><path d="m164.1 174.2 54.4-31.4" stroke="#000"/><path d="m229.9 149.4v-53.4" stroke="#000"/><path d="m215.5 65.1-51.3-29.6" stroke="#000"/><path d="m209.8 75-45.6-26.4" stroke="#000"/><path d="m161.7 36.9 2.5-1.4 2.6 1.5" stroke="#000" stroke-miterlimit="10"/><path d="m160.8 185.4 3.3 1.9 3.3-1.9" stroke="#000" stroke-miterlimit="10"/><path d="m226.6 151.3 3.3-1.9v-2.7" stroke="#000" stroke-miterlimit="10"/><path d="m51.555 220.129c2.467-1.422.571-4.711-1.896-3.289s-4.363-1.868-1.896-3.29.571-4.711-1.896-3.289-4.363-1.867-1.896-3.289.571-4.712-1.896-3.29-4.363-1.867-1.896-3.289.571-4.712-1.896-3.29-4.363-1.867-1.896-3.289.571-4.712-1.896-3.29-4.363-1.867-1.896-3.289.571-4.711-1.896-3.289-4.363-1.868-1.896-3.29.571-4.711-1.896-3.289-4.363-1.868-1.896-3.29.571-4.711-1.896-3.289c-2.468 1.422-4.364-1.868-1.897-3.29 2.468-1.422.571-4.711-1.896-3.289s-4.363-1.867-1.896-3.29c2.467-1.422.571-4.711-1.896-3.289s-4.363-1.867-1.896-3.289" stroke="#7f7f7f"/></g><text font-family="sans-serif" font-size="40" x="86.4" y="93.4">N</text><text font-family="sans-serif" font-size="40" x="218" y="93.5">N</text></svg>