<svg height="256" viewBox="0 0 256 256" width="256" xmlns="http://www.w3.org/2000/svg"><path d="m0 0h256v256h-256z" fill="#fff"/><g fill="none" stroke-width="2"><path d="m34.1 176.5 73.8-42.5" stroke="#000"/><path d="m107.9 134 63 28.1" stroke="#000"/><path d="m107.9 134 9-84.7" stroke="#000"/><path d="m121.6 126.1 7-66.2" stroke="#000"/><path d="m116.9 49.3 83.4-17.6" stroke="#000"/><path d="m200.3 31.7 42.5 73.8" stroke="#000"/><path d="m193.8 46.1 33.3 57.7" stroke="#000"/><path d="m242.8 105.5-43.7 48.4" stroke="#000"/><path d="m116.5 53.5.4-4.2 4.2-.9" stroke="#000" stroke-miterlimit="10"/><path d="m196.1 32.5 4.2-.8 2.1 3.6" stroke="#000" stroke-miterlimit="10"/><path d="m240.7 101.8 2.1 3.7-2.2 2.4" stroke="#000" stroke-miterlimit="10"/><path d="m55.322 213.457c2.769-1.594.643-5.286-2.126-3.692-2.77 1.595-4.896-2.098-2.126-3.692 2.769-1.595.643-5.287-2.127-3.693-2.769 1.595-4.895-2.097-2.126-3.692 2.77-1.594.643-5.287-2.126-3.692-2.769 1.594-4.895-2.098-2.126-3.692 2.769-1.595.643-5.287-2.126-3.693-2.769 1.595-4.895-2.098-2.126-3.692 2.769-1.595.643-5.287-2.126-3.692-2.769 1.594-4.895-2.098-2.126-3.693 2.769-1.594.643-5.286-2.126-3.692-2.769 1.595-4.895-2.098-2.126-3.692 2.769-1.595.643-5.287-2.126-3.693-2.77 1.595-4.896-2.097-2.126-3.692 2.769-1.594.643-5.287-2.127-3.692-2.769 1.594-4.895-2.098-2.126-3.693 2.77-1.594.643-5.286-2.126-3.692-2.769 1.595-4.895-2.098-2.126-3.692 2.769-1.595.643-5.287-2.126-3.692-2.769 1.594-4.895-2.098-2.126-3.693" stroke="#7f7f7f"/></g><text font-family="sans-serif" font-size="40" x="173.7" y="188.7">N</text><text font-family="sans-serif" font-size="40" x="173.7" y="223.9">H</text></svg>