<svg xmlns="http://www.w3.org/2000/svg" xmlns:rdkit="http://www.rdkit.org/xml" xmlns:xlink="http://www.w3.org/1999/xlink" width="256" height="256" baseProfile="full" version="1.1" viewBox="0 0 256 256" xml:space="preserve"><rect style="opacity:1;fill:#fff;stroke:none" width="256" height="256" x="0" y="0"/><path d="M 11.6364,185.834 L 52.8026,162.13" class="bond-0" style="fill:none;fill-rule:evenodd;stroke:#7f7f7f;stroke-width:3px;stroke-linecap:butt;stroke-linejoin:miter;stroke-opacity:1"/><path d="M 52.8026,162.13 L 93.9688,138.426" class="bond-0" style="fill:none;fill-rule:evenodd;stroke:#000;stroke-width:3px;stroke-linecap:butt;stroke-linejoin:miter;stroke-opacity:1"/><path d="M 93.9688,138.426 L 128.681,153.919" class="bond-1" style="fill:none;fill-rule:evenodd;stroke:#000;stroke-width:3px;stroke-linecap:butt;stroke-linejoin:miter;stroke-opacity:1"/><path d="M 128.681,153.919 L 163.394,169.413" class="bond-1" style="fill:none;fill-rule:evenodd;stroke:#00f;stroke-width:3px;stroke-linecap:butt;stroke-linejoin:miter;stroke-opacity:1"/><path d="M 93.9688,138.426 L 104.001,43.9515" class="bond-2" style="fill:none;fill-rule:evenodd;stroke:#000;stroke-width:3px;stroke-linecap:butt;stroke-linejoin:miter;stroke-opacity:1"/><path d="M 112.479,126.061 L 119.502,59.9286" class="bond-2" style="fill:none;fill-rule:evenodd;stroke:#000;stroke-width:3px;stroke-linecap:butt;stroke-linejoin:miter;stroke-opacity:1"/><path d="M 198.063,157.942 L 221.214,132.289" class="bond-5" style="fill:none;fill-rule:evenodd;stroke:#00f;stroke-width:3px;stroke-linecap:butt;stroke-linejoin:miter;stroke-opacity:1"/><path d="M 221.214,132.289 L 244.364,106.637" class="bond-5" style="fill:none;fill-rule:evenodd;stroke:#000;stroke-width:3px;stroke-linecap:butt;stroke-linejoin:miter;stroke-opacity:1"/><path d="M 104.001,43.9515 L 196.956,24.3043" class="bond-3" style="fill:none;fill-rule:evenodd;stroke:#000;stroke-width:3px;stroke-linecap:butt;stroke-linejoin:miter;stroke-opacity:1"/><path d="M 196.956,24.3043 L 244.364,106.637" class="bond-4" style="fill:none;fill-rule:evenodd;stroke:#000;stroke-width:3px;stroke-linecap:butt;stroke-linejoin:miter;stroke-opacity:1"/><path d="M 189.247,45.1876 L 222.433,102.82" class="bond-4" style="fill:none;fill-rule:evenodd;stroke:#000;stroke-width:3px;stroke-linecap:butt;stroke-linejoin:miter;stroke-opacity:1"/><path d="M35.3405,227 C38.4694,222.914 37.4817,221.199 32.3774,221.854 C27.2732,222.509 26.2855,220.794 29.4144,216.709 C32.5434,212.623 31.5557,210.908 26.4514,211.563 C21.3471,212.218 20.3595,210.503 23.4884,206.417 C26.6174,202.331 25.6297,200.616 20.5254,201.271 C15.4211,201.926 14.4334,200.211 17.5624,196.125 C20.6913,192.04 19.7037,190.324 14.5994,190.98 C9.49508,191.635 8.50741,189.92 11.6364,185.834 C14.7653,181.748 13.7776,180.033 8.67335,180.688 C3.56905,181.343 2.58138,179.628 5.71034,175.542 C8.8393,171.457 7.85163,169.741 2.74733,170.397 C-2.35697,171.052 -3.34464,169.336 -0.215685,165.251 C2.91327,161.165 1.9256,159.45 -3.1787,160.105 C-8.28299,160.76 -9.27067,159.045 -6.14171,154.959 C-3.01275,150.873 -4.00042,149.158 -9.10472,149.813 C-14.209,150.469 -15.1967,148.753 -12.0677,144.668" style="fill:none;stroke:#7f7f7f;stroke-width:3px;stroke-linecap:butt;stroke-linejoin:miter;stroke-opacity:1"/><text x="180.728" y="183.15" dominant-baseline="central" text-anchor="middle" style="font-size:40px;font-style:normal;font-weight:700;fill-opacity:1;stroke:none;font-family:sans-serif;fill:#00f"><tspan>N</tspan></text><text x="167.394" y="223.15" dominant-baseline="central" text-anchor="start" style="font-size:40px;font-style:normal;font-weight:700;fill-opacity:1;stroke:none;font-family:sans-serif;fill:#00f"><tspan>H</tspan></text></svg>