<svg height="256" viewBox="0 0 256 256" width="256" xmlns="http://www.w3.org/2000/svg"><path d="m0 0h256v256h-256z" fill="#fff"/><g fill="none" stroke-width="2"><path d="m34.1 187.8 73.8-42.5" stroke="#000"/><path d="m107.9 145.3 63 28.1" stroke="#000"/><path d="m107.9 145.3 9-84.8" stroke="#000"/><path d="m121.6 137.4 7-66.3" stroke="#000"/><path d="m116.9 60.5 68.6-14.5" stroke="#000"/><path d="m213.4 65.7 29.4 51" stroke="#000"/><path d="m202.3 72.1 24.8 43" stroke="#000"/><path d="m242.8 116.7-43.7 48.5" stroke="#000"/><path d="m116.5 64.8.4-4.3 3.4-.7" stroke="#000" stroke-miterlimit="10"/><path d="m241.3 114.2 1.5 2.5-2.2 2.5" stroke="#000" stroke-miterlimit="10"/><path d="m55.322 224.702c2.769-1.595.643-5.287-2.126-3.693-2.77 1.595-4.896-2.098-2.126-3.692 2.769-1.595.643-5.287-2.127-3.692-2.769 1.594-4.895-2.098-2.126-3.693 2.77-1.594.643-5.286-2.126-3.692-2.769 1.595-4.895-2.098-2.126-3.692 2.769-1.595.643-5.287-2.126-3.693-2.769 1.595-4.895-2.097-2.126-3.692 2.769-1.594.643-5.287-2.126-3.692-2.769 1.594-4.895-2.098-2.126-3.692 2.769-1.595.643-5.287-2.126-3.693-2.769 1.595-4.895-2.098-2.126-3.692 2.769-1.595.643-5.287-2.126-3.692-2.77 1.594-4.896-2.098-2.126-3.693 2.769-1.594.643-5.287-2.127-3.692-2.769 1.594-4.895-2.098-2.126-3.692 2.77-1.595.643-5.287-2.126-3.693-2.769 1.595-4.895-2.097-2.126-3.692 2.769-1.594.643-5.287-2.126-3.692-2.769 1.594-4.895-2.098-2.126-3.693" stroke="#7f7f7f"/></g><text font-family="sans-serif" font-size="40" x="173.7" y="200">S</text><text font-family="sans-serif" font-size="40" x="188.3" y="62.9">N</text></svg>