<svg xmlns="http://www.w3.org/2000/svg" xmlns:rdkit="http://www.rdkit.org/xml" xmlns:xlink="http://www.w3.org/1999/xlink" width="256" height="256" baseProfile="full" version="1.1" viewBox="0 0 256 256" xml:space="preserve"><rect style="opacity:1;fill:#fff;stroke:none" width="256" height="256" x="0" y="0"/><path d="M 11.6364,213.107 L 52.8026,189.403" class="bond-0" style="fill:none;fill-rule:evenodd;stroke:#7f7f7f;stroke-width:3px;stroke-linecap:butt;stroke-linejoin:miter;stroke-opacity:1"/><path d="M 52.8026,189.403 L 93.9688,165.698" class="bond-0" style="fill:none;fill-rule:evenodd;stroke:#000;stroke-width:3px;stroke-linecap:butt;stroke-linejoin:miter;stroke-opacity:1"/><path d="M 93.9688,165.698 L 129.341,181.487" class="bond-1" style="fill:none;fill-rule:evenodd;stroke:#000;stroke-width:3px;stroke-linecap:butt;stroke-linejoin:miter;stroke-opacity:1"/><path d="M 129.341,181.487 L 164.714,197.275" class="bond-1" style="fill:none;fill-rule:evenodd;stroke:#cc0;stroke-width:3px;stroke-linecap:butt;stroke-linejoin:miter;stroke-opacity:1"/><path d="M 93.9688,165.698 L 104.001,71.2243" class="bond-2" style="fill:none;fill-rule:evenodd;stroke:#000;stroke-width:3px;stroke-linecap:butt;stroke-linejoin:miter;stroke-opacity:1"/><path d="M 112.479,153.333 L 119.502,87.2013" class="bond-2" style="fill:none;fill-rule:evenodd;stroke:#000;stroke-width:3px;stroke-linecap:butt;stroke-linejoin:miter;stroke-opacity:1"/><path d="M 196.743,186.678 L 220.553,160.293" class="bond-5" style="fill:none;fill-rule:evenodd;stroke:#cc0;stroke-width:3px;stroke-linecap:butt;stroke-linejoin:miter;stroke-opacity:1"/><path d="M 220.553,160.293 L 244.364,133.909" class="bond-5" style="fill:none;fill-rule:evenodd;stroke:#000;stroke-width:3px;stroke-linecap:butt;stroke-linejoin:miter;stroke-opacity:1"/><path d="M 104.001,71.2243 L 141.811,63.2326" class="bond-3" style="fill:none;fill-rule:evenodd;stroke:#000;stroke-width:3px;stroke-linecap:butt;stroke-linejoin:miter;stroke-opacity:1"/><path d="M 141.811,63.2326 L 179.621,55.241" class="bond-3" style="fill:none;fill-rule:evenodd;stroke:#00f;stroke-width:3px;stroke-linecap:butt;stroke-linejoin:miter;stroke-opacity:1"/><path d="M 208.472,71.577 L 226.418,102.743" class="bond-4" style="fill:none;fill-rule:evenodd;stroke:#00f;stroke-width:3px;stroke-linecap:butt;stroke-linejoin:miter;stroke-opacity:1"/><path d="M 226.418,102.743 L 244.364,133.909" class="bond-4" style="fill:none;fill-rule:evenodd;stroke:#000;stroke-width:3px;stroke-linecap:butt;stroke-linejoin:miter;stroke-opacity:1"/><path d="M 199.036,89.4603 L 211.598,111.277" class="bond-4" style="fill:none;fill-rule:evenodd;stroke:#00f;stroke-width:3px;stroke-linecap:butt;stroke-linejoin:miter;stroke-opacity:1"/><path d="M 211.598,111.277 L 224.16,133.093" class="bond-4" style="fill:none;fill-rule:evenodd;stroke:#000;stroke-width:3px;stroke-linecap:butt;stroke-linejoin:miter;stroke-opacity:1"/><path d="M35.3405,254.273 C38.4694,250.187 37.4817,248.472 32.3774,249.127 C27.2732,249.782 26.2855,248.067 29.4144,243.981 C32.5434,239.896 31.5557,238.18 26.4514,238.836 C21.3471,239.491 20.3595,237.775 23.4884,233.69 C26.6174,229.604 25.6297,227.889 20.5254,228.544 C15.4211,229.199 14.4334,227.484 17.5624,223.398 C20.6913,219.312 19.7037,217.597 14.5994,218.252 C9.49508,218.908 8.50741,217.192 11.6364,213.107 C14.7653,209.021 13.7776,207.306 8.67335,207.961 C3.56905,208.616 2.58138,206.901 5.71034,202.815 C8.8393,198.729 7.85163,197.014 2.74733,197.669 C-2.35697,198.324 -3.34464,196.609 -0.215685,192.523 C2.91327,188.438 1.9256,186.723 -3.1787,187.378 C-8.28299,188.033 -9.27067,186.318 -6.14171,182.232 C-3.01275,178.146 -4.00042,176.431 -9.10472,177.086 C-14.209,177.741 -15.1967,176.026 -12.0677,171.94" style="fill:none;stroke:#7f7f7f;stroke-width:3px;stroke-linecap:butt;stroke-linejoin:miter;stroke-opacity:1"/><text x="180.728" y="210.423" dominant-baseline="central" text-anchor="middle" style="font-size:40px;font-style:normal;font-weight:700;fill-opacity:1;stroke:none;font-family:sans-serif;fill:#cc0"><tspan>S</tspan></text><text x="183.621" y="57.577" dominant-baseline="central" text-anchor="start" style="font-size:40px;font-style:normal;font-weight:700;fill-opacity:1;stroke:none;font-family:sans-serif;fill:#00f"><tspan>N</tspan></text></svg>