<svg xmlns="http://www.w3.org/2000/svg" xmlns:rdkit="http://www.rdkit.org/xml" xmlns:xlink="http://www.w3.org/1999/xlink" width="256" height="256" baseProfile="full" version="1.1" viewBox="0 0 256 256" xml:space="preserve"><rect style="opacity:1;fill:#fff;stroke:none" width="256" height="256" x="0" y="0"/><path d="M 11.6364,204.016 L 52.8026,180.312" class="bond-0" style="fill:none;fill-rule:evenodd;stroke:#7f7f7f;stroke-width:3px;stroke-linecap:butt;stroke-linejoin:miter;stroke-opacity:1"/><path d="M 52.8026,180.312 L 93.9688,156.608" class="bond-0" style="fill:none;fill-rule:evenodd;stroke:#000;stroke-width:3px;stroke-linecap:butt;stroke-linejoin:miter;stroke-opacity:1"/><path d="M 93.9688,156.608 L 129.341,172.396" class="bond-1" style="fill:none;fill-rule:evenodd;stroke:#000;stroke-width:3px;stroke-linecap:butt;stroke-linejoin:miter;stroke-opacity:1"/><path d="M 129.341,172.396 L 164.714,188.184" class="bond-1" style="fill:none;fill-rule:evenodd;stroke:#cc0;stroke-width:3px;stroke-linecap:butt;stroke-linejoin:miter;stroke-opacity:1"/><path d="M 93.9688,156.608 L 104.001,62.1334" class="bond-2" style="fill:none;fill-rule:evenodd;stroke:#000;stroke-width:3px;stroke-linecap:butt;stroke-linejoin:miter;stroke-opacity:1"/><path d="M 112.479,144.242 L 119.502,78.1104" class="bond-2" style="fill:none;fill-rule:evenodd;stroke:#000;stroke-width:3px;stroke-linecap:butt;stroke-linejoin:miter;stroke-opacity:1"/><path d="M 196.743,177.587 L 220.553,151.203" class="bond-5" style="fill:none;fill-rule:evenodd;stroke:#cc0;stroke-width:3px;stroke-linecap:butt;stroke-linejoin:miter;stroke-opacity:1"/><path d="M 220.553,151.203 L 244.364,124.818" class="bond-5" style="fill:none;fill-rule:evenodd;stroke:#000;stroke-width:3px;stroke-linecap:butt;stroke-linejoin:miter;stroke-opacity:1"/><path d="M 104.001,62.1334 L 196.956,42.4861" class="bond-3" style="fill:none;fill-rule:evenodd;stroke:#000;stroke-width:3px;stroke-linecap:butt;stroke-linejoin:miter;stroke-opacity:1"/><path d="M 196.956,42.4861 L 244.364,124.818" class="bond-4" style="fill:none;fill-rule:evenodd;stroke:#000;stroke-width:3px;stroke-linecap:butt;stroke-linejoin:miter;stroke-opacity:1"/><path d="M 189.247,63.3694 L 222.433,121.002" class="bond-4" style="fill:none;fill-rule:evenodd;stroke:#000;stroke-width:3px;stroke-linecap:butt;stroke-linejoin:miter;stroke-opacity:1"/><path d="M35.3405,245.182 C38.4694,241.096 37.4817,239.381 32.3774,240.036 C27.2732,240.691 26.2855,238.976 29.4144,234.89 C32.5434,230.805 31.5557,229.089 26.4514,229.745 C21.3471,230.4 20.3595,228.684 23.4884,224.599 C26.6174,220.513 25.6297,218.798 20.5254,219.453 C15.4211,220.108 14.4334,218.393 17.5624,214.307 C20.6913,210.222 19.7037,208.506 14.5994,209.161 C9.49508,209.817 8.50741,208.101 11.6364,204.016 C14.7653,199.93 13.7776,198.215 8.67335,198.87 C3.56905,199.525 2.58138,197.81 5.71034,193.724 C8.8393,189.638 7.85163,187.923 2.74733,188.578 C-2.35697,189.233 -3.34464,187.518 -0.215685,183.433 C2.91327,179.347 1.9256,177.632 -3.1787,178.287 C-8.28299,178.942 -9.27067,177.227 -6.14171,173.141 C-3.01275,169.055 -4.00042,167.34 -9.10472,167.995 C-14.209,168.65 -15.1967,166.935 -12.0677,162.849" style="fill:none;stroke:#7f7f7f;stroke-width:3px;stroke-linecap:butt;stroke-linejoin:miter;stroke-opacity:1"/><text x="180.728" y="201.332" dominant-baseline="central" text-anchor="middle" style="font-size:40px;font-style:normal;font-weight:700;fill-opacity:1;stroke:none;font-family:sans-serif;fill:#cc0"><tspan>S</tspan></text></svg>