<svg height="256" viewBox="0 0 256 256" width="256" xmlns="http://www.w3.org/2000/svg"><path d="m0 0h256v256h-256z" fill="#fff"/><g fill="none" stroke-width="2"><path d="m25.4 126.7 43.9-25.3" stroke="#000"/><path d="m69.3 101.4 43.8 25.4" stroke="#000"/><path d="m113.1 126.8 43.8-25.3" stroke="#000"/><path d="m156.9 101.5 33.1 19.1" stroke="#000"/><path d="m67.1 102.7 2.2-1.3 2.2 1.3" stroke="#000" stroke-miterlimit="10"/><path d="m110.9 125.5 2.2 1.3 2.2-1.3" stroke="#000" stroke-miterlimit="10"/><path d="m154.7 102.8 2.2-1.3 1.7.9" stroke="#000" stroke-miterlimit="10"/><path d="m38.066 148.622c1.645-.947.381-3.14-1.263-2.192-1.644.947-2.908-1.245-1.263-2.193 1.644-.947.381-3.14-1.264-2.192-1.644.947-2.907-1.245-1.263-2.193 1.644-.947.381-3.14-1.263-2.192-1.645.947-2.908-1.246-1.264-2.193 1.645-.947.381-3.14-1.263-2.193-1.644.948-2.908-1.245-1.263-2.192 1.644-.948.381-3.14-1.264-2.193-1.644.948-2.907-1.245-1.263-2.192 1.645-.948.381-3.14-1.263-2.193-1.645.948-2.908-1.245-1.263-2.192 1.644-.948.381-3.14-1.264-2.193-1.644.947-2.907-1.245-1.263-2.193 1.644-.947.381-3.14-1.263-2.192-1.645.947-2.908-1.245-1.264-2.193 1.645-.947.381-3.14-1.263-2.192-1.644.947-2.908-1.245-1.263-2.193 1.644-.947.381-3.14-1.264-2.192-1.644.947-2.907-1.246-1.263-2.193" stroke="#7f7f7f"/></g><text font-family="sans-serif" font-size="30" x="191.6" y="142">C</text><text font-family="sans-serif" font-size="30" x="212.6" y="142">H</text><text font-family="sans-serif" font-size="20" x="233.5" y="154.2">3</text></svg>