<svg xmlns="http://www.w3.org/2000/svg" xmlns:rdkit="http://www.rdkit.org/xml" xmlns:xlink="http://www.w3.org/1999/xlink" width="256" height="256" baseProfile="full" version="1.1" viewBox="0 0 256 256" xml:space="preserve"><rect style="opacity:1;fill:#fff;stroke:none" width="256" height="256" x="0" y="0"/><path d="M 11.6364,144.675 L 40.7407,127.906" class="bond-0" style="fill:none;fill-rule:evenodd;stroke:#7f7f7f;stroke-width:2px;stroke-linecap:butt;stroke-linejoin:miter;stroke-opacity:1"/><path d="M 40.7407,127.906 L 69.8451,111.137" class="bond-0" style="fill:none;fill-rule:evenodd;stroke:#000;stroke-width:2px;stroke-linecap:butt;stroke-linejoin:miter;stroke-opacity:1"/><path d="M 69.8451,111.137 L 128,144.769" class="bond-1" style="fill:none;fill-rule:evenodd;stroke:#000;stroke-width:2px;stroke-linecap:butt;stroke-linejoin:miter;stroke-opacity:1"/><path d="M 128,144.769 L 186.209,111.217" class="bond-2" style="fill:none;fill-rule:evenodd;stroke:#000;stroke-width:2px;stroke-linecap:butt;stroke-linejoin:miter;stroke-opacity:1"/><path d="M 186.209,111.217 L 244.364,144.863" class="bond-3" style="fill:none;fill-rule:evenodd;stroke:#000;stroke-width:2px;stroke-linecap:butt;stroke-linejoin:miter;stroke-opacity:1"/><path d="M28.4069,173.782 C30.6188,170.892 29.92,169.679 26.3106,170.143 C22.7011,170.608 22.0024,169.395 24.2143,166.505 C26.4261,163.615 25.7274,162.403 22.1179,162.867 C18.5085,163.331 17.8097,162.118 20.0216,159.228 C22.2335,156.339 21.5347,155.126 17.9253,155.59 C14.3159,156.054 13.6171,154.842 15.829,151.952 C18.0409,149.062 17.3421,147.849 13.7327,148.314 C10.1233,148.778 9.42448,147.565 11.6364,144.675 C13.8482,141.785 13.1495,140.573 9.54005,141.037 C5.93062,141.501 5.23185,140.288 7.44373,137.399 C9.65561,134.509 8.95684,133.296 5.34742,133.76 C1.73799,134.225 1.03922,133.012 3.2511,130.122 C5.46298,127.232 4.76421,126.019 1.15479,126.484 C-2.45464,126.948 -3.15341,125.735 -0.94153,122.845 C1.27035,119.955 0.57158,118.743 -3.03785,119.207 C-6.64727,119.671 -7.34604,118.458 -5.13416,115.569" style="fill:none;stroke:#7f7f7f;stroke-width:2px;stroke-linecap:butt;stroke-linejoin:miter;stroke-opacity:1"/></svg>