<svg xmlns="http://www.w3.org/2000/svg" xmlns:rdkit="http://www.rdkit.org/xml" xmlns:xlink="http://www.w3.org/1999/xlink" width="256" height="256" baseProfile="full" version="1.1" viewBox="0 0 256 256" xml:space="preserve"><rect style="opacity:1;fill:#fff;stroke:none" width="256" height="256" x="0" y="0"/><path d="M 244.364,161.646 L 186.209,128" class="bond-0" style="fill:none;fill-rule:evenodd;stroke:#7f7f7f;stroke-width:5px;stroke-linecap:butt;stroke-linejoin:miter;stroke-opacity:1"/><path d="M 186.209,128 L 128.054,94.354" class="bond-0" style="fill:none;fill-rule:evenodd;stroke:#000;stroke-width:5px;stroke-linecap:butt;stroke-linejoin:miter;stroke-opacity:1"/><path d="M 128.054,94.354 L 11.6364,161.458" class="bond-1" style="fill:none;fill-rule:evenodd;stroke:#000;stroke-width:5px;stroke-linecap:butt;stroke-linejoin:miter;stroke-opacity:1"/><path d="M278.009,103.493 C270.791,102.551 269.39,104.975 273.803,110.762 C278.216,116.55 276.815,118.973 269.597,118.031 C262.38,117.09 260.978,119.513 265.392,125.3 C269.805,131.088 268.403,133.511 261.186,132.569 C253.969,131.628 252.567,134.051 256.98,139.839 C261.394,145.626 259.992,148.049 252.775,147.108 C245.558,146.166 244.156,148.589 248.569,154.377 C252.983,160.164 251.581,162.587 244.364,161.646 C237.146,160.705 235.745,163.128 240.158,168.915 C244.571,174.703 243.17,177.126 235.952,176.184 C228.735,175.243 227.333,177.666 231.747,183.453 C236.16,189.241 234.758,191.664 227.541,190.723 C220.324,189.781 218.922,192.204 223.336,197.992 C227.749,203.779 226.347,206.202 219.13,205.261 C211.913,204.319 210.511,206.742 214.924,212.53 C219.338,218.318 217.936,220.741 210.719,219.799" style="fill:none;stroke:#7f7f7f;stroke-width:5px;stroke-linecap:butt;stroke-linejoin:miter;stroke-opacity:1"/></svg>