<svg xmlns="http://www.w3.org/2000/svg" xmlns:rdkit="http://www.rdkit.org/xml" xmlns:xlink="http://www.w3.org/1999/xlink" width="256" height="256" baseProfile="full" version="1.1" viewBox="0 0 256 256" xml:space="preserve"><rect style="opacity:1;fill:#fff;stroke:none" width="256" height="256" x="0" y="0"/><path d="M 244.364,118.495 L 227.734,128.081" class="bond-0" style="fill:none;fill-rule:evenodd;stroke:#7f7f7f;stroke-width:2px;stroke-linecap:butt;stroke-linejoin:miter;stroke-opacity:1"/><path d="M 227.734,128.081 L 211.104,137.666" class="bond-0" style="fill:none;fill-rule:evenodd;stroke:#000;stroke-width:2px;stroke-linecap:butt;stroke-linejoin:miter;stroke-opacity:1"/><path d="M 211.104,137.666 L 177.875,118.441" class="bond-1" style="fill:none;fill-rule:evenodd;stroke:#000;stroke-width:2px;stroke-linecap:butt;stroke-linejoin:miter;stroke-opacity:1"/><path d="M 177.875,118.441 L 144.615,137.613" class="bond-2" style="fill:none;fill-rule:evenodd;stroke:#000;stroke-width:2px;stroke-linecap:butt;stroke-linejoin:miter;stroke-opacity:1"/><path d="M 144.615,137.613 L 111.385,118.387" class="bond-3" style="fill:none;fill-rule:evenodd;stroke:#000;stroke-width:2px;stroke-linecap:butt;stroke-linejoin:miter;stroke-opacity:1"/><path d="M 111.385,118.387 L 78.1255,137.559" class="bond-4" style="fill:none;fill-rule:evenodd;stroke:#000;stroke-width:2px;stroke-linecap:butt;stroke-linejoin:miter;stroke-opacity:1"/><path d="M 78.1255,137.559 L 44.8963,118.334" class="bond-5" style="fill:none;fill-rule:evenodd;stroke:#000;stroke-width:2px;stroke-linecap:butt;stroke-linejoin:miter;stroke-opacity:1"/><path d="M 44.8963,118.334 L 11.6364,137.505" class="bond-6" style="fill:none;fill-rule:evenodd;stroke:#000;stroke-width:2px;stroke-linecap:butt;stroke-linejoin:miter;stroke-opacity:1"/><path d="M234.778,101.865 C233.515,103.517 233.914,104.21 235.976,103.944 C238.039,103.678 238.438,104.371 237.175,106.023 C235.911,107.674 236.31,108.367 238.373,108.102 C240.435,107.836 240.834,108.529 239.571,110.18 C238.307,111.832 238.707,112.525 240.769,112.259 C242.831,111.993 243.231,112.686 241.967,114.338 C240.704,115.989 241.103,116.682 243.165,116.416 C245.228,116.151 245.627,116.844 244.364,118.495 C243.1,120.146 243.499,120.839 245.562,120.574 C247.624,120.308 248.024,121.001 246.76,122.652 C245.496,124.304 245.896,124.997 247.958,124.731 C250.021,124.465 250.42,125.158 249.156,126.81 C247.893,128.461 248.292,129.154 250.355,128.888 C252.417,128.623 252.816,129.316 251.553,130.967 C250.289,132.619 250.689,133.311 252.751,133.046 C254.813,132.78 255.213,133.473 253.949,135.125" style="fill:none;stroke:#7f7f7f;stroke-width:2px;stroke-linecap:butt;stroke-linejoin:miter;stroke-opacity:1"/></svg>