<svg height="256" viewBox="0 0 256 256" width="256" xmlns="http://www.w3.org/2000/svg"><path d="m0 0h256v256h-256z" fill="#fff"/><g fill="none" stroke-width="2"><path d="m21.9 127 31.8-18.3" stroke="#000"/><path d="m53.7 108.7 31.7 18.3" stroke="#000"/><path d="m85.4 127 31.8-18.3" stroke="#000"/><path d="m117.2 108.7 31.7 18.4" stroke="#000"/><path d="m148.9 127.1 31.7-18.3" stroke="#000"/><path d="m180.6 108.8 23.9 13.8" stroke="#000"/><path d="m52.1 109.6 1.6-.9 1.6.9" stroke="#000" stroke-miterlimit="10"/><path d="m83.8 126.1 1.6.9 1.6-.9" stroke="#000" stroke-miterlimit="10"/><path d="m115.6 109.6 1.6-.9 1.5.9" stroke="#000" stroke-miterlimit="10"/><path d="m147.3 126.2 1.6.9 1.6-.9" stroke="#000" stroke-miterlimit="10"/><path d="m179 109.7 1.6-.9 1.2.7" stroke="#000" stroke-miterlimit="10"/><path d="m31.094 142.851c1.191-.686.276-2.274-.915-1.588-1.19.686-2.105-.901-.914-1.587 1.19-.686.276-2.274-.915-1.588s-2.105-.901-.915-1.587c1.191-.686.276-2.274-.914-1.588-1.191.686-2.106-.901-.915-1.587s.276-2.274-.915-1.588c-1.19.686-2.105-.901-.914-1.587 1.19-.686.275-2.274-.915-1.588-1.191.686-2.106-.901-.915-1.587 1.191-.687.276-2.274-.915-1.588-1.19.686-2.105-.902-.914-1.588 1.19-.686.276-2.273-.915-1.587s-2.105-.902-.915-1.588c1.191-.686.276-2.273-.914-1.587-1.191.686-2.106-.902-.915-1.588s.276-2.273-.915-1.587c-1.19.686-2.105-.902-.915-1.588 1.191-.686.276-2.273-.914-1.587-1.191.686-2.106-.902-.915-1.588" stroke="#7f7f7f"/></g><text font-family="sans-serif" font-size="21" x="205.8" y="138.1">C</text><text font-family="sans-serif" font-size="21" x="220.9" y="138.1">H</text><text font-family="sans-serif" font-size="14" x="236.1" y="146.9">3</text></svg>