<svg xmlns="http://www.w3.org/2000/svg" xmlns:rdkit="http://www.rdkit.org/xml" xmlns:xlink="http://www.w3.org/1999/xlink" width="256" height="256" baseProfile="full" version="1.1" viewBox="0 0 256 256" xml:space="preserve"><rect style="opacity:1;fill:#fff;stroke:none" width="256" height="256" x="0" y="0"/><path d="M 11.6364,139.085 L 31.0393,127.906" class="bond-0" style="fill:none;fill-rule:evenodd;stroke:#7f7f7f;stroke-width:2px;stroke-linecap:butt;stroke-linejoin:miter;stroke-opacity:1"/><path d="M 31.0393,127.906 L 50.4422,116.726" class="bond-0" style="fill:none;fill-rule:evenodd;stroke:#000;stroke-width:2px;stroke-linecap:butt;stroke-linejoin:miter;stroke-opacity:1"/><path d="M 50.4422,116.726 L 89.2121,139.148" class="bond-1" style="fill:none;fill-rule:evenodd;stroke:#000;stroke-width:2px;stroke-linecap:butt;stroke-linejoin:miter;stroke-opacity:1"/><path d="M 89.2121,139.148 L 128.018,116.78" class="bond-2" style="fill:none;fill-rule:evenodd;stroke:#000;stroke-width:2px;stroke-linecap:butt;stroke-linejoin:miter;stroke-opacity:1"/><path d="M 128.018,116.78 L 166.788,139.211" class="bond-3" style="fill:none;fill-rule:evenodd;stroke:#000;stroke-width:2px;stroke-linecap:butt;stroke-linejoin:miter;stroke-opacity:1"/><path d="M 166.788,139.211 L 205.594,116.843" class="bond-4" style="fill:none;fill-rule:evenodd;stroke:#000;stroke-width:2px;stroke-linecap:butt;stroke-linejoin:miter;stroke-opacity:1"/><path d="M 205.594,116.843 L 244.364,139.274" class="bond-5" style="fill:none;fill-rule:evenodd;stroke:#000;stroke-width:2px;stroke-linecap:butt;stroke-linejoin:miter;stroke-opacity:1"/><path d="M22.8167,158.49 C24.2913,156.563 23.8255,155.755 21.4192,156.064 C19.0129,156.374 18.547,155.565 20.0216,153.639 C21.4962,151.712 21.0304,150.904 18.6241,151.213 C16.2178,151.523 15.752,150.714 17.2265,148.788 C18.7011,146.861 18.2353,146.053 15.829,146.362 C13.4227,146.672 12.9569,145.863 14.4315,143.937 C15.906,142.01 15.4402,141.201 13.0339,141.511 C10.6276,141.821 10.1618,141.012 11.6364,139.085 C13.111,137.159 12.6451,136.35 10.2388,136.66 C7.83254,136.969 7.36669,136.161 8.84128,134.234 C10.3159,132.308 9.85002,131.499 7.44373,131.809 C5.03745,132.118 4.5716,131.31 6.04619,129.383 C7.52078,127.457 7.05493,126.648 4.64865,126.958 C2.24236,127.267 1.77651,126.459 3.2511,124.532 C4.72569,122.606 4.25984,121.797 1.85356,122.107 C-0.552725,122.416 -1.01857,121.608 0.456015,119.681" style="fill:none;stroke:#7f7f7f;stroke-width:2px;stroke-linecap:butt;stroke-linejoin:miter;stroke-opacity:1"/></svg>