<svg xmlns="http://www.w3.org/2000/svg" xmlns:rdkit="http://www.rdkit.org/xml" xmlns:xlink="http://www.w3.org/1999/xlink" width="256" height="256" baseProfile="full" version="1.1" viewBox="0 0 256 256" xml:space="preserve"><rect style="opacity:1;fill:#fff;stroke:none" width="256" height="256" x="0" y="0"/><path d="M 11.6364,144.498 L 50.4362,166.863" class="bond-0" style="fill:none;fill-rule:evenodd;stroke:#7f7f7f;stroke-width:3px;stroke-linecap:butt;stroke-linejoin:miter;stroke-opacity:1"/><path d="M 50.4362,166.863 L 89.236,189.227" class="bond-0" style="fill:none;fill-rule:evenodd;stroke:#000;stroke-width:3px;stroke-linecap:butt;stroke-linejoin:miter;stroke-opacity:1"/><path d="M 89.236,189.227 L 166.764,144.373" class="bond-1" style="fill:none;fill-rule:evenodd;stroke:#000;stroke-width:3px;stroke-linecap:butt;stroke-linejoin:miter;stroke-opacity:1"/><path d="M 166.764,144.373 L 121.91,66.8446" class="bond-2" style="fill:none;fill-rule:evenodd;stroke:#000;stroke-width:3px;stroke-linecap:butt;stroke-linejoin:miter;stroke-opacity:1"/><path d="M 166.764,144.373 L 211.475,66.773" class="bond-3" style="fill:none;fill-rule:evenodd;stroke:#000;stroke-width:3px;stroke-linecap:butt;stroke-linejoin:miter;stroke-opacity:1"/><path d="M 166.764,144.373 L 244.364,189.102" class="bond-4" style="fill:none;fill-rule:evenodd;stroke:#000;stroke-width:3px;stroke-linecap:butt;stroke-linejoin:miter;stroke-opacity:1"/><path d="M-10.7276,183.297 C-5.9159,183.917 -4.98406,182.3 -7.93212,178.447 C-10.8802,174.594 -9.94834,172.977 -5.13662,173.597 C-0.324901,174.217 0.606931,172.6 -2.34112,168.747 C-5.28918,164.894 -4.35734,163.278 0.454375,163.897 C5.26609,164.517 6.19793,162.901 3.24987,159.048 C0.301818,155.195 1.23365,153.578 6.04537,154.198 C10.8571,154.817 11.7889,153.201 8.84087,149.348 C5.89281,145.495 6.82464,143.878 11.6364,144.498 C16.4481,145.118 17.3799,143.501 14.4319,139.648 C11.4838,135.795 12.4156,134.178 17.2274,134.798 C22.0391,135.418 22.9709,133.801 20.0229,129.948 C17.0748,126.095 18.0066,124.479 22.8184,125.099 C27.6301,125.718 28.5619,124.102 25.6139,120.249 C22.6658,116.396 23.5976,114.779 28.4093,115.399 C33.2211,116.019 34.1529,114.402 31.2048,110.549 C28.2568,106.696 29.1886,105.079 34.0003,105.699" style="fill:none;stroke:#7f7f7f;stroke-width:3px;stroke-linecap:butt;stroke-linejoin:miter;stroke-opacity:1"/></svg>