<svg xmlns="http://www.w3.org/2000/svg" xmlns:rdkit="http://www.rdkit.org/xml" xmlns:xlink="http://www.w3.org/1999/xlink" width="256" height="256" baseProfile="full" version="1.1" viewBox="0 0 256 256" xml:space="preserve"><rect style="opacity:1;fill:#fff;stroke:none" width="256" height="256" x="0" y="0"/><path d="M 11.6364,136.291 L 26.1885,127.906" class="bond-0" style="fill:none;fill-rule:evenodd;stroke:#7f7f7f;stroke-width:2px;stroke-linecap:butt;stroke-linejoin:miter;stroke-opacity:1"/><path d="M 26.1885,127.906 L 40.7407,119.521" class="bond-0" style="fill:none;fill-rule:evenodd;stroke:#000;stroke-width:2px;stroke-linecap:butt;stroke-linejoin:miter;stroke-opacity:1"/><path d="M 40.7407,119.521 L 69.8182,136.338" class="bond-1" style="fill:none;fill-rule:evenodd;stroke:#000;stroke-width:2px;stroke-linecap:butt;stroke-linejoin:miter;stroke-opacity:1"/><path d="M 69.8182,136.338 L 98.9225,119.568" class="bond-2" style="fill:none;fill-rule:evenodd;stroke:#000;stroke-width:2px;stroke-linecap:butt;stroke-linejoin:miter;stroke-opacity:1"/><path d="M 98.9225,119.568 L 128,136.385" class="bond-3" style="fill:none;fill-rule:evenodd;stroke:#000;stroke-width:2px;stroke-linecap:butt;stroke-linejoin:miter;stroke-opacity:1"/><path d="M 128,136.385 L 157.104,119.615" class="bond-4" style="fill:none;fill-rule:evenodd;stroke:#000;stroke-width:2px;stroke-linecap:butt;stroke-linejoin:miter;stroke-opacity:1"/><path d="M 157.104,119.615 L 186.182,136.432" class="bond-5" style="fill:none;fill-rule:evenodd;stroke:#000;stroke-width:2px;stroke-linecap:butt;stroke-linejoin:miter;stroke-opacity:1"/><path d="M 186.182,136.432 L 215.286,119.656" class="bond-6" style="fill:none;fill-rule:evenodd;stroke:#000;stroke-width:2px;stroke-linecap:butt;stroke-linejoin:miter;stroke-opacity:1"/><path d="M 215.286,119.656 L 244.364,136.479" class="bond-7" style="fill:none;fill-rule:evenodd;stroke:#000;stroke-width:2px;stroke-linecap:butt;stroke-linejoin:miter;stroke-opacity:1"/><path d="M20.0216,150.844 C21.1276,149.399 20.7782,148.793 18.9735,149.025 C17.1688,149.257 16.8194,148.65 17.9253,147.206 C19.0312,145.761 18.6819,145.154 16.8772,145.386 C15.0724,145.619 14.7231,145.012 15.829,143.567 C16.9349,142.122 16.5855,141.516 14.7808,141.748 C12.9761,141.98 12.6267,141.374 13.7327,139.929 C14.8386,138.484 14.4892,137.878 12.6845,138.11 C10.8798,138.342 10.5304,137.735 11.6364,136.291 C12.7423,134.846 12.3929,134.239 10.5882,134.471 C8.78349,134.704 8.43411,134.097 9.54005,132.652 C10.646,131.207 10.2966,130.601 8.49189,130.833 C6.68718,131.065 6.33779,130.459 7.44373,129.014 C8.54968,127.569 8.20029,126.963 6.39558,127.195 C4.59086,127.427 4.24148,126.821 5.34742,125.376 C6.45336,123.931 6.10397,123.324 4.29926,123.556 C2.49455,123.789 2.14516,123.182 3.2511,121.737" style="fill:none;stroke:#7f7f7f;stroke-width:2px;stroke-linecap:butt;stroke-linejoin:miter;stroke-opacity:1"/></svg>