<svg xmlns="http://www.w3.org/2000/svg" xmlns:rdkit="http://www.rdkit.org/xml" xmlns:xlink="http://www.w3.org/1999/xlink" width="256" height="256" baseProfile="full" version="1.1" viewBox="0 0 256 256" xml:space="preserve"><rect style="opacity:1;fill:#fff;stroke:none" width="256" height="256" x="0" y="0"/><path d="M 244.364,114.661 L 221.082,128.075" class="bond-0" style="fill:none;fill-rule:evenodd;stroke:#7f7f7f;stroke-width:2px;stroke-linecap:butt;stroke-linejoin:miter;stroke-opacity:1"/><path d="M 221.082,128.075 L 197.801,141.489" class="bond-0" style="fill:none;fill-rule:evenodd;stroke:#000;stroke-width:2px;stroke-linecap:butt;stroke-linejoin:miter;stroke-opacity:1"/><path d="M 197.801,141.489 L 151.281,114.586" class="bond-1" style="fill:none;fill-rule:evenodd;stroke:#000;stroke-width:2px;stroke-linecap:butt;stroke-linejoin:miter;stroke-opacity:1"/><path d="M 151.281,114.586 L 104.719,141.414" class="bond-2" style="fill:none;fill-rule:evenodd;stroke:#000;stroke-width:2px;stroke-linecap:butt;stroke-linejoin:miter;stroke-opacity:1"/><path d="M 104.719,141.414 L 58.199,114.511" class="bond-3" style="fill:none;fill-rule:evenodd;stroke:#000;stroke-width:2px;stroke-linecap:butt;stroke-linejoin:miter;stroke-opacity:1"/><path d="M 58.199,114.511 L 11.6364,141.339" class="bond-4" style="fill:none;fill-rule:evenodd;stroke:#000;stroke-width:2px;stroke-linecap:butt;stroke-linejoin:miter;stroke-opacity:1"/><path d="M230.948,91.378 C229.179,93.6896 229.738,94.6598 232.625,94.2884 C235.513,93.917 236.072,94.8871 234.302,97.1988 C232.533,99.5104 233.092,100.481 235.979,100.109 C238.866,99.7378 239.425,100.708 237.656,103.02 C235.887,105.331 236.446,106.301 239.333,105.93 C242.22,105.559 242.779,106.529 241.01,108.84 C239.24,111.152 239.799,112.122 242.687,111.751 C245.574,111.379 246.133,112.349 244.364,114.661 C242.594,116.973 243.153,117.943 246.041,117.571 C248.928,117.2 249.487,118.17 247.717,120.482 C245.948,122.793 246.507,123.764 249.394,123.392 C252.282,123.021 252.841,123.991 251.071,126.303 C249.302,128.614 249.861,129.584 252.748,129.213 C255.635,128.842 256.194,129.812 254.425,132.123 C252.656,134.435 253.215,135.405 256.102,135.034 C258.989,134.662 259.548,135.632 257.779,137.944" style="fill:none;stroke:#7f7f7f;stroke-width:2px;stroke-linecap:butt;stroke-linejoin:miter;stroke-opacity:1"/></svg>