<svg xmlns="http://www.w3.org/2000/svg" xmlns:rdkit="http://www.rdkit.org/xml" xmlns:xlink="http://www.w3.org/1999/xlink" width="256" height="256" baseProfile="full" version="1.1" viewBox="0 0 256 256" xml:space="preserve"><rect style="opacity:1;fill:#fff;stroke:none" width="256" height="256" x="0" y="0"/><path d="M 244.364,105.698 L 205.564,128.063" class="bond-0" style="fill:none;fill-rule:evenodd;stroke:#7f7f7f;stroke-width:3px;stroke-linecap:butt;stroke-linejoin:miter;stroke-opacity:1"/><path d="M 205.564,128.063 L 166.764,150.427" class="bond-0" style="fill:none;fill-rule:evenodd;stroke:#000;stroke-width:3px;stroke-linecap:butt;stroke-linejoin:miter;stroke-opacity:1"/><path d="M 166.764,150.427 L 89.236,105.573" class="bond-1" style="fill:none;fill-rule:evenodd;stroke:#000;stroke-width:3px;stroke-linecap:butt;stroke-linejoin:miter;stroke-opacity:1"/><path d="M 89.236,105.573 L 11.6364,150.302" class="bond-2" style="fill:none;fill-rule:evenodd;stroke:#000;stroke-width:3px;stroke-linecap:butt;stroke-linejoin:miter;stroke-opacity:1"/><path d="M222,66.8993 C219.052,70.7523 219.983,72.3689 224.795,71.7492 C229.607,71.1294 230.539,72.746 227.591,76.599 C224.643,80.452 225.574,82.0687 230.386,81.4489 C235.198,80.8291 236.13,82.4457 233.182,86.2987 C230.234,90.1517 231.165,91.7684 235.977,91.1486 C240.789,90.5288 241.721,92.1454 238.773,95.9984 C235.825,99.8515 236.756,101.468 241.568,100.848 C246.38,100.229 247.312,101.845 244.364,105.698 C241.416,109.551 242.347,111.168 247.159,110.548 C251.971,109.928 252.903,111.545 249.955,115.398 C247.007,119.251 247.938,120.868 252.75,120.248 C257.562,119.628 258.494,121.245 255.546,125.098 C252.598,128.951 253.529,130.567 258.341,129.947 C263.153,129.328 264.085,130.944 261.137,134.797 C258.189,138.65 259.12,140.267 263.932,139.647 C268.744,139.027 269.676,140.644 266.728,144.497" style="fill:none;stroke:#7f7f7f;stroke-width:3px;stroke-linecap:butt;stroke-linejoin:miter;stroke-opacity:1"/></svg>