<svg xmlns="http://www.w3.org/2000/svg" xmlns:rdkit="http://www.rdkit.org/xml" xmlns:xlink="http://www.w3.org/1999/xlink" width="256" height="256" baseProfile="full" version="1.1" viewBox="0 0 256 256" xml:space="preserve"><rect style="opacity:1;fill:#fff;stroke:none" width="256" height="256" x="0" y="0"/><path d="M 195.991,36.414 L 162.143,94.448" class="bond-0" style="fill:none;fill-rule:evenodd;stroke:#7f7f7f;stroke-width:5px;stroke-linecap:butt;stroke-linejoin:miter;stroke-opacity:1"/><path d="M 162.143,94.448 L 128.296,152.482" class="bond-0" style="fill:none;fill-rule:evenodd;stroke:#000;stroke-width:5px;stroke-linecap:butt;stroke-linejoin:miter;stroke-opacity:1"/><path d="M 128.296,152.482 L 61.6217,35.8228" class="bond-1" style="fill:none;fill-rule:evenodd;stroke:#000;stroke-width:5px;stroke-linecap:butt;stroke-linejoin:miter;stroke-opacity:1"/><path d="M 128.296,152.482 L 244.364,220.177" class="bond-2" style="fill:none;fill-rule:evenodd;stroke:#000;stroke-width:5px;stroke-linecap:butt;stroke-linejoin:miter;stroke-opacity:1"/><path d="M 128.296,152.482 L 11.6364,219.156" class="bond-3" style="fill:none;fill-rule:evenodd;stroke:#000;stroke-width:5px;stroke-linecap:butt;stroke-linejoin:miter;stroke-opacity:1"/><path d="M137.956,2.56586 C136.989,9.7797 139.407,11.19 145.21,6.79688 C151.013,2.40372 153.431,3.81406 152.464,11.0279 C151.498,18.2417 153.916,19.6521 159.719,15.2589 C165.522,10.8658 167.94,12.2761 166.973,19.4899 C166.007,26.7038 168.425,28.1141 174.228,23.721 C180.031,19.3278 182.449,20.7381 181.482,27.952 C180.515,35.1658 182.933,36.5762 188.736,32.183 C194.539,27.7898 196.957,29.2002 195.991,36.414 C195.024,43.6279 197.442,45.0382 203.245,40.645 C209.048,36.2519 211.466,37.6622 210.5,44.8761 C209.533,52.0899 211.951,53.5003 217.754,49.1071 C223.557,44.7139 225.975,46.1243 225.008,53.3381 C224.042,60.552 226.46,61.9623 232.263,57.5691 C238.066,53.176 240.484,54.5863 239.517,61.8002 C238.55,69.014 240.968,70.4243 246.771,66.0312 C252.574,61.638 254.992,63.0484 254.026,70.2622" style="fill:none;stroke:#7f7f7f;stroke-width:5px;stroke-linecap:butt;stroke-linejoin:miter;stroke-opacity:1"/></svg>