<svg height="256" viewBox="0 0 256 256" width="256" xmlns="http://www.w3.org/2000/svg"><path d="m0 0h256v256h-256z" fill="#fff"/><g fill="none" stroke-width="2"><path d="m232.1 114.9-28 16.1" stroke="#000"/><path d="m185.8 131-27.9-16.2" stroke="#000"/><path d="m157.9 114.8-37.2 21.4" stroke="#000"/><path d="m120.7 136.2-37.1-21.4" stroke="#000"/><path d="m83.6 114.8-28 16.1" stroke="#000"/><path d="m159.3 115.6-1.4-.8-1.9 1.1" stroke="#000" stroke-miterlimit="10"/><path d="m122.6 135.1-1.9 1.1-1.8-1.1" stroke="#000" stroke-miterlimit="10"/><path d="m85.5 115.8-1.9-1-1.4.8" stroke="#000" stroke-miterlimit="10"/><path d="m221.402 96.305c-1.393.802-.323 2.659 1.07 1.857 1.392-.803 2.462 1.054 1.07 1.857-1.393.802-.323 2.659 1.07 1.856 1.392-.802 2.462 1.055 1.07 1.857-1.393.803-.323 2.66 1.07 1.857 1.392-.802 2.462 1.055 1.069 1.857-1.392.803-.322 2.659 1.07 1.857 1.393-.802 2.463 1.055 1.07 1.857-1.392.802-.322 2.659 1.07 1.857 1.393-.803 2.463 1.054 1.07 1.857-1.393.802-.323 2.659 1.07 1.857 1.392-.803 2.462 1.054 1.07 1.857-1.393.802-.323 2.659 1.07 1.856 1.392-.802 2.462 1.055 1.07 1.857-1.393.803-.323 2.66 1.07 1.857 1.392-.802 2.462 1.055 1.069 1.857-1.392.802-.322 2.659 1.07 1.857 1.393-.802 2.463 1.054 1.07 1.857-1.392.802-.322 2.659 1.07 1.857 1.393-.803 2.463 1.054 1.07 1.857" stroke="#7f7f7f"/></g><text font-family="sans-serif" font-size="25" x="187.3" y="149.1">O</text><text font-family="sans-serif" font-size="25" x="12.8" y="149">H</text><text font-family="sans-serif" font-size="16" x="30.5" y="159.3">3</text><text font-family="sans-serif" font-size="25" x="38.8" y="149">C</text></svg>