<svg height="256" viewBox="0 0 256 256" width="256" xmlns="http://www.w3.org/2000/svg"><path d="m0 0h256v256h-256z" fill="#fff"/><g fill="none" stroke-width="2"><g stroke="#000"><path d="m25.4 131.3 33.1-19.1"/><path d="m80.1 112.2 33 19.1"/><path d="m113.1 131.3 43.8-25.3"/><path d="m156.9 106 33.1 19.2"/><path d="m111.4 130.4 1.7.9 2.2-1.2" stroke-miterlimit="10"/><path d="m154.7 107.3 2.2-1.3 1.7 1" stroke-miterlimit="10"/></g><path d="m38.066 153.177c1.645-.947.381-3.14-1.263-2.192-1.644.947-2.908-1.245-1.263-2.193 1.644-.947.381-3.14-1.264-2.192-1.644.947-2.907-1.246-1.263-2.193s.381-3.14-1.263-2.193c-1.645.948-2.908-1.245-1.264-2.192 1.645-.948.381-3.14-1.263-2.193-1.644.948-2.908-1.245-1.263-2.192 1.644-.948.381-3.14-1.264-2.193-1.644.948-2.907-1.245-1.263-2.192 1.645-.948.381-3.14-1.263-2.193-1.645.947-2.908-1.245-1.263-2.193 1.644-.947.381-3.14-1.264-2.192-1.644.947-2.907-1.245-1.263-2.193 1.644-.947.381-3.14-1.263-2.192-1.645.947-2.908-1.245-1.264-2.193 1.645-.947.381-3.14-1.263-2.192-1.644.947-2.908-1.246-1.263-2.193 1.644-.947.381-3.14-1.264-2.193-1.644.948-2.907-1.245-1.263-2.192" stroke="#7f7f7f"/></g><g font-family="sans-serif"><text font-size="30" x="60.2" y="121.2">O</text><text font-size="30" x="191.6" y="146.6">C</text><text font-size="30" x="212.6" y="146.6">H</text><text font-size="20" x="233.5" y="158.7">3</text></g></svg>