<svg height="256" viewBox="0 0 256 256" width="256" xmlns="http://www.w3.org/2000/svg"><path d="m0 0h256v256h-256z" fill="#fff"/><g fill="none" stroke-width="2"><g stroke="#000"><path d="m12.8 127.8 50.1-.1"/><path d="m62.9 127.7 50.1-.1"/><path d="m62.9 120.2 50-.1"/><path d="m62.9 135.2 50.1-.1"/><path d="m113 127.6h50"/><path d="m163 127.6 39.4-.1"/><path d="m163 120.1 39.4-.1"/><path d="m163 135.1 39.4-.1"/><path d="m60.4 127.7h2.5 2.5" stroke-miterlimit="10"/><path d="m110.5 127.6h2.5 2.5" stroke-miterlimit="10"/><path d="m160.5 127.6h2.5 2" stroke-miterlimit="10"/></g><path d="m12.88 152.828c1.877-.003 1.873-2.506-.004-2.503s-1.881-2.499-.004-2.502 1.873-2.506-.004-2.503-1.881-2.5-.004-2.503 1.873-2.506-.004-2.503-1.881-2.5-.004-2.503 1.873-2.506-.004-2.503-1.881-2.499-.004-2.502 1.873-2.506-.004-2.503-1.881-2.5-.004-2.503 1.873-2.506-.004-2.503-1.881-2.5-.004-2.503 1.873-2.505-.004-2.502-1.881-2.5-.004-2.503 1.873-2.506-.004-2.503-1.881-2.5-.004-2.503 1.873-2.506-.004-2.503-1.881-2.5-.004-2.503 1.873-2.505-.004-2.502-1.881-2.5-.004-2.503" stroke="#7f7f7f"/></g><g font-family="sans-serif" font-size="30"><text x="204.1" y="142.5">C</text><text x="224.8" y="142.5">H</text></g></svg>