<svg height="256" viewBox="0 0 256 256" width="256" xmlns="http://www.w3.org/2000/svg"><path d="m0 0h256v256h-256z" fill="#fff"/><g fill="none" stroke-width="2"><path d="m28.3 166.4 54.2-31" stroke="#000"/><path d="m82.5 135.4 54.2-31" stroke="#000"/><path d="m77.9 127.3 54.2-31.1" stroke="#000"/><path d="m87.2 143.5 54.2-31" stroke="#000"/><path d="m136.7 104.4 40.9-23.5" stroke="#000"/><path d="m79.8 136.9 2.7-1.5 2.7-1.6" stroke="#000" stroke-miterlimit="10"/><path d="m134 105.9 2.7-1.5 2.1-1.2" stroke="#000" stroke-miterlimit="10"/><path d="m43.835 193.517c2.033-1.164.481-3.874-1.551-2.71-2.033 1.164-3.584-1.545-1.552-2.709s.48-3.874-1.552-2.71-3.584-1.545-1.552-2.709c2.033-1.164.481-3.874-1.551-2.71-2.033 1.164-3.584-1.545-1.552-2.709s.48-3.874-1.552-2.71-3.584-1.546-1.552-2.709c2.033-1.164.481-3.874-1.552-2.71-2.032 1.164-3.584-1.546-1.551-2.709 2.032-1.164.48-3.874-1.552-2.71s-3.584-1.546-1.552-2.709c2.032-1.164.481-3.874-1.552-2.71-2.032 1.164-3.584-1.546-1.551-2.709 2.032-1.164.48-3.874-1.552-2.71s-3.584-1.546-1.552-2.709c2.032-1.164.481-3.874-1.552-2.71-2.032 1.164-3.584-1.546-1.551-2.709 2.032-1.164.48-3.874-1.552-2.71s-3.584-1.546-1.552-2.709" stroke="#7f7f7f"/></g><text font-family="sans-serif" font-size="37" x="179.7" y="92.1">C</text><text font-family="sans-serif" font-size="37" x="205.5" y="92.1">H</text><text font-family="sans-serif" font-size="24" x="231.4" y="107">3</text></svg>