<svg height="78" viewBox="0 0 80 78" width="80" xmlns="http://www.w3.org/2000/svg"><text font-family="Helvetica" font-size="240" font-weight="bold" transform="matrix(.05 0 0 .05 10.361 28.98)">O</text><text font-family="Helvetica" font-size="240" font-weight="bold" transform="matrix(.05 0 0 .05 35.251 14.545)">O</text><path d="m4733.89 8182.24 12.01 6.88.38 162.09-12 .03z" transform="matrix(.05 0 0 .05 -222 -399)"/><path d="m5137.85 8119.76-5.98 10.4-143.38-82.53-.04-13.87z" transform="matrix(.05 0 0 .05 -222 -399)"/><path d="m4745.9 8189.12-12.01-6.88 254.56-148.48.04 13.87z" transform="matrix(.05 0 0 .05 -222 -399)"/><text font-family="Helvetica" font-size="240" font-weight="bold" transform="matrix(.05 0 0 .05 60.207 28.865)">O</text><path d="m5743.19 8348.91-12 .02-.37-162.08 11.98-6.95z" transform="matrix(.05 0 0 .05 -222 -399)"/><path d="m5742.8 8179.9-11.98 6.95-243.87-140.37-.04-13.87z" transform="matrix(.05 0 0 .05 -222 -399)"/><path d="m5345.68 8128.88-6.04-10.37 147.27-85.9.04 13.87z" transform="matrix(.05 0 0 .05 -222 -399)"/><text font-family="Helvetica" font-size="240" font-weight="bold" transform="matrix(.05 0 0 .05 60.273 57.683)">O</text><path d="m5846.18 8991.76-6.03-10.37 141.86-82.54 12.02 6.9z" transform="matrix(.05 0 0 .05 -222 -399)"/><path d="m5994.03 8905.75-12.02-6.9-.65-281.25 11.98-6.96z" transform="matrix(.05 0 0 .05 -222 -399)"/><path d="m5840.34 8536.79 5.97-10.41 147.03 84.26-11.98 6.96z" transform="matrix(.05 0 0 .05 -222 -399)"/><text font-family="Helvetica" font-size="240" font-weight="bold" transform="matrix(.05 0 0 .05 10.428 57.766)">O</text><path d="m4632.95 8528.78 6.03 10.37-140.99 81.88-12.02-6.9z" transform="matrix(.05 0 0 .05 -222 -399)"/><path d="m4485.97 8614.13 12.02 6.9.65 281.25-11.98 6.95z" transform="matrix(.05 0 0 .05 -222 -399)"/><path d="m4486.66 8909.23 11.98-6.95 142.7 81.99-5.97 10.4z" transform="matrix(.05 0 0 .05 -222 -399)"/><text font-family="Helvetica" font-size="240" font-weight="bold" transform="matrix(.05 0 0 .05 35.32 72.054)">O</text><g transform="matrix(.05 0 0 .05 -222 -399)"><path d="m4736.18 9173.96 12-.02.37 158.45-11.99 6.96z"/><path d="m4736.56 9339.35 11.99-6.96 242.6 139.12.03 13.85z"/><path d="m4991.18 9485.36-.03-13.85 140.9-81.46 6.01 10.39z"/><path d="m5342.27 9401.3 6.03-10.37 141.96 82.58v13.88z"/><path d="m5490.26 9487.39v-13.88l243.21-141.49 12.01 6.89z"/><path d="m5733.1 9172.29 12-.02.38 166.64-12.01-6.89z"/><path d="m4843.38 8539.19 5.98-10.41 384.61 220.84 6.03 10.38-12 .03z"/><path d="m5228 8760.03 12-.03-6 10.42-384.68 223.15-6.02-10.38z"/><path d="m5234 8770.42 6-10.42 6 10.38-.2 442.34-12-.01z"/><path d="m5246 8770.38-6-10.38 11.98-.02 386.34 222.51-5.99 10.39z"/><path d="m5251.98 8759.98-11.98.02 5.97-10.41 383.91-223.08 6.03 10.37z"/><path d="m5245.97 8749.59-5.97 10.41-6.03-10.38-1.26-440.08 12-.03z"/><path d="m5019.16 8760a220.838 220.838 0 1 0 441.68 0 220.838 220.838 0 1 0 -441.68 0z" fill="#fa666a"/></g></svg>