<?xml version="1.0" standalone="no" ?>
<!DOCTYPE svg PUBLIC "-//W3C//DTD SVG 1.1//EN" "http://www.w3.org/Graphics/SVG/1.1/DTD/svg11.dtd">
<svg width="80px" height="78px" viewBox="0 0 80 78" style="background-color: #ffffff00" xmlns="http://www.w3.org/2000/svg" xmlns:xlink="http://www.w3.org/1999/xlink" version="1.1" >
<text x="0" y="0" stroke="none" fill="#000000" transform="matrix(0.05 0 0 0.05 10.361 28.9797)" font-style="normal" font-weight="bold" font-size="240px" font-family="Helvetica" >
O</text>
<text x="0" y="0" stroke="none" fill="#000000" transform="matrix(0.05 0 0 0.05 35.2507 14.5448)" font-style="normal" font-weight="bold" font-size="240px" font-family="Helvetica" >
O</text>
<path stroke="none" fill="#000000" transform="matrix(0.05 0 0 0.05 -222 -399)" d="M 4733.89,8182.24 L 4745.9,8189.12 L 4746.28,8351.21 L 4734.28,8351.24 L 4733.89,8182.24 Z " />
<path stroke="none" fill="#000000" transform="matrix(0.05 0 0 0.05 -222 -399)" d="M 5137.85,8119.76 L 5131.87,8130.16 L 4988.49,8047.63 L 4988.45,8033.76 L 5137.85,8119.76 Z " />
<path stroke="none" fill="#000000" transform="matrix(0.05 0 0 0.05 -222 -399)" d="M 4745.9,8189.12 L 4733.89,8182.24 L 4988.45,8033.76 L 4988.49,8047.63 L 4745.9,8189.12 Z " />
<text x="0" y="0" stroke="none" fill="#000000" transform="matrix(0.05 0 0 0.05 60.2068 28.8645)" font-style="normal" font-weight="bold" font-size="240px" font-family="Helvetica" >
O</text>
<path stroke="none" fill="#000000" transform="matrix(0.05 0 0 0.05 -222 -399)" d="M 5743.19,8348.91 L 5731.19,8348.93 L 5730.82,8186.85 L 5742.8,8179.9 L 5743.19,8348.91 Z " />
<path stroke="none" fill="#000000" transform="matrix(0.05 0 0 0.05 -222 -399)" d="M 5742.8,8179.9 L 5730.82,8186.85 L 5486.95,8046.48 L 5486.91,8032.61 L 5742.8,8179.9 Z " />
<path stroke="none" fill="#000000" transform="matrix(0.05 0 0 0.05 -222 -399)" d="M 5345.68,8128.88 L 5339.64,8118.51 L 5486.91,8032.61 L 5486.95,8046.48 L 5345.68,8128.88 Z " />
<text x="0" y="0" stroke="none" fill="#000000" transform="matrix(0.05 0 0 0.05 60.2734 57.6826)" font-style="normal" font-weight="bold" font-size="240px" font-family="Helvetica" >
O</text>
<path stroke="none" fill="#000000" transform="matrix(0.05 0 0 0.05 -222 -399)" d="M 5846.18,8991.76 L 5840.15,8981.39 L 5982.01,8898.85 L 5994.03,8905.75 L 5846.18,8991.76 Z " />
<path stroke="none" fill="#000000" transform="matrix(0.05 0 0 0.05 -222 -399)" d="M 5994.03,8905.75 L 5982.01,8898.85 L 5981.36,8617.6 L 5993.34,8610.64 L 5994.03,8905.75 Z " />
<path stroke="none" fill="#000000" transform="matrix(0.05 0 0 0.05 -222 -399)" d="M 5840.34,8536.79 L 5846.31,8526.38 L 5993.34,8610.64 L 5981.36,8617.6 L 5840.34,8536.79 Z " />
<text x="0" y="0" stroke="none" fill="#000000" transform="matrix(0.05 0 0 0.05 10.4276 57.7661)" font-style="normal" font-weight="bold" font-size="240px" font-family="Helvetica" >
O</text>
<path stroke="none" fill="#000000" transform="matrix(0.05 0 0 0.05 -222 -399)" d="M 4632.95,8528.78 L 4638.98,8539.15 L 4497.99,8621.03 L 4485.97,8614.13 L 4632.95,8528.78 Z " />
<path stroke="none" fill="#000000" transform="matrix(0.05 0 0 0.05 -222 -399)" d="M 4485.97,8614.13 L 4497.99,8621.03 L 4498.64,8902.28 L 4486.66,8909.23 L 4485.97,8614.13 Z " />
<path stroke="none" fill="#000000" transform="matrix(0.05 0 0 0.05 -222 -399)" d="M 4486.66,8909.23 L 4498.64,8902.28 L 4641.34,8984.27 L 4635.37,8994.67 L 4486.66,8909.23 Z " />
<text x="0" y="0" stroke="none" fill="#000000" transform="matrix(0.05 0 0 0.05 35.3203 72.0543)" font-style="normal" font-weight="bold" font-size="240px" font-family="Helvetica" >
O</text>
<path stroke="none" fill="#000000" transform="matrix(0.05 0 0 0.05 -222 -399)" d="M 4736.18,9173.96 L 4748.18,9173.94 L 4748.55,9332.39 L 4736.56,9339.35 L 4736.18,9173.96 Z " />
<path stroke="none" fill="#000000" transform="matrix(0.05 0 0 0.05 -222 -399)" d="M 4736.56,9339.35 L 4748.55,9332.39 L 4991.15,9471.51 L 4991.18,9485.36 L 4736.56,9339.35 Z " />
<path stroke="none" fill="#000000" transform="matrix(0.05 0 0 0.05 -222 -399)" d="M 4991.18,9485.36 L 4991.15,9471.51 L 5132.05,9390.05 L 5138.06,9400.44 L 4991.18,9485.36 Z " />
<path stroke="none" fill="#000000" transform="matrix(0.05 0 0 0.05 -222 -399)" d="M 5342.27,9401.3 L 5348.3,9390.93 L 5490.26,9473.51 L 5490.26,9487.39 L 5342.27,9401.3 Z " />
<path stroke="none" fill="#000000" transform="matrix(0.05 0 0 0.05 -222 -399)" d="M 5490.26,9487.39 L 5490.26,9473.51 L 5733.47,9332.02 L 5745.48,9338.91 L 5490.26,9487.39 Z " />
<path stroke="none" fill="#000000" transform="matrix(0.05 0 0 0.05 -222 -399)" d="M 5733.1,9172.29 L 5745.1,9172.27 L 5745.48,9338.91 L 5733.47,9332.02 L 5733.1,9172.29 Z " />
<path stroke="none" fill="#000000" transform="matrix(0.05 0 0 0.05 -222 -399)" d="M 4843.38,8539.19 L 4849.36,8528.78 L 5233.97,8749.62 L 5240,8760 L 5228,8760.03 L 4843.38,8539.19 Z " />
<path stroke="none" fill="#000000" transform="matrix(0.05 0 0 0.05 -222 -399)" d="M 5228,8760.03 L 5240,8760 L 5234,8770.42 L 4849.32,8993.57 L 4843.3,8983.19 L 5228,8760.03 Z " />
<path stroke="none" fill="#000000" transform="matrix(0.05 0 0 0.05 -222 -399)" d="M 5234,8770.42 L 5240,8760 L 5246,8770.38 L 5245.8,9212.72 L 5233.8,9212.71 L 5234,8770.42 Z " />
<path stroke="none" fill="#000000" transform="matrix(0.05 0 0 0.05 -222 -399)" d="M 5246,8770.38 L 5240,8760 L 5251.98,8759.98 L 5638.32,8982.49 L 5632.33,8992.88 L 5246,8770.38 Z " />
<path stroke="none" fill="#000000" transform="matrix(0.05 0 0 0.05 -222 -399)" d="M 5251.98,8759.98 L 5240,8760 L 5245.97,8749.59 L 5629.88,8526.51 L 5635.91,8536.88 L 5251.98,8759.98 Z " />
<path stroke="none" fill="#000000" transform="matrix(0.05 0 0 0.05 -222 -399)" d="M 5245.97,8749.59 L 5240,8760 L 5233.97,8749.62 L 5232.71,8309.54 L 5244.71,8309.51 L 5245.97,8749.59 Z " />
<path stroke="none" fill="#fa666a" transform="matrix(0.05 0 0 0.05 -222 -399)" d="M 5019.16,8760 A 220.838,220.838 0 1 0 5460.84,8760 A 220.838,220.838 0 1 0 5019.16,8760 Z " />
</svg>
