<svg height="85" viewBox="0 0 80 85" width="80" xmlns="http://www.w3.org/2000/svg"><text font-family="Helvetica" font-size="240" font-weight="bold" transform="matrix(.05 0 0 .05 10.695 35.98)">NH</text><text font-family="Helvetica" font-size="240" font-weight="bold" transform="matrix(.05 0 0 .05 35.585 11.511)">H</text><text font-family="Helvetica" font-size="240" font-weight="bold" transform="matrix(.05 0 0 .05 35.585 21.545)">N</text><path d="m4733.89 8182.24 12.01 6.88.39 165.73-12 .03z" transform="matrix(.05 0 0 .05 -222 -392)"/><path d="m5124.79 8112.24-5.99 10.4-130.31-75.01-.04-13.87z" transform="matrix(.05 0 0 .05 -222 -392)"/><path d="m4745.9 8189.12-12.01-6.88 254.56-148.48.04 13.87z" transform="matrix(.05 0 0 .05 -222 -392)"/><text font-family="Helvetica" font-size="240" font-weight="bold" transform="matrix(.05 0 0 .05 60.541 35.865)">NH</text><path d="m5743.2 8351.54-12 .03-.38-164.72 11.98-6.95z" transform="matrix(.05 0 0 .05 -222 -392)"/><path d="m5742.8 8179.9-11.98 6.95-243.87-140.37-.04-13.87z" transform="matrix(.05 0 0 .05 -222 -392)"/><path d="m5358.97 8121.13-6.05-10.37 133.99-78.15.04 13.87z" transform="matrix(.05 0 0 .05 -222 -392)"/><text font-family="Helvetica" font-size="240" font-weight="bold" transform="matrix(.05 0 0 .05 60.607 54.649)">H</text><text font-family="Helvetica" font-size="240" font-weight="bold" transform="matrix(.05 0 0 .05 60.607 64.683)">N</text><path d="m5860.2 8983.6-6.03-10.37 127.84-74.38 12.02 6.9z" transform="matrix(.05 0 0 .05 -222 -392)"/><path d="m5994.03 8905.75-12.02-6.9-.65-281.25 11.98-6.96z" transform="matrix(.05 0 0 .05 -222 -392)"/><path d="m5968.6 8610.29 5.97-10.41 15.77 9.03-5.97 10.42z" transform="matrix(.05 0 0 .05 -222 -392)"/><text font-family="Helvetica" font-size="240" font-weight="bold" transform="matrix(.05 0 0 .05 10.762 54.733)">H</text><text font-family="Helvetica" font-size="240" font-weight="bold" transform="matrix(.05 0 0 .05 10.762 64.766)">N</text><path d="m4621.24 8535.58 6.02 10.38-129.27 75.07-12.02-6.9z" transform="matrix(.05 0 0 .05 -222 -392)"/><path d="m4485.97 8614.13 12.02 6.9.65 281.25-11.98 6.95z" transform="matrix(.05 0 0 .05 -222 -392)"/><path d="m4486.66 8909.23 11.98-6.95 130.84 75.17-5.98 10.41z" transform="matrix(.05 0 0 .05 -222 -392)"/><text font-family="Helvetica" font-size="240" font-weight="bold" transform="matrix(.05 0 0 .05 35.654 79.054)">NH</text><g transform="matrix(.05 0 0 .05 -222 -392)"><path d="m4736.16 9166.08 12-.03.39 166.34-11.99 6.96z"/><path d="m4736.56 9339.35 11.99-6.96 242.6 139.12.03 13.85z"/><path d="m4991.18 9485.36-.03-13.85 129.96-75.13 6.01 10.38z"/><path d="m5467.5 9474.15 6.04-10.37 19.74 11.48-6.04 10.37z"/><path d="m5490.26 9487.39v-13.88l243.21-141.49 12.01 6.89z"/><path d="m5733.08 9165.41 12-.03.4 173.53-12.01-6.89z"/><path d="m4973.48 8613.88 5.97-10.4 254.52 146.14 6.03 10.38-12 .03z"/><path d="m5228 8760.03 12-.03-6 10.42-370.67 215.03-6.03-10.38z"/><path d="m5234 8770.42 6-10.42 6 10.38-.2 444.98-12-.01z"/><path d="m5246 8770.38-6-10.38 11.98-.02 374.46 215.66-5.99 10.4z"/><path d="m5251.98 8759.98-11.98.02 5.97-10.41 372.19-216.27 6.03 10.37z"/><path d="m5245.97 8749.59-5.97 10.41-6.03-10.38-1.28-446.97 12-.03z"/><path d="m5019.16 8760a220.838 220.838 0 1 0 441.68 0 220.838 220.838 0 1 0 -441.68 0z" fill="#fa666a"/></g></svg>