<?xml version="1.0" standalone="no" ?>
<!DOCTYPE svg PUBLIC "-//W3C//DTD SVG 1.1//EN" "http://www.w3.org/Graphics/SVG/1.1/DTD/svg11.dtd">
<svg width="80px" height="85px" viewBox="0 0 80 85" style="background-color: #ffffff00" xmlns="http://www.w3.org/2000/svg" xmlns:xlink="http://www.w3.org/1999/xlink" version="1.1" >
<text x="0" y="0" stroke="none" fill="#000000" transform="matrix(0.05 0 0 0.05 10.695 35.9797)" font-style="normal" font-weight="bold" font-size="240px" font-family="Helvetica" >
NH</text>
<text x="0" y="0" stroke="none" fill="#000000" transform="matrix(0.05 0 0 0.05 35.5847 11.5114)" font-style="normal" font-weight="bold" font-size="240px" font-family="Helvetica" >
H</text>
<text x="0" y="0" stroke="none" fill="#000000" transform="matrix(0.05 0 0 0.05 35.5847 21.5448)" font-style="normal" font-weight="bold" font-size="240px" font-family="Helvetica" >
N</text>
<path stroke="none" fill="#000000" transform="matrix(0.05 0 0 0.05 -222 -392)" d="M 4733.89,8182.24 L 4745.9,8189.12 L 4746.29,8354.85 L 4734.29,8354.88 L 4733.89,8182.24 Z " />
<path stroke="none" fill="#000000" transform="matrix(0.05 0 0 0.05 -222 -392)" d="M 5124.79,8112.24 L 5118.8,8122.64 L 4988.49,8047.63 L 4988.45,8033.76 L 5124.79,8112.24 Z " />
<path stroke="none" fill="#000000" transform="matrix(0.05 0 0 0.05 -222 -392)" d="M 4745.9,8189.12 L 4733.89,8182.24 L 4988.45,8033.76 L 4988.49,8047.63 L 4745.9,8189.12 Z " />
<text x="0" y="0" stroke="none" fill="#000000" transform="matrix(0.05 0 0 0.05 60.5408 35.8645)" font-style="normal" font-weight="bold" font-size="240px" font-family="Helvetica" >
NH</text>
<path stroke="none" fill="#000000" transform="matrix(0.05 0 0 0.05 -222 -392)" d="M 5743.2,8351.54 L 5731.2,8351.57 L 5730.82,8186.85 L 5742.8,8179.9 L 5743.2,8351.54 Z " />
<path stroke="none" fill="#000000" transform="matrix(0.05 0 0 0.05 -222 -392)" d="M 5742.8,8179.9 L 5730.82,8186.85 L 5486.95,8046.48 L 5486.91,8032.61 L 5742.8,8179.9 Z " />
<path stroke="none" fill="#000000" transform="matrix(0.05 0 0 0.05 -222 -392)" d="M 5358.97,8121.13 L 5352.92,8110.76 L 5486.91,8032.61 L 5486.95,8046.48 L 5358.97,8121.13 Z " />
<text x="0" y="0" stroke="none" fill="#000000" transform="matrix(0.05 0 0 0.05 60.6074 54.6492)" font-style="normal" font-weight="bold" font-size="240px" font-family="Helvetica" >
H</text>
<text x="0" y="0" stroke="none" fill="#000000" transform="matrix(0.05 0 0 0.05 60.6074 64.6826)" font-style="normal" font-weight="bold" font-size="240px" font-family="Helvetica" >
N</text>
<path stroke="none" fill="#000000" transform="matrix(0.05 0 0 0.05 -222 -392)" d="M 5860.2,8983.6 L 5854.17,8973.23 L 5982.01,8898.85 L 5994.03,8905.75 L 5860.2,8983.6 Z " />
<path stroke="none" fill="#000000" transform="matrix(0.05 0 0 0.05 -222 -392)" d="M 5994.03,8905.75 L 5982.01,8898.85 L 5981.36,8617.6 L 5993.34,8610.64 L 5994.03,8905.75 Z " />
<path stroke="none" fill="#000000" transform="matrix(0.05 0 0 0.05 -222 -392)" d="M 5968.6,8610.29 L 5974.57,8599.88 L 5990.34,8608.91 L 5984.37,8619.33 L 5968.6,8610.29 Z " />
<text x="0" y="0" stroke="none" fill="#000000" transform="matrix(0.05 0 0 0.05 10.7616 54.7328)" font-style="normal" font-weight="bold" font-size="240px" font-family="Helvetica" >
H</text>
<text x="0" y="0" stroke="none" fill="#000000" transform="matrix(0.05 0 0 0.05 10.7616 64.7661)" font-style="normal" font-weight="bold" font-size="240px" font-family="Helvetica" >
N</text>
<path stroke="none" fill="#000000" transform="matrix(0.05 0 0 0.05 -222 -392)" d="M 4621.24,8535.58 L 4627.26,8545.96 L 4497.99,8621.03 L 4485.97,8614.13 L 4621.24,8535.58 Z " />
<path stroke="none" fill="#000000" transform="matrix(0.05 0 0 0.05 -222 -392)" d="M 4485.97,8614.13 L 4497.99,8621.03 L 4498.64,8902.28 L 4486.66,8909.23 L 4485.97,8614.13 Z " />
<path stroke="none" fill="#000000" transform="matrix(0.05 0 0 0.05 -222 -392)" d="M 4486.66,8909.23 L 4498.64,8902.28 L 4629.48,8977.45 L 4623.5,8987.86 L 4486.66,8909.23 Z " />
<text x="0" y="0" stroke="none" fill="#000000" transform="matrix(0.05 0 0 0.05 35.6543 79.0543)" font-style="normal" font-weight="bold" font-size="240px" font-family="Helvetica" >
NH</text>
<path stroke="none" fill="#000000" transform="matrix(0.05 0 0 0.05 -222 -392)" d="M 4736.16,9166.08 L 4748.16,9166.05 L 4748.55,9332.39 L 4736.56,9339.35 L 4736.16,9166.08 Z " />
<path stroke="none" fill="#000000" transform="matrix(0.05 0 0 0.05 -222 -392)" d="M 4736.56,9339.35 L 4748.55,9332.39 L 4991.15,9471.51 L 4991.18,9485.36 L 4736.56,9339.35 Z " />
<path stroke="none" fill="#000000" transform="matrix(0.05 0 0 0.05 -222 -392)" d="M 4991.18,9485.36 L 4991.15,9471.51 L 5121.11,9396.38 L 5127.12,9406.76 L 4991.18,9485.36 Z " />
<path stroke="none" fill="#000000" transform="matrix(0.05 0 0 0.05 -222 -392)" d="M 5467.5,9474.15 L 5473.54,9463.78 L 5493.28,9475.26 L 5487.24,9485.63 L 5467.5,9474.15 Z " />
<path stroke="none" fill="#000000" transform="matrix(0.05 0 0 0.05 -222 -392)" d="M 5490.26,9487.39 L 5490.26,9473.51 L 5733.47,9332.02 L 5745.48,9338.91 L 5490.26,9487.39 Z " />
<path stroke="none" fill="#000000" transform="matrix(0.05 0 0 0.05 -222 -392)" d="M 5733.08,9165.41 L 5745.08,9165.38 L 5745.48,9338.91 L 5733.47,9332.02 L 5733.08,9165.41 Z " />
<path stroke="none" fill="#000000" transform="matrix(0.05 0 0 0.05 -222 -392)" d="M 4973.48,8613.88 L 4979.45,8603.48 L 5233.97,8749.62 L 5240,8760 L 5228,8760.03 L 4973.48,8613.88 Z " />
<path stroke="none" fill="#000000" transform="matrix(0.05 0 0 0.05 -222 -392)" d="M 5228,8760.03 L 5240,8760 L 5234,8770.42 L 4863.33,8985.45 L 4857.3,8975.07 L 5228,8760.03 Z " />
<path stroke="none" fill="#000000" transform="matrix(0.05 0 0 0.05 -222 -392)" d="M 5234,8770.42 L 5240,8760 L 5246,8770.38 L 5245.8,9215.36 L 5233.8,9215.35 L 5234,8770.42 Z " />
<path stroke="none" fill="#000000" transform="matrix(0.05 0 0 0.05 -222 -392)" d="M 5246,8770.38 L 5240,8760 L 5251.98,8759.98 L 5626.44,8975.64 L 5620.45,8986.04 L 5246,8770.38 Z " />
<path stroke="none" fill="#000000" transform="matrix(0.05 0 0 0.05 -222 -392)" d="M 5251.98,8759.98 L 5240,8760 L 5245.97,8749.59 L 5618.16,8533.32 L 5624.19,8543.69 L 5251.98,8759.98 Z " />
<path stroke="none" fill="#000000" transform="matrix(0.05 0 0 0.05 -222 -392)" d="M 5245.97,8749.59 L 5240,8760 L 5233.97,8749.62 L 5232.69,8302.65 L 5244.69,8302.62 L 5245.97,8749.59 Z " />
<path stroke="none" fill="#fa666a" transform="matrix(0.05 0 0 0.05 -222 -392)" d="M 5019.16,8760 A 220.838,220.838 0 1 0 5460.84,8760 A 220.838,220.838 0 1 0 5019.16,8760 Z " />
</svg>
