<svg height="212" viewBox="0 0 140 212" width="140" xmlns="http://www.w3.org/2000/svg"><path d="m5469.22 6628.58-.26-10.42 6.46-8.62 10.92 2.92.7 20.89z" transform="matrix(.05 0 0 .05 -200 -254)"/><path d="m6051.11 6763.79-5.18 19.32-457.93-122.7-.7-20.9z" transform="matrix(.05 0 0 .05 -200 -254)"/><text font-family="Helvetica" font-size="360" font-weight="bold" transform="matrix(.05 0 0 .05 71.221 155.998)">N</text><text font-family="Helvetica" font-size="360" font-weight="bold" transform="matrix(.05 0 0 .05 69.636 62.615)">N</text><path d="m5512.75 5130.79-.07 23.9-389.96 253.48-20-10.85z" transform="matrix(.05 0 0 .05 -200 -254)"/><path d="m5507.06 5202.77 10.9 16.77-342.55 222.66-10.9-16.77z" transform="matrix(.05 0 0 .05 -200 -254)"/><path d="m5102.72 5397.32 20 10.85v499.4l-20 10.35z" transform="matrix(.05 0 0 .05 -200 -254)"/><path d="m5102.72 5917.92 20-10.35 242.42 171.47-11.55 16.33z" transform="matrix(.05 0 0 .05 -200 -254)"/><path d="m5167.2 5889.72 11.55-16.33 221.19 156.45-11.55 16.33z" transform="matrix(.05 0 0 .05 -200 -254)"/><path d="m5692.38 6092.09-11.74-16.19 232.08-168.26 10 5.1-1.16 13.19z" transform="matrix(.05 0 0 .05 -200 -254)"/><path d="m5932.72 5908.7-10 4.04-10-5.1v-489.51l20-10.78z" transform="matrix(.05 0 0 .05 -200 -254)"/><path d="m5872.72 5882.13h-20v-437.06h20z" transform="matrix(.05 0 0 .05 -200 -254)"/><path d="m5932.72 5407.35-20 10.78-400.04-263.44.07-23.9z" transform="matrix(.05 0 0 .05 -200 -254)"/><path d="m5921.56 5925.93 1.16-13.19 10-4.04 285.68 295.65-20.06 8.02z" transform="matrix(.05 0 0 .05 -200 -254)"/><text font-family="Helvetica" font-size="360" font-weight="bold" transform="matrix(.05 0 0 .05 103.694 92.895)">N</text><path d="m6198.34 6212.37 20.06-8.02-3.26 434.53-19.99-.15z" transform="matrix(.05 0 0 .05 -200 -254)"/><path d="m6364.72 6912.76 10-17.32 368.77 212.91h-40z" transform="matrix(.05 0 0 .05 -200 -254)"/><path d="m6037.48 6877.3 8.67 18.02-411.33 197.89-44.21-.93z" transform="matrix(.05 0 0 .05 -200 -254)"/><text font-family="Helvetica" font-size="360" font-weight="bold" transform="matrix(.05 0 0 .05 103.694 122.895)">N</text><path d="m6703.49 7108.35h40l-368.73 212.88-10-17.32z" transform="matrix(.05 0 0 .05 -200 -254)"/><path d="m6193.87 7577.79h20v434.3l-20-7.49z" transform="matrix(.05 0 0 .05 -200 -254)"/><path d="m5590.61 7092.28 44.21.93 410.85 219.34-9.42 17.64z" transform="matrix(.05 0 0 .05 -200 -254)"/><path d="m5411.18 8219.08 15.06 13.17-120.18 137.5-21.01-6.35z" transform="matrix(.05 0 0 .05 -200 -254)"/><path d="m5448.83 8251.99 15.06 13.16-108.28 123.88-15.05-13.16z" transform="matrix(.05 0 0 .05 -200 -254)"/><path d="m5285.05 8363.4 21.01 6.35 77.22 584.13-18.84 10.06z" transform="matrix(.05 0 0 .05 -200 -254)"/><path d="m5364.44 8963.94 18.84-10.06 326.81 287.07 1.86 28.26z" transform="matrix(.05 0 0 .05 -200 -254)"/><path d="m5418 8939.31 13.2-15.02 281.4 247.19-13.2 15.02z" transform="matrix(.05 0 0 .05 -200 -254)"/><path d="m5711.95 9269.21-1.86-28.26 249.28-285.21 21.01 6.34z" transform="matrix(.05 0 0 .05 -200 -254)"/><path d="m5980.38 8962.08-21.01-6.34-77.22-584.13 9.42-5.04 10.51 3.17z" transform="matrix(.05 0 0 .05 -200 -254)"/><path d="m5904.46 8934.84-19.83 2.62-70.52-533.48 19.82-2.62z" transform="matrix(.05 0 0 .05 -200 -254)"/><path d="m5890.63 8352.44.94 14.13-9.42 5.04-179.96-158.08 13.2-15.03z" transform="matrix(.05 0 0 .05 -200 -254)"/><path d="m5902.08 8369.74-10.51-3.17-.94-14.13 303.24-347.84 20 7.49z" transform="matrix(.05 0 0 .05 -200 -254)"/><text font-family="Helvetica" font-size="360" font-weight="bold" transform="matrix(.05 0 0 .05 46.436 89.993)">N</text><path d="m4301.33 6331.7 30.27 11.26 157.26 258.21-12.78 17.47z" transform="matrix(.05 0 0 .05 -200 -254)"/><path d="m4383.61 6370.68 17.08-10.41 122.26 200.75-17.08 10.4z" transform="matrix(.05 0 0 .05 -200 -254)"/><path d="m4476.08 6618.64 12.78-17.47 417.16 101.65-4.73 19.43z" transform="matrix(.05 0 0 .05 -200 -254)"/><path d="m5221.65 6708.33-6.13-19.03 238.31-76.77 15.13 5.63.26 10.42z" transform="matrix(.05 0 0 .05 -200 -254)"/><path d="m5205.79 6659.1-6.13-19.03 187.95-60.55 6.13 19.04z" transform="matrix(.05 0 0 .05 -200 -254)"/><path d="m5475.42 6609.54-6.46 8.62-15.13-5.63-157.26-258.21 12.78-17.47z" transform="matrix(.05 0 0 .05 -200 -254)"/><path d="m5309.35 6336.85-12.78 17.47-569.48-138.77-.76-20.77z" transform="matrix(.05 0 0 .05 -200 -254)"/><path d="m5259.86 6398.04-4.73 19.44-528.1-128.69 4.73-19.43z" transform="matrix(.05 0 0 .05 -200 -254)"/><path d="m4726.33 6194.78.76 20.77-395.49 127.41-30.27-11.26z" transform="matrix(.05 0 0 .05 -200 -254)"/><path d="m5217.29 6875.73 11.61-16.28 313.15 223.4 10.67 19.89-19.14-1.36z" transform="matrix(.05 0 0 .05 -200 -254)"/><path d="m6059.24 7402.58.59 19.99-344.96 10.11-4.31-19.88z" transform="matrix(.05 0 0 .05 -200 -254)"/><text font-family="Helvetica" font-size="360" font-weight="bold" transform="matrix(.05 0 0 .05 35.555 126.007)">N</text><g transform="matrix(.05 0 0 .05 -200 -254)"><path d="m4254.56 7597.81 12.06 17.71-178.68 258.17-31.43 10.26z"/><path d="m4282.53 7645.26 16.44 11.38-139.96 202.21-16.44-11.38z"/><path d="m4056.51 7883.95 31.43-10.26 376.95 130.81-1.08 20.8z"/><path d="m4463.81 8025.3 1.08-20.8 573.88-134.53 12.14 17.7z"/><path d="m4470.49 7950.24-4.56-19.47 533.2-124.99 4.57 19.47z"/><path d="m5050.91 7887.67-12.14-17.7 158.88-232.89 15.07-4.34 6.59 8.08z"/><path d="m5212.79 7621.86-.07 10.88-15.07 4.34-197.57-86.21 8-18.33z"/><path d="m5141.39 7645.26-8 18.33-153.31-66.89 8-18.33z"/><path d="m4684.09 7497.12 4.56 19.47-422.03 98.93-12.06-17.71z"/><path d="m5533.58 7101.38 19.14 1.36-9.98 16.41-532.35 275.18-9.18-17.77z"/><path d="m5564.11 7900.84-20 .03-.62-352.82 19.99-8.4z"/><path d="m5542.74 7119.15 9.98-16.41 10-.02.57 328.55-19.99 8.39z"/><path d="m5518.36 6372.36 19.99-.67 24.36 730.72-9.99.33-10.67-19.89z"/><path d="m5272.92 7152.74a289.8 289.8 0 1 0 579.59 0 289.8 289.8 0 1 0 -579.59 0z" fill="#fa666a"/><path d="m5219.31 7640.82-6.59-8.08.07-10.88 497.77-209.06 4.31 19.88z"/></g></svg>