<svg xmlns="http://www.w3.org/2000/svg" xmlns:rdkit="http://www.rdkit.org/xml" xmlns:xlink="http://www.w3.org/1999/xlink" width="256" height="256" baseProfile="full" version="1.1" viewBox="0 0 256 256" xml:space="preserve"><rect style="opacity:1;fill:#fff;stroke:none" width="256" height="256" x="0" y="0"/><path d="M 166.692,51.708 L 166.72,86.4908" class="bond-0" style="fill:none;fill-rule:evenodd;stroke:#7f7f7f;stroke-width:3px;stroke-linecap:butt;stroke-linejoin:miter;stroke-opacity:1"/><path d="M 166.72,86.4908 L 166.748,121.274" class="bond-0" style="fill:none;fill-rule:evenodd;stroke:#000;stroke-width:3px;stroke-linecap:butt;stroke-linejoin:miter;stroke-opacity:1"/><path d="M 150.75,150.535 L 129.333,162.921" class="bond-1" style="fill:none;fill-rule:evenodd;stroke:#000;stroke-width:3px;stroke-linecap:butt;stroke-linejoin:miter;stroke-opacity:1"/><path d="M 129.333,162.921 L 107.915,175.307" class="bond-1" style="fill:none;fill-rule:evenodd;stroke:red;stroke-width:3px;stroke-linecap:butt;stroke-linejoin:miter;stroke-opacity:1"/><path d="M 182.778,150.501 L 244.364,185.985" class="bond-3" style="fill:none;fill-rule:evenodd;stroke:#000;stroke-width:3px;stroke-linecap:butt;stroke-linejoin:miter;stroke-opacity:1"/><path d="M 70.5565,175.347 L 41.0964,158.373" class="bond-2" style="fill:none;fill-rule:evenodd;stroke:red;stroke-width:3px;stroke-linecap:butt;stroke-linejoin:miter;stroke-opacity:1"/><path d="M 41.0964,158.373 L 11.6364,141.399" class="bond-2" style="fill:none;fill-rule:evenodd;stroke:#000;stroke-width:3px;stroke-linecap:butt;stroke-linejoin:miter;stroke-opacity:1"/><path d="M121.91,51.7438 C123.779,56.2206 125.645,56.2191 127.507,51.7394 C129.37,47.2596 131.236,47.2581 133.105,51.7349 C134.975,56.2117 136.841,56.2102 138.703,51.7304 C140.565,47.2506 142.431,47.2491 144.301,51.7259 C146.17,56.2027 148.036,56.2012 149.899,51.7215 C151.761,47.2417 153.627,47.2402 155.497,51.717 C157.366,56.1938 159.232,56.1923 161.094,51.7125 C162.957,47.2327 164.823,47.2312 166.692,51.708 C168.562,56.1848 170.428,56.1833 172.29,51.7035 C174.153,47.2238 176.019,47.2223 177.888,51.6991 C179.758,56.1758 181.624,56.1744 183.486,51.6946 C185.348,47.2148 187.214,47.2133 189.084,51.6901 C190.953,56.1669 192.819,56.1654 194.682,51.6856 C196.544,47.2059 198.41,47.2044 200.279,51.6811 C202.149,56.1579 204.015,56.1564 205.877,51.6767 C207.74,47.1969 209.606,47.1954 211.475,51.6722" style="fill:none;stroke:#7f7f7f;stroke-width:3px;stroke-linecap:butt;stroke-linejoin:miter;stroke-opacity:1"/><text x="166.764" y="147.274" dominant-baseline="central" text-anchor="middle" style="font-size:40px;font-style:normal;font-weight:700;fill-opacity:1;stroke:none;font-family:sans-serif;fill:#000"><tspan>B</tspan></text><text x="89.236" y="192.11" dominant-baseline="central" text-anchor="middle" style="font-size:40px;font-style:normal;font-weight:700;fill-opacity:1;stroke:none;font-family:sans-serif;fill:red"><tspan>O</tspan></text></svg>