<svg height="256" viewBox="0 0 256 256" width="256" xmlns="http://www.w3.org/2000/svg"><path d="m0 0h256v256h-256z" fill="#fff"/><path d="m150.1 72.2.1 42.9" fill="none" stroke="#000" stroke-width="2"/><path d="m138.6 133.5-24 13.8" fill="none" stroke="#000" stroke-width="2"/><path d="m91.3 147.4-24-13.9" fill="none" stroke="#000" stroke-width="2"/><path d="m161.8 133.4 24 13.9" fill="none" stroke="#000" stroke-width="2"/><path d="m122.866 72.203c.002 2.046 2.73 2.043 2.728-.002-.001-2.046 2.727-2.049 2.728-.003.002 2.046 2.73 2.044 2.728-.002-.001-2.046 2.727-2.048 2.728-.002.002 2.046 2.73 2.044 2.728-.002-.001-2.046 2.727-2.048 2.729-.002.001 2.046 2.729 2.043 2.728-.003-.002-2.045 2.726-2.048 2.728-.002.001 2.046 2.729 2.044 2.728-.002-.002-2.046 2.726-2.048 2.728-.002.001 2.046 2.729 2.044 2.728-.002-.002-2.046 2.726-2.048 2.728-.002.001 2.045 2.729 2.043 2.728-.003-.002-2.046 2.726-2.048 2.728-.002.001 2.046 2.729 2.044 2.728-.002-.002-2.046 2.726-2.048 2.728-.002.001 2.046 2.73 2.044 2.728-.002s2.726-2.048 2.728-.003c.002 2.046 2.73 2.044 2.728-.002s2.726-2.048 2.728-.002" fill="none" stroke="#7f7f7f" stroke-width="2"/><g font-family="sans-serif"><text font-size="32" x="140.4" y="143.1">B</text><text font-size="32" x="93.1" y="170.4">O</text><text font-size="32" x="12.8" y="143.2">H</text><text font-size="21" x="35.4" y="156.3">3</text><text font-size="32" x="45.9" y="143.2">C</text><text font-size="32" x="187.6" y="170.3">C</text><text font-size="32" x="210.2" y="170.3">H</text><text font-size="21" x="232.8" y="183.4">3</text></g></svg>