<svg height="256" viewBox="0 0 256 256" width="256" xmlns="http://www.w3.org/2000/svg"><path d="m0 0h256v256h-256z" fill="#fff"/><path d="m41.9 181.8 63.4-36.3" fill="none" stroke="#000" stroke-width="2"/><path d="m120.3 121.9.2-52.2" fill="none" stroke="#000" stroke-width="2"/><path d="m135.2 145.6 48.1 28" fill="none" stroke="#000" stroke-width="2"/><path d="m64.337 220.923c2.937-1.681.695-5.597-2.242-3.916s-5.179-2.235-2.242-3.916c2.937-1.682.695-5.598-2.242-3.916-2.937 1.681-5.179-2.235-2.242-3.916 2.937-1.682.695-5.598-2.242-3.917-2.937 1.682-5.179-2.234-2.242-3.916 2.937-1.681.695-5.597-2.242-3.916-2.937 1.682-5.179-2.235-2.242-3.916s.696-5.597-2.241-3.916-5.179-2.235-2.242-3.916c2.937-1.682.695-5.598-2.242-3.916-2.937 1.681-5.179-2.235-2.242-3.916 2.937-1.682.695-5.598-2.242-3.917-2.937 1.682-5.179-2.234-2.242-3.916 2.937-1.681.695-5.597-2.242-3.916-2.937 1.682-5.179-2.235-2.242-3.916s.695-5.597-2.242-3.916-5.179-2.235-2.242-3.916c2.937-1.682.695-5.598-2.242-3.916-2.937 1.681-5.178-2.235-2.242-3.917" fill="none" stroke="#7f7f7f" stroke-width="2"/><g font-family="sans-serif" font-size="40"><text x="108.2" y="156.9">B</text><text x="108.6" y="66.7">O</text><text x="136.2" y="66.7">H</text><text x="186.2" y="202.3">O</text><text x="213.8" y="202.3">H</text></g></svg>