<svg height="256" viewBox="0 0 256 256" width="256" xmlns="http://www.w3.org/2000/svg"><path d="m0 0h256v256h-256z" fill="#fff"/><g fill="none" stroke-width="2"><path d="m126.8 87.1v35.6" stroke="#000"/><path d="m136.4 137.9 19.9 11.5" stroke="#000"/><path d="m175.6 149.4 19.9-11.5" stroke="#000"/><path d="m117.1 137.9-19.9 11.5" stroke="#000"/><path d="m77.9 149.3-19.9-11.5" stroke="#000"/><path d="m104.188 87.038c-.001 1.698 2.262 1.699 2.263.002.002-1.697 2.265-1.696 2.264.002-.002 1.697 2.262 1.699 2.263.002.001-1.698 2.265-1.696 2.263.001-.001 1.698 2.262 1.7 2.264.002.001-1.697 2.264-1.695 2.263.002s2.262 1.699 2.263.002c.002-1.698 2.265-1.696 2.264.002-.002 1.697 2.261 1.699 2.263.001.001-1.697 2.264-1.695 2.263.002-.001 1.698 2.262 1.699 2.263.002.002-1.697 2.265-1.696 2.264.002-.002 1.697 2.262 1.699 2.263.002.001-1.698 2.265-1.696 2.263.001-.001 1.698 2.262 1.7 2.264.002.001-1.697 2.264-1.695 2.263.002-.002 1.698 2.262 1.699 2.263.002.001-1.698 2.265-1.696 2.263.002-.001 1.697 2.262 1.699 2.264.002.001-1.698 2.264-1.696 2.263.001" stroke="#7f7f7f"/></g><g font-family="sans-serif"><g font-size="27"><text x="118.6" y="145.9">B</text><text x="157.8" y="168.6">O</text><text x="197" y="146">C</text><text x="215.8" y="146">H</text></g><text font-size="17" x="234.5" y="156.8">3</text><text font-size="27" x="79.4" y="168.5">O</text><text font-size="27" x="12.8" y="145.8">H</text><text font-size="17" x="31.5" y="156.7">3</text><text font-size="27" x="40.2" y="145.8">C</text></g></svg>