<svg xmlns="http://www.w3.org/2000/svg" xmlns:rdkit="http://www.rdkit.org/xml" xmlns:xlink="http://www.w3.org/1999/xlink" width="256" height="256" baseProfile="full" version="1.1" viewBox="0 0 256 256" xml:space="preserve"><rect style="opacity:1;fill:#fff;stroke:none" width="256" height="256" x="0" y="0"/><path d="M 128.054,69.1934 L 128.034,94.3876" class="bond-0" style="fill:none;fill-rule:evenodd;stroke:#7f7f7f;stroke-width:2px;stroke-linecap:butt;stroke-linejoin:miter;stroke-opacity:1"/><path d="M 128.034,94.3876 L 128.013,119.582" class="bond-0" style="fill:none;fill-rule:evenodd;stroke:#000;stroke-width:2px;stroke-linecap:butt;stroke-linejoin:miter;stroke-opacity:1"/><path d="M 141.449,144.156 L 155.958,152.547" class="bond-1" style="fill:none;fill-rule:evenodd;stroke:#000;stroke-width:2px;stroke-linecap:butt;stroke-linejoin:miter;stroke-opacity:1"/><path d="M 155.958,152.547 L 170.468,160.938" class="bond-1" style="fill:none;fill-rule:evenodd;stroke:red;stroke-width:2px;stroke-linecap:butt;stroke-linejoin:miter;stroke-opacity:1"/><path d="M 114.551,144.13 L 100.015,152.509" class="bond-3" style="fill:none;fill-rule:evenodd;stroke:#000;stroke-width:2px;stroke-linecap:butt;stroke-linejoin:miter;stroke-opacity:1"/><path d="M 100.015,152.509 L 85.4785,160.888" class="bond-3" style="fill:none;fill-rule:evenodd;stroke:red;stroke-width:2px;stroke-linecap:butt;stroke-linejoin:miter;stroke-opacity:1"/><path d="M 201.842,160.972 L 223.103,148.722" class="bond-2" style="fill:none;fill-rule:evenodd;stroke:red;stroke-width:2px;stroke-linecap:butt;stroke-linejoin:miter;stroke-opacity:1"/><path d="M 223.103,148.722 L 244.364,136.472" class="bond-2" style="fill:none;fill-rule:evenodd;stroke:#000;stroke-width:2px;stroke-linecap:butt;stroke-linejoin:miter;stroke-opacity:1"/><path d="M 54.1042,160.854 L 32.8703,148.569" class="bond-4" style="fill:none;fill-rule:evenodd;stroke:red;stroke-width:2px;stroke-linecap:butt;stroke-linejoin:miter;stroke-opacity:1"/><path d="M 32.8703,148.569 L 11.6364,136.284" class="bond-4" style="fill:none;fill-rule:evenodd;stroke:#000;stroke-width:2px;stroke-linecap:butt;stroke-linejoin:miter;stroke-opacity:1"/><path d="M94.4615,69.1665 C95.8585,72.5268 97.2582,72.528 98.6605,69.1698 C100.063,65.8117 101.463,65.8129 102.86,69.1732 C104.257,72.5336 105.656,72.5347 107.059,69.1766 C108.461,65.8185 109.861,65.8196 111.258,69.1799 C112.655,72.5403 114.054,72.5414 115.457,69.1833 C116.859,65.8252 118.259,65.8263 119.656,69.1866 C121.053,72.547 122.452,72.5481 123.855,69.19 C125.257,65.8319 126.657,65.833 128.054,69.1934 C129.451,72.5537 130.85,72.5548 132.253,69.1967 C133.655,65.8386 135.055,65.8397 136.452,69.2001 C137.849,72.5604 139.248,72.5615 140.651,69.2034 C142.053,65.8453 143.453,65.8465 144.85,69.2068 C146.247,72.5671 147.647,72.5683 149.049,69.2102 C150.451,65.8521 151.851,65.8532 153.248,69.2135 C154.645,72.5739 156.045,72.575 157.447,69.2169 C158.849,65.8588 160.249,65.8599 161.646,69.2202" style="fill:none;stroke:#7f7f7f;stroke-width:2px;stroke-linecap:butt;stroke-linejoin:miter;stroke-opacity:1"/><text x="128" y="141.417" dominant-baseline="central" text-anchor="middle" style="font-size:33px;font-style:normal;font-weight:700;fill-opacity:1;stroke:none;font-family:sans-serif;fill:#000"><tspan>B</tspan></text><text x="186.155" y="175.049" dominant-baseline="central" text-anchor="middle" style="font-size:33px;font-style:normal;font-weight:700;fill-opacity:1;stroke:none;font-family:sans-serif;fill:red"><tspan>O</tspan></text><text x="69.791" y="174.969" dominant-baseline="central" text-anchor="middle" style="font-size:33px;font-style:normal;font-weight:700;fill-opacity:1;stroke:none;font-family:sans-serif;fill:red"><tspan>O</tspan></text></svg>