<svg height="256" viewBox="0 0 256 256" width="256" xmlns="http://www.w3.org/2000/svg"><path d="m0 0h256v256h-256z" fill="#fff"/><g fill="none" stroke-width="2"><g stroke="#000"><path d="m25.5 126.1 44.3 25.5"/><path d="m69.8 151.6 44.1-25.6"/><path d="m69.7 142.8 40.4-23.4"/><path d="m113.9 126 44.2 25.5"/><path d="m158.1 151.5 33.3-19.2"/><path d="m158.1 142.7 29.5-17.1"/><path d="m67.5 150.3 2.3 1.3 2.2-1.3" stroke-miterlimit="10"/><path d="m111.7 127.3 2.2-1.3 2.2 1.3" stroke-miterlimit="10"/><path d="m155.9 150.3 2.2 1.2 1.7-.9" stroke-miterlimit="10"/></g><path d="m12.8 148.225c1.658.956 2.932-1.255 1.274-2.211-1.658-.955-.384-3.166 1.274-2.21 1.658.955 2.932-1.256 1.274-2.211-1.659-.956-.385-3.166 1.273-2.211 1.659.955 2.932-1.256 1.274-2.211s-.384-3.166 1.274-2.211c1.658.956 2.932-1.255 1.274-2.211-1.658-.955-.384-3.166 1.274-2.211 1.658.956 2.932-1.255 1.274-2.21-1.659-.956-.385-3.167 1.273-2.211 1.659.955 2.932-1.256 1.274-2.211s-.384-3.166 1.274-2.211 2.932-1.255 1.274-2.211c-1.658-.955-.384-3.166 1.274-2.211 1.658.956 2.932-1.255 1.274-2.21-1.658-.956-.385-3.167 1.273-2.211 1.659.955 2.932-1.256 1.274-2.211s-.384-3.166 1.274-2.211 2.932-1.255 1.274-2.211c-1.658-.955-.384-3.166 1.274-2.211" stroke="#7f7f7f"/></g><g font-family="sans-serif"><text font-size="30" x="191.2" y="138">C</text><text font-size="30" x="212.3" y="138">H</text><text font-size="20" x="233.5" y="150.2">2</text></g></svg>