<svg height="256" viewBox="0 0 256 256" width="256" xmlns="http://www.w3.org/2000/svg"><path d="m0 0h256v256h-256z" fill="#fff"/><g fill="none" stroke-width="2"><path d="m233.5 123.5-32.1 18.6" stroke="#000"/><path d="m201.4 142.1-32.2-18.5" stroke="#000"/><path d="m201.4 135.7-29.4-16.9" stroke="#000"/><path d="m169.2 123.6-32.1 18.6" stroke="#000"/><path d="m137.1 142.2-32.2-18.6" stroke="#000"/><path d="m137.1 135.8-29.4-17" stroke="#000"/><path d="m104.9 123.6-32.1 18.6" stroke="#000"/><path d="m72.8 142.2-24.3-14" stroke="#000"/><path d="m72.8 135.8-21.5-12.4" stroke="#000"/><path d="m203 141.2-1.6.9-1.6-.9" stroke="#000" stroke-miterlimit="10"/><path d="m170.8 124.5-1.6-.9-1.6.9" stroke="#000" stroke-miterlimit="10"/><path d="m138.7 141.3-1.6.9-1.6-.9" stroke="#000" stroke-miterlimit="10"/><path d="m106.5 124.6-1.6-1-1.6 1" stroke="#000" stroke-miterlimit="10"/><path d="m74.4 141.3-1.6.9-1.3-.7" stroke="#000" stroke-miterlimit="10"/><path d="m224.208 107.47c-1.205.697-.276 2.304.929 1.606 1.205-.697 2.135.91.93 1.607s-.275 2.304.93 1.607 2.134.91.929 1.607-.275 2.304.93 1.607c1.205-.698 2.134.909.929 1.606s-.275 2.304.93 1.607 2.135.91.93 1.607-.276 2.304.929 1.607c1.205-.698 2.135.909.93 1.606-1.205.698-.276 2.304.929 1.607 1.206-.697 2.135.91.93 1.607s-.275 2.304.93 1.607 2.134.909.929 1.606c-1.205.698-.275 2.304.93 1.607s2.135.91.93 1.607c-1.206.697-.276 2.304.929 1.607s2.135.909.93 1.607c-1.205.697-.276 2.304.929 1.606 1.205-.697 2.135.91.93 1.607" stroke="#7f7f7f"/></g><text font-family="sans-serif" font-size="22" x="12.8" y="132.4">H</text><text font-family="sans-serif" font-size="14" x="28.2" y="141.3">2</text><text font-family="sans-serif" font-size="22" x="35.3" y="132.4">C</text><text fill="#7f7fff" font-family="sans-serif" font-size="11" x="105.8" y="148.1">(</text><text fill="#7f7fff" font-family="sans-serif" font-size="11" x="109.6" y="148.1">E</text><text fill="#7f7fff" font-family="sans-serif" font-size="11" x="117.3" y="148.1">)</text></svg>