<svg height="256" viewBox="0 0 256 256" width="256" xmlns="http://www.w3.org/2000/svg"><path d="m0 0h256v256h-256z" fill="#fff"/><g fill="none" stroke-width="2"><g stroke="#000"><path d="m235.5 124.4-25.1 14.6"/><path d="m210.4 139-25.1-14.5"/><path d="m210.4 134-22.9-13.3"/><path d="m185.3 124.5-25.1 14.5"/><path d="m160.2 139-25.2-14.5"/><path d="m160.2 134-23-13.2"/><path d="m135 124.5-25.1 14.6"/><path d="m109.9 139.1-25.1-14.5"/><path d="m109.9 134-23-13.2"/><path d="m84.8 124.6-25.1 14.5"/><path d="m59.7 139.1-19-10.9"/><path d="m59.7 134.1-16.8-9.7"/><path d="m211.7 138.3-1.3.7-1.2-.7" stroke-miterlimit="10"/><path d="m186.5 125.2-1.2-.7-1.3.7" stroke-miterlimit="10"/><path d="m161.4 138.3-1.2.7-1.3-.7" stroke-miterlimit="10"/><path d="m136.3 125.3-1.3-.8-1.2.8" stroke-miterlimit="10"/><path d="m111.2 138.3-1.3.8-1.2-.8" stroke-miterlimit="10"/><path d="m86 125.3-1.2-.7-1.3.7" stroke-miterlimit="10"/><path d="m60.9 138.4-1.2.7-1-.6" stroke-miterlimit="10"/></g><path d="m228.27 111.892c-.942.545-.215 1.801.727 1.256.941-.545 1.668.711.726 1.256s-.215 1.8.727 1.256c.941-.545 1.668.71.726 1.255s-.215 1.801.727 1.256c.941-.545 1.668.711.726 1.256s-.215 1.8.727 1.255c.941-.544 1.668.711.726 1.256s-.215 1.801.727 1.256c.941-.545 1.668.711.726 1.256-.942.544-.215 1.8.727 1.255.941-.545 1.668.711.726 1.256s-.215 1.8.727 1.256c.941-.545 1.668.71.726 1.255s-.215 1.801.727 1.256c.941-.545 1.668.711.726 1.256s-.215 1.8.727 1.255c.941-.544 1.668.711.726 1.256s-.215 1.801.727 1.256c.941-.545 1.668.711.726 1.256" stroke="#7f7f7f"/></g><g font-family="sans-serif"><text font-size="17" x="12.8" y="131.4">H</text><text font-size="11" x="24.8" y="138.4">2</text><text font-size="17" x="30.4" y="131.4">C</text><text fill="#7f7fff" font-size="8" x="135.7" y="143.7">(</text><text fill="#7f7fff" font-size="8" x="138.7" y="143.7">E</text><text fill="#7f7fff" font-size="8" x="144.7" y="143.7">)</text><text fill="#7f7fff" font-size="8" x="85.5" y="143.7">(</text><text fill="#7f7fff" font-size="8" x="88.5" y="143.7">E</text><text fill="#7f7fff" font-size="8" x="94.5" y="143.7">)</text></g></svg>