<svg height="256" viewBox="0 0 256 256" width="256" xmlns="http://www.w3.org/2000/svg"><path d="m0 0h256v256h-256z" fill="#fff"/><g fill="none" stroke-width="2"><g stroke="#000"><path d="m148.2 17.3-9 55.7"/><path d="m139.2 73-50.6 25.1"/><path d="m88.6 98.1-24.1 50.6"/><path d="m64.5 148.7 43.5 43"/><path d="m108 191.7 50.3-24.8"/><path d="m158.3 166.9 24.5-50.8"/><path d="m182.8 116.1 8.3 50.6"/><path d="m191.1 166.7-50.9 25.1"/><path d="m140.2 191.8-44-43.2"/><path d="m140.2 191.8-24.4 51"/><path d="m182.8 116.1-43.6-43.1"/><path d="m96.2 148.6-7.6-50.5"/><path d="m115.8 242.8-7.8-51.1"/><path d="m65.7 146.2-1.2 2.5 2.2 2.2" stroke-miterlimit="10"/><path d="m155.8 168.2 2.5-1.3 1.2-2.5" stroke-miterlimit="10"/><path d="m190.6 164.2.5 2.5-2.6 1.3" stroke-miterlimit="10"/><path d="m98.4 150.8-2.2-2.2-.4-2.5" stroke-miterlimit="10"/><path d="m117 240.3-1.2 2.5-.4-2.6" stroke-miterlimit="10"/></g><path d="m120.316 12.8c-.337 2.087 2.453 2.537 2.79.45s3.127-1.636 2.79.451 2.453 2.537 2.79.45 3.127-1.636 2.79.451 2.453 2.537 2.79.45 3.127-1.637 2.79.45 2.453 2.538 2.79.451c.336-2.087 3.126-1.637 2.79.45-.337 2.087 2.453 2.537 2.789.45.337-2.087 3.127-1.636 2.79.451s2.453 2.537 2.79.45 3.127-1.636 2.79.451 2.453 2.537 2.79.45 3.127-1.637 2.79.45 2.453 2.538 2.79.451 3.127-1.637 2.79.45 2.453 2.537 2.79.45 3.127-1.636 2.79.451 2.453 2.537 2.79.45 3.127-1.636 2.79.451" stroke="#7f7f7f"/></g></svg>