<svg xmlns="http://www.w3.org/2000/svg" xmlns:rdkit="http://www.rdkit.org/xml" xmlns:xlink="http://www.w3.org/1999/xlink" width="256" height="256" baseProfile="full" version="1.1" viewBox="0 0 256 256" xml:space="preserve"><rect style="opacity:1;fill:#fff;stroke:none" width="256" height="256" x="0" y="0"/><path d="M 148.7,16.2 L 144.1,44.4" class="bond-0 atom-0 atom-1" style="fill:none;fill-rule:evenodd;stroke:#191919;stroke-width:2px;stroke-linecap:butt;stroke-linejoin:miter;stroke-opacity:1"/><path d="M 144.1,44.4 L 139.6,72.6" class="bond-0 atom-0 atom-1" style="fill:none;fill-rule:evenodd;stroke:#000;stroke-width:2px;stroke-linecap:butt;stroke-linejoin:miter;stroke-opacity:1"/><path d="M 139.6,72.6 L 88.3,97.9" class="bond-1 atom-1 atom-2" style="fill:none;fill-rule:evenodd;stroke:#000;stroke-width:2px;stroke-linecap:butt;stroke-linejoin:miter;stroke-opacity:1"/><path d="M 88.3,97.9 L 64.0,149.2" class="bond-2 atom-2 atom-3" style="fill:none;fill-rule:evenodd;stroke:#000;stroke-width:2px;stroke-linecap:butt;stroke-linejoin:miter;stroke-opacity:1"/><path d="M 64.0,149.2 L 107.9,192.7" class="bond-3 atom-3 atom-4" style="fill:none;fill-rule:evenodd;stroke:#000;stroke-width:2px;stroke-linecap:butt;stroke-linejoin:miter;stroke-opacity:1"/><path d="M 107.9,192.7 L 158.8,167.6" class="bond-4 atom-4 atom-5" style="fill:none;fill-rule:evenodd;stroke:#000;stroke-width:2px;stroke-linecap:butt;stroke-linejoin:miter;stroke-opacity:1"/><path d="M 158.8,167.6 L 183.6,116.1" class="bond-5 atom-5 atom-6" style="fill:none;fill-rule:evenodd;stroke:#000;stroke-width:2px;stroke-linecap:butt;stroke-linejoin:miter;stroke-opacity:1"/><path d="M 183.6,116.1 L 192.0,167.4" class="bond-6 atom-6 atom-7" style="fill:none;fill-rule:evenodd;stroke:#000;stroke-width:2px;stroke-linecap:butt;stroke-linejoin:miter;stroke-opacity:1"/><path d="M 192.0,167.4 L 140.5,192.8" class="bond-7 atom-7 atom-8" style="fill:none;fill-rule:evenodd;stroke:#000;stroke-width:2px;stroke-linecap:butt;stroke-linejoin:miter;stroke-opacity:1"/><path d="M 140.5,192.8 L 96.0,149.0" class="bond-8 atom-8 atom-9" style="fill:none;fill-rule:evenodd;stroke:#000;stroke-width:2px;stroke-linecap:butt;stroke-linejoin:miter;stroke-opacity:1"/><path d="M 140.5,192.8 L 115.8,244.4" class="bond-9 atom-8 atom-10" style="fill:none;fill-rule:evenodd;stroke:#000;stroke-width:2px;stroke-linecap:butt;stroke-linejoin:miter;stroke-opacity:1"/><path d="M 183.6,116.1 L 139.6,72.6" class="bond-10 atom-6 atom-1" style="fill:none;fill-rule:evenodd;stroke:#000;stroke-width:2px;stroke-linecap:butt;stroke-linejoin:miter;stroke-opacity:1"/><path d="M 96.0,149.0 L 88.3,97.9" class="bond-11 atom-9 atom-2" style="fill:none;fill-rule:evenodd;stroke:#000;stroke-width:2px;stroke-linecap:butt;stroke-linejoin:miter;stroke-opacity:1"/><path d="M 115.8,244.4 L 107.9,192.7" class="bond-12 atom-10 atom-4" style="fill:none;fill-rule:evenodd;stroke:#000;stroke-width:2px;stroke-linecap:butt;stroke-linejoin:miter;stroke-opacity:1"/><path d="M120.427,11.6364 C121.148,14.6493 122.324,14.8391 123.956,12.206 C125.588,9.57287 126.764,9.76275 127.485,12.7756 C128.205,15.7885 129.382,15.9784 131.014,13.3453 C132.646,10.7122 133.822,10.902 134.542,13.9149 C135.263,16.9278 136.439,17.1177 138.071,14.4846 C139.703,11.8514 140.879,12.0413 141.6,15.0542 C142.32,18.0671 143.497,18.257 145.129,15.6239 C146.761,12.9907 147.937,13.1806 148.657,16.1935 C149.378,19.2064 150.554,19.3963 152.186,16.7631 C153.818,14.13 154.994,14.3199 155.715,17.3328 C156.436,20.3457 157.612,20.5356 159.244,17.9024 C160.876,15.2693 162.052,15.4592 162.773,18.4721 C163.493,21.485 164.669,21.6748 166.301,19.0417 C167.933,16.4086 169.11,16.5984 169.83,19.6113 C170.551,22.6242 171.727,22.8141 173.359,20.181 C174.991,17.5478 176.167,17.7377 176.888,20.7506" class="atom-1" style="fill:none;stroke:#7f7f7f;stroke-width:2px;stroke-linecap:butt;stroke-linejoin:miter;stroke-opacity:1"/></svg>