<svg xmlns="http://www.w3.org/2000/svg" xmlns:rdkit="http://www.rdkit.org/xml" xmlns:xlink="http://www.w3.org/1999/xlink" width="256" height="256" baseProfile="full" version="1.1" viewBox="0 0 256 256" xml:space="preserve"><rect style="opacity:1;fill:#fff;stroke:none" width="256" height="256" x="0" y="0"/><path d="M 34.4,70.1 L 65.7,92.9" class="bond-0 atom-0 atom-1" style="fill:none;fill-rule:evenodd;stroke:#191919;stroke-width:2px;stroke-linecap:butt;stroke-linejoin:miter;stroke-opacity:1"/><path d="M 65.7,92.9 L 97.0,115.7" class="bond-0 atom-0 atom-1" style="fill:none;fill-rule:evenodd;stroke:#000;stroke-width:2px;stroke-linecap:butt;stroke-linejoin:miter;stroke-opacity:1"/><path d="M 97.0,115.7 L 97.0,193.2" class="bond-1 atom-1 atom-2" style="fill:none;fill-rule:evenodd;stroke:#000;stroke-width:2px;stroke-linecap:butt;stroke-linejoin:miter;stroke-opacity:1"/><path d="M 97.0,193.2 L 170.6,217.2" class="bond-2 atom-2 atom-3" style="fill:none;fill-rule:evenodd;stroke:#000;stroke-width:2px;stroke-linecap:butt;stroke-linejoin:miter;stroke-opacity:1"/><path d="M 170.6,217.2 L 244.3,193.3" class="bond-3 atom-3 atom-4" style="fill:none;fill-rule:evenodd;stroke:#000;stroke-width:2px;stroke-linecap:butt;stroke-linejoin:miter;stroke-opacity:1"/><path d="M 244.3,193.3 L 244.4,115.9" class="bond-4 atom-4 atom-5" style="fill:none;fill-rule:evenodd;stroke:#000;stroke-width:2px;stroke-linecap:butt;stroke-linejoin:miter;stroke-opacity:1"/><path d="M 244.4,115.9 L 170.7,91.8" class="bond-5 atom-5 atom-6" style="fill:none;fill-rule:evenodd;stroke:#000;stroke-width:2px;stroke-linecap:butt;stroke-linejoin:miter;stroke-opacity:1"/><path d="M 170.7,91.8 L 216.2,154.6" class="bond-6 atom-6 atom-7" style="fill:none;fill-rule:evenodd;stroke:#000;stroke-width:2px;stroke-linecap:butt;stroke-linejoin:miter;stroke-opacity:1"/><path d="M 170.7,91.8 L 97.0,115.7" class="bond-7 atom-6 atom-1" style="fill:none;fill-rule:evenodd;stroke:#000;stroke-width:2px;stroke-linecap:butt;stroke-linejoin:miter;stroke-opacity:1"/><path d="M 216.2,154.6 L 170.6,217.2" class="bond-8 atom-7 atom-3" style="fill:none;fill-rule:evenodd;stroke:#000;stroke-width:2px;stroke-linecap:butt;stroke-linejoin:miter;stroke-opacity:1"/><path d="M11.6364,101.456 C15.7169,102.431 16.6665,101.126 14.485,97.5426 C12.3036,93.9591 13.2531,92.6545 17.3337,93.6288 C21.4142,94.6032 22.3637,93.2986 20.1823,89.7151 C18.0009,86.1316 18.9504,84.827 23.0309,85.8014 C27.1115,86.7757 28.061,85.4711 25.8796,81.8876 C23.6981,78.3041 24.6477,76.9996 28.7282,77.9739 C32.8088,78.9482 33.7583,77.6436 31.5769,74.0601 C29.3954,70.4767 30.345,69.1721 34.4255,70.1464 C38.5061,71.1207 39.4556,69.8162 37.2742,66.2327 C35.0927,62.6492 36.0423,61.3446 40.1228,62.3189 C44.2033,63.2933 45.1529,61.9887 42.9715,58.4052 C40.79,54.8217 41.7396,53.5171 45.8201,54.4915 C49.9006,55.4658 50.8502,54.1612 48.6687,50.5777 C46.4873,46.9942 47.4368,45.6896 51.5174,46.664 C55.5979,47.6383 56.5475,46.3337 54.366,42.7502 C52.1846,39.1667 53.1341,37.8622 57.2147,38.8365" class="atom-1" style="fill:none;stroke:#7f7f7f;stroke-width:2px;stroke-linecap:butt;stroke-linejoin:miter;stroke-opacity:1"/></svg>