<svg height="256" viewBox="0 0 256 256" width="256" xmlns="http://www.w3.org/2000/svg"><path d="m0 0h256v256h-256z" fill="#fff"/><g fill="none" stroke-width="2"><path d="m35.3 70.6 61.9 45.1" stroke="#000"/><path d="m97.2 115.7-.1 76.5" stroke="#000"/><path d="m97.1 192.2 72.8 23.7" stroke="#000"/><path d="m169.9 215.9 72.8-23.6" stroke="#000"/><path d="m242.7 192.3.1-76.5" stroke="#000"/><path d="m242.8 115.8-72.8-23.7" stroke="#000"/><path d="m170 92.1 45 61.9" stroke="#000"/><path d="m170 92.1-72.8 23.6" stroke="#000"/><path d="m215 154-45.1 61.9" stroke="#000"/><path d="m97.1 188.4v3.8l3.7 1.2" stroke="#000" stroke-miterlimit="10"/><path d="m239.1 193.5 3.6-1.2v-3.8" stroke="#000" stroke-miterlimit="10"/><path d="m242.8 119.6v-3.8l-3.6-1.2" stroke="#000" stroke-miterlimit="10"/><path d="m212.7 150.9 2.3 3.1-2.3 3.1" stroke="#000" stroke-miterlimit="10"/><path d="m12.8 101.567c2.321 1.689 4.573-1.405 2.252-3.094-2.32-1.689-.068-4.783 2.252-3.094 2.321 1.689 4.573-1.405 2.253-3.094-2.321-1.69-.069-4.784 2.252-3.095s4.573-1.405 2.252-3.094-.068-4.783 2.252-3.094c2.321 1.689 4.573-1.406 2.253-3.095-2.321-1.689-.069-4.783 2.252-3.094 2.32 1.689 4.573-1.405 2.252-3.094s-.069-4.784 2.252-3.095c2.321 1.69 4.573-1.405 2.252-3.094-2.32-1.689-.068-4.783 2.253-3.094 2.32 1.689 4.572-1.405 2.252-3.094-2.321-1.69-.069-4.784 2.252-3.095s4.573-1.405 2.252-3.094c-2.32-1.689-.068-4.783 2.252-3.094 2.321 1.689 4.573-1.406 2.253-3.095-2.321-1.689-.069-4.783 2.252-3.094 2.32 1.689 4.573-1.405 2.252-3.094s-.068-4.784 2.252-3.095" stroke="#7f7f7f"/></g></svg>