<svg height="256" viewBox="0 0 256 256" width="256" xmlns="http://www.w3.org/2000/svg"><path d="m0 0h256v256h-256z" fill="#fff"/><ellipse cx="163.8" cy="36.4" fill="#ff7f7f" fill-rule="evenodd" rx="19.4" ry="19.4" stroke="#ff7f7f"/><g fill="none" stroke="#000" stroke-width="2"><path d="m12.8 188.5 52.3 38.2"/><path d="m23.2 183.9 43.1 31.5"/><path d="m65.1 226.7 59.3-26.3"/><path d="m124.4 200.4 52.3 38.2"/><path d="m176.7 238.6 59.2-26.2"/><path d="m177.9 227.3 48.8-21.6"/><path d="m235.9 212.4 6.9-64.4"/><path d="m242.8 148-45.3-38.3"/><path d="m232.4 152.1-41.2-34.8"/><path d="m169.9 108.1-38.7 27.9"/><path d="m131.2 136-52.3-38.1"/><path d="m78.9 97.9-59.2 26.2"/><path d="m77.7 109.2-48.8 21.6"/><path d="m78.9 97.9 13.1-40"/><path d="m19.7 124.1-6.9 64.4"/><path d="m131.2 136-6.8 64.4"/><path d="m120.8 140.7-5.6 53"/><path d="m112.8 36.3 37.2.1"/><path d="m179.2 84.2-8.4-26.2"/><path d="m15.4 190.4-2.6-1.9.3-3.2" stroke-miterlimit="10"/><path d="m62.5 224.8 2.6 1.9 3-1.3" stroke-miterlimit="10"/><path d="m174.1 236.7 2.6 1.9 3-1.3" stroke-miterlimit="10"/><path d="m233 213.7 2.9-1.3.4-3.3" stroke-miterlimit="10"/><path d="m242.5 151.2.3-3.2-2.3-2" stroke-miterlimit="10"/><path d="m22.6 122.8-2.9 1.3-.4 3.2" stroke-miterlimit="10"/></g><text font-family="sans-serif" font-size="38" x="172" y="117.5">N</text><text font-family="sans-serif" font-size="38" x="87.4" y="55.7">O</text><text x="152.1" y="55.9"/></svg>