<svg height="43" viewBox="0 0 48 43" width="48" xmlns="http://www.w3.org/2000/svg"><text font-family="Arial" font-size="200" font-weight="bold" transform="matrix(.05 0 0 .05 9.015 20.272)">S</text><text font-family="Arial" font-size="200" font-weight="bold" transform="matrix(.05 0 0 .05 32.315 20.272)">S</text><text font-family="Arial" font-size="200" font-weight="bold" transform="matrix(.05 0 0 .05 20.665 40.45)">S</text><g transform="matrix(.05 0 0 .05 -246 -338)"><path d="m5400 7221.45v6.93l-6 3.46-140.92-81.36 6-10.39z"/><path d="m5205.46 6994.91-11.41-3.71 57.59-177.25 8.72 12z"/><path d="m5260.36 6825.95-8.72-12h296.72l-8.72 12z"/><path d="m5539.64 6825.95 8.72-12 57.21 176.09-11.41 3.71z"/><path d="m5406 7231.84-6-3.46v-6.93l140.76-81.27 6 10.39z"/><path d="m5700.47 7177.76 8.91-8.03 123.7 137.38-14.75 1.55z"/><path d="m5818.33 7308.66 14.75-1.55-148.36 256.96-6.03-13.55z"/><path d="m5678.69 7550.52 6.03 13.55-192.61-40.94 2.49-11.74z"/><path d="m5394 7231.84 6-3.46 6 3.46v159.78h-12z"/><path d="m5303.94 7511.7 2.5 11.74-191.16 40.63 6.03-13.55z"/><path d="m5121.31 7550.52-6.03 13.55-148.36-256.96 14.75 1.55z"/><path d="m5090.64 7169.7 8.92 8.03-117.89 130.93-14.75-1.55z"/><path d="m5288.72 7193.36a111.283 111.283 0 1 0 222.56 0 111.283 111.283 0 1 0 -222.56 0z" fill="#fa666a"/></g></svg>