<?xml version="1.0" standalone="no" ?>
<!DOCTYPE svg PUBLIC "-//W3C//DTD SVG 1.1//EN" "http://www.w3.org/Graphics/SVG/1.1/DTD/svg11.dtd">
<svg width="48px" height="43px" viewBox="0 0 48 43" style="background-color: #ffffff00" xmlns="http://www.w3.org/2000/svg" xmlns:xlink="http://www.w3.org/1999/xlink" version="1.1" >
<text x="0" y="0" stroke="none" fill="#000000" transform="matrix(0.05 0 0 0.05 9.0152 20.272)" font-style="normal" font-weight="bold" font-size="200px" font-family="Arial" >
S</text>
<text x="0" y="0" stroke="none" fill="#000000" transform="matrix(0.05 0 0 0.05 32.3149 20.272)" font-style="normal" font-weight="bold" font-size="200px" font-family="Arial" >
S</text>
<text x="0" y="0" stroke="none" fill="#000000" transform="matrix(0.05 0 0 0.05 20.665 40.4501)" font-style="normal" font-weight="bold" font-size="200px" font-family="Arial" >
S</text>
<path stroke="none" fill="#000000" transform="matrix(0.05 0 0 0.05 -246 -338)" d="M 5400,7221.45 L 5400,7228.38 L 5394,7231.84 L 5253.08,7150.48 L 5259.08,7140.09 L 5400,7221.45 Z " />
<path stroke="none" fill="#000000" transform="matrix(0.05 0 0 0.05 -246 -338)" d="M 5205.46,6994.91 L 5194.05,6991.2 L 5251.64,6813.95 L 5260.36,6825.95 L 5205.46,6994.91 Z " />
<path stroke="none" fill="#000000" transform="matrix(0.05 0 0 0.05 -246 -338)" d="M 5260.36,6825.95 L 5251.64,6813.95 L 5548.36,6813.95 L 5539.64,6825.95 L 5260.36,6825.95 Z " />
<path stroke="none" fill="#000000" transform="matrix(0.05 0 0 0.05 -246 -338)" d="M 5539.64,6825.95 L 5548.36,6813.95 L 5605.57,6990.04 L 5594.16,6993.75 L 5539.64,6825.95 Z " />
<path stroke="none" fill="#000000" transform="matrix(0.05 0 0 0.05 -246 -338)" d="M 5406,7231.84 L 5400,7228.38 L 5400,7221.45 L 5540.76,7140.18 L 5546.76,7150.57 L 5406,7231.84 Z " />
<path stroke="none" fill="#000000" transform="matrix(0.05 0 0 0.05 -246 -338)" d="M 5700.47,7177.76 L 5709.38,7169.73 L 5833.08,7307.11 L 5818.33,7308.66 L 5700.47,7177.76 Z " />
<path stroke="none" fill="#000000" transform="matrix(0.05 0 0 0.05 -246 -338)" d="M 5818.33,7308.66 L 5833.08,7307.11 L 5684.72,7564.07 L 5678.69,7550.52 L 5818.33,7308.66 Z " />
<path stroke="none" fill="#000000" transform="matrix(0.05 0 0 0.05 -246 -338)" d="M 5678.69,7550.52 L 5684.72,7564.07 L 5492.11,7523.13 L 5494.6,7511.39 L 5678.69,7550.52 Z " />
<path stroke="none" fill="#000000" transform="matrix(0.05 0 0 0.05 -246 -338)" d="M 5394,7231.84 L 5400,7228.38 L 5406,7231.84 L 5406,7391.62 L 5394,7391.62 L 5394,7231.84 Z " />
<path stroke="none" fill="#000000" transform="matrix(0.05 0 0 0.05 -246 -338)" d="M 5303.94,7511.7 L 5306.44,7523.44 L 5115.28,7564.07 L 5121.31,7550.52 L 5303.94,7511.7 Z " />
<path stroke="none" fill="#000000" transform="matrix(0.05 0 0 0.05 -246 -338)" d="M 5121.31,7550.52 L 5115.28,7564.07 L 4966.92,7307.11 L 4981.67,7308.66 L 5121.31,7550.52 Z " />
<path stroke="none" fill="#000000" transform="matrix(0.05 0 0 0.05 -246 -338)" d="M 5090.64,7169.7 L 5099.56,7177.73 L 4981.67,7308.66 L 4966.92,7307.11 L 5090.64,7169.7 Z " />
<path stroke="none" fill="#fa666a" transform="matrix(0.05 0 0 0.05 -246 -338)" d="M 5288.72,7193.36 A 111.283,111.283 0 1 0 5511.28,7193.36 A 111.283,111.283 0 1 0 5288.72,7193.36 Z " />
</svg>
