<svg height="256" viewBox="0 0 256 256" width="256" xmlns="http://www.w3.org/2000/svg"><path d="m0 0h256v256h-256z" fill="#fff"/><ellipse cx="127.8" cy="98" fill="#ff7f7f" fill-rule="evenodd" rx="22.4" ry="22.4" stroke="#ff7f7f"/><g fill="none" stroke="#000" stroke-width="2"><path d="m42.3 94.7-29.5 40.6"/><path d="m12.8 135.3 43.9 60.5"/><path d="m56.7 195.8 56.6-18.4"/><path d="m142.2 177.5 56.6 18.4"/><path d="m198.8 195.9 44-60.4"/><path d="m242.8 135.5-29.4-40.6"/><path d="m71.2 79.6 42.2 13.7"/><path d="m127.8 158.3v-37.8"/><path d="m184.5 79.7-42.2 13.6"/><path d="m14.3 133.3-1.5 2 2.2 3" stroke-miterlimit="10"/><path d="m54.5 192.8 2.2 3 2.8-.9" stroke-miterlimit="10"/><path d="m196 195 2.8.9 2.2-3" stroke-miterlimit="10"/><path d="m240.6 138.5 2.2-3-1.5-2.1" stroke-miterlimit="10"/></g><text x="115.8" y="118"/><text font-family="sans-serif" font-size="40" x="44.8" y="94.9">N</text><text font-family="sans-serif" font-size="40" x="44.8" y="59.7">H</text><text font-family="sans-serif" font-size="26" x="72.4" y="75.7">2</text><text font-family="sans-serif" font-size="40" x="115.8" y="192.7">N</text><text font-family="sans-serif" font-size="40" x="115.8" y="227.9">H</text><text font-family="sans-serif" font-size="40" x="186.9" y="95">N</text><text font-family="sans-serif" font-size="40" x="186.9" y="59.8">H</text><text font-family="sans-serif" font-size="26" x="214.5" y="75.8">2</text></svg>