<svg height="256" viewBox="0 0 256 256" width="256" xmlns="http://www.w3.org/2000/svg"><path d="m0 0h256v256h-256z" fill="#fff"/><ellipse cx="121.1" cy="105.3" fill="#ff7f7f" fill-rule="evenodd" rx="13.3" ry="13.3" stroke="#ff7f7f"/><g fill="none" stroke="#000" stroke-width="2"><path d="m71.9 119.8-9 27.3"/><path d="m64.2 143.2-35 11.2"/><path d="m66.2 149.5-35 11.2"/><path d="m62.9 147.1 35.7 26.2"/><path d="m98.6 173.3 26.5-19.1"/><path d="m144 147.5 34.8.2"/><path d="m178.8 147.7 13.9-42"/><path d="m192.7 105.7-26.3-19.3"/><path d="m191.4 109.6 35-11.2"/><path d="m189.4 103.2 35-11.2"/><path d="m93.1 105.2 18.5.1"/><path d="m131.5 138-5.7-18"/><path d="m147.6 86.2-17.1 12.3"/><path d="m63.4 145.7-.5 1.4 1.8 1.3" stroke-miterlimit="10"/><path d="m96.8 172 1.8 1.3 1.3-1" stroke-miterlimit="10"/><path d="m177 147.7h1.8l.7-2.1" stroke-miterlimit="10"/><path d="m192 107.8.7-2.1-1.3-1" stroke-miterlimit="10"/></g><text x="113.1" y="118.6"/><text font-family="sans-serif" font-size="26" x="68.8" y="118.4">O</text><text font-family="sans-serif" font-size="17" x="87.2" y="107.7">-</text><text font-family="sans-serif" font-size="26" x="12.8" y="173.9">O</text><text font-family="sans-serif" font-size="26" x="126.6" y="160.7">N</text><text font-family="sans-serif" font-size="26" x="126.6" y="184.1">H</text><text font-family="sans-serif" font-size="26" x="149" y="92.7">O</text><text font-family="sans-serif" font-size="17" x="167.4" y="82.1">-</text><text font-family="sans-serif" font-size="26" x="226.9" y="105.5">O</text></svg>