<svg height="51" viewBox="0 0 48 51" width="48" xmlns="http://www.w3.org/2000/svg"><text font-family="Arial" font-size="200" font-weight="bold" transform="matrix(.05 0 0 .05 1.518 20.272)">HN</text><text font-family="Arial" font-size="200" font-weight="bold" transform="matrix(.05 0 0 .05 32.039 20.272)">NH</text><text font-family="Arial" font-size="200" font-weight="bold" transform="matrix(.05 0 0 .05 20.389 40.45)">N</text><text font-family="Arial" font-size="200" font-weight="bold" transform="matrix(.05 0 0 .05 20.389 48.792)">H</text><g transform="matrix(.05 0 0 .05 -246 -338)"><path d="m5400 7221.45v6.93l-6 3.46-130.54-75.37 6-10.39z"/><path d="m5209.18 6983.46-11.41-3.7 53.87-165.81 8.72 12z"/><path d="m5260.36 6825.95-8.72-12h296.72l-8.72 12z"/><path d="m5539.64 6825.95 8.72-12 53.55 164.81-11.41 3.71z"/><path d="m5406 7231.84-6-3.46v-6.93l128.01-73.91 6 10.39z"/><path d="m5735.84 7217.04 8.92-8.02 88.32 98.09-14.75 1.55z"/><path d="m5818.33 7308.66 14.75-1.55-148.36 256.96-6.03-13.55z"/><path d="m5678.69 7550.52 6.03 13.55-191.38-40.68 2.5-11.73z"/><path d="m5394 7231.84 6-3.46 6 3.46v162h-12z"/><path d="m5301.16 7512.29 2.5 11.74-188.38 40.04 6.03-13.55z"/><path d="m5121.31 7550.52-6.03 13.55-148.36-256.96 14.75 1.55z"/><path d="m5055.07 7209.2 8.92 8.03-82.32 91.43-14.75-1.55z"/><path d="m5288.72 7193.36a111.283 111.283 0 1 0 222.56 0 111.283 111.283 0 1 0 -222.56 0z" fill="#fa666a"/></g></svg>