<svg height="256" viewBox="0 0 256 256" width="256" xmlns="http://www.w3.org/2000/svg"><path d="m0 0h256v256h-256z" fill="#fff"/><ellipse cx="123" cy="149.2" fill="#ff7f7f" fill-rule="evenodd" rx="13.6" ry="13.6" stroke="#ff7f7f"/><g fill="none" stroke="#000" stroke-width="2"><path d="m190 119.5-16.3 4.5"/><path d="m146.2 129.3-43.7 1.9"/><path d="m92.7 146.9-.1 20.2"/><path d="m82.8 180.2-33.4 11"/><path d="m80.5 173.2-28.3 9.3"/><path d="m49.4 191.2-26.5-37"/><path d="m22.9 154.2 26.6-36.7"/><path d="m32 154.2 20.3-28"/><path d="m156.6 119.1 1-18.7"/><path d="m148.7 80-20.6-10.8"/><path d="m120 54.2 6-34.9"/><path d="m127.3 55.5 5.1-29.6"/><path d="m126 19.3 44.9-6.5"/><path d="m170.9 12.8 20 40.7"/><path d="m166.6 20.9 15.4 31.1"/><path d="m165.8 143.4 11.2 16.6"/><path d="m174.8 185-8.2 14.2"/><path d="m170.7 219.9 20.5 22.9"/><path d="m176.2 215 16.9 18.9"/><path d="m191.2 242.8 41.5-18.4"/><path d="m232.7 224.4-4.7-45.2"/><path d="m224.8 219.8-3.5-34.5"/><path d="m49.5 117.5 33.4 11"/><path d="m190.9 53.5-22.6 22.2"/><path d="m228 179.2-34.6-7.3"/><path d="m102.4 168 10.8-9.9"/><path d="m119.2 79.3 3.3 60.1"/><path d="m154.7 199.2-22-34.7"/><path d="m51.1 190.6-1.7.6-1.3-1.9" stroke-miterlimit="10"/><path d="m24.2 156.1-1.3-1.9 1.3-1.8" stroke-miterlimit="10"/><path d="m48.2 119.3 1.3-1.8 1.7.5" stroke-miterlimit="10"/><path d="m125.7 21.1.3-1.8 2.3-.3" stroke-miterlimit="10"/><path d="m168.6 13.1 2.3-.3 1 2" stroke-miterlimit="10"/><path d="m189.9 51.5 1 2-1.1 1.1" stroke-miterlimit="10"/><path d="m190.2 241.7 1 1.1 2.1-.9" stroke-miterlimit="10"/><path d="m230.6 225.3 2.1-.9-.2-2.3" stroke-miterlimit="10"/><path d="m228.3 181.5-.3-2.3-1.7-.3" stroke-miterlimit="10"/></g><text x="114.9" y="162.8"/><text font-family="sans-serif" font-size="27" x="191.6" y="130.4">H</text><text font-family="sans-serif" font-size="27" x="147.9" y="142.5">B</text><text font-family="sans-serif" font-size="17" x="166.7" y="131.6">-</text><text font-family="sans-serif" font-size="27" x="84.5" y="145.3">N</text><text font-family="sans-serif" font-size="27" x="84.4" y="190.5">N</text><text font-family="sans-serif" font-size="27" x="150.3" y="98.8">N</text><text font-family="sans-serif" font-size="27" x="110.2" y="77.6">N</text><text font-family="sans-serif" font-size="27" x="175.5" y="183.4">N</text><text font-family="sans-serif" font-size="27" x="152.8" y="222.6">N</text></svg>