<svg height="62" viewBox="0 0 74 62" width="74" xmlns="http://www.w3.org/2000/svg"><text font-family="Helvetica" font-size="200" font-weight="bold" transform="matrix(.05 0 0 .05 20.622 45.399)">P</text><path d="m5233.24 7368.59-6-10.39 155.3-89.66 6 3.46v6.93z" transform="matrix(.05 0 0 .05 -233 -329)"/><text font-family="Helvetica" font-size="200" font-weight="bold" transform="matrix(.05 0 0 .05 33.092 23.799)">P</text><path d="m5394.54 7268.54-6 3.46-6-3.46v-181.51h12z" transform="matrix(.05 0 0 .05 -233 -329)"/><text font-family="Helvetica" font-size="200" font-weight="bold" transform="matrix(.05 0 0 .05 45.563 45.399)">P</text><path d="m5388.54 7278.93v-6.93l6-3.46 148.27 85.6-6 10.39z" transform="matrix(.05 0 0 .05 -233 -329)"/><path d="m5298.25 6955.55-2.87 11.65-206.77-50.99-5.63-13.75z" transform="matrix(.05 0 0 .05 -233 -329)"/><path d="m5485.69 6963.45-3.19-11.56 216.12-59.56-5.65 14.01z" transform="matrix(.05 0 0 .05 -233 -329)"/><text font-family="Arial" font-size="200" transform="matrix(.05 0 0 .05 33.092 9.382)">Ph</text><path d="m5394.54 6879.03h-12v-79.61h12z" transform="matrix(.05 0 0 .05 -233 -329)"/><path d="m5692.97 6906.34 5.65-14.01 164.56 277.7-14.77-1.39z" transform="matrix(.05 0 0 .05 -233 -329)"/><path d="m5848.41 7168.64 14.77 1.39-148.42 168.07-9-7.94z" transform="matrix(.05 0 0 .05 -233 -329)"/><text font-family="Arial" font-size="200" transform="matrix(.05 0 0 .05 45.563 59.782)">Ph</text><path d="m5631.96 7519.03h12v81.39h-12z" transform="matrix(.05 0 0 .05 -233 -329)"/><text font-family="Arial" font-size="200" transform="matrix(.05 0 0 .05 59.472 49.109)">Ph</text><path d="m5718.71 7443.85 3.1-11.59 104 27.86-3.11 11.59z" transform="matrix(.05 0 0 .05 -233 -329)"/><text font-family="Arial" font-size="200" transform="matrix(.05 0 0 .05 2.203 52.582)">Ph</text><path d="m5039.86 7468.65 5.98 10.4-85.34 49.09-5.98-10.4z" transform="matrix(.05 0 0 .05 -233 -329)"/><text font-family="Arial" font-size="200" transform="matrix(.05 0 0 .05 24.517 59.291)">Ph</text><g transform="matrix(.05 0 0 .05 -233 -329)"><path d="m5157.28 7491.83 11.6-3.07 24.72 93.38-11.61 3.07z"/><path d="m5064.47 7320.5-9.08 7.85-137.01-158.42 14.83-1.2z"/><path d="m4933.21 7168.73-14.83 1.2 164.6-267.47 5.63 13.75z"/><path d="m5274.51 7269.33a111.283 111.283 0 1 0 222.57 0 111.283 111.283 0 1 0 -222.57 0z" fill="#fa666a"/></g></svg>