<svg xmlns="http://www.w3.org/2000/svg" xmlns:rdkit="http://www.rdkit.org/xml" xmlns:xlink="http://www.w3.org/1999/xlink" width="256" height="256" baseProfile="full" version="1.1" viewBox="0 0 256 256" xml:space="preserve"><rect style="opacity:1;fill:#fff;stroke:none" width="256" height="256" x="0" y="0"/><path d="M 244.364,105.809 L 190.451,137" class="bond-0" style="fill:none;fill-rule:evenodd;stroke:#7f7f7f;stroke-width:4px;stroke-linecap:butt;stroke-linejoin:miter;stroke-opacity:1"/><path d="M 190.451,137 L 136.537,168.192" class="bond-0" style="fill:none;fill-rule:evenodd;stroke:#000;stroke-width:4px;stroke-linecap:butt;stroke-linejoin:miter;stroke-opacity:1"/><path d="M 142.136,158.479 L 97.513,132.758" class="bond-1" style="fill:none;fill-rule:evenodd;stroke:#000;stroke-width:4px;stroke-linecap:butt;stroke-linejoin:miter;stroke-opacity:1"/><path d="M 97.513,132.758 L 52.8898,107.037" class="bond-1" style="fill:none;fill-rule:evenodd;stroke:red;stroke-width:4px;stroke-linecap:butt;stroke-linejoin:miter;stroke-opacity:1"/><path d="M 130.939,177.905 L 86.3155,152.184" class="bond-1" style="fill:none;fill-rule:evenodd;stroke:#000;stroke-width:4px;stroke-linecap:butt;stroke-linejoin:miter;stroke-opacity:1"/><path d="M 86.3155,152.184 L 41.6924,126.463" class="bond-1" style="fill:none;fill-rule:evenodd;stroke:red;stroke-width:4px;stroke-linecap:butt;stroke-linejoin:miter;stroke-opacity:1"/><path d="M213.173,51.8972 C209.081,57.2626 210.381,59.5089 217.072,58.6361 C223.762,57.7633 225.062,60.0096 220.97,65.375 C216.879,70.7404 218.179,72.9867 224.869,72.114 C231.56,71.2412 232.86,73.4875 228.768,78.8529 C224.677,84.2183 225.976,86.4646 232.667,85.5918 C239.358,84.719 240.657,86.9653 236.566,92.3307 C232.474,97.6961 233.774,99.9424 240.465,99.0696 C247.156,98.1969 248.455,100.443 244.364,105.809 C240.272,111.174 241.572,113.42 248.262,112.547 C254.953,111.675 256.253,113.921 252.161,119.286 C248.07,124.652 249.369,126.898 256.06,126.025 C262.751,125.153 264.051,127.399 259.959,132.764 C255.868,138.13 257.167,140.376 263.858,139.503 C270.549,138.63 271.848,140.877 267.757,146.242 C263.665,151.607 264.965,153.854 271.656,152.981 C278.346,152.108 279.646,154.355 275.555,159.72" style="fill:none;stroke:#7f7f7f;stroke-width:4px;stroke-linecap:butt;stroke-linejoin:miter;stroke-opacity:1"/><text x="43.291" y="111.983" dominant-baseline="central" text-anchor="end" style="font-size:40px;font-style:normal;font-weight:700;fill-opacity:1;stroke:none;font-family:sans-serif;fill:red"><tspan>O</tspan></text></svg>