<svg xmlns="http://www.w3.org/2000/svg" xmlns:rdkit="http://www.rdkit.org/xml" xmlns:xlink="http://www.w3.org/1999/xlink" width="256" height="256" baseProfile="full" version="1.1" viewBox="0 0 256 256" xml:space="preserve"><rect style="opacity:1;fill:#fff;stroke:none" width="256" height="256" x="0" y="0"/><path d="M 11.6364,201.692 L 55.067,176.828" class="bond-0" style="fill:none;fill-rule:evenodd;stroke:#7f7f7f;stroke-width:4px;stroke-linecap:butt;stroke-linejoin:miter;stroke-opacity:1"/><path d="M 55.067,176.828 L 98.4977,151.965" class="bond-0" style="fill:none;fill-rule:evenodd;stroke:#000;stroke-width:4px;stroke-linecap:butt;stroke-linejoin:miter;stroke-opacity:1"/><path d="M 107.506,151.997 L 107.65,111.95" class="bond-1" style="fill:none;fill-rule:evenodd;stroke:#000;stroke-width:4px;stroke-linecap:butt;stroke-linejoin:miter;stroke-opacity:1"/><path d="M 107.65,111.95 L 107.794,71.9036" class="bond-1" style="fill:none;fill-rule:evenodd;stroke:red;stroke-width:4px;stroke-linecap:butt;stroke-linejoin:miter;stroke-opacity:1"/><path d="M 89.4894,151.933 L 89.6335,111.886" class="bond-1" style="fill:none;fill-rule:evenodd;stroke:#000;stroke-width:4px;stroke-linecap:butt;stroke-linejoin:miter;stroke-opacity:1"/><path d="M 89.6335,111.886 L 89.7777,71.8387" class="bond-1" style="fill:none;fill-rule:evenodd;stroke:red;stroke-width:4px;stroke-linecap:butt;stroke-linejoin:miter;stroke-opacity:1"/><path d="M 98.4977,151.965 L 133.081,172.094" class="bond-2" style="fill:none;fill-rule:evenodd;stroke:#000;stroke-width:4px;stroke-linecap:butt;stroke-linejoin:miter;stroke-opacity:1"/><path d="M 133.081,172.094 L 167.664,192.222" class="bond-2" style="fill:none;fill-rule:evenodd;stroke:#00f;stroke-width:4px;stroke-linecap:butt;stroke-linejoin:miter;stroke-opacity:1"/><path d="M36.5011,245.125 C39.8083,240.828 38.7723,239.019 33.393,239.696 C28.0136,240.372 26.9776,238.563 30.2849,234.266 C33.5922,229.97 32.5561,228.16 27.1768,228.837 C21.7975,229.514 20.7614,227.704 24.0687,223.408 C27.376,219.112 26.34,217.302 20.9606,217.979 C15.5813,218.656 14.5453,216.846 17.8525,212.55 C21.1598,208.254 20.1238,206.444 14.7445,207.121 C9.36511,207.797 8.32908,205.988 11.6364,201.692 C14.9436,197.395 13.9076,195.586 8.52828,196.262 C3.14893,196.939 2.1129,195.129 5.42019,190.833 C8.72747,186.537 7.69145,184.727 2.3121,185.404 C-3.06724,186.081 -4.10327,184.271 -0.795985,179.975 C2.5113,175.679 1.47527,173.869 -3.90407,174.546 C-9.28341,175.223 -10.3194,173.413 -7.01216,169.117 C-3.70487,164.82 -4.7409,163.011 -10.1202,163.688 C-15.4996,164.364 -16.5356,162.555 -13.2283,158.258" style="fill:none;stroke:#7f7f7f;stroke-width:4px;stroke-linecap:butt;stroke-linejoin:miter;stroke-opacity:1"/><text x="84.179" y="57.871" dominant-baseline="central" text-anchor="start" style="font-size:40px;font-style:normal;font-weight:700;fill-opacity:1;stroke:none;font-family:sans-serif;fill:red"><tspan>O</tspan></text><text x="172.064" y="208.912" dominant-baseline="central" text-anchor="start" style="font-size:40px;font-style:normal;font-weight:700;fill-opacity:1;stroke:none;font-family:sans-serif;fill:#00f"><tspan>NH</tspan><tspan style="baseline-shift:sub;font-size:30px">2</tspan></text></svg>