<svg height="256" viewBox="0 0 256 256" width="256" xmlns="http://www.w3.org/2000/svg"><path d="m0 0h256v256h-256z" fill="#fff"/><g fill="none" stroke-width="2"><g stroke="#000"><path d="m25.4 156.4 43.9-25.2"/><path d="m73.1 133.4.1-35.9"/><path d="m65.5 133.4.1-36"/><path d="m69.3 131.2 33 19.1"/><path d="m123.9 150.4 33.1-19"/><path d="m160.8 133.6v-36"/><path d="m153.2 133.6v-36"/><path d="m157 131.4 33 19.1"/><path d="m67.1 132.5 2.2-1.3 1.6 1" stroke-miterlimit="10"/><path d="m155.3 132.3 1.7-.9 1.6.9" stroke-miterlimit="10"/></g><path d="m38.013 178.37c1.645-.945.385-3.139-1.261-2.194-1.646.946-2.906-1.249-1.261-2.194 1.646-.946.386-3.14-1.26-2.195-1.646.946-2.907-1.248-1.261-2.194 1.646-.945.385-3.14-1.26-2.194-1.646.945-2.907-1.249-1.261-2.195 1.646-.945.385-3.139-1.261-2.194-1.645.945-2.906-1.249-1.26-2.194 1.645-.946.385-3.14-1.261-2.195-1.646.946-2.906-1.249-1.261-2.194 1.646-.945.385-3.14-1.26-2.194-1.646.945-2.907-1.249-1.261-2.195 1.646-.945.385-3.139-1.261-2.194-1.645.945-2.906-1.249-1.26-2.194 1.646-.946.385-3.14-1.261-2.195-1.646.946-2.906-1.249-1.26-2.194 1.645-.946.385-3.14-1.261-2.194-1.646.945-2.906-1.249-1.261-2.195 1.646-.945.385-3.14-1.26-2.194-1.646.945-2.907-1.249-1.261-2.194" stroke="#7f7f7f"/></g><g font-family="sans-serif"><text font-size="30" x="60.3" y="95.8">O</text><text font-size="30" x="104" y="171.8">O</text><text font-size="30" x="148" y="96">O</text><text font-size="30" x="191.6" y="172">C</text><text font-size="30" x="212.6" y="172">H</text><text font-size="20" x="233.5" y="184.1">3</text></g></svg>