<svg height="256" viewBox="0 0 256 256" width="256" xmlns="http://www.w3.org/2000/svg"><path d="m0 0h256v256h-256z" fill="#fff"/><g fill="none" stroke-width="2"><g stroke="#000"><path d="m230 137.6-33.4 19.2"/><path d="m174.9 156.8-33.4-19.3"/><path d="m145.3 139.7.1-36.3"/><path d="m137.7 139.7v-36.3"/><path d="m141.5 137.5-33.4 19.2"/><path d="m86.3 156.7-22.4-13"/><path d="m143.2 138.5-1.7-1-1.7 1" stroke-miterlimit="10"/></g><path d="m217.282 115.424c-1.661.957-.385 3.171 1.276 2.214s2.937 1.258 1.276 2.214c-1.661.957-.385 3.172 1.276 2.215 1.66-.957 2.936 1.257 1.276 2.214-1.661.957-.385 3.172 1.275 2.215 1.661-.957 2.937 1.257 1.276 2.214-1.66.957-.385 3.172 1.276 2.215s2.937 1.257 1.276 2.214-.385 3.171 1.276 2.214c1.661-.956 2.937 1.258 1.276 2.215s-.385 3.171 1.276 2.214 2.937 1.258 1.276 2.215-.385 3.171 1.276 2.214c1.66-.957 2.936 1.258 1.276 2.215-1.661.957-.385 3.171 1.275 2.214 1.661-.957 2.937 1.258 1.276 2.214-1.66.957-.385 3.172 1.276 2.215s2.937 1.257 1.276 2.214-.385 3.172 1.276 2.215 2.937 1.257 1.276 2.214" stroke="#7f7f7f"/></g><g font-family="sans-serif"><text font-size="30" x="176.6" y="178.4">O</text><text font-size="30" x="132.4" y="101.7">O</text><text font-size="30" x="88" y="178.4">O</text><text font-size="30" x="12.8" y="152.8">H</text><text font-size="20" x="34" y="165">3</text><text font-size="30" x="43.8" y="152.8">C</text></g></svg>