<svg height="256" viewBox="0 0 256 256" width="256" xmlns="http://www.w3.org/2000/svg"><path d="m0 0h256v256h-256z" fill="#fff"/><g fill="none" stroke-width="2"><path d="m47.2 204.7 61.9-35.5" stroke="#000"/><path d="m103.7 169.2.2-49" stroke="#000"/><path d="m114.4 169.2.2-49" stroke="#000"/><path d="m104 83.5.2-34.7" stroke="#000"/><path d="m114.8 83.5.1-34.6" stroke="#000"/><path d="m109.1 169.2 47.3 27.6" stroke="#000"/><path d="m64.892 235.633c2.323-1.33.55-4.426-1.772-3.097-2.323 1.33-4.095-1.767-1.773-3.096 2.322-1.33.55-4.426-1.773-3.097-2.322 1.33-4.095-1.767-1.772-3.096 2.322-1.33.549-4.426-1.773-3.097-2.323 1.33-4.095-1.767-1.773-3.096 2.322-1.33.55-4.427-1.773-3.097-2.322 1.329-4.095-1.767-1.772-3.097 2.322-1.329.549-4.426-1.773-3.096-2.323 1.329-4.095-1.767-1.773-3.097 2.322-1.329.55-4.426-1.773-3.096-2.322 1.329-4.095-1.767-1.772-3.097 2.322-1.329.549-4.426-1.773-3.097-2.322 1.33-4.095-1.767-1.773-3.096 2.323-1.33.55-4.426-1.773-3.097-2.322 1.33-4.095-1.767-1.772-3.096 2.322-1.33.549-4.426-1.773-3.097-2.322 1.33-4.095-1.767-1.773-3.096 2.323-1.33.55-4.426-1.773-3.097-2.322 1.33-4.095-1.767-1.772-3.097" stroke="#7f7f7f"/></g><text font-family="sans-serif" font-size="40" x="97.3" y="117.9">C</text><text font-family="sans-serif" font-size="40" x="97.6" y="46.5">O</text><text font-family="sans-serif" font-size="40" x="158.8" y="225.1">C</text><text font-family="sans-serif" font-size="40" x="186.4" y="225.1">H</text><text font-family="sans-serif" font-size="26" x="214" y="241.1">3</text></svg>