<svg height="256" viewBox="0 0 256 256" width="256" xmlns="http://www.w3.org/2000/svg"><path d="m0 0h256v256h-256z" fill="#fff"/><g fill="none" stroke-width="2"><g stroke="#000"><path d="m12.9 117.4 53.1.3"/><path d="m66 117.7 53.2.2"/><path d="m66.1 109.7 53.1.2"/><path d="m66 125.6 53.1.3"/><path d="m119.2 117.9 53.1.2"/><path d="m174.6 122.1 17.6-30.2"/><path d="m167.7 118.1 17.6-30.2"/><path d="m172.3 118.1 19.9 34.8"/><path d="m63.4 117.6 2.6.1h2.7" stroke-miterlimit="10"/><path d="m116.5 117.9h2.7 2.6" stroke-miterlimit="10"/><path d="m169.6 118.1h2.7l1 1.8" stroke-miterlimit="10"/></g><path d="m12.8 143.982c1.992.009 2.004-2.648.012-2.656-1.992-.009-1.981-2.665.011-2.657 1.993.009 2.004-2.647.012-2.656s-1.98-2.665.012-2.656 2.004-2.648.011-2.656c-1.992-.009-1.98-2.665.012-2.657 1.992.009 2.004-2.647.012-2.656s-1.981-2.665.012-2.656c1.992.009 2.003-2.648.011-2.656-1.992-.009-1.98-2.665.012-2.657 1.992.009 2.004-2.647.012-2.656-1.993-.009-1.981-2.665.011-2.656s2.004-2.648.012-2.656c-1.992-.009-1.981-2.665.012-2.657 1.992.009 2.004-2.647.011-2.656-1.992-.009-1.98-2.665.012-2.656s2.004-2.648.012-2.656c-1.992-.009-1.981-2.665.011-2.657 1.993.009 2.004-2.647.012-2.656s-1.98-2.665.012-2.656" stroke="#7f7f7f"/></g><g font-family="sans-serif"><text font-size="31" x="189.5" y="88.2">O</text><text font-size="31" x="189.1" y="180.2">C</text><text font-size="31" x="211.1" y="180.2">H</text><text font-size="21" x="233.1" y="192.9">3</text></g></svg>