<svg height="256" viewBox="0 0 256 256" width="256" xmlns="http://www.w3.org/2000/svg"><path d="m0 0h256v256h-256z" fill="#fff"/><g fill="none" stroke-width="2"><g stroke="#000"><path d="m21.9 156.3 31.6-18.2"/><path d="m53.5 138.1v-36.4"/><path d="m58.9 135 .1-30.1"/><path d="m53.5 101.7 31.6-18.2"/><path d="m85.1 83.5 31.5 18.2"/><path d="m85.1 89.8 26 15.1"/><path d="m116.6 101.7 31.6-18.1"/><path d="m148.2 83.6 31.5 18.2"/><path d="m148.2 89.9 26 15"/><path d="m179.7 101.8 31.6-18.2"/><path d="m211.3 83.6 31.5 18.2"/><path d="m211.3 89.9 26 15.1"/><path d="m242.8 101.8v36.5"/><path d="m242.8 138.3-31.6 18.2"/><path d="m237.3 135.1-26.1 15.1"/><path d="m211.2 156.5-31.5-18.3"/><path d="m179.7 138.2-31.6 18.2"/><path d="m174.2 135.1-26.1 15"/><path d="m148.1 156.4-31.5-18.2"/><path d="m116.6 138.2-31.6 18.2"/><path d="m111.1 135-26.1 15.1"/><path d="m85 156.4-31.5-18.3"/><path d="m116.6 138.2v-36.5"/><path d="m179.7 138.2v-36.4"/><path d="m53.5 103.5v-1.8l1.6-.9" stroke-miterlimit="10"/><path d="m83.5 84.4 1.6-.9 1.5.9" stroke-miterlimit="10"/><path d="m146.6 84.5 1.6-.9 1.5.9" stroke-miterlimit="10"/><path d="m209.7 84.5 1.6-.9 1.5.9" stroke-miterlimit="10"/><path d="m241.2 100.9 1.6.9v1.9" stroke-miterlimit="10"/><path d="m242.8 136.5v1.8l-1.6.9" stroke-miterlimit="10"/><path d="m212.8 155.6-1.6.9-1.6-.9" stroke-miterlimit="10"/><path d="m149.7 155.5-1.6.9-1.6-.9" stroke-miterlimit="10"/><path d="m86.6 155.5-1.6.9-1.6-.9" stroke-miterlimit="10"/></g><path d="m30.989 172.1c1.184-.682.275-2.26-.909-1.578s-2.094-.896-.91-1.578.275-2.261-.909-1.579-2.093-.896-.91-1.578c1.184-.682.275-2.261-.909-1.579s-2.093-.896-.91-1.578c1.184-.682.275-2.261-.909-1.579-1.184.683-2.093-.896-.909-1.578 1.183-.682.274-2.261-.91-1.578-1.184.682-2.093-.897-.909-1.579 1.183-.682.274-2.26-.91-1.578s-2.093-.897-.909-1.579c1.183-.682.274-2.26-.91-1.578s-2.093-.897-.909-1.579.274-2.26-.91-1.578c-1.183.682-2.093-.896-.909-1.578 1.184-.683.274-2.261-.91-1.579-1.183.682-2.093-.896-.909-1.578s.274-2.261-.909-1.579c-1.184.682-2.094-.896-.91-1.578" stroke="#7f7f7f"/></g></svg>