<svg height="256" viewBox="0 0 256 256" width="256" xmlns="http://www.w3.org/2000/svg"><path d="m0 0h256v256h-256z" fill="#fff"/><g fill="none" stroke-width="2"><path d="m221.9 61.2-33.2 41.7" stroke="#000"/><path d="m188.7 102.9 23.2 48.1" stroke="#000"/><path d="m183.1 109.9 19.9 41.1" stroke="#000"/><path d="m211.9 151-23.1 48.1" stroke="#000"/><path d="m188.8 199.1-52.1 11.9" stroke="#000"/><path d="m183.2 192.2-44.5 10.2" stroke="#000"/><path d="m136.7 211-41.7-33.2" stroke="#000"/><path d="m95 177.8-50.8 16.5" stroke="#000"/><path d="m86.9 172-39.6 12.9" stroke="#000"/><path d="m44.2 194.3-31.4-43.1" stroke="#000"/><path d="m12.8 151.2 31.3-43.2" stroke="#000"/><path d="m22.7 151.2 24.5-33.8" stroke="#000"/><path d="m44.1 108 50.8 16.4" stroke="#000"/><path d="m94.9 124.4 41.7-33.3" stroke="#000"/><path d="m102.9 128.3 35.7-28.5" stroke="#000"/><path d="m136.6 91.1 52.1 11.8" stroke="#000"/><path d="m94.9 124.4.1 53.4" stroke="#000"/><path d="m210.7 148.6 1.2 2.4-1.2 2.4" stroke="#000" stroke-miterlimit="10"/><path d="m189.9 196.7-1.1 2.4-2.7.6" stroke="#000" stroke-miterlimit="10"/><path d="m139.3 210.4-2.6.6-2.1-1.6" stroke="#000" stroke-miterlimit="10"/><path d="m46.7 193.5-2.5.8-1.6-2.1" stroke="#000" stroke-miterlimit="10"/><path d="m14.4 153.3-1.6-2.1 1.6-2.2" stroke="#000" stroke-miterlimit="10"/><path d="m42.6 110.1 1.5-2.1 2.6.8" stroke="#000" stroke-miterlimit="10"/><path d="m134.5 92.8 2.1-1.7 2.6.6" stroke="#000" stroke-miterlimit="10"/><path d="m201.039 44.559c-1.247 1.566.841 3.228 2.088 1.662 1.246-1.566 3.334.096 2.088 1.662-1.247 1.566.841 3.229 2.088 1.663 1.246-1.566 3.335.096 2.088 1.662s.841 3.228 2.088 1.662 3.335.096 2.088 1.662.842 3.228 2.088 1.662c1.247-1.566 3.335.096 2.088 1.662-1.246 1.566.842 3.228 2.088 1.662 1.247-1.566 3.335.096 2.088 1.662-1.246 1.566.842 3.229 2.088 1.663 1.247-1.566 3.335.096 2.088 1.662-1.246 1.566.842 3.228 2.089 1.662 1.246-1.566 3.334.096 2.088 1.662-1.247 1.566.841 3.228 2.088 1.662 1.246-1.566 3.334.096 2.088 1.662-1.247 1.566.841 3.228 2.088 1.662 1.246-1.566 3.334.096 2.088 1.662-1.247 1.566.841 3.229 2.088 1.663s3.335.096 2.088 1.662" stroke="#7f7f7f"/></g></svg>