<svg height="256" viewBox="0 0 256 256" width="256" xmlns="http://www.w3.org/2000/svg"><path d="m0 0h256v256h-256z" fill="#fff"/><g fill="none" stroke-width="2"><path d="m150.7 209.2-45.9-26.6" stroke="#000"/><path d="m104.8 182.6-46 26.5" stroke="#000"/><path d="m96.8 178-38 21.9" stroke="#000"/><path d="m58.8 209.1-46-26.6" stroke="#000"/><path d="m12.8 182.5v-53" stroke="#000"/><path d="m20.8 178v-43.9" stroke="#000"/><path d="m12.8 129.5 46-26.6" stroke="#000"/><path d="m58.8 102.9 46 26.6" stroke="#000"/><path d="m58.8 112.1 38 22" stroke="#000"/><path d="m104.8 129.5 46-26.5" stroke="#000"/><path d="m150.8 103v-53.1" stroke="#000"/><path d="m158.8 98.4v-43.9" stroke="#000"/><path d="m150.8 49.9 46-26.5" stroke="#000"/><path d="m196.8 23.4 46 26.6" stroke="#000"/><path d="m196.8 32.6 38 22" stroke="#000"/><path d="m242.8 50v53.1" stroke="#000"/><path d="m242.8 103.1-46 26.5" stroke="#000"/><path d="m234.8 98.5-38 21.9" stroke="#000"/><path d="m104.8 129.5v53.1" stroke="#000"/><path d="m196.8 129.6-46-26.6" stroke="#000"/><path d="m61.1 207.8-2.3 1.3-2.3-1.3" stroke="#000" stroke-miterlimit="10"/><path d="m15.1 183.9-2.3-1.4v-2.6" stroke="#000" stroke-miterlimit="10"/><path d="m12.8 132.1v-2.6l2.3-1.4" stroke="#000" stroke-miterlimit="10"/><path d="m56.5 104.3 2.3-1.4 2.3 1.4" stroke="#000" stroke-miterlimit="10"/><path d="m150.8 52.6v-2.7l2.3-1.3" stroke="#000" stroke-miterlimit="10"/><path d="m194.5 24.7 2.3-1.3 2.3 1.3" stroke="#000" stroke-miterlimit="10"/><path d="m240.5 48.7 2.3 1.3v2.7" stroke="#000" stroke-miterlimit="10"/><path d="m242.8 100.4v2.7l-2.3 1.3" stroke="#000" stroke-miterlimit="10"/><path d="m199.1 128.3-2.3 1.3-2.3-1.3" stroke="#000" stroke-miterlimit="10"/><path d="m164.005 186.221c-1.723-.996-3.052 1.302-1.329 2.299 1.724.996.395 3.294-1.329 2.298-1.723-.997-3.052 1.301-1.329 2.298 1.724.996.395 3.294-1.329 2.298-1.723-.997-3.052 1.301-1.329 2.298 1.724.996.395 3.294-1.329 2.298-1.723-.997-3.052 1.301-1.329 2.298 1.724.996.395 3.294-1.329 2.298-1.723-.997-3.052 1.301-1.329 2.298 1.724.997.395 3.295-1.329 2.298-1.723-.997-3.052 1.301-1.329 2.298 1.724.997.395 3.295-1.329 2.298-1.723-.997-3.052 1.301-1.329 2.298 1.724.997.394 3.295-1.329 2.298-1.724-.997-3.053 1.301-1.329 2.298 1.723.997.394 3.295-1.329 2.298-1.724-.997-3.053 1.301-1.329 2.298 1.723.997.394 3.295-1.329 2.298-1.724-.997-3.053 1.301-1.329 2.298 1.723.997.394 3.295-1.329 2.298" stroke="#7f7f7f"/></g></svg>