<svg height="256" viewBox="0 0 256 256" width="256" xmlns="http://www.w3.org/2000/svg"><path d="m0 0h256v256h-256z" fill="#fff"/><g fill="none" stroke-width="2"><path d="m20.9 177.3 27.7-16.1" stroke="#000"/><path d="m48.6 161.2-.1-32.1" stroke="#000"/><path d="m53.4 158.4-.1-26.5" stroke="#000"/><path d="m48.5 129.1 27.7-16.1" stroke="#000"/><path d="m76.2 113 27.8 15.9" stroke="#000"/><path d="m76.2 118.6 23 13.1" stroke="#000"/><path d="m104 128.9.1 32.1" stroke="#000"/><path d="m104.1 161-27.7 16.1" stroke="#000"/><path d="m99.3 158.2-22.9 13.4" stroke="#000"/><path d="m104.1 161 27.9 15.9" stroke="#000"/><path d="m132 176.9 27.7-16.1" stroke="#000"/><path d="m131.9 171.4 22.9-13.4" stroke="#000"/><path d="m159.7 160.8-.2-32.1" stroke="#000"/><path d="m159.5 128.7-27.8-15.9" stroke="#000"/><path d="m154.7 131.5-23-13.1" stroke="#000"/><path d="m131.7 112.8-.1-32.1" stroke="#000"/><path d="m131.6 80.7 27.7-16.1" stroke="#000"/><path d="m136.4 83.5 22.9-13.3" stroke="#000"/><path d="m159.3 64.6 27.8 15.9" stroke="#000"/><path d="m187.1 80.5.2 32.1" stroke="#000"/><path d="m182.3 83.3.1 26.5" stroke="#000"/><path d="m187.3 112.6 27.8 15.9" stroke="#000"/><path d="m215.1 128.5 27.7-16.1" stroke="#000"/><path d="m215.1 123 22.9-13.4" stroke="#000"/><path d="m242.8 112.4-.1-32.1" stroke="#000"/><path d="m242.7 80.3-27.8-15.9" stroke="#000"/><path d="m237.9 83.1-23-13.1" stroke="#000"/><path d="m76.4 177.1-27.8-15.9" stroke="#000"/><path d="m131.7 112.8-27.7 16.1" stroke="#000"/><path d="m187.3 112.6-27.8 16.1" stroke="#000"/><path d="m214.9 64.4-27.8 16.1" stroke="#000"/><path d="m48.5 130.7v-1.6l1.3-.8" stroke="#000" stroke-miterlimit="10"/><path d="m74.8 113.8 1.4-.8 1.4.8" stroke="#000" stroke-miterlimit="10"/><path d="m77.8 176.3-1.4.8-1.4-.8" stroke="#000" stroke-miterlimit="10"/><path d="m130.6 176.1 1.4.8 1.3-.8" stroke="#000" stroke-miterlimit="10"/><path d="m158.3 161.6 1.4-.8v-1.6" stroke="#000" stroke-miterlimit="10"/><path d="m131.6 82.3v-1.6l1.4-.8" stroke="#000" stroke-miterlimit="10"/><path d="m157.9 65.4 1.4-.8 1.4.8" stroke="#000" stroke-miterlimit="10"/><path d="m213.7 127.7 1.4.8 1.4-.8" stroke="#000" stroke-miterlimit="10"/><path d="m241.4 113.2 1.4-.8v-1.6" stroke="#000" stroke-miterlimit="10"/><path d="m242.7 81.9v-1.6l-1.4-.8" stroke="#000" stroke-miterlimit="10"/><path d="m216.2 65.2-1.3-.8-1.4.8" stroke="#000" stroke-miterlimit="10"/><path d="m28.931 191.192c1.039-.605.233-1.991-.807-1.386-1.039.605-1.845-.781-.806-1.386 1.039-.604.233-1.99-.807-1.385-1.039.605-1.846-.781-.806-1.386 1.039-.605.232-1.991-.807-1.386s-1.846-.781-.806-1.385c1.039-.605.232-1.991-.807-1.386s-1.846-.781-.806-1.386c1.039-.605.232-1.99-.807-1.386-1.039.605-1.846-.78-.807-1.385 1.04-.605.233-1.991-.806-1.386s-1.846-.781-.807-1.386c1.04-.605.233-1.99-.806-1.385s-1.846-.781-.807-1.386c1.04-.605.233-1.991-.806-1.386-1.04.605-1.846-.781-.807-1.386 1.04-.604.233-1.99-.806-1.385-1.04.605-1.846-.781-.807-1.386s.233-1.991-.806-1.386c-1.04.605-1.846-.78-.807-1.385" stroke="#7f7f7f"/></g></svg>