<svg height="256" viewBox="0 0 256 256" width="256" xmlns="http://www.w3.org/2000/svg"><path d="m0 0h256v256h-256z" fill="#fff"/><g fill="none" stroke-width="2"><g stroke="#000"><path d="m232.2 224.4-36.6-21.1"/><path d="m195.6 203.3-36.6 21"/><path d="m189.3 199.6-30.3 17.4"/><path d="m159 224.3-36.5-21.2"/><path d="m122.5 203.1-36.7 21.1"/><path d="m116.1 199.4-30.3 17.4"/><path d="m85.8 224.2-36.5-21.2"/><path d="m49.3 203 .1-42.3"/><path d="m55.6 199.3.1-34.9"/><path d="m49.4 160.7-36.6-21.2"/><path d="m12.8 139.5.1-42.3"/><path d="m19.1 135.9.1-35"/><path d="m12.9 97.2 36.6-21"/><path d="m49.5 76.2.1-42.3"/><path d="m55.9 72.5v-34.9"/><path d="m49.6 33.9 36.7-21"/><path d="m86.3 12.9 36.5 21.2"/><path d="m86.2 20.2 30.3 17.5"/><path d="m122.8 34.1 36.6-21.1"/><path d="m159.4 13 36.6 21.2"/><path d="m159.4 20.3 30.2 17.6"/><path d="m196 34.2-.1 42.3"/><path d="m195.9 76.5 36.6 21.2"/><path d="m195.9 83.8 30.2 17.5"/><path d="m232.5 97.7-.1 42.2"/><path d="m232.4 139.9-36.7 21.1"/><path d="m226 136.3-30.3 17.4"/><path d="m195.7 161-36.5-21.2"/><path d="m159.2 139.8-36.7 21.1"/><path d="m159.2 147.1-30.3 17.4"/><path d="m122.5 160.9-36.5-21.3"/><path d="m86 139.6.1-42.2"/><path d="m79.7 136v-35"/><path d="m86.1 97.4 36.6-21.1"/><path d="m122.7 76.3 36.6 21.2"/><path d="m129.1 72.7 30.2 17.5"/><path d="m195.7 161-.1 42.3"/><path d="m122.5 160.9v42.2"/><path d="m86 139.6-36.6 21.1"/><path d="m86.1 97.4-36.6-21.2"/><path d="m122.7 76.3.1-42.2"/><path d="m159.3 97.5 36.6-21"/><path d="m159.3 97.5-.1 42.3"/><path d="m160.8 223.3-1.8 1-1.8-1.1" stroke-miterlimit="10"/><path d="m87.7 223.1-1.9 1.1-1.8-1.1" stroke-miterlimit="10"/><path d="m51.1 204-1.8-1v-2.2" stroke-miterlimit="10"/><path d="m14.6 140.6-1.8-1.1v-2.1" stroke-miterlimit="10"/><path d="m12.9 99.4v-2.2l1.8-1" stroke-miterlimit="10"/><path d="m49.6 36v-2.1l1.8-1" stroke-miterlimit="10"/><path d="m84.4 13.9 1.9-1 1.8 1" stroke-miterlimit="10"/><path d="m157.6 14.1 1.8-1.1 1.9 1.1" stroke-miterlimit="10"/><path d="m194.2 33.2 1.8 1v2.1" stroke-miterlimit="10"/><path d="m230.6 96.6 1.9 1.1v2.1" stroke-miterlimit="10"/><path d="m232.4 137.8v2.1l-1.9 1.1" stroke-miterlimit="10"/></g><path d="m242.8 206.17c-1.371-.794-2.431 1.033-1.06 1.828s.311 2.623-1.06 1.828-2.431 1.033-1.06 1.828.311 2.623-1.06 1.828c-1.37-.795-2.43 1.033-1.06 1.827 1.371.795.311 2.623-1.059 1.828-1.371-.795-2.431 1.033-1.06 1.828 1.37.795.311 2.623-1.06 1.828s-2.431 1.033-1.06 1.828.311 2.622-1.06 1.827c-1.371-.794-2.431 1.033-1.06 1.828s.311 2.623-1.06 1.828-2.431 1.033-1.06 1.828.311 2.623-1.06 1.828-2.43 1.032-1.06 1.827c1.371.795.311 2.623-1.06 1.828-1.37-.795-2.43 1.033-1.059 1.828 1.37.795.31 2.623-1.06 1.828-1.371-.795-2.431 1.033-1.06 1.828s.311 2.622-1.06 1.827" stroke="#7f7f7f"/></g></svg>