<svg height="256" viewBox="0 0 256 256" width="256" xmlns="http://www.w3.org/2000/svg"><path d="m0 0h256v256h-256z" fill="#fff"/><g fill="none" stroke-width="2"><g stroke="#000"><path d="m41.7 224.5 36.5-21.2"/><path d="m78.2 203.3 36.7 21"/><path d="m85.2 199.2 29.6 17"/><path d="m114.9 224.3 36.5-21.3"/><path d="m151.4 203 36.6 21"/><path d="m158.4 199 29.6 16.9"/><path d="m188 224 36.5-21.2"/><path d="m224.5 202.8-.4-126.8"/><path d="m217.5 198.7-.4-110.5"/><path d="m224.1 76-.2-42.2"/><path d="m223.9 33.8-36.6-21"/><path d="m216.9 37.9-29.6-17"/><path d="m187.3 12.8-36.5 21.3"/><path d="m150.8 34.1.1 42.2"/><path d="m150.9 76.3-36.5 21.3"/><path d="m143.9 72.3-29.5 17.2"/><path d="m114.4 97.6.2 42.2"/><path d="m114.6 139.8 36.6 21"/><path d="m151.2 160.8 36.4-63.5"/><path d="m148.6 151.2 29.4-51.3"/><path d="m114.6 139.8-36.6 21.2"/><path d="m114.6 147.9-29.5 17.2"/><path d="m78 161-36.6-20.9"/><path d="m41.4 140.1-.2-42.3"/><path d="m48.4 136-.2-34.2"/><path d="m41.2 97.8 36.5-21.2"/><path d="m77.7 76.6-.1-42.3"/><path d="m84.7 72.5-.1-34.2"/><path d="m77.6 34.3 36.5-21.2"/><path d="m78 161 .2 42.3"/><path d="m151.2 160.8.2 42.2"/><path d="m187.6 97.3 36.5-21.3"/><path d="m114.1 13.1 36.7 21"/><path d="m114.1 21.1 29.7 17"/><path d="m187.6 97.3-36.7-21"/><path d="m77.7 76.6 36.7 21"/><path d="m113 223.2 1.9 1.1 1.8-1.1" stroke-miterlimit="10"/><path d="m186.2 223 1.8 1 1.9-1" stroke-miterlimit="10"/><path d="m222.7 203.8 1.8-1v-6.4" stroke-miterlimit="10"/><path d="m223.9 35.9v-2.1l-1.8-1.1" stroke-miterlimit="10"/><path d="m189.1 13.8-1.8-1-1.9 1.1" stroke-miterlimit="10"/><path d="m43.2 141.1-1.8-1v-2.2" stroke-miterlimit="10"/><path d="m41.2 99.9v-2.1l1.9-1" stroke-miterlimit="10"/><path d="m77.6 36.4v-2.1l1.8-1" stroke-miterlimit="10"/><path d="m112.3 14.1 1.8-1 1.8 1" stroke-miterlimit="10"/></g><path d="m52.321 242.8c1.513-.881.332-2.909-1.181-2.028s-2.693-1.147-1.181-2.028c1.513-.881.332-2.909-1.181-2.028-1.512.88-2.693-1.148-1.18-2.029 1.512-.881.331-2.909-1.181-2.028-1.513.881-2.694-1.147-1.181-2.028s.332-2.909-1.181-2.028-2.694-1.147-1.181-2.028.332-2.909-1.181-2.028c-1.513.88-2.694-1.148-1.181-2.029 1.513-.88.332-2.909-1.181-2.028s-2.694-1.147-1.181-2.028.332-2.909-1.181-2.028-2.694-1.147-1.181-2.028.332-2.909-1.181-2.028-2.694-1.148-1.181-2.028c1.513-.881.332-2.91-1.181-2.029s-2.693-1.147-1.181-2.028" stroke="#7f7f7f"/></g></svg>