<svg height="256" viewBox="0 0 256 256" width="256" xmlns="http://www.w3.org/2000/svg"><path d="m0 0h256v256h-256z" fill="#fff"/><g fill="none" stroke-width="2"><path d="m16.8 119.1 37.5 8" stroke="#000"/><path d="m54.3 127.1 11.9 36.5" stroke="#000"/><path d="m60.8 128.5 9.8 30.2" stroke="#000"/><path d="m66.2 163.6 37.5 8" stroke="#000"/><path d="m103.7 171.6 25.7-28.5" stroke="#000"/><path d="m101.6 165.3 21.3-23.6" stroke="#000"/><path d="m129.4 143.1h38.3" stroke="#000"/><path d="m167.7 143.1 25.7 28.5" stroke="#000"/><path d="m174.2 141.7 21.3 23.6" stroke="#000"/><path d="m193.4 171.6 37.5-8" stroke="#000"/><path d="m230.9 163.6 11.9-36.5" stroke="#000"/><path d="m226.5 158.7 9.8-30.2" stroke="#000"/><path d="m242.8 127.1-25.7-28.5" stroke="#000"/><path d="m217.1 98.6-37.5 8" stroke="#000"/><path d="m215.1 104.9-31.1 6.6" stroke="#000"/><path d="m179.6 106.6-31-22.6" stroke="#000"/><path d="m148.6 84-31.1 22.6" stroke="#000"/><path d="m117.5 106.6-37.5-8" stroke="#000"/><path d="m113.1 111.5-31.1-6.6" stroke="#000"/><path d="m80 98.6-25.7 28.5" stroke="#000"/><path d="m117.5 106.6 11.9 36.5" stroke="#000"/><path d="m179.6 106.6-11.9 36.5" stroke="#000"/><path d="m65.6 161.8.6 1.8 1.9.4" stroke="#000" stroke-miterlimit="10"/><path d="m101.8 171.2 1.9.4 1.3-1.4" stroke="#000" stroke-miterlimit="10"/><path d="m192.1 170.2 1.3 1.4 1.9-.4" stroke="#000" stroke-miterlimit="10"/><path d="m229.1 164 1.8-.4.6-1.8" stroke="#000" stroke-miterlimit="10"/><path d="m242.2 128.9.6-1.8-1.3-1.4" stroke="#000" stroke-miterlimit="10"/><path d="m218.4 100-1.3-1.4-1.8.4" stroke="#000" stroke-miterlimit="10"/><path d="m150.1 85.1-1.5-1.1-1.6 1.1" stroke="#000" stroke-miterlimit="10"/><path d="m81.9 99-1.9-.4-1.3 1.4" stroke="#000" stroke-miterlimit="10"/><path d="m12.8 137.902c1.407.299 1.806-1.578.399-1.877-1.408-.299-1.009-2.175.398-1.876 1.408.299 1.806-1.578.399-1.877s-1.009-2.175.399-1.876c1.407.299 1.806-1.578.398-1.877-1.407-.299-1.009-2.175.399-1.876 1.407.299 1.806-1.578.399-1.877-1.408-.299-1.009-2.175.398-1.877 1.408.299 1.806-1.577.399-1.876-1.408-.299-1.009-2.176.398-1.877 1.408.299 1.806-1.577.399-1.876s-1.009-2.176.399-1.877c1.407.299 1.806-1.577.398-1.876-1.407-.299-1.008-2.176.399-1.877s1.806-1.577.399-1.876c-1.408-.299-1.009-2.176.398-1.877 1.408.299 1.806-1.578.399-1.876-1.408-.299-1.009-2.176.399-1.877 1.407.299 1.806-1.578.398-1.877-1.407-.299-1.009-2.175.399-1.876" stroke="#7f7f7f"/></g></svg>