<svg xmlns="http://www.w3.org/2000/svg" xmlns:rdkit="http://www.rdkit.org/xml" xmlns:xlink="http://www.w3.org/1999/xlink" width="256" height="256" baseProfile="full" version="1.1" viewBox="0 0 256 256" xml:space="preserve"><rect style="opacity:1;fill:#fff;stroke:none" width="256" height="256" x="0" y="0"/><path d="M 11.6364,184.308 L 35.9894,170.224" class="bond-0" style="fill:none;fill-rule:evenodd;stroke:#7f7f7f;stroke-width:2px;stroke-linecap:butt;stroke-linejoin:miter;stroke-opacity:1"/><path d="M 35.9894,170.224 L 60.3425,156.14" class="bond-0" style="fill:none;fill-rule:evenodd;stroke:#000;stroke-width:2px;stroke-linecap:butt;stroke-linejoin:miter;stroke-opacity:1"/><path d="M 60.3425,156.14 L 60.2975,99.8713" class="bond-1" style="fill:none;fill-rule:evenodd;stroke:#000;stroke-width:2px;stroke-linecap:butt;stroke-linejoin:miter;stroke-opacity:1"/><path d="M 70.4641,147.692 L 70.4326,108.303" class="bond-1" style="fill:none;fill-rule:evenodd;stroke:#000;stroke-width:2px;stroke-linecap:butt;stroke-linejoin:miter;stroke-opacity:1"/><path d="M 60.3425,156.14 L 109.094,184.229" class="bond-9" style="fill:none;fill-rule:evenodd;stroke:#000;stroke-width:2px;stroke-linecap:butt;stroke-linejoin:miter;stroke-opacity:1"/><path d="M 60.2975,99.8713 L 109.004,71.6919" class="bond-2" style="fill:none;fill-rule:evenodd;stroke:#000;stroke-width:2px;stroke-linecap:butt;stroke-linejoin:miter;stroke-opacity:1"/><path d="M 109.004,71.6919 L 157.755,99.7925" class="bond-3" style="fill:none;fill-rule:evenodd;stroke:#000;stroke-width:2px;stroke-linecap:butt;stroke-linejoin:miter;stroke-opacity:1"/><path d="M 111.258,84.682 L 145.384,104.352" class="bond-3" style="fill:none;fill-rule:evenodd;stroke:#000;stroke-width:2px;stroke-linecap:butt;stroke-linejoin:miter;stroke-opacity:1"/><path d="M 157.755,99.7925 L 157.8,156.061" class="bond-4" style="fill:none;fill-rule:evenodd;stroke:#000;stroke-width:2px;stroke-linecap:butt;stroke-linejoin:miter;stroke-opacity:1"/><path d="M 157.755,99.7925 L 211.255,82.3605" class="bond-10" style="fill:none;fill-rule:evenodd;stroke:#000;stroke-width:2px;stroke-linecap:butt;stroke-linejoin:miter;stroke-opacity:1"/><path d="M 157.8,156.061 L 109.094,184.229" class="bond-5" style="fill:none;fill-rule:evenodd;stroke:#000;stroke-width:2px;stroke-linecap:butt;stroke-linejoin:miter;stroke-opacity:1"/><path d="M 145.423,151.519 L 111.329,171.236" class="bond-5" style="fill:none;fill-rule:evenodd;stroke:#000;stroke-width:2px;stroke-linecap:butt;stroke-linejoin:miter;stroke-opacity:1"/><path d="M 157.8,156.061 L 211.323,173.403" class="bond-6" style="fill:none;fill-rule:evenodd;stroke:#000;stroke-width:2px;stroke-linecap:butt;stroke-linejoin:miter;stroke-opacity:1"/><path d="M 211.323,173.403 L 244.364,127.859" class="bond-7" style="fill:none;fill-rule:evenodd;stroke:#000;stroke-width:2px;stroke-linecap:butt;stroke-linejoin:miter;stroke-opacity:1"/><path d="M 244.364,127.859 L 211.255,82.3605" class="bond-8" style="fill:none;fill-rule:evenodd;stroke:#000;stroke-width:2px;stroke-linecap:butt;stroke-linejoin:miter;stroke-opacity:1"/><path d="M 231.208,126.994 L 208.032,95.1447" class="bond-8" style="fill:none;fill-rule:evenodd;stroke:#000;stroke-width:2px;stroke-linecap:butt;stroke-linejoin:miter;stroke-opacity:1"/><path d="M25.7214,208.663 C27.57,206.24 26.9831,205.225 23.9607,205.618 C20.9384,206.012 20.3515,204.997 22.2001,202.574 C24.0487,200.151 23.4618,199.136 20.4395,199.53 C17.4171,199.924 16.8303,198.909 18.6789,196.485 C20.5275,194.062 19.9406,193.047 16.9182,193.441 C13.8959,193.835 13.309,192.82 15.1576,190.397 C17.0062,187.973 16.4193,186.959 13.397,187.352 C10.3746,187.746 9.78776,186.731 11.6364,184.308 C13.485,181.885 12.8981,180.87 9.87574,181.264 C6.85339,181.657 6.26651,180.643 8.11511,178.219 C9.96371,175.796 9.37683,174.781 6.35448,175.175 C3.33213,175.569 2.74526,174.554 4.59386,172.131 C6.44246,169.707 5.85558,168.693 2.83323,169.086 C-0.189118,169.48 -0.775994,168.465 1.07261,166.042 C2.9212,163.619 2.33433,162.604 -0.688021,162.998 C-3.71037,163.391 -4.29725,162.377 -2.44865,159.953" style="fill:none;stroke:#7f7f7f;stroke-width:2px;stroke-linecap:butt;stroke-linejoin:miter;stroke-opacity:1"/></svg>