<svg height="256" viewBox="0 0 256 256" width="256" xmlns="http://www.w3.org/2000/svg"><path d="m0 0h256v256h-256z" fill="#fff"/><g fill="none" stroke-width="2"><g stroke="#000"><path d="m25.9 168.9 45.4-26.2"/><path d="m71.3 142.7v-52.5"/><path d="m79.2 138.1-.1-43.3"/><path d="m71.3 90.2 45.4-26.2"/><path d="m116.7 64 45.4 26.2"/><path d="m116.7 73.1 37.5 21.6"/><path d="m162.1 90.2v52.4"/><path d="m162.1 142.6-45.4 26.3"/><path d="m154.3 138.1-37.6 21.7"/><path d="m162.1 142.6 49.9 16.2"/><path d="m212 158.8 30.8-42.5"/><path d="m242.8 116.3-30.9-42.4"/><path d="m233.1 116.3-24.2-33.1"/><path d="m116.7 168.9-45.4-26.2"/><path d="m211.9 73.9-49.8 16.3"/><path d="m71.3 92.9v-2.7l2.2-1.3" stroke-miterlimit="10"/><path d="m114.4 65.3 2.3-1.3 2.2 1.3" stroke-miterlimit="10"/><path d="m119 167.5-2.3 1.4-2.2-1.4" stroke-miterlimit="10"/><path d="m209.5 158 2.5.8 1.5-2.2" stroke-miterlimit="10"/><path d="m241.3 118.4 1.5-2.1-1.5-2.1" stroke-miterlimit="10"/><path d="m213.5 76-1.6-2.1-2.4.8" stroke-miterlimit="10"/></g><path d="m39.051 191.62c1.702-.984.39-3.254-1.312-2.269-1.703.984-3.015-1.285-1.313-2.27 1.702-.984.39-3.254-1.312-2.269-1.703.984-3.015-1.286-1.313-2.27s.39-3.254-1.313-2.27c-1.702.985-3.014-1.285-1.312-2.269s.389-3.254-1.313-2.27c-1.702.985-3.014-1.285-1.312-2.269 1.702-.985.389-3.254-1.313-2.27-1.702.985-3.015-1.285-1.312-2.269 1.702-.985.389-3.254-1.313-2.27s-3.015-1.285-1.312-2.27c1.702-.984.389-3.254-1.313-2.269-1.702.984-3.015-1.285-1.313-2.27 1.703-.984.39-3.254-1.312-2.269-1.702.984-3.015-1.285-1.313-2.27 1.702-.984.39-3.254-1.312-2.269-1.702.984-3.015-1.286-1.313-2.27s.39-3.254-1.312-2.27c-1.703.985-3.015-1.285-1.313-2.269" stroke="#7f7f7f"/></g></svg>