<svg xmlns="http://www.w3.org/2000/svg" xmlns:rdkit="http://www.rdkit.org/xml" xmlns:xlink="http://www.w3.org/1999/xlink" width="256" height="256" baseProfile="full" version="1.1" viewBox="0 0 256 256" xml:space="preserve"><rect style="opacity:1;fill:#fff;stroke:none" width="256" height="256" x="0" y="0"/><path d="M 186.276,27.2464 L 186.249,60.831" class="bond-0" style="fill:none;fill-rule:evenodd;stroke:#7f7f7f;stroke-width:2px;stroke-linecap:butt;stroke-linejoin:miter;stroke-opacity:1"/><path d="M 186.249,60.831 L 186.222,94.4155" class="bond-0" style="fill:none;fill-rule:evenodd;stroke:#000;stroke-width:2px;stroke-linecap:butt;stroke-linejoin:miter;stroke-opacity:1"/><path d="M 186.222,94.4155 L 128.027,127.946" class="bond-1" style="fill:none;fill-rule:evenodd;stroke:#000;stroke-width:2px;stroke-linecap:butt;stroke-linejoin:miter;stroke-opacity:1"/><path d="M 183.529,109.921 L 142.792,133.393" class="bond-1" style="fill:none;fill-rule:evenodd;stroke:#000;stroke-width:2px;stroke-linecap:butt;stroke-linejoin:miter;stroke-opacity:1"/><path d="M 186.222,94.4155 L 244.364,128.04" class="bond-10" style="fill:none;fill-rule:evenodd;stroke:#000;stroke-width:2px;stroke-linecap:butt;stroke-linejoin:miter;stroke-opacity:1"/><path d="M 128.027,127.946 L 69.8854,94.3214" class="bond-2" style="fill:none;fill-rule:evenodd;stroke:#000;stroke-width:2px;stroke-linecap:butt;stroke-linejoin:miter;stroke-opacity:1"/><path d="M 128.027,127.946 L 127.973,195.115" class="bond-11" style="fill:none;fill-rule:evenodd;stroke:#000;stroke-width:2px;stroke-linecap:butt;stroke-linejoin:miter;stroke-opacity:1"/><path d="M 69.8854,94.3214 L 11.6901,127.866" class="bond-3" style="fill:none;fill-rule:evenodd;stroke:#000;stroke-width:2px;stroke-linecap:butt;stroke-linejoin:miter;stroke-opacity:1"/><path d="M 67.1939,109.828 L 26.4572,133.309" class="bond-3" style="fill:none;fill-rule:evenodd;stroke:#000;stroke-width:2px;stroke-linecap:butt;stroke-linejoin:miter;stroke-opacity:1"/><path d="M 11.6901,127.866 L 11.6364,195.035" class="bond-4" style="fill:none;fill-rule:evenodd;stroke:#000;stroke-width:2px;stroke-linecap:butt;stroke-linejoin:miter;stroke-opacity:1"/><path d="M 11.6364,195.035 L 69.7779,228.66" class="bond-5" style="fill:none;fill-rule:evenodd;stroke:#000;stroke-width:2px;stroke-linecap:butt;stroke-linejoin:miter;stroke-opacity:1"/><path d="M 26.4105,189.612 L 67.1095,213.15" class="bond-5" style="fill:none;fill-rule:evenodd;stroke:#000;stroke-width:2px;stroke-linecap:butt;stroke-linejoin:miter;stroke-opacity:1"/><path d="M 69.7779,228.66 L 127.973,195.115" class="bond-6" style="fill:none;fill-rule:evenodd;stroke:#000;stroke-width:2px;stroke-linecap:butt;stroke-linejoin:miter;stroke-opacity:1"/><path d="M 127.973,195.115 L 186.115,228.754" class="bond-7" style="fill:none;fill-rule:evenodd;stroke:#000;stroke-width:2px;stroke-linecap:butt;stroke-linejoin:miter;stroke-opacity:1"/><path d="M 142.749,189.696 L 183.448,213.243" class="bond-7" style="fill:none;fill-rule:evenodd;stroke:#000;stroke-width:2px;stroke-linecap:butt;stroke-linejoin:miter;stroke-opacity:1"/><path d="M 186.115,228.754 L 244.31,195.209" class="bond-8" style="fill:none;fill-rule:evenodd;stroke:#000;stroke-width:2px;stroke-linecap:butt;stroke-linejoin:miter;stroke-opacity:1"/><path d="M 244.31,195.209 L 244.364,128.04" class="bond-9" style="fill:none;fill-rule:evenodd;stroke:#000;stroke-width:2px;stroke-linecap:butt;stroke-linejoin:miter;stroke-opacity:1"/><path d="M 232.228,185.124 L 232.265,138.106" class="bond-9" style="fill:none;fill-rule:evenodd;stroke:#000;stroke-width:2px;stroke-linecap:butt;stroke-linejoin:miter;stroke-opacity:1"/><path d="M152.691,27.2196 C154.088,30.5791 155.487,30.5803 156.889,27.2229 C158.291,23.8656 159.691,23.8667 161.087,27.2263 C162.484,30.5859 163.883,30.587 165.286,27.2297 C166.688,23.8723 168.087,23.8734 169.484,27.233 C170.88,30.5926 172.28,30.5937 173.682,27.2364 C175.084,23.879 176.483,23.8802 177.88,27.2397 C179.276,30.5993 180.676,30.6004 182.078,27.2431 C183.48,23.8858 184.879,23.8869 186.276,27.2464 C187.673,30.606 189.072,30.6071 190.474,27.2498 C191.876,23.8925 193.275,23.8936 194.672,27.2532 C196.069,30.6127 197.468,30.6139 198.87,27.2565 C200.272,23.8992 201.671,23.9003 203.068,27.2599 C204.465,30.6194 205.864,30.6206 207.266,27.2632 C208.668,23.9059 210.068,23.907 211.464,27.2666 C212.861,30.6262 214.26,30.6273 215.662,27.27 C217.064,23.9126 218.464,23.9137 219.86,27.2733" style="fill:none;stroke:#7f7f7f;stroke-width:2px;stroke-linecap:butt;stroke-linejoin:miter;stroke-opacity:1"/></svg>