<svg height="256" viewBox="0 0 256 256" width="256" xmlns="http://www.w3.org/2000/svg"><path d="m0 0h256v256h-256z" fill="#fff"/><g fill="none" stroke-width="2"><g stroke="#000"><path d="m185.4 28.2-.1 66.4"/><path d="m185.3 94.6-57.5 33.2"/><path d="m185.3 106.1-47.5 27.4"/><path d="m127.8 127.8-57.4-33.3"/><path d="m70.4 94.5-57.5 33.2"/><path d="m70.4 106-47.6 27.4"/><path d="m12.9 127.7-.1 66.4"/><path d="m12.8 194.1 57.5 33.2"/><path d="m22.8 188.3 47.5 27.5"/><path d="m70.3 227.3 57.5-33.2"/><path d="m127.8 194.1 57.4 33.3"/><path d="m137.7 188.4 47.5 27.5"/><path d="m185.2 227.4 57.5-33.2"/><path d="m242.7 194.2.1-66.3"/><path d="m232.8 188.5v-54.9"/><path d="m242.8 127.9-57.5-33.3"/><path d="m127.8 194.1v-66.3"/><path d="m73.2 96.2-2.8-1.7-2.9 1.7" stroke-miterlimit="10"/><path d="m15.7 126-2.8 1.7v3.3" stroke-miterlimit="10"/><path d="m12.8 190.7v3.4l2.9 1.6" stroke-miterlimit="10"/><path d="m67.4 225.6 2.9 1.7 2.8-1.7" stroke-miterlimit="10"/><path d="m182.4 225.7 2.8 1.7 2.9-1.7" stroke-miterlimit="10"/><path d="m239.9 195.9 2.8-1.7v-3.3" stroke-miterlimit="10"/><path d="m242.8 131.2v-3.3l-2.9-1.7" stroke-miterlimit="10"/></g><path d="m152.202 28.214c-.002 2.489 3.317 2.492 3.319.003.002-2.49 3.321-2.487 3.319.002-.002 2.49 3.317 2.492 3.319.003s3.321-2.487 3.319.003c-.002 2.489 3.317 2.491 3.319.002s3.322-2.486 3.32.003 3.317 2.492 3.319.003c.002-2.49 3.321-2.487 3.319.002s3.317 2.492 3.319.003 3.321-2.487 3.319.002c-.002 2.49 3.317 2.492 3.319.003s3.321-2.486 3.319.003 3.317 2.492 3.319.002c.002-2.489 3.321-2.486 3.319.003s3.317 2.492 3.319.003c.002-2.49 3.321-2.487 3.32.002-.002 2.49 3.317 2.492 3.319.003s3.321-2.487 3.319.003c-.002 2.489 3.317 2.492 3.319.002.002-2.489 3.321-2.486 3.319.003" stroke="#7f7f7f"/></g></svg>