<svg height="256" viewBox="0 0 256 256" width="256" xmlns="http://www.w3.org/2000/svg"><path d="m0 0h256v256h-256z" fill="#fff"/><g fill="none" stroke-width="2"><g stroke="#000"><path d="m18.7 146.5 20.4-11.8"/><path d="m39.1 134.7-.1-23.6"/><path d="m42.6 132.6-.1-19.4"/><path d="m39 111.1 20.3-11.8"/><path d="m59.3 99.3 20.4 11.7"/><path d="m59.4 103.4 16.8 9.7"/><path d="m79.7 111 20.4-11.8"/><path d="m100.1 99.2 20.4 11.8"/><path d="m100.1 103.3 16.9 9.7"/><path d="m120.5 111 20.3-11.9"/><path d="m140.8 99.1 20.4 11.8"/><path d="m140.9 103.2 16.8 9.7"/><path d="m161.2 110.9 20.4-11.9"/><path d="m181.6 99 20.4 11.8"/><path d="m181.6 103.1 16.9 9.7"/><path d="m202 110.8 20.3-11.9"/><path d="m222.3 98.9 20.4 11.8"/><path d="m222.4 103 16.8 9.7"/><path d="m242.7 110.7.1 23.5"/><path d="m242.8 134.2-20.3 11.8"/><path d="m239.3 132.2-16.9 9.7"/><path d="m222.5 146-20.4-11.7"/><path d="m202.1 134.3-20.4 11.8"/><path d="m198.5 132.3-16.8 9.7"/><path d="m181.7 146.1-20.4-11.7"/><path d="m161.3 134.4-20.3 11.8"/><path d="m157.8 132.4-16.9 9.7"/><path d="m141 146.2-20.4-11.7"/><path d="m120.6 134.5-20.4 11.8"/><path d="m117 132.4-16.8 9.8"/><path d="m100.2 146.3-20.4-11.7"/><path d="m79.8 134.6-20.3 11.8"/><path d="m76.3 132.5-16.9 9.8"/><path d="m59.5 146.4-20.4-11.7"/><path d="m79.8 134.6-.1-23.6"/><path d="m120.6 134.5-.1-23.5"/><path d="m161.3 134.4-.1-23.5"/><path d="m202.1 134.3-.1-23.5"/><path d="m39 112.3v-1.2l1-.5" stroke-miterlimit="10"/><path d="m58.3 99.9 1-.6 1.1.6" stroke-miterlimit="10"/><path d="m99.1 99.8 1-.6 1 .6" stroke-miterlimit="10"/><path d="m139.8 99.7 1-.6 1.1.6" stroke-miterlimit="10"/><path d="m180.6 99.6 1-.6 1 .6" stroke-miterlimit="10"/><path d="m221.3 99.5 1-.6 1.1.6" stroke-miterlimit="10"/><path d="m241.7 110.1 1 .6v1.1" stroke-miterlimit="10"/><path d="m242.8 133v1.2l-1 .6" stroke-miterlimit="10"/><path d="m223.5 145.4-1 .6-1.1-.6" stroke-miterlimit="10"/><path d="m182.7 145.5-1 .6-1-.6" stroke-miterlimit="10"/><path d="m142 145.6-1 .6-1.1-.6" stroke-miterlimit="10"/><path d="m101.2 145.7-1 .6-1-.6" stroke-miterlimit="10"/><path d="m60.5 145.8-1 .6-1.1-.6" stroke-miterlimit="10"/></g><path d="m24.612 156.657c.763-.443.172-1.461-.591-1.018s-1.354-.574-.591-1.017.173-1.46-.59-1.017c-.763.442-1.354-.575-.591-1.018s.173-1.46-.59-1.017-1.354-.575-.591-1.018.173-1.46-.59-1.017c-.764.443-1.354-.574-.591-1.017s.172-1.461-.591-1.018-1.353-.574-.59-1.017.172-1.46-.591-1.018c-.763.443-1.353-.574-.59-1.017s.172-1.46-.591-1.017-1.354-.575-.591-1.018c.764-.443.173-1.46-.59-1.017s-1.354-.575-.591-1.017c.763-.443.173-1.461-.59-1.018s-1.354-.574-.591-1.017.173-1.461-.59-1.018-1.354-.574-.591-1.017" stroke="#7f7f7f"/></g></svg>