<svg height="256" viewBox="0 0 256 256" width="256" xmlns="http://www.w3.org/2000/svg"><path d="m0 0h256v256h-256z" fill="#fff"/><g fill="none" stroke-width="2"><path d="m164.7 224.5-36.7-21.1" stroke="#000"/><path d="m128 203.4-36.6 21.2" stroke="#000"/><path d="m121.6 199.7-30.3 17.6" stroke="#000"/><path d="m91.4 224.6-36.7-21.1" stroke="#000"/><path d="m54.7 203.5-.1-42.3" stroke="#000"/><path d="m61 199.8-.1-35" stroke="#000"/><path d="m54.6 161.2-36.7-21.1" stroke="#000"/><path d="m17.9 140.1-.1-42.3" stroke="#000"/><path d="m24.2 136.4-.1-35" stroke="#000"/><path d="m17.8 97.8 36.6-21.3" stroke="#000"/><path d="m54.4 76.5 36.7 21.1" stroke="#000"/><path d="m54.4 83.8 30.4 17.5" stroke="#000"/><path d="m91.1 97.6.1 42.3" stroke="#000"/><path d="m91.2 139.9 36.7 21.1" stroke="#000"/><path d="m91.2 147.3 30.3 17.4" stroke="#000"/><path d="m127.9 161 36.6-21.2" stroke="#000"/><path d="m164.5 139.8 36.7 21.1" stroke="#000"/><path d="m170.8 136.1 30.4 17.4" stroke="#000"/><path d="m201.2 160.9 36.6-21.3" stroke="#000"/><path d="m237.8 139.6-.1-42.3" stroke="#000"/><path d="m231.5 136-.1-35" stroke="#000"/><path d="m237.7 97.3-36.7-21.1" stroke="#000"/><path d="m201 76.2v-42.3" stroke="#000"/><path d="m194.7 72.6-.1-35" stroke="#000"/><path d="m201 33.9-36.7-21.1" stroke="#000"/><path d="m164.3 12.8-36.7 21.2" stroke="#000"/><path d="m164.3 20.1-30.3 17.6" stroke="#000"/><path d="m127.6 34 .1 42.4" stroke="#000"/><path d="m127.7 76.4 36.7 21.1" stroke="#000"/><path d="m134.1 72.7 30.3 17.4" stroke="#000"/><path d="m127.9 161 .1 42.4" stroke="#000"/><path d="m164.4 97.5.1 42.3" stroke="#000"/><path d="m164.4 97.5 36.6-21.3" stroke="#000"/><path d="m127.7 76.4-36.6 21.2" stroke="#000"/><path d="m91.2 139.9-36.6 21.3" stroke="#000"/><path d="m93.2 223.5-1.8 1.1-1.9-1.1" stroke="#000" stroke-miterlimit="10"/><path d="m56.5 204.6-1.8-1.1v-2.1" stroke="#000" stroke-miterlimit="10"/><path d="m19.7 141.1-1.8-1v-2.1" stroke="#000" stroke-miterlimit="10"/><path d="m17.8 99.9v-2.1l1.8-1.1" stroke="#000" stroke-miterlimit="10"/><path d="m52.6 77.6 1.8-1.1 1.8 1.1" stroke="#000" stroke-miterlimit="10"/><path d="m199.4 159.8 1.8 1.1 1.8-1.1" stroke="#000" stroke-miterlimit="10"/><path d="m236 140.7 1.8-1.1v-2.1" stroke="#000" stroke-miterlimit="10"/><path d="m237.7 99.4v-2.1l-1.8-1" stroke="#000" stroke-miterlimit="10"/><path d="m201 36v-2.1l-1.9-1.1" stroke="#000" stroke-miterlimit="10"/><path d="m166.1 13.9-1.8-1.1-1.9 1.1" stroke="#000" stroke-miterlimit="10"/><path d="m129.5 33-1.9 1v2.2" stroke="#000" stroke-miterlimit="10"/><path d="m175.222 206.101c-1.376-.791-2.431 1.044-1.055 1.835s.322 2.626-1.055 1.835c-1.376-.791-2.431 1.044-1.054 1.835 1.376.791.321 2.626-1.055 1.835s-2.431 1.044-1.055 1.835.321 2.626-1.055 1.835-2.431 1.044-1.055 1.835.322 2.626-1.055 1.835c-1.376-.791-2.431 1.044-1.054 1.835 1.376.791.321 2.626-1.055 1.835s-2.431 1.044-1.055 1.835.321 2.626-1.055 1.835c-1.376-.792-2.431 1.043-1.055 1.835 1.376.791.322 2.626-1.054 1.834-1.377-.791-2.431 1.044-1.055 1.835s.321 2.626-1.055 1.835-2.431 1.044-1.055 1.835.321 2.626-1.055 1.835-2.431 1.044-1.055 1.835c1.377.791.322 2.626-1.054 1.835" stroke="#7f7f7f"/></g></svg>