<svg xmlns="http://www.w3.org/2000/svg" xmlns:rdkit="http://www.rdkit.org/xml" xmlns:xlink="http://www.w3.org/1999/xlink" width="256" height="256" baseProfile="full" version="1.1" viewBox="0 0 256 256" xml:space="preserve"><rect style="opacity:1;fill:#fff;stroke:none" width="256" height="256" x="0" y="0"/><path d="M 11.6364,49.9008 L 31.0303,61.0451" class="bond-0" style="fill:none;fill-rule:evenodd;stroke:#7f7f7f;stroke-width:2px;stroke-linecap:butt;stroke-linejoin:miter;stroke-opacity:1"/><path d="M 31.0303,61.0451 L 50.4242,72.1893" class="bond-0" style="fill:none;fill-rule:evenodd;stroke:#000;stroke-width:2px;stroke-linecap:butt;stroke-linejoin:miter;stroke-opacity:1"/><path d="M 50.4242,72.1893 L 89.1226,49.7487" class="bond-1" style="fill:none;fill-rule:evenodd;stroke:#000;stroke-width:2px;stroke-linecap:butt;stroke-linejoin:miter;stroke-opacity:1"/><path d="M 60.2687,75.7895 L 87.3575,60.0811" class="bond-1" style="fill:none;fill-rule:evenodd;stroke:#000;stroke-width:2px;stroke-linecap:butt;stroke-linejoin:miter;stroke-opacity:1"/><path d="M 50.4242,72.1893 L 50.5137,116.927" class="bond-14" style="fill:none;fill-rule:evenodd;stroke:#000;stroke-width:2px;stroke-linecap:butt;stroke-linejoin:miter;stroke-opacity:1"/><path d="M 89.1226,49.7487 L 127.911,72.0372" class="bond-2" style="fill:none;fill-rule:evenodd;stroke:#000;stroke-width:2px;stroke-linecap:butt;stroke-linejoin:miter;stroke-opacity:1"/><path d="M 127.911,72.0372 L 128,116.775" class="bond-3" style="fill:none;fill-rule:evenodd;stroke:#000;stroke-width:2px;stroke-linecap:butt;stroke-linejoin:miter;stroke-opacity:1"/><path d="M 119.871,78.764 L 119.934,110.081" class="bond-3" style="fill:none;fill-rule:evenodd;stroke:#000;stroke-width:2px;stroke-linecap:butt;stroke-linejoin:miter;stroke-opacity:1"/><path d="M 128,116.775 L 89.3016,139.216" class="bond-4" style="fill:none;fill-rule:evenodd;stroke:#000;stroke-width:2px;stroke-linecap:butt;stroke-linejoin:miter;stroke-opacity:1"/><path d="M 128,116.775 L 166.788,139.064" class="bond-15" style="fill:none;fill-rule:evenodd;stroke:#000;stroke-width:2px;stroke-linecap:butt;stroke-linejoin:miter;stroke-opacity:1"/><path d="M 89.3016,139.216 L 50.5137,116.927" class="bond-5" style="fill:none;fill-rule:evenodd;stroke:#000;stroke-width:2px;stroke-linecap:butt;stroke-linejoin:miter;stroke-opacity:1"/><path d="M 87.4956,128.89 L 60.344,113.288" class="bond-5" style="fill:none;fill-rule:evenodd;stroke:#000;stroke-width:2px;stroke-linecap:butt;stroke-linejoin:miter;stroke-opacity:1"/><path d="M 89.3016,139.216 L 89.3911,183.954" class="bond-6" style="fill:none;fill-rule:evenodd;stroke:#000;stroke-width:2px;stroke-linecap:butt;stroke-linejoin:miter;stroke-opacity:1"/><path d="M 89.3911,183.954 L 128.179,206.251" class="bond-7" style="fill:none;fill-rule:evenodd;stroke:#000;stroke-width:2px;stroke-linecap:butt;stroke-linejoin:miter;stroke-opacity:1"/><path d="M 99.2226,180.317 L 126.374,195.925" class="bond-7" style="fill:none;fill-rule:evenodd;stroke:#000;stroke-width:2px;stroke-linecap:butt;stroke-linejoin:miter;stroke-opacity:1"/><path d="M 128.179,206.251 L 166.877,183.802" class="bond-8" style="fill:none;fill-rule:evenodd;stroke:#000;stroke-width:2px;stroke-linecap:butt;stroke-linejoin:miter;stroke-opacity:1"/><path d="M 166.877,183.802 L 205.665,206.09" class="bond-9" style="fill:none;fill-rule:evenodd;stroke:#000;stroke-width:2px;stroke-linecap:butt;stroke-linejoin:miter;stroke-opacity:1"/><path d="M 176.708,180.163 L 203.859,195.765" class="bond-9" style="fill:none;fill-rule:evenodd;stroke:#000;stroke-width:2px;stroke-linecap:butt;stroke-linejoin:miter;stroke-opacity:1"/><path d="M 166.877,183.802 L 166.788,139.064" class="bond-16" style="fill:none;fill-rule:evenodd;stroke:#000;stroke-width:2px;stroke-linecap:butt;stroke-linejoin:miter;stroke-opacity:1"/><path d="M 205.665,206.09 L 244.364,183.65" class="bond-10" style="fill:none;fill-rule:evenodd;stroke:#000;stroke-width:2px;stroke-linecap:butt;stroke-linejoin:miter;stroke-opacity:1"/><path d="M 244.364,183.65 L 244.274,138.912" class="bond-11" style="fill:none;fill-rule:evenodd;stroke:#000;stroke-width:2px;stroke-linecap:butt;stroke-linejoin:miter;stroke-opacity:1"/><path d="M 236.297,176.955 L 236.235,145.638" class="bond-11" style="fill:none;fill-rule:evenodd;stroke:#000;stroke-width:2px;stroke-linecap:butt;stroke-linejoin:miter;stroke-opacity:1"/><path d="M 244.274,138.912 L 205.486,116.623" class="bond-12" style="fill:none;fill-rule:evenodd;stroke:#000;stroke-width:2px;stroke-linecap:butt;stroke-linejoin:miter;stroke-opacity:1"/><path d="M 205.486,116.623 L 166.788,139.064" class="bond-13" style="fill:none;fill-rule:evenodd;stroke:#000;stroke-width:2px;stroke-linecap:butt;stroke-linejoin:miter;stroke-opacity:1"/><path d="M 203.721,126.956 L 176.632,142.664" class="bond-13" style="fill:none;fill-rule:evenodd;stroke:#000;stroke-width:2px;stroke-linecap:butt;stroke-linejoin:miter;stroke-opacity:1"/><path d="M0.491517,69.2958 C2.89538,69.6021 3.35975,68.794 1.88462,66.8714 C0.409493,64.9488 0.873862,64.1407 3.27773,64.447 C5.6816,64.7534 6.14596,63.9453 4.67083,62.0227 C3.1957,60.1001 3.66007,59.2919 6.06394,59.5983 C8.46781,59.9047 8.93218,59.0965 7.45705,57.1739 C5.98192,55.2513 6.44629,54.4432 8.85015,54.7496 C11.254,55.0559 11.7184,54.2478 10.2433,52.3252 C8.76813,50.4026 9.2325,49.5944 11.6364,49.9008 C14.0402,50.2072 14.5046,49.399 13.0295,47.4764 C11.5543,45.5538 12.0187,44.7457 14.4226,45.0521 C16.8264,45.3584 17.2908,44.5503 15.8157,42.6277 C14.3406,40.7051 14.8049,39.897 17.2088,40.2033 C19.6127,40.5097 20.077,39.7016 18.6019,37.7789 C17.1268,35.8563 17.5911,35.0482 19.995,35.3546 C22.3989,35.6609 22.8632,34.8528 21.3881,32.9302 C19.913,31.0076 20.3773,30.1995 22.7812,30.5058" style="fill:none;stroke:#7f7f7f;stroke-width:2px;stroke-linecap:butt;stroke-linejoin:miter;stroke-opacity:1"/></svg>