<svg height="256" viewBox="0 0 256 256" width="256" xmlns="http://www.w3.org/2000/svg"><path d="m0 0h256v256h-256z" fill="#fff"/><g fill="none" stroke-width="2"><path d="m23.3 63.2 36.6 21" stroke="#000"/><path d="m59.9 84.2 36.5-21.1" stroke="#000"/><path d="m66.2 87.9 30.2-17.5" stroke="#000"/><path d="m96.4 63.1 36.6 21" stroke="#000"/><path d="m133 84.1.1 42.2" stroke="#000"/><path d="m126.6 87.8.1 34.8" stroke="#000"/><path d="m133.1 126.3-36.5 21.2" stroke="#000"/><path d="m96.6 147.5-36.6-21.1" stroke="#000"/><path d="m96.5 140.1-30.2-17.3" stroke="#000"/><path d="m96.6 147.5v42.1" stroke="#000"/><path d="m96.6 189.6 36.6 21.1" stroke="#000"/><path d="m103 186 30.2 17.4" stroke="#000"/><path d="m133.2 210.7 36.5-21.2" stroke="#000"/><path d="m169.7 189.5 36.6 21" stroke="#000"/><path d="m176 185.8 30.3 17.4" stroke="#000"/><path d="m206.3 210.5 36.5-21.1" stroke="#000"/><path d="m242.8 189.4-.1-42.2" stroke="#000"/><path d="m236.5 185.7-.1-34.9" stroke="#000"/><path d="m242.7 147.2-36.6-21.1" stroke="#000"/><path d="m206.1 126.1-36.5 21.2" stroke="#000"/><path d="m206.1 133.5-30.1 17.5" stroke="#000"/><path d="m60 126.4-.1-42.2" stroke="#000"/><path d="m169.6 147.3-36.5-21" stroke="#000"/><path d="m169.6 147.3.1 42.2" stroke="#000"/><path d="m94.6 64.1 1.8-1 1.8 1" stroke="#000" stroke-miterlimit="10"/><path d="m131.1 83 1.9 1.1v2.1" stroke="#000" stroke-miterlimit="10"/><path d="m61.8 127.5-1.8-1.1v-2.1" stroke="#000" stroke-miterlimit="10"/><path d="m96.6 187.5v2.1l1.9 1.1" stroke="#000" stroke-miterlimit="10"/><path d="m131.4 209.6 1.8 1.1 1.8-1.1" stroke="#000" stroke-miterlimit="10"/><path d="m204.5 209.5 1.8 1 1.8-1" stroke="#000" stroke-miterlimit="10"/><path d="m241 190.4 1.8-1v-2.2" stroke="#000" stroke-miterlimit="10"/><path d="m242.7 149.3v-2.1l-1.8-1.1" stroke="#000" stroke-miterlimit="10"/><path d="m208 127.2-1.9-1.1-1.8 1.1" stroke="#000" stroke-miterlimit="10"/><path d="m12.8 81.509c1.372.789 2.423-1.041 1.051-1.829s-.321-2.617 1.051-1.829 2.423-1.041 1.051-1.829c-1.372-.789-.32-2.618 1.051-1.829 1.372.788 2.423-1.041 1.051-1.83-1.371-.788-.32-2.617 1.052-1.829 1.371.788 2.423-1.041 1.051-1.829s-.321-2.617 1.051-1.829 2.423-1.041 1.051-1.829c-1.372-.789-.321-2.618 1.051-1.83 1.372.789 2.423-1.04 1.051-1.829-1.372-.788-.321-2.617 1.051-1.829s2.423-1.041 1.051-1.829-.321-2.617 1.051-1.829 2.423-1.041 1.051-1.829c-1.371-.789-.32-2.618 1.051-1.83 1.372.789 2.423-1.04 1.052-1.829-1.372-.788-.321-2.617 1.051-1.829 1.371.788 2.423-1.041 1.051-1.829s-.321-2.618 1.051-1.829" stroke="#7f7f7f"/></g></svg>