<svg height="256" viewBox="0 0 256 256" width="256" xmlns="http://www.w3.org/2000/svg"><path d="m0 0h256v256h-256z" fill="#fff"/><g fill="none" stroke-width="2"><path d="m222 38.2-50.7 29.1" stroke="#000"/><path d="m171.3 67.3-.1 58.5" stroke="#000"/><path d="m162.5 72.4-.1 48.3" stroke="#000"/><path d="m171.2 125.8 50.6 29.4" stroke="#000"/><path d="m221.8 155.2-.1 58.4" stroke="#000"/><path d="m213 160.2-.1 48.4" stroke="#000"/><path d="m221.7 213.6-50.8 29.2" stroke="#000"/><path d="m170.9 242.8-50.6-29.4" stroke="#000"/><path d="m171 232.7-41.9-24.3" stroke="#000"/><path d="m120.3 213.4-50.7 29.2" stroke="#000"/><path d="m69.6 242.6-50.6-29.4" stroke="#000"/><path d="m69.6 232.5-41.8-24.3" stroke="#000"/><path d="m19 213.2.1-58.5" stroke="#000"/><path d="m19.1 154.7 50.8-29.1" stroke="#000"/><path d="m69.9 125.6 50.6 29.3" stroke="#000"/><path d="m78.6 120.6 41.9 24.2" stroke="#000"/><path d="m69.9 125.6.1-58.5" stroke="#000"/><path d="m70 67.1 50.7-29.1" stroke="#000"/><path d="m78.7 72.2 42-24.1" stroke="#000"/><path d="m120.5 154.9 50.7-29.1" stroke="#000"/><path d="m120.5 154.9-.2 58.5" stroke="#000"/><path d="m120.7 38 50.6 29.3" stroke="#000"/><path d="m219.2 153.7 2.6 1.5v2.9" stroke="#000" stroke-miterlimit="10"/><path d="m221.7 210.7v2.9l-2.6 1.5" stroke="#000" stroke-miterlimit="10"/><path d="m173.5 241.3-2.6 1.5-2.5-1.5" stroke="#000" stroke-miterlimit="10"/><path d="m72.2 241.1-2.6 1.5-2.5-1.5" stroke="#000" stroke-miterlimit="10"/><path d="m21.5 214.7-2.5-1.5v-2.9" stroke="#000" stroke-miterlimit="10"/><path d="m19.1 157.7v-3l2.6-1.4" stroke="#000" stroke-miterlimit="10"/><path d="m70 70v-2.9l2.5-1.5" stroke="#000" stroke-miterlimit="10"/><path d="m118.2 39.4 2.5-1.4 2.5 1.4" stroke="#000" stroke-miterlimit="10"/><path d="m207.436 12.8c-1.902 1.093-.445 3.629 1.457 2.536s3.359 1.443 1.457 2.536-.444 3.629 1.458 2.536 3.359 1.443 1.457 2.536-.445 3.629 1.457 2.536 3.359 1.443 1.457 2.536-.444 3.629 1.458 2.536 3.359 1.444 1.457 2.536c-1.902 1.093-.445 3.629 1.457 2.536 1.902-1.092 3.36 1.444 1.458 2.537-1.902 1.092-.445 3.629 1.457 2.536s3.359 1.443 1.457 2.536-.445 3.629 1.457 2.536 3.36 1.443 1.458 2.536-.445 3.629 1.457 2.536 3.359 1.443 1.457 2.536-.444 3.629 1.457 2.536c1.902-1.093 3.36 1.443 1.458 2.536s-.445 3.629 1.457 2.536 3.359 1.443 1.457 2.536" stroke="#7f7f7f"/></g></svg>