<svg height="256" viewBox="0 0 256 256" width="256" xmlns="http://www.w3.org/2000/svg"><path d="m0 0h256v256h-256z" fill="#fff"/><g fill="none" stroke-width="2"><g stroke="#000"><path d="m149.4 12.9.2 51"/><path d="m149.6 63.9 44.3 25.4"/><path d="m149.6 72.8 36.7 21"/><path d="m193.9 89.3.2 51.1"/><path d="m194.1 140.4 44.3 25.3"/><path d="m194.1 149.2 36.6 21"/><path d="m238.4 165.7.2 51.1"/><path d="m238.6 216.8-44.2 25.7"/><path d="m230.9 212.4-36.5 21.2"/><path d="m194.4 242.5-44.3-25.4"/><path d="m150.1 217.1-44.1 25.7"/><path d="m142.5 212.7-36.5 21.3"/><path d="m106 242.8-44.3-25.4"/><path d="m61.7 217.4-.2-51"/><path d="m69.3 213-.1-42.2"/><path d="m61.5 166.4-44.3-25.4"/><path d="m17.2 141-.2-51.1"/><path d="m24.9 136.6-.2-42.3"/><path d="m17 89.9 44.2-25.6"/><path d="m61.2 64.3 44.3 25.3"/><path d="m61.2 73.1 36.6 21"/><path d="m105.5 89.6.1 51.1"/><path d="m105.6 140.7 44.4 25.4"/><path d="m113.3 136.2 36.6 21"/><path d="m105.5 89.6 44.1-25.7"/><path d="m150 166.1 44.1-25.7"/><path d="m150 166.1.1 51"/><path d="m105.6 140.7-44.1 25.7"/><path d="m191.7 88 2.2 1.3v2.6" stroke-miterlimit="10"/><path d="m236.2 164.5 2.2 1.2v2.6" stroke-miterlimit="10"/><path d="m238.6 214.2v2.6l-2.2 1.3" stroke-miterlimit="10"/><path d="m196.7 241.2-2.3 1.3-2.2-1.3" stroke-miterlimit="10"/><path d="m108.2 241.5-2.2 1.3-2.2-1.3" stroke-miterlimit="10"/><path d="m63.9 218.7-2.2-1.3v-2.5" stroke-miterlimit="10"/><path d="m19.4 142.3-2.2-1.3v-2.5" stroke-miterlimit="10"/><path d="m17 92.5v-2.6l2.2-1.2" stroke-miterlimit="10"/><path d="m58.9 65.5 2.3-1.2 2.2 1.2" stroke-miterlimit="10"/></g><path d="m123.874 12.984c.007 1.914 2.56 1.905 2.553-.009-.007-1.915 2.546-1.924 2.553-.01.006 1.915 2.559 1.906 2.552-.009-.007-1.914 2.546-1.923 2.553-.009.007 1.915 2.56 1.905 2.553-.009-.007-1.915 2.546-1.924 2.553-.009.007 1.914 2.56 1.905 2.553-.009-.007-1.915 2.546-1.924 2.552-.01.007 1.915 2.56 1.906 2.553-.009-.007-1.914 2.546-1.924 2.553-.009s2.56 1.905 2.553-.009c-.007-1.915 2.546-1.924 2.553-.009.007 1.914 2.559 1.905 2.553-.01-.007-1.914 2.545-1.923 2.552-.009.007 1.915 2.56 1.906 2.553-.009s2.546-1.924 2.553-.009c.007 1.914 2.56 1.905 2.553-.009-.007-1.915 2.546-1.924 2.553-.01.006 1.915 2.559 1.906 2.552-.009-.006-1.914 2.546-1.924 2.553-.009" stroke="#7f7f7f"/></g></svg>