<svg height="256" viewBox="0 0 256 256" width="256" xmlns="http://www.w3.org/2000/svg"><path d="m0 0h256v256h-256z" fill="#fff"/><g fill="none" stroke-width="2"><g stroke="#000"><path d="m213.9 77.8v33.2"/><path d="m213.9 111-28.7 16.7"/><path d="m214 116.8-23.8 13.7"/><path d="m185.2 127.7-28.7-16.5"/><path d="m156.5 111.2-28.7 16.6"/><path d="m156.5 116.9-23.8 13.8"/><path d="m127.8 127.8-28.8-16.5"/><path d="m99 111.3-28.7 16.7"/><path d="m99 117-23.7 13.8"/><path d="m70.3 128-28.8-16.6"/><path d="m41.5 111.4-28.7 16.7"/><path d="m41.5 117.2-23.7 13.8"/><path d="m12.8 128.1.1 33.2"/><path d="m12.9 161.3 28.8 16.5"/><path d="m17.9 158.4 23.7 13.7"/><path d="m41.7 177.8 28.7-16.7"/><path d="m70.4 161.1 28.7 16.6"/><path d="m75.3 158.3 23.8 13.6"/><path d="m99.1 177.7 28.7-16.7"/><path d="m127.8 161 28.8 16.5"/><path d="m132.8 158.1 23.8 13.7"/><path d="m156.6 177.5 28.7-16.6"/><path d="m185.3 160.9 28.8 16.5"/><path d="m190.3 158 23.8 13.6"/><path d="m214.1 177.4 28.7-16.7"/><path d="m242.8 160.7-.1-33.2"/><path d="m237.8 157.9-.1-27.5"/><path d="m242.7 127.5-28.8-16.5"/><path d="m185.3 160.9-.1-33.2"/><path d="m127.8 161v-33.2"/><path d="m70.4 161.1-.1-33.1"/><path d="m157.9 112-1.4-.8-1.5.8" stroke-miterlimit="10"/><path d="m100.4 112.1-1.4-.8-1.5.8" stroke-miterlimit="10"/><path d="m42.9 112.3-1.4-.9-1.4.9" stroke-miterlimit="10"/><path d="m14.2 127.3-1.4.8v1.7" stroke-miterlimit="10"/><path d="m12.9 159.6v1.7l1.4.8" stroke-miterlimit="10"/><path d="m40.2 177 1.5.8 1.4-.8" stroke-miterlimit="10"/><path d="m97.7 176.8 1.4.9 1.5-.9" stroke-miterlimit="10"/><path d="m155.2 176.7 1.4.8 1.5-.8" stroke-miterlimit="10"/><path d="m212.7 176.6 1.4.8 1.4-.8" stroke-miterlimit="10"/><path d="m241.4 161.6 1.4-.9v-1.6" stroke-miterlimit="10"/><path d="m242.7 129.2v-1.7l-1.4-.8" stroke-miterlimit="10"/></g><path d="m197.267 77.873c.003 1.245 1.663 1.241 1.66-.004-.003-1.244 1.656-1.248 1.659-.004.003 1.245 1.662 1.241 1.659-.004-.003-1.244 1.657-1.248 1.66-.004.003 1.245 1.662 1.241 1.659-.004-.003-1.244 1.656-1.248 1.659-.004.003 1.245 1.663 1.241 1.66-.004-.003-1.244 1.656-1.248 1.659-.004.003 1.245 1.662 1.241 1.659-.003-.002-1.245 1.657-1.249 1.66-.004.003 1.244 1.662 1.24 1.659-.004-.003-1.245 1.657-1.249 1.66-.004.003 1.244 1.662 1.24 1.659-.004-.003-1.245 1.656-1.249 1.659-.004.003 1.244 1.663 1.24 1.66-.004-.003-1.245 1.656-1.249 1.659-.004.003 1.244 1.662 1.24 1.659-.004-.003-1.245 1.657-1.249 1.66-.004.003 1.244 1.662 1.24 1.659-.004-.003-1.245 1.656-1.249 1.659-.004" stroke="#7f7f7f"/></g></svg>