<svg xmlns="http://www.w3.org/2000/svg" xmlns:rdkit="http://www.rdkit.org/xml" xmlns:xlink="http://www.w3.org/1999/xlink" width="256" height="256" baseProfile="full" version="1.1" viewBox="0 0 256 256" xml:space="preserve"><rect style="opacity:1;fill:#fff;stroke:none" width="256" height="256" x="0" y="0"/><path d="M 215.081,77.4208 L 215.122,94.2112" class="bond-0" style="fill:none;fill-rule:evenodd;stroke:#7f7f7f;stroke-width:2px;stroke-linecap:butt;stroke-linejoin:miter;stroke-opacity:1"/><path d="M 215.122,94.2112 L 215.162,111.001" class="bond-0" style="fill:none;fill-rule:evenodd;stroke:#000;stroke-width:2px;stroke-linecap:butt;stroke-linejoin:miter;stroke-opacity:1"/><path d="M 215.162,111.001 L 186.121,127.859" class="bond-1" style="fill:none;fill-rule:evenodd;stroke:#000;stroke-width:2px;stroke-linecap:butt;stroke-linejoin:miter;stroke-opacity:1"/><path d="M 213.84,118.758 L 193.512,130.558" class="bond-1" style="fill:none;fill-rule:evenodd;stroke:#000;stroke-width:2px;stroke-linecap:butt;stroke-linejoin:miter;stroke-opacity:1"/><path d="M 215.162,111.001 L 244.283,127.718" class="bond-18" style="fill:none;fill-rule:evenodd;stroke:#000;stroke-width:2px;stroke-linecap:butt;stroke-linejoin:miter;stroke-opacity:1"/><path d="M 186.121,127.859 L 157,111.136" class="bond-2" style="fill:none;fill-rule:evenodd;stroke:#000;stroke-width:2px;stroke-linecap:butt;stroke-linejoin:miter;stroke-opacity:1"/><path d="M 186.121,127.859 L 186.202,161.44" class="bond-19" style="fill:none;fill-rule:evenodd;stroke:#000;stroke-width:2px;stroke-linecap:butt;stroke-linejoin:miter;stroke-opacity:1"/><path d="M 157,111.136 L 127.96,128" class="bond-3" style="fill:none;fill-rule:evenodd;stroke:#000;stroke-width:2px;stroke-linecap:butt;stroke-linejoin:miter;stroke-opacity:1"/><path d="M 155.68,118.893 L 135.351,130.697" class="bond-3" style="fill:none;fill-rule:evenodd;stroke:#000;stroke-width:2px;stroke-linecap:butt;stroke-linejoin:miter;stroke-opacity:1"/><path d="M 127.96,128 L 98.8386,111.277" class="bond-4" style="fill:none;fill-rule:evenodd;stroke:#000;stroke-width:2px;stroke-linecap:butt;stroke-linejoin:miter;stroke-opacity:1"/><path d="M 127.96,128 L 128.04,161.581" class="bond-20" style="fill:none;fill-rule:evenodd;stroke:#000;stroke-width:2px;stroke-linecap:butt;stroke-linejoin:miter;stroke-opacity:1"/><path d="M 98.8386,111.277 L 69.798,128.134" class="bond-5" style="fill:none;fill-rule:evenodd;stroke:#000;stroke-width:2px;stroke-linecap:butt;stroke-linejoin:miter;stroke-opacity:1"/><path d="M 97.517,119.033 L 77.1886,130.833" class="bond-5" style="fill:none;fill-rule:evenodd;stroke:#000;stroke-width:2px;stroke-linecap:butt;stroke-linejoin:miter;stroke-opacity:1"/><path d="M 69.798,128.134 L 40.6769,111.418" class="bond-6" style="fill:none;fill-rule:evenodd;stroke:#000;stroke-width:2px;stroke-linecap:butt;stroke-linejoin:miter;stroke-opacity:1"/><path d="M 69.798,128.134 L 69.8786,161.715" class="bond-21" style="fill:none;fill-rule:evenodd;stroke:#000;stroke-width:2px;stroke-linecap:butt;stroke-linejoin:miter;stroke-opacity:1"/><path d="M 40.6769,111.418 L 11.6364,128.275" class="bond-7" style="fill:none;fill-rule:evenodd;stroke:#000;stroke-width:2px;stroke-linecap:butt;stroke-linejoin:miter;stroke-opacity:1"/><path d="M 39.3553,119.174 L 19.027,130.974" class="bond-7" style="fill:none;fill-rule:evenodd;stroke:#000;stroke-width:2px;stroke-linecap:butt;stroke-linejoin:miter;stroke-opacity:1"/><path d="M 11.6364,128.275 L 11.717,161.856" class="bond-8" style="fill:none;fill-rule:evenodd;stroke:#000;stroke-width:2px;stroke-linecap:butt;stroke-linejoin:miter;stroke-opacity:1"/><path d="M 11.717,161.856 L 40.8381,178.579" class="bond-9" style="fill:none;fill-rule:evenodd;stroke:#000;stroke-width:2px;stroke-linecap:butt;stroke-linejoin:miter;stroke-opacity:1"/><path d="M 19.0952,159.123 L 39.48,170.829" class="bond-9" style="fill:none;fill-rule:evenodd;stroke:#000;stroke-width:2px;stroke-linecap:butt;stroke-linejoin:miter;stroke-opacity:1"/><path d="M 40.8381,178.579 L 69.8786,161.715" class="bond-10" style="fill:none;fill-rule:evenodd;stroke:#000;stroke-width:2px;stroke-linecap:butt;stroke-linejoin:miter;stroke-opacity:1"/><path d="M 69.8786,161.715 L 98.9998,178.438" class="bond-11" style="fill:none;fill-rule:evenodd;stroke:#000;stroke-width:2px;stroke-linecap:butt;stroke-linejoin:miter;stroke-opacity:1"/><path d="M 77.2569,158.982 L 97.6417,170.688" class="bond-11" style="fill:none;fill-rule:evenodd;stroke:#000;stroke-width:2px;stroke-linecap:butt;stroke-linejoin:miter;stroke-opacity:1"/><path d="M 98.9998,178.438 L 128.04,161.581" class="bond-12" style="fill:none;fill-rule:evenodd;stroke:#000;stroke-width:2px;stroke-linecap:butt;stroke-linejoin:miter;stroke-opacity:1"/><path d="M 128.04,161.581 L 157.161,178.297" class="bond-13" style="fill:none;fill-rule:evenodd;stroke:#000;stroke-width:2px;stroke-linecap:butt;stroke-linejoin:miter;stroke-opacity:1"/><path d="M 135.418,158.846 L 155.802,170.547" class="bond-13" style="fill:none;fill-rule:evenodd;stroke:#000;stroke-width:2px;stroke-linecap:butt;stroke-linejoin:miter;stroke-opacity:1"/><path d="M 157.161,178.297 L 186.202,161.44" class="bond-14" style="fill:none;fill-rule:evenodd;stroke:#000;stroke-width:2px;stroke-linecap:butt;stroke-linejoin:miter;stroke-opacity:1"/><path d="M 186.202,161.44 L 215.323,178.163" class="bond-15" style="fill:none;fill-rule:evenodd;stroke:#000;stroke-width:2px;stroke-linecap:butt;stroke-linejoin:miter;stroke-opacity:1"/><path d="M 193.58,158.706 L 213.965,170.413" class="bond-15" style="fill:none;fill-rule:evenodd;stroke:#000;stroke-width:2px;stroke-linecap:butt;stroke-linejoin:miter;stroke-opacity:1"/><path d="M 215.323,178.163 L 244.364,161.299" class="bond-16" style="fill:none;fill-rule:evenodd;stroke:#000;stroke-width:2px;stroke-linecap:butt;stroke-linejoin:miter;stroke-opacity:1"/><path d="M 244.364,161.299 L 244.283,127.718" class="bond-17" style="fill:none;fill-rule:evenodd;stroke:#000;stroke-width:2px;stroke-linecap:butt;stroke-linejoin:miter;stroke-opacity:1"/><path d="M 238.307,156.276 L 238.251,132.77" class="bond-17" style="fill:none;fill-rule:evenodd;stroke:#000;stroke-width:2px;stroke-linecap:butt;stroke-linejoin:miter;stroke-opacity:1"/><path d="M198.291,77.4611 C198.995,79.1385 199.694,79.1368 200.39,77.4561 C201.085,75.7754 201.785,75.7737 202.489,77.4511 C203.192,79.1284 203.892,79.1267 204.587,77.446 C205.283,75.7653 205.983,75.7636 206.686,77.441 C207.39,79.1183 208.089,79.1167 208.785,77.4359 C209.481,75.7552 210.18,75.7536 210.884,77.4309 C211.587,79.1083 212.287,79.1066 212.983,77.4259 C213.678,75.7452 214.378,75.7435 215.081,77.4208 C215.785,79.0982 216.485,79.0965 217.18,77.4158 C217.876,75.7351 218.575,75.7334 219.279,77.4108 C219.983,79.0881 220.682,79.0864 221.378,77.4057 C222.073,75.725 222.773,75.7233 223.476,77.4007 C224.18,79.078 224.88,79.0764 225.575,77.3957 C226.271,75.7149 226.97,75.7133 227.674,77.3906 C228.378,79.068 229.077,79.0663 229.773,77.3856 C230.468,75.7049 231.168,75.7032 231.872,77.3805" style="fill:none;stroke:#7f7f7f;stroke-width:2px;stroke-linecap:butt;stroke-linejoin:miter;stroke-opacity:1"/></svg>