<svg height="256" viewBox="0 0 256 256" width="256" xmlns="http://www.w3.org/2000/svg"><path d="m0 0h256v256h-256z" fill="#fff"/><path d="m37.3 127.8h111.5" fill="none" stroke="#000" stroke-width="2"/><path d="m37.27 191.226c4.756 0 4.756-6.343 0-6.343-4.757 0-4.757-6.342 0-6.342 4.756 0 4.756-6.343 0-6.343-4.757 0-4.757-6.343 0-6.343 4.756 0 4.756-6.342 0-6.342-4.757 0-4.757-6.343 0-6.343 4.756 0 4.756-6.342 0-6.342-4.757 0-4.757-6.343 0-6.343 4.756 0 4.756-6.342 0-6.342-4.757 0-4.757-6.343 0-6.343 4.756 0 4.756-6.343 0-6.343-4.757 0-4.757-6.342 0-6.342 4.756 0 4.756-6.343 0-6.343-4.757 0-4.757-6.342 0-6.342 4.756 0 4.756-6.343 0-6.343-4.757 0-4.757-6.342 0-6.342 4.756 0 4.756-6.343 0-6.343-4.757 0-4.757-6.342 0-6.342 4.756 0 4.756-6.343 0-6.343-4.757 0-4.757-6.343 0-6.343" fill="none" stroke="#7f7f7f" stroke-width="2"/><g font-family="sans-serif"><text font-size="40" x="153" y="147.8">P</text><text font-size="40" x="178.5" y="147.8">H</text><text font-size="26" x="206.1" y="163.8">2</text></g></svg>