<svg xmlns="http://www.w3.org/2000/svg" xmlns:rdkit="http://www.rdkit.org/xml" xmlns:xlink="http://www.w3.org/1999/xlink" width="256" height="256" baseProfile="full" version="1.1" viewBox="0 0 256 256" xml:space="preserve"><rect style="opacity:1;fill:#fff;stroke:none" width="256" height="256" x="0" y="0"/><path d="M 11.6364,53.9543 L 27.5102,81.171" class="bond-0" style="fill:none;fill-rule:evenodd;stroke:#7f7f7f;stroke-width:3px;stroke-linecap:butt;stroke-linejoin:miter;stroke-opacity:1"/><path d="M 27.5102,81.171 L 43.384,108.388" class="bond-0" style="fill:none;fill-rule:evenodd;stroke:red;stroke-width:3px;stroke-linecap:butt;stroke-linejoin:miter;stroke-opacity:1"/><path d="M 73.7282,128.302 L 99.4662,128.183" class="bond-1" style="fill:none;fill-rule:evenodd;stroke:red;stroke-width:3px;stroke-linecap:butt;stroke-linejoin:miter;stroke-opacity:1"/><path d="M 99.4662,128.183 L 125.204,128.065" class="bond-1" style="fill:none;fill-rule:evenodd;stroke:#ff7f00;stroke-width:3px;stroke-linecap:butt;stroke-linejoin:miter;stroke-opacity:1"/><path d="M 157.267,135.676 L 183.005,135.563" class="bond-2" style="fill:none;fill-rule:evenodd;stroke:#ff7f00;stroke-width:3px;stroke-linecap:butt;stroke-linejoin:miter;stroke-opacity:1"/><path d="M 183.005,135.563 L 208.743,135.45" class="bond-2" style="fill:none;fill-rule:evenodd;stroke:red;stroke-width:3px;stroke-linecap:butt;stroke-linejoin:miter;stroke-opacity:1"/><path d="M 157.199,120.166 L 182.937,120.052" class="bond-2" style="fill:none;fill-rule:evenodd;stroke:#ff7f00;stroke-width:3px;stroke-linecap:butt;stroke-linejoin:miter;stroke-opacity:1"/><path d="M 182.937,120.052 L 208.675,119.939" class="bond-2" style="fill:none;fill-rule:evenodd;stroke:red;stroke-width:3px;stroke-linecap:butt;stroke-linejoin:miter;stroke-opacity:1"/><path d="M 141.307,147.991 L 141.408,171.076" class="bond-3" style="fill:none;fill-rule:evenodd;stroke:#ff7f00;stroke-width:3px;stroke-linecap:butt;stroke-linejoin:miter;stroke-opacity:1"/><path d="M 141.408,171.076 L 141.51,194.161" class="bond-3" style="fill:none;fill-rule:evenodd;stroke:red;stroke-width:3px;stroke-linecap:butt;stroke-linejoin:miter;stroke-opacity:1"/><path d="M 141.131,107.991 L 141.029,84.9151" class="bond-4" style="fill:none;fill-rule:evenodd;stroke:#ff7f00;stroke-width:3px;stroke-linecap:butt;stroke-linejoin:miter;stroke-opacity:1"/><path d="M 141.029,84.9151 L 140.927,61.8388" class="bond-4" style="fill:none;fill-rule:evenodd;stroke:red;stroke-width:3px;stroke-linecap:butt;stroke-linejoin:miter;stroke-opacity:1"/><path d="M-25.581,75.6608 C-21.8597,78.4781 -20.3089,77.5737 -20.9289,72.9475 C-21.5488,68.3213 -19.9981,67.4169 -16.2767,70.2342 C-12.5553,73.0515 -11.0046,72.147 -11.6245,67.5209 C-12.2444,62.8947 -10.6937,61.9902 -6.97234,64.8075 C-3.25096,67.6248 -1.70023,66.7204 -2.32016,62.0942 C-2.9401,57.468 -1.38937,56.5636 2.33201,59.3809 C6.05339,62.1982 7.60412,61.2938 6.98419,56.6676 C6.36426,52.0414 7.91498,51.137 11.6364,53.9543 C15.3577,56.7716 16.9085,55.8671 16.2885,51.2409 C15.6686,46.6148 17.2193,45.7103 20.9407,48.5276 C24.6621,51.3449 26.2128,50.4405 25.5929,45.8143 C24.973,41.1881 26.5237,40.2837 30.2451,43.101 C33.9664,45.9183 35.5172,45.0138 34.8972,40.3877 C34.2773,35.7615 35.828,34.857 39.5494,37.6743 C43.2708,40.4916 44.8215,39.5872 44.2016,34.961 C43.5817,30.3348 45.1324,29.4304 48.8538,32.2477" style="fill:none;stroke:#7f7f7f;stroke-width:3px;stroke-linecap:butt;stroke-linejoin:miter;stroke-opacity:1"/><text x="69.728" y="134.388" dominant-baseline="central" text-anchor="end" style="font-size:40px;font-style:normal;font-weight:700;fill-opacity:1;stroke:none;font-family:sans-serif;fill:red"><tspan>O</tspan></text><text x="141.219" y="133.991" dominant-baseline="central" text-anchor="middle" style="font-size:40px;font-style:normal;font-weight:700;fill-opacity:1;stroke:none;font-family:sans-serif;fill:#ff7f00"><tspan>P</tspan></text><text x="212.709" y="133.612" dominant-baseline="central" text-anchor="start" style="font-size:40px;font-style:normal;font-weight:700;fill-opacity:1;stroke:none;font-family:sans-serif;fill:red"><tspan>O</tspan></text><text x="126.918" y="220.161" dominant-baseline="central" text-anchor="start" style="font-size:40px;font-style:normal;font-weight:700;fill-opacity:1;stroke:none;font-family:sans-serif;fill:red"><tspan>OH</tspan></text><text x="126.16" y="47.839" dominant-baseline="central" text-anchor="start" style="font-size:40px;font-style:normal;font-weight:700;fill-opacity:1;stroke:none;font-family:sans-serif;fill:red"><tspan>OH</tspan></text></svg>