<svg xmlns="http://www.w3.org/2000/svg" xmlns:rdkit="http://www.rdkit.org/xml" xmlns:xlink="http://www.w3.org/1999/xlink" width="256" height="256" baseProfile="full" version="1.1" viewBox="0 0 256 256" xml:space="preserve"><rect style="opacity:1;fill:#fff;stroke:none" width="256" height="256" x="0" y="0"/><path d="M 11.6364,128 L 90.892,128" class="bond-0" style="fill:none;fill-rule:evenodd;stroke:#7f7f7f;stroke-width:6px;stroke-linecap:butt;stroke-linejoin:miter;stroke-opacity:1"/><path d="M 90.892,128 L 170.148,128" class="bond-0" style="fill:none;fill-rule:evenodd;stroke:#ff7f00;stroke-width:6px;stroke-linecap:butt;stroke-linejoin:miter;stroke-opacity:1"/><path d="M11.6364,215.263 C20.3626,211.627 20.3626,207.991 11.6364,204.355 C2.91008,200.719 2.91008,197.083 11.6364,193.447 C20.3626,189.811 20.3626,186.175 11.6364,182.539 C2.91008,178.903 2.91008,175.267 11.6364,171.631 C20.3626,167.995 20.3626,164.359 11.6364,160.724 C2.91008,157.088 2.91008,153.452 11.6364,149.816 C20.3626,146.18 20.3626,142.544 11.6364,138.908 C2.91008,135.272 2.91008,131.636 11.6364,128 C20.3626,124.364 20.3626,120.728 11.6364,117.092 C2.91008,113.456 2.91008,109.82 11.6364,106.184 C20.3626,102.548 20.3626,98.9124 11.6364,95.2765 C2.91008,91.6405 2.91008,88.0046 11.6364,84.3686 C20.3626,80.7327 20.3626,77.0967 11.6364,73.4608 C2.91008,69.8248 2.91008,66.1889 11.6364,62.5529 C20.3626,58.917 20.3626,55.281 11.6364,51.6451 C2.91008,48.0091 2.91008,44.3732 11.6364,40.7372" style="fill:none;stroke:#7f7f7f;stroke-width:6px;stroke-linecap:butt;stroke-linejoin:miter;stroke-opacity:1"/><text x="174.548" y="134.6" dominant-baseline="central" text-anchor="start" style="font-size:40px;font-style:normal;font-weight:700;fill-opacity:1;stroke:none;font-family:sans-serif;fill:#ff7f00"><tspan>PH</tspan><tspan style="baseline-shift:sub;font-size:30px">2</tspan></text></svg>