<svg height="256" viewBox="0 0 256 256" width="256" xmlns="http://www.w3.org/2000/svg"><path d="m0 0h256v256h-256z" fill="#fff"/><g fill="none" stroke-width="2"><g stroke="#000"><path d="m64.3 181.9 48.4-48.8"/><path d="m147.3 107.7 33.6-33.9"/><path d="m137.7 98.2 33.6-33.9"/><path d="m112.7 103.1-34.1-33.7"/><path d="m142.6 132.8 34.1 33.7"/></g><path d="m96.266 213.649c2.378-2.4-.822-5.57-3.2-3.171-2.377 2.4-5.577-.77-3.2-3.17 2.378-2.4-.822-5.57-3.2-3.17-2.377 2.4-5.577-.77-3.199-3.17 2.377-2.4-.823-5.57-3.2-3.17-2.378 2.4-5.578-.77-3.2-3.17 2.377-2.4-.822-5.57-3.2-3.171-2.378 2.4-5.578-.77-3.2-3.17s-.822-5.57-3.2-3.17c-2.377 2.4-5.577-.77-3.2-3.17 2.378-2.4-.822-5.57-3.2-3.17-2.377 2.4-5.577-.77-3.2-3.17 2.378-2.4-.822-5.57-3.199-3.17-2.378 2.399-5.578-.771-3.2-3.171 2.377-2.4-.823-5.57-3.2-3.17-2.378 2.4-5.578-.77-3.2-3.17s-.822-5.57-3.2-3.17-5.577-.77-3.2-3.17c2.378-2.4-.822-5.57-3.2-3.17-2.377 2.4-5.577-.771-3.2-3.171" stroke="#7f7f7f"/></g><g font-family="sans-serif" font-size="40"><text x="115.7" y="137.9">P</text><text x="179.1" y="74">O</text><text x="26.1" y="74.5">H</text><text x="51.7" y="74.5">O</text><text x="179.7" y="201.4">O</text><text x="207.3" y="201.4">H</text></g></svg>