<svg xmlns="http://www.w3.org/2000/svg" xmlns:rdkit="http://www.rdkit.org/xml" xmlns:xlink="http://www.w3.org/1999/xlink" width="256" height="256" baseProfile="full" version="1.1" viewBox="0 0 256 256" xml:space="preserve"><rect style="opacity:1;fill:#fff;stroke:none" width="256" height="256" x="0" y="0"/><path d="M 218.459,244.364 L 218.525,211.484" class="bond-0" style="fill:none;fill-rule:evenodd;stroke:#7f7f7f;stroke-width:3px;stroke-linecap:butt;stroke-linejoin:miter;stroke-opacity:1"/><path d="M 218.525,211.484 L 218.591,178.604" class="bond-0" style="fill:none;fill-rule:evenodd;stroke:red;stroke-width:3px;stroke-linecap:butt;stroke-linejoin:miter;stroke-opacity:1"/><path d="M 199.951,147.768 L 180.207,136.314" class="bond-1" style="fill:none;fill-rule:evenodd;stroke:red;stroke-width:3px;stroke-linecap:butt;stroke-linejoin:miter;stroke-opacity:1"/><path d="M 180.207,136.314 L 160.463,124.86" class="bond-1" style="fill:none;fill-rule:evenodd;stroke:#ff7f00;stroke-width:3px;stroke-linecap:butt;stroke-linejoin:miter;stroke-opacity:1"/><path d="M 144.489,95.5698 L 144.535,72.69" class="bond-2" style="fill:none;fill-rule:evenodd;stroke:#ff7f00;stroke-width:3px;stroke-linecap:butt;stroke-linejoin:miter;stroke-opacity:1"/><path d="M 144.535,72.69 L 144.58,49.8102" class="bond-2" style="fill:none;fill-rule:evenodd;stroke:red;stroke-width:3px;stroke-linecap:butt;stroke-linejoin:miter;stroke-opacity:1"/><path d="M 128.434,124.776 L 108.604,136.175" class="bond-3" style="fill:none;fill-rule:evenodd;stroke:#ff7f00;stroke-width:3px;stroke-linecap:butt;stroke-linejoin:miter;stroke-opacity:1"/><path d="M 108.604,136.175 L 88.7746,147.574" class="bond-3" style="fill:none;fill-rule:evenodd;stroke:red;stroke-width:3px;stroke-linecap:butt;stroke-linejoin:miter;stroke-opacity:1"/><path d="M261.339,244.449 C259.561,240.158 257.774,240.154 255.979,244.439 C254.184,248.723 252.397,248.72 250.619,244.428 C248.841,240.136 247.054,240.133 245.259,244.417 C243.464,248.702 241.677,248.698 239.899,244.407 C238.121,240.115 236.334,240.111 234.539,244.396 C232.744,248.68 230.957,248.677 229.179,244.385 C227.401,240.094 225.615,240.09 223.819,244.374 C222.024,248.659 220.237,248.655 218.459,244.364 C216.681,240.072 214.895,240.069 213.099,244.353 C211.304,248.637 209.517,248.634 207.739,244.342 C205.961,240.051 204.175,240.047 202.379,244.331 C200.584,248.616 198.798,248.612 197.019,244.321 C195.241,240.029 193.455,240.026 191.659,244.31 C189.864,248.594 188.078,248.591 186.3,244.299 C184.521,240.008 182.735,240.004 180.94,244.289 C179.144,248.573 177.358,248.569 175.58,244.278" style="fill:none;stroke:#7f7f7f;stroke-width:3px;stroke-linecap:butt;stroke-linejoin:miter;stroke-opacity:1"/><text x="203.951" y="164.604" dominant-baseline="central" text-anchor="start" style="font-size:40px;font-style:normal;font-weight:700;fill-opacity:1;stroke:none;font-family:sans-serif;fill:red"><tspan>O</tspan></text><text x="144.449" y="121.57" dominant-baseline="central" text-anchor="middle" style="font-size:40px;font-style:normal;font-weight:700;fill-opacity:1;stroke:none;font-family:sans-serif;fill:#ff7f00"><tspan>P</tspan></text><text x="129.941" y="35.81" dominant-baseline="central" text-anchor="start" style="font-size:40px;font-style:normal;font-weight:700;fill-opacity:1;stroke:none;font-family:sans-serif;fill:red"><tspan>OH</tspan></text><text x="84.775" y="164.312" dominant-baseline="central" text-anchor="end" style="font-size:40px;font-style:normal;font-weight:700;fill-opacity:1;stroke:none;font-family:sans-serif;fill:red"><tspan>HO</tspan></text></svg>