<svg xmlns="http://www.w3.org/2000/svg" xmlns:rdkit="http://www.rdkit.org/xml" xmlns:xlink="http://www.w3.org/1999/xlink" width="256" height="256" baseProfile="full" version="1.1" viewBox="0 0 256 256" xml:space="preserve"><rect style="opacity:1;fill:#fff;stroke:none" width="256" height="256" x="0" y="0"/><path d="M 61.9542,195.594 L 87.2753,170.036" class="bond-0" style="fill:none;fill-rule:evenodd;stroke:#7f7f7f;stroke-width:3px;stroke-linecap:butt;stroke-linejoin:miter;stroke-opacity:1"/><path d="M 87.2753,170.036 L 112.596,144.477" class="bond-0" style="fill:none;fill-rule:evenodd;stroke:#ff7f00;stroke-width:3px;stroke-linecap:butt;stroke-linejoin:miter;stroke-opacity:1"/><path d="M 150.681,118.147 L 166.662,102.016" class="bond-1" style="fill:none;fill-rule:evenodd;stroke:#ff7f00;stroke-width:3px;stroke-linecap:butt;stroke-linejoin:miter;stroke-opacity:1"/><path d="M 166.662,102.016 L 182.643,85.8846" class="bond-1" style="fill:none;fill-rule:evenodd;stroke:red;stroke-width:3px;stroke-linecap:butt;stroke-linejoin:miter;stroke-opacity:1"/><path d="M 138.57,106.149 L 154.551,90.0177" class="bond-1" style="fill:none;fill-rule:evenodd;stroke:#ff7f00;stroke-width:3px;stroke-linecap:butt;stroke-linejoin:miter;stroke-opacity:1"/><path d="M 154.551,90.0177 L 170.533,73.8864" class="bond-1" style="fill:none;fill-rule:evenodd;stroke:red;stroke-width:3px;stroke-linecap:butt;stroke-linejoin:miter;stroke-opacity:1"/><path d="M 112.596,112.447 L 96.3025,96.3044" class="bond-2" style="fill:none;fill-rule:evenodd;stroke:#ff7f00;stroke-width:3px;stroke-linecap:butt;stroke-linejoin:miter;stroke-opacity:1"/><path d="M 96.3025,96.3044 L 80.0086,80.1619" class="bond-2" style="fill:none;fill-rule:evenodd;stroke:red;stroke-width:3px;stroke-linecap:butt;stroke-linejoin:miter;stroke-opacity:1"/><path d="M 144.625,144.178 L 160.919,160.321" class="bond-3" style="fill:none;fill-rule:evenodd;stroke:#ff7f00;stroke-width:3px;stroke-linecap:butt;stroke-linejoin:miter;stroke-opacity:1"/><path d="M 160.919,160.321 L 177.213,176.463" class="bond-3" style="fill:none;fill-rule:evenodd;stroke:red;stroke-width:3px;stroke-linecap:butt;stroke-linejoin:miter;stroke-opacity:1"/><path d="M95.595,228.922 C97.5261,224.17 96.1244,222.781 91.3899,224.756 C86.6554,226.732 85.2537,225.343 87.1848,220.59 C89.1159,215.838 87.7142,214.449 82.9797,216.424 C78.2452,218.4 76.8435,217.011 78.7746,212.258 C80.7057,207.506 79.304,206.117 74.5695,208.092 C69.835,210.068 68.4333,208.679 70.3644,203.926 C72.2955,199.174 70.8938,197.785 66.1593,199.76 C61.4248,201.736 60.0231,200.347 61.9542,195.594 C63.8853,190.841 62.4836,189.453 57.7491,191.428 C53.0146,193.404 51.6129,192.015 53.544,187.262 C55.4751,182.509 54.0734,181.121 49.3389,183.096 C44.6044,185.072 43.2027,183.683 45.1338,178.93 C47.0649,174.177 45.6632,172.789 40.9287,174.764 C36.1942,176.739 34.7925,175.351 36.7236,170.598 C38.6548,165.845 37.2531,164.457 32.5185,166.432 C27.784,168.407 26.3823,167.019 28.3134,162.266" style="fill:none;stroke:#7f7f7f;stroke-width:3px;stroke-linecap:butt;stroke-linejoin:miter;stroke-opacity:1"/><text x="128.611" y="134.313" dominant-baseline="central" text-anchor="middle" style="font-size:40px;font-style:normal;font-weight:700;fill-opacity:1;stroke:none;font-family:sans-serif;fill:#ff7f00"><tspan>P</tspan></text><text x="180.588" y="67.031" dominant-baseline="central" text-anchor="start" style="font-size:40px;font-style:normal;font-weight:700;fill-opacity:1;stroke:none;font-family:sans-serif;fill:red"><tspan>O</tspan></text><text x="76.009" y="67.656" dominant-baseline="central" text-anchor="end" style="font-size:40px;font-style:normal;font-weight:700;fill-opacity:1;stroke:none;font-family:sans-serif;fill:red"><tspan>HO</tspan></text><text x="181.213" y="200.969" dominant-baseline="central" text-anchor="start" style="font-size:40px;font-style:normal;font-weight:700;fill-opacity:1;stroke:none;font-family:sans-serif;fill:red"><tspan>OH</tspan></text></svg>