<svg height="256" viewBox="0 0 256 256" width="256" xmlns="http://www.w3.org/2000/svg"><path d="m0 0h256v256h-256z" fill="#fff"/><g fill="none" stroke-width="2"><path d="m197.2 236.7.1-59.6" stroke="#000"/><path d="m182.7 145.9-41.8-24.3" stroke="#000"/><path d="m126.2 98.4.1-44.9" stroke="#000"/><path d="m111.5 121.6-42 24.1" stroke="#000"/><path d="m238.386 236.807c.006-3.087-4.109-3.095-4.116-.008-.006 3.087-4.121 3.078-4.115-.008.006-3.087-4.11-3.096-4.116-.009s-4.122 3.079-4.116-.008c.007-3.087-4.109-3.095-4.115-.008s-4.122 3.078-4.116-.008c.006-3.087-4.109-3.095-4.116-.009-.006 3.087-4.121 3.079-4.115-.008s-4.11-3.095-4.116-.008-4.122 3.078-4.116-.008c.007-3.087-4.109-3.095-4.115-.009-.006 3.087-4.122 3.079-4.116-.008s-4.109-3.095-4.116-.008c-.006 3.087-4.121 3.079-4.115-.008s-4.11-3.095-4.116-.009c-.006 3.087-4.122 3.079-4.116-.008.007-3.087-4.109-3.095-4.115-.008s-4.122 3.079-4.116-.008-4.109-3.095-4.115-.008c-.007 3.086-4.122 3.078-4.116-.009" stroke="#7f7f7f"/></g><g font-family="sans-serif" font-size="40"><text x="185.4" y="174.4">O</text><text x="114.2" y="133.1">P</text><text x="114.4" y="50.8">O</text><text x="142" y="50.8">H</text><text x="17.2" y="174.1">H</text><text x="42.8" y="174.1">O</text></g></svg>