<svg xmlns="http://www.w3.org/2000/svg" xmlns:rdkit="http://www.rdkit.org/xml" xmlns:xlink="http://www.w3.org/1999/xlink" width="256" height="256" baseProfile="full" version="1.1" viewBox="0 0 256 256" xml:space="preserve"><rect style="opacity:1;fill:#fff;stroke:none" width="256" height="256" x="0" y="0"/><path d="M 13.9455,30.8069 L 59.5767,76.0141" class="bond-0" style="fill:none;fill-rule:evenodd;stroke:#7f7f7f;stroke-width:6px;stroke-linecap:butt;stroke-linejoin:miter;stroke-opacity:1"/><path d="M 59.5767,76.0141 L 105.208,121.221" class="bond-0" style="fill:none;fill-rule:evenodd;stroke:#ff7f00;stroke-width:6px;stroke-linecap:butt;stroke-linejoin:miter;stroke-opacity:1"/><path d="M 146.892,130.488 L 184.017,93.0137" class="bond-1" style="fill:none;fill-rule:evenodd;stroke:#ff7f00;stroke-width:6px;stroke-linecap:butt;stroke-linejoin:miter;stroke-opacity:1"/><path d="M 184.017,93.0137 L 221.143,55.54" class="bond-1" style="fill:none;fill-rule:evenodd;stroke:#cc0;stroke-width:6px;stroke-linecap:butt;stroke-linejoin:miter;stroke-opacity:1"/><path d="M 127.582,111.357 L 164.707,73.8834" class="bond-1" style="fill:none;fill-rule:evenodd;stroke:#ff7f00;stroke-width:6px;stroke-linecap:butt;stroke-linejoin:miter;stroke-opacity:1"/><path d="M 164.707,73.8834 L 201.833,36.4096" class="bond-1" style="fill:none;fill-rule:evenodd;stroke:#cc0;stroke-width:6px;stroke-linecap:butt;stroke-linejoin:miter;stroke-opacity:1"/><path d="M 137.237,152.953 L 182.868,198.16" class="bond-2" style="fill:none;fill-rule:evenodd;stroke:#ff7f00;stroke-width:6px;stroke-linecap:butt;stroke-linejoin:miter;stroke-opacity:1"/><path d="M 182.868,198.16 L 228.499,243.367" class="bond-2" style="fill:none;fill-rule:evenodd;stroke:#000;stroke-width:6px;stroke-linecap:butt;stroke-linejoin:miter;stroke-opacity:1"/><path d="M 105.208,153.251 L 60.075,198.808" class="bond-3" style="fill:none;fill-rule:evenodd;stroke:#ff7f00;stroke-width:6px;stroke-linecap:butt;stroke-linejoin:miter;stroke-opacity:1"/><path d="M 60.075,198.808 L 14.9422,244.364" class="bond-3" style="fill:none;fill-rule:evenodd;stroke:#000;stroke-width:6px;stroke-linecap:butt;stroke-linejoin:miter;stroke-opacity:1"/><path d="M-39.1944,84.4451 C-31.6164,87.5242 -29.4023,85.2893 -32.5519,77.7404 C-35.7016,70.1914 -33.4874,67.9565 -25.9094,71.0356 C-18.3314,74.1146 -16.1173,71.8797 -19.2669,64.3308 C-22.4166,56.7819 -20.2024,54.5469 -12.6244,57.626 C-5.04645,60.7051 -2.83229,58.4701 -5.98195,50.9212 C-9.13162,43.3723 -6.91745,41.1374 0.660543,44.2164 C8.23854,47.2955 10.4527,45.0606 7.30304,37.5116 C4.15337,29.9627 6.36754,27.7278 13.9455,30.8069 C21.5235,33.8859 23.7377,31.651 20.588,24.1021 C17.4384,16.5531 19.6525,14.3182 27.2305,17.3973 C34.8085,20.4763 37.0227,18.2414 33.873,10.6925 C30.7234,3.14357 32.9375,0.90864 40.5155,3.98771 C48.0935,7.06677 50.3077,4.83185 47.158,-2.71708 C44.0083,-10.266 46.2225,-12.5009 53.8005,-9.42187 C61.3785,-6.3428 63.5927,-8.57773 60.443,-16.1267 C57.2933,-23.6756 59.5075,-25.9105 67.0855,-22.8314" style="fill:none;stroke:#7f7f7f;stroke-width:6px;stroke-linecap:butt;stroke-linejoin:miter;stroke-opacity:1"/><text x="121.222" y="143.087" dominant-baseline="central" text-anchor="middle" style="font-size:40px;font-style:normal;font-weight:700;fill-opacity:1;stroke:none;font-family:sans-serif;fill:#ff7f00"><tspan>P</tspan></text><text x="215.488" y="35.81" dominant-baseline="central" text-anchor="start" style="font-size:40px;font-style:normal;font-weight:700;fill-opacity:1;stroke:none;font-family:sans-serif;fill:#cc0"><tspan>S</tspan></text></svg>