<svg height="256" viewBox="0 0 256 256" width="256" xmlns="http://www.w3.org/2000/svg"><path d="m0 0h256v256h-256z" fill="#fff"/><path d="m72.2 69.6 39.4 39.1" fill="none" stroke="#000" stroke-width="2"/><path d="m144.5 112.5 24.5-24.7" fill="none" stroke="#000" stroke-width="2"/><path d="m136.4 104.5 24.5-24.7" fill="none" stroke="#000" stroke-width="2"/><path d="m140.6 137.4 24.9 24.7" fill="none" stroke="#000" stroke-width="2"/><path d="m111.6 137.7-24.6 24.7" fill="none" stroke="#000" stroke-width="2"/><path d="m45.452 96.575c2.022 2.002 4.692-.693 2.67-2.695-2.021-2.003.649-4.698 2.67-2.695 2.022 2.002 4.692-.693 2.671-2.695-2.022-2.003.648-4.698 2.67-2.695 2.021 2.002 4.691-.693 2.67-2.695-2.022-2.003.648-4.698 2.67-2.696 2.021 2.003 4.691-.692 2.67-2.695-2.022-2.002.648-4.697 2.67-2.695 2.021 2.003 4.691-.692 2.67-2.695-2.022-2.002.649-4.697 2.67-2.695 2.021 2.003 4.691-.692 2.67-2.695s.649-4.698 2.67-2.695c2.021 2.002 4.691-.693 2.67-2.695-2.021-2.003.649-4.698 2.67-2.695 2.021 2.002 4.691-.693 2.67-2.695-2.021-2.003.649-4.698 2.67-2.695 2.021 2.002 4.691-.693 2.67-2.695-2.021-2.003.649-4.698 2.67-2.696 2.022 2.003 4.692-.692 2.67-2.695-2.021-2.002.649-4.697 2.67-2.695" fill="none" stroke="#7f7f7f" stroke-width="2"/><g font-family="sans-serif"><text font-size="40" x="114.1" y="143">P</text><text font-size="40" x="167.5" y="89.1">S</text><text font-size="40" x="168" y="196.4">C</text><text font-size="40" x="195.6" y="196.4">H</text><text font-size="26" x="223.2" y="212.4">3</text><text font-size="40" x="20.2" y="196.9">H</text><text font-size="26" x="47.8" y="212.9">3</text><text font-size="40" x="60.7" y="196.9">C</text></g></svg>